<?xml version="1.0" encoding="utf-8"?>
<!-- Generator: Adobe Illustrator 22.0.1, SVG Export Plug-In . SVG Version: 6.00 Build 0)  -->
<svg version="1.1" id="Layer_1" xmlns="http://www.w3.org/2000/svg" xmlns:xlink="http://www.w3.org/1999/xlink" x="0px" y="0px"
	 viewBox="0 0 2754.5 480" style="enable-background:new 0 0 2754.5 480;" xml:space="preserve">
<style type="text/css">
	.st0{fill:#1E1628;}
</style>
<g>
	<polygon class="st0" points="1309.7,91 1274.7,-82 1238.7,91 1238.7,183 1211.7,183 1211.7,12 1194.7,12 1194.7,51 1150.7,51 
		1150.7,16 1150.7,12 1131.7,12 1131.7,16 1131.7,217 1078.7,217 1078.7,296 1021.7,296 1021.7,131 980.2,131 910.7,131 910.7,138 
		910.7,283 868.7,283 868.7,203 866.9,203 821.7,39.4 777.6,203 776.7,203 776.7,283 698.7,283 698.7,217 632.7,217 632.7,91 
		602.7,91 602.7,124 578.7,124 578.7,91 578.7,35 554.7,35 554.7,91 554.7,124 526.7,124 526.7,107 537.4,107 528.8,91 521.3,77.2 
		493.1,25 489.1,32.1 483.5,42 446.8,107 460.7,107 460.7,312 378.7,312 378.7,183 248.7,183 248.7,267 166.7,267 166.7,69 
		166.7,44 159.3,44 142.9,13.5 115.7,-36.9 102.6,-13.7 85.6,16.4 70.1,44 62.7,44 62.7,160 31.7,160 31.7,-9 30.1,-9 2.7,-9 
		2.7,84 -11.3,84 -11.3,-58 -45.3,-58 -45.3,480 1363.7,480 1363.7,155 1309.7,155 	"/>
	<polygon class="st0" points="2718.7,91 2683.7,-82 2647.7,91 2647.7,183 2620.7,183 2620.7,12 2603.7,12 2603.7,51 2559.7,51 
		2559.7,16 2559.7,12 2540.7,12 2540.7,16 2540.7,217 2487.7,217 2487.7,296 2430.7,296 2430.7,131 2389.2,131 2319.7,131 
		2319.7,138 2319.7,283 2277.7,283 2277.7,203 2275.9,203 2230.7,39.4 2186.6,203 2185.7,203 2185.7,283 2107.7,283 2107.7,217 
		2041.7,217 2041.7,91 2011.7,91 2011.7,124 1987.7,124 1987.7,91 1987.7,35 1963.7,35 1963.7,91 1963.7,124 1935.7,124 1935.7,107 
		1946.4,107 1937.8,91 1930.3,77.2 1902.1,25 1898.1,32.1 1892.5,42 1855.8,107 1869.7,107 1869.7,312 1787.7,312 1787.7,183 
		1657.7,183 1657.7,267 1575.7,267 1575.7,69 1575.7,44 1568.3,44 1551.9,13.5 1524.7,-36.9 1511.6,-13.7 1494.6,16.4 1479.1,44 
		1471.7,44 1471.7,160 1440.7,160 1440.7,-9 1439.1,-9 1411.7,-9 1411.7,84 1397.7,84 1397.7,-58 1363.7,-58 1363.7,480 2772.7,480 
		2772.7,155 2718.7,155 	"/>
</g>
</svg>
