<?xml version="1.0" encoding="utf-8"?>
<!-- Generator: Adobe Illustrator 22.0.1, SVG Export Plug-In . SVG Version: 6.00 Build 0)  -->
<svg version="1.1" id="Layer_1" xmlns="http://www.w3.org/2000/svg" xmlns:xlink="http://www.w3.org/1999/xlink" x="0px" y="0px"
	 viewBox="0 0 1400 980" style="enable-background:new 0 0 1400 980;" xml:space="preserve">
<style type="text/css">
	.st0{display:none;fill:#DEFFF9;}
	.st1{fill:#FFFFFF;}
	.st2{fill:#96D6C9;}
</style>
<rect x="-4" y="-1" class="st0" width="1410" height="986"/>
<g>
	<g>
		<path class="st1" d="M521.5,648.2c-17.4,0-33.2,6.3-45.5,16.8c-16.8-32-50.4-53.9-89.2-53.9c-55.6,0-100.7,45.1-100.7,100.7
			c0,50.3,36.9,92,85.1,99.5c3.2,0.8,6.4,1.2,9.6,1.2H613c24.3,0,45.5-23.3,45.5-47.6v-1.4c0-24.3-21.2-40-45.5-40h-21.7
			c0.1-1.7,0.2-3.5,0.2-5.2C591.5,679.6,560.1,648.2,521.5,648.2z"/>
		<g>
			<path class="st2" d="M521.5,644.7c-17.8,0.2-34.3,6.4-48,17.8c1.8,0.2,3.7,0.5,5.5,0.7c-18.2-34-54.2-55.9-92.9-55.6
				c-35.7,0.2-69.4,19.3-88.1,49.7c-19,30.9-20.3,70.6-3.5,102.7c8.1,15.5,20.2,28.9,34.8,38.6c14.8,9.8,33.7,17,51.6,17.3
				c34,0.6,68.1,0,102.1,0c41.9,0,83.8,0,125.7,0c6.9,0,13.5-0.5,20-3c16.7-6.6,29.6-22.5,32.6-40.2c2.7-16.1-2.6-32.1-15.7-42.2
				c-11.8-9.1-25.7-10.6-40.1-10.6c-4.7,0-9.5,0-14.2,0c1.2,1.2,2.3,2.3,3.5,3.5C597.5,681.2,563.7,645.1,521.5,644.7
				c-4.5,0-4.5,7,0,7c38.7,0.4,68.8,33.3,66.3,71.8c-0.1,1.9,1.7,3.5,3.5,3.5c9.3,0,18.9-0.8,28.1,0.4c16.6,2,32.3,13,35.1,30.3
				c2.8,17-5.8,34.8-20,44.4c-7.4,5-15.5,7-24.3,7c-36.6,0-73.3,0-109.9,0c-38.4,0-76.9,0-115.3,0c-23,0-46.1-9.5-63.2-24.8
				c-26.2-23.6-37.9-60.3-29.7-94.7C300,656.3,325.4,629,358,619c35.1-10.9,74.2-0.6,99.5,26.1c6.2,6.5,11.3,13.8,15.5,21.8
				c1.1,2.1,3.8,2.1,5.5,0.7c12.2-10.2,27.2-15.6,43-15.8C526,651.7,526,644.7,521.5,644.7z"/>
		</g>
	</g>
	<g>
		<path class="st1" d="M561.7,661.4"/>
		<g>
			<path class="st2" d="M561.7,664.9c4.5,0,4.5-7,0-7C557.2,657.9,557.2,664.9,561.7,664.9L561.7,664.9z"/>
		</g>
	</g>
	<g>
		<path class="st1" d="M432.8,623.2"/>
		<g>
			<path class="st2" d="M432.8,626.7c4.5,0,4.5-7,0-7C428.3,619.7,428.3,626.7,432.8,626.7L432.8,626.7z"/>
		</g>
	</g>
</g>
<g>
	<g>
		<path class="st1" d="M-146.3,612c6.8,0,13.3-2.6,18.9-6.4c22.9-10.6,38.7-33.9,38.7-60.8c0-36.9-29.9-66.9-66.8-66.9
			c-29.6,0-54.6,19.2-63.4,45.8c-6.6-12.8-19.9-21.5-35.3-21.5c-15,0-28.1,8.4-34.9,20.7c-6.4-23.3-27.8-40.5-53.1-40.5
			c-15.7,0-29.8,6.6-39.9,17.1c-12.5-27.3-40-46.3-72-46.3c-43.7,0-79.2,35.5-79.2,79.2c0,39.6,29,72.6,67,78.5
			c2.5,0.6,5,1.2,7.6,1.2H-146.3z"/>
		<g>
			<path class="st2" d="M-146.3,615c6.4-0.2,12.2-1.9,17.8-4.9c5.6-3,11.1-6.1,16.1-9.9c9.1-7,16.3-16.2,21-26.7
				c9.5-20.9,7.7-45.5-3.9-65.1c-11.1-18.7-30.7-30.7-52-33.6c-22.9-3.1-46.2,6.5-61.3,23.6c-6.2,7-10.8,15.4-13.8,24.2
				c2.1-0.3,4.3-0.6,6.4-0.8c-7.7-14.3-22.1-23-38.3-23.3c-15.7-0.3-30.2,9-37.9,22.4c2.1,0.3,4.3,0.6,6.4,0.8
				c-5.5-19.1-19.9-34-38.8-40.3c-21.1-7-44.7-0.3-60.1,15.4c1.8,0.2,3.7,0.5,5.5,0.7c-9.8-21-27.8-36.8-49.8-44.1
				c-21.7-7.2-46-4.3-65.9,6.7c-40.2,22.2-53.5,75-30.5,114.3c15.1,25.8,43.4,40.5,72.9,40.5c20.2,0,40.3,0,60.5,0
				c62.6,0,125.1,0,187.7,0C-184.9,615-165.6,615-146.3,615c4.5,0,4.5-7,0-7c-40.7,0-81.4,0-122,0c-57.4,0-114.8,0-172.2,0
				c-5.6,0-11.2,0-16.8,0c-15.3,0-31.3-6.6-43.3-15.9c-18.5-14.3-29-36.6-29.2-59.8c-0.2-23,10.8-44.7,28.5-59.2
				c17.6-14.4,41.7-19.4,63.7-14.7c23.2,5,42.5,21.4,52.5,42.7c1,2.1,4,2.2,5.5,0.7c13.6-13.9,33.2-19.2,51.9-14
				c17.2,4.8,30.4,18.9,35.2,35.8c0.8,2.9,4.9,3.5,6.4,0.8c14.3-25.2,50.4-24.6,64.1,0.8c1.5,2.8,5.5,1.9,6.4-0.8
				c7.3-21.2,24.9-36.8,46.6-41.8c21.6-5,44.4,2.7,59.6,18.5c15.6,16.2,20.7,40,14.6,61.4c-3.1,10.9-9.4,20.5-17.6,28.3
				c-4.2,4-9.1,7.3-14.3,10c-6.5,3.4-12.1,6.8-19.7,7C-150.8,608.1-150.8,615.1-146.3,615z"/>
		</g>
	</g>
	<g>
		<path class="st1" d="M-192.3,489.2c-18,11.8-28.5,30.9-30,50.8"/>
		<g>
			<path class="st2" d="M-194,486.2c-18.4,12.4-29.8,31.8-31.7,53.8c-0.4,4.5,6.6,4.5,7,0c1.7-19.5,12.1-36.9,28.3-47.8
				C-186.8,489.7-190.3,483.6-194,486.2L-194,486.2z"/>
		</g>
	</g>
	<g>
		<path class="st1" d="M-374.1,540c2.5-29.9-12.3-60-40.2-75.6"/>
		<g>
			<path class="st2" d="M-370.6,540c2.3-32.1-14.1-62.6-41.9-78.6c-3.9-2.2-7.4,3.8-3.5,6c25.9,14.8,40.6,42.9,38.5,72.6
				C-377.9,544.5-370.9,544.5-370.6,540L-370.6,540z"/>
		</g>
	</g>
</g>
<g>
	<g>
		<path class="st1" d="M1131.5,434.8c-29.6,0-54.6,19.2-63.4,45.8c-6.6-12.8-19.9-21.5-35.3-21.5c-15,0-28.1,8.4-34.9,20.7
			c-6.4-23.3-27.8-40.5-53.1-40.5c-15.7,0-29.8,6.6-39.9,17.1c-12.5-27.3-40-46.3-72-46.3c-43.7,0-79.2,35.5-79.2,79.2
			c0,39.6,29,72.6,67,78.5c2.5,0.6,5,1.2,7.6,1.2h312.5c6.8,0,13.3-2.6,18.9-6.4c22.9-10.6,38.7-33.9,38.7-60.8
			C1198.3,464.9,1168.4,434.8,1131.5,434.8z"/>
		<g>
			<path class="st2" d="M1131.5,431.3c-30.4,0.3-57,19.7-66.8,48.4c2.1-0.3,4.3-0.6,6.4-0.8c-7.7-14.3-22.1-23-38.3-23.3
				c-15.7-0.3-30.2,9-37.9,22.4c2.1,0.3,4.3,0.6,6.4,0.8c-5.5-19.1-19.9-34-38.8-40.3c-21.1-7-44.7-0.3-60.1,15.4
				c1.8,0.2,3.7,0.5,5.5,0.7c-9.8-21-27.8-36.8-49.8-44.1c-21.7-7.2-46-4.3-65.9,6.7c-40.2,22.2-53.5,75-30.5,114.3
				c15.1,25.8,43.4,40.5,72.9,40.5c20.2,0,40.3,0,60.5,0c62.6,0,125.1,0,187.7,0c18.2,0,36.3,0,54.5,0c1.1,0,2.2,0,3.4,0
				c10.8,0,20.6-5.8,29.4-11.5c19.9-12.8,31.5-35.4,31.8-58.8C1202.2,463,1169.4,431.7,1131.5,431.3c-4.5,0-4.5,7,0,7
				c23.2,0.2,44.2,12.7,55.6,32.9c12.1,21.4,9.6,48.3-4.5,68c-7.4,10.4-18,16.7-29,22.7c-4.4,2.3-9.2,3.1-14.1,3.1
				c-5.5,0-11,0-16.5,0c-57.2,0-114.5,0-171.7,0c-41,0-82,0-123,0c-11.5,0-23.9-4.8-33.7-10.4c-9.8-5.7-18.2-13.8-24.6-23.2
				c-13.2-19.5-16-44.4-8.7-66.7c7.1-21.5,24.6-38.8,45.7-46.6c22.8-8.4,48.5-4.7,68.6,8.7c11.5,7.7,20.4,18.9,26.3,31.4
				c1,2.1,4,2.2,5.5,0.7c13.6-13.9,33.2-19.2,51.9-14c17.2,4.8,30.4,18.9,35.2,35.8c0.8,2.9,4.9,3.5,6.4,0.8
				c14.3-25.2,50.4-24.6,64.1,0.8c1.5,2.8,5.5,1.9,6.4-0.8c8.8-25.7,32.9-42.9,60.1-43.2C1136,438.3,1136,431.3,1131.5,431.3z"/>
		</g>
	</g>
	<g>
		<path class="st1" d="M1096.3,445.4"/>
		<g>
			<path class="st2" d="M1096.3,448.9c4.5,0,4.5-7,0-7C1091.8,441.9,1091.8,448.9,1096.3,448.9L1096.3,448.9z"/>
		</g>
	</g>
	<g>
		<path class="st1" d="M870.7,419.5"/>
		<g>
			<path class="st2" d="M870.7,423c4.5,0,4.5-7,0-7C866.2,416,866.2,423,870.7,423L870.7,423z"/>
		</g>
	</g>
</g>
<g>
	<g>
		<path class="st1" d="M1503.7-241h-4.7c2.5-10,3.2-20.2,1.8-30.7c-5.9-43.3-45.8-73.8-89.2-67.9c-30.2,4.1-54,24.7-63.8,51.4
			c-10.6-6.9-23.7-9.9-37.2-8c-27.8,3.8-47.9,27.2-47.6,55.2h-4.8c-19.1,0-38.1,11.8-38.1,31v1.1c0,19.1,19,38,38.1,38h245.5
			c19.1,0,35.3-18.8,35.3-38v-1.1C1539-229.2,1522.8-241,1503.7-241z"/>
		<g>
			<path class="st2" d="M1503.7-245c-1.6,0-3.2,0-4.7,0c1.1,1.5,2.2,3,3.4,4.4c10.6-43.3-14.5-87.4-57.2-100.1
				c-41.6-12.4-85.8,11.5-100.7,51.6c1.7-0.7,3.4-1.4,5.1-2.1c-19.6-12.2-44.3-12.1-63.7,0.3c-16.6,10.7-26.4,29.8-26.5,49.4
				c1.2-1.2,2.3-2.3,3.5-3.5c-9.3,0-17.9,1-26.4,5.2c-9.4,4.6-16.6,13.2-18.9,23.5c-4.9,22.2,14,44.5,35.4,48
				c5.1,0.8,10.5,0.4,15.6,0.4c10.2,0,20.5,0,30.7,0c59.8,0,119.5,0,179.3,0c12.1,0,27.5,2.1,38.9-2.9c16.7-7.3,27.9-25.8,25.1-44.1
				C1539.7-234.1,1521.8-244.7,1503.7-245c-4.5-0.1-4.5,6.9,0,7c11.5,0.2,22.7,4.8,28.9,14.8c6.1,9.9,3.7,22.9-2.1,32.3
				c-6.8,11.2-18.3,15.9-30.8,15.9c-21.4,0-42.7,0-64.1,0c-56.3,0-112.7,0-169,0c-2.6,0-5.2,0-7.8,0c-10.1,0-18.9-4.9-25.7-12.1
				c-9.7-10.3-12.8-26.9-3.6-38.5c8.2-10.3,21.1-12.4,33.4-12.4c1.9,0,3.5-1.6,3.5-3.5c0.1-17.4,8.6-33.5,23-43.3
				c17-11.5,39.4-11.1,56.6-0.3c2.1,1.3,4.4,0,5.1-2.1c13.8-37,54.2-57.3,92.1-46.7c39.1,11,61.9,52.5,52.3,91.5
				c-0.5,2.2,1.1,4.4,3.4,4.4c1.6,0,3.2,0,4.7,0C1508.2-238,1508.2-245,1503.7-245z"/>
		</g>
	</g>
	<g>
		<path class="st1" d="M1491.3-218.3c4.8-8.8,8-18.5,9.1-29.1"/>
		<g>
			<path class="st2" d="M1494.3-216.5c5.2-9.7,8.3-19.9,9.6-30.8c0.5-4.5-6.5-4.4-7,0c-1.2,9.6-4.1,18.8-8.7,27.3
				C1486.1-216,1492.2-212.5,1494.3-216.5L1494.3-216.5z"/>
		</g>
	</g>
	<g>
		<path class="st1" d="M1281.3-282.2c-20.5,19.2-23,50.3-7.1,72.4"/>
		<g>
			<path class="st2" d="M1278.8-284.7c-21,20.2-24.3,52.8-7.6,76.6c2.6,3.7,8.6,0.2,6-3.5c-15-21.4-12.4-50,6.5-68.2
				C1287-282.8,1282-287.8,1278.8-284.7L1278.8-284.7z"/>
		</g>
	</g>
</g>
<g>
	<g>
		<path class="st1" d="M182.1-57.9c2.6,0.4,5.3,0.9,8,0.9h304.5c19.1,0,35.3-18.8,35.3-38V-96c0-19.1-16.2-31-35.3-31h-4.7
			c2.5-10,3.2-20.2,1.8-30.7c-5.9-43.3-45.8-73.8-89.2-67.9c-30.2,4.1-54,24.7-63.8,51.4c-10.6-6.9-23.7-10.1-37.2-8.3
			c-21.1,2.9-37.8,17.3-44.5,36.1c-5.2-1.5-10.8-2-16.4-1.2c-6.4,0.9-12.2,3.2-17.2,6.6c-10.9-18.5-32.2-29.7-54.9-26.6
			c-30.2,4.1-51.3,32-47.2,62.2C125.5-75.6,152.5-54.6,182.1-57.9z"/>
		<g>
			<path class="st2" d="M181.2-54.8c13.8,2,28.4,0.8,42.3,0.8c28.2,0,56.5,0,84.7,0c56.9,0,113.8,0,170.7,0c4.6,0,9.1,0,13.7,0
				c9.8,0,18.4-3.1,26-9.2c14-11.3,19.6-32.1,11.5-48.4c-7.6-15.2-24.7-19.4-40.2-19.4c1.1,1.5,2.2,3,3.4,4.4
				c10.6-43.3-14.5-87.4-57.2-100.1c-41.6-12.4-85.8,11.5-100.7,51.6c1.7-0.7,3.4-1.4,5.1-2.1c-32-19.9-73.8-5.1-86.8,30
				c1.4-0.8,2.9-1.6,4.3-2.4c-12.6-3.3-25.5-1.3-36.3,5.8c1.6,0.4,3.2,0.8,4.8,1.3c-11.6-19-32.6-30.1-54.8-28.6
				c-21,1.4-39.7,14.7-48.7,33.5c-9.1,19.1-6.7,42.2,5.6,59.3c12.1,16.9,32.9,25.9,53.6,23.9c4.4-0.4,4.5-7.4,0-7
				c-18,1.8-34.9-5.2-46.5-19c-12-14.4-14.1-34.9-7.3-52c6.8-17.3,23.6-29.3,41.8-31.5c20.2-2.5,39.9,7.9,50.3,25
				c1,1.6,3.2,2.3,4.8,1.3c9.4-6.1,20.1-7.9,30.9-5.1c2,0.5,3.6-0.6,4.3-2.4c11.5-31,48.6-43.2,76.6-25.8c2.1,1.3,4.4,0,5.1-2.1
				c13.8-37,54.2-57.3,92.1-46.7c39.1,11,61.9,52.5,52.3,91.5c-0.5,2.2,1.1,4.4,3.4,4.4c9.7,0,18.5,1.1,26.6,6.9
				c9.4,6.7,12,18.7,9.6,29.5C522.6-72.3,508.6-61,493-61c-16.8,0-33.5,0-50.3,0c-62.3,0-124.6,0-186.9,0c-16,0-32,0-48,0
				c-8.1,0-16.7,0.7-24.8-0.5C178.6-62.1,176.7-55.4,181.2-54.8z"/>
		</g>
	</g>
	<g>
		<path class="st1" d="M506.3-125.6c-13.6-4.6-26.6,0.8-34.8,11.5"/>
		<g>
			<path class="st2" d="M507.2-129c-14.5-4.5-28.8,0.8-38.2,12.4c-2.8,3.5,2.1,8.5,5,5c7.9-9.8,19.1-14.5,31.4-10.6
				C509.7-120.9,511.5-127.7,507.2-129L507.2-129z"/>
		</g>
	</g>
	<g>
		<path class="st1" d="M268.4-164.6c-9.7,11-14.2,24.7-13.8,38.3"/>
		<g>
			<path class="st2" d="M265.9-167.1c-9.9,11.5-15.1,25.6-14.8,40.7c0.1,4.5,7.1,4.5,7,0c-0.2-13.3,4.1-25.7,12.8-35.8
				C273.8-165.5,268.8-170.5,265.9-167.1L265.9-167.1z"/>
		</g>
	</g>
	<g>
		<path class="st1" d="M345.9-187.9c-8.9,15.3-12,32.4-10.1,48.7"/>
		<g>
			<path class="st2" d="M342.8-189.7c-8.7,15.4-12.5,32.8-10.6,50.5c0.5,4.4,7.5,4.5,7,0c-1.7-16.5,1.5-32.5,9.6-47
				C351.1-190.1,345.1-193.6,342.8-189.7L342.8-189.7z"/>
		</g>
	</g>
	<g>
		<path class="st1" d="M228.8-112.3c0.8-15-4.4-30.2-15.8-41.7"/>
		<g>
			<path class="st2" d="M232.3-112.3c0.7-16.6-5.4-32.2-16.8-44.2c-3.1-3.3-8.1,1.7-5,5c10.2,10.7,15.4,24.5,14.8,39.3
				C225.1-107.8,232.1-107.8,232.3-112.3L232.3-112.3z"/>
		</g>
	</g>
</g>
<g>
	<g>
		<path class="st1" d="M241.1,348h373.5c19.1,0,35.3-18.8,35.3-38V309c0-19.1-16.2-31-35.3-31h-1.6c3.1-10,4.2-20.4,2.7-31.1
			c-5.2-38.3-40.5-65.3-78.9-60.1c-26.5,3.6-47.5,21.5-56.2,44.9c-11.6-15.2-30.9-23.9-51.2-21.1c-8,1.1-15.3,3.8-21.7,7.8
			c-10.8-40.7-50.4-67.9-93.2-62.1c-46.3,6.3-78.7,49.2-72.4,95.5c1.3,9.3,4,18.2,7.9,26.2h-9c-19.1,0-38.1,11.8-38.1,31v1.1
			C203,329.2,219.3,348,241.1,348z"/>
		<g>
			<path class="st2" d="M241.1,351c36.2,0,72.4,0,108.6,0c63.4,0,126.9,0,190.3,0c20.8,0,41.6,0,62.3,0c4,0,7.9,0,11.9,0
				c18.1,0,33.1-13.7,38.2-30.4c3.6-11.8,1-24.7-7.1-34c-8-9.2-20.6-12.6-32.3-12.6c1.1,1.5,2.2,3,3.4,4.4
				c11.9-38.7-9.4-79.7-47.7-92.4c-37.3-12.4-77.6,8.8-91.4,44.7c2-0.5,3.9-1,5.8-1.5c-18.5-23.4-51.6-29.2-77.1-13.8
				c1.7,0.7,3.4,1.4,5.1,2.1c-12.4-45.4-58.5-73.1-104.4-63.3c-44.2,9.4-74.5,53.9-68,98.4c1.4,9.4,4.2,18.3,8.3,26.8
				c1-1.8,2-3.5,3-5.3c-9.4,0-18.5,0-27.4,3.7c-10.9,4.5-19.6,13.3-22.1,25C195.2,327.6,216.9,350.5,241.1,351c4.5,0.1,4.5-6.9,0-7
				c-20.8-0.4-38.1-19.9-33.5-40.8c2.2-10.2,11.4-17,20.8-20.2c7-2.4,14.4-2,21.7-2c2.8,0,4.1-2.9,3-5.3
				c-20.6-42.9,0.3-95.2,44.9-111.8c44.4-16.5,94,10.1,106.4,55.4c0.6,2.2,3.2,3.3,5.1,2.1c23.1-13.9,52-8.3,68.6,12.8
				c1.8,2.3,5,0.6,5.8-1.5c12.5-32.5,48.2-49.9,81.6-40.2c35.6,10.4,54.8,49.3,44,84.2c-0.7,2.2,1.2,4.4,3.4,4.4
				c10.8,0,20.9,3.2,28.1,11.5c7.6,8.7,7,22.1,2.3,31.9c-5.8,12.2-17.7,19.6-31,19.6c-15.1,0-30.1,0-45.2,0c-61.2,0-122.3,0-183.5,0
				c-46.1,0-92.2,0-138.3,0c-1.5,0-2.9,0-4.4,0C236.6,344,236.6,351,241.1,351z"/>
		</g>
	</g>
	<g>
		<path class="st1" d="M365.9,165.2"/>
		<g>
			<path class="st2" d="M365.9,168.7c4.5,0,4.5-7,0-7C361.4,161.7,361.4,168.7,365.9,168.7L365.9,168.7z"/>
		</g>
	</g>
	<g>
		<path class="st1" d="M503.6,201.9"/>
		<g>
			<path class="st2" d="M503.6,205.4c4.5,0,4.5-7,0-7C499.1,198.4,499.1,205.4,503.6,205.4L503.6,205.4z"/>
		</g>
	</g>
</g>
<g>
	<g>
		<path class="st1" d="M1322.7,1164h-6.8c2-7,2.6-13.5,1.6-20.5c-3.5-25.9-27.4-44.2-53.3-40.7c-10.6,1.4-19.8,6.2-26.9,13.2
			c-11.7-29-42-47.5-74.4-43.1c-15.5,2.1-29,9.1-39.4,19.2c-17.2-37.8-57.6-61.5-100.9-55.7c-52.8,7.2-89.8,55.8-82.6,108.6
			c0.9,6.5,2.1,12.7,4.2,18.7c-17.4,1.8-33.3,13.8-33.3,31.4v1.1c0,19.1,16.3,37.8,38.1,37.8h373.5c19.1,0,35.3-18.7,35.3-37.8v-1.1
			C1358,1176,1341.8,1164,1322.7,1164z"/>
		<g>
			<path class="st2" d="M1322.7,1160c-2.3,0-4.5,0-6.8,0c1.1,1.5,2.2,3,3.4,4.4c6.4-22.4-2.5-45.7-22.1-58.2
				c-19.7-12.5-45.8-8.7-62.4,7.2c1.9,0.5,3.9,1,5.8,1.5c-9-21.6-27.1-37.8-49.8-43.9c-24.7-6.7-51.5,1-69.9,18.5
				c1.8,0.2,3.7,0.5,5.5,0.7c-20.2-43.7-69.3-66.7-115.9-55.1c-44,10.9-74.9,52.3-75,97.2c0,10.9,2,21.9,5.5,32.3
				c1.1-1.5,2.2-3,3.4-4.4c-21.5,2.6-39.2,18.3-36.2,41.2c2.6,20.1,20.6,35.6,40.8,35.6c11.2,0,22.5,0,33.7,0
				c58.8,0,117.6,0,176.4,0c50.9,0,101.7,0,152.6,0c12.2,0,23.4-0.1,33.7-8.3c12.9-10.3,19.6-27.6,14.9-43.7
				C1355.7,1168.7,1338.6,1160.3,1322.7,1160c-4.5-0.1-4.5,6.9,0,7c11.5,0.2,22.7,4.9,28.9,15c6,9.9,3.7,22.9-2.1,32.3
				c-6.5,10.5-17.5,15.8-29.5,15.8c-15.6,0-31.2,0-46.8,0c-61.4,0-122.9,0-184.3,0c-45.4,0-90.7,0-136.1,0
				c-10.7,0-20.4-2.6-28.2-10.4c-8-8-11.6-20.4-8.6-31.4c3.3-12.4,16.7-19.5,28.6-20.9c2.1-0.3,4.2-2.1,3.4-4.4
				c-15.6-46.2,6.5-96.6,51.1-116.3c46.1-20.4,100.6,2.4,121.4,47.3c1,2.1,4,2.1,5.5,0.7c16.8-16,40.5-22.4,63.1-16.7
				c20.1,5,36.9,20,44.9,39c1,2.4,3.8,3.5,5.8,1.5c14.3-13.7,35.5-16.4,52.8-6.8c17.9,10,25.5,31.6,20,50.9
				c-0.6,2.2,1.1,4.4,3.4,4.4c2.3,0,4.5,0,6.8,0C1327.2,1167,1327.2,1160,1322.7,1160z"/>
		</g>
	</g>
	<g>
		<path class="st1" d="M1297.9,1111.8c-21.2-15.3-50.8-10.5-66.1,10.7c-6.2,8.7-9.1,18.7-8.9,28.6"/>
		<g>
			<path class="st2" d="M1299.7,1108.8c-14.4-10.1-33.4-12.3-49.6-5.2c-18.9,8.3-30.8,27-30.7,47.6c0,4.5,7,4.5,7,0
				c0-17.8,10-33.5,26-41c14.2-6.7,31.1-4.1,43.8,4.7C1299.9,1117.4,1303.4,1111.3,1299.7,1108.8L1299.7,1108.8z"/>
		</g>
	</g>
	<g>
		<path class="st1" d="M1132.1,1130.1c-1.6-41.5-30.1-78.8-72.3-89.7"/>
		<g>
			<path class="st2" d="M1135.6,1130.1c-2-43.9-32.4-81.7-74.9-93c-4.4-1.2-6.2,5.6-1.9,6.8c39.4,10.5,67.9,45.5,69.7,86.3
				C1128.8,1134.6,1135.8,1134.6,1135.6,1130.1L1135.6,1130.1z"/>
		</g>
	</g>
</g>
<g>
	<g>
		<path class="st1" d="M-241.3,733h-4.7c2.5-10,3.2-20.2,1.8-30.7c-5.9-43.3-45.8-73.8-89.2-67.9c-21.1,2.9-39.2,13.8-51.4,29.3
			c-6.6-4.8-14.6-7.7-23.4-7.7c-14.8,0-27.7,8.1-34.5,20.1c-12.3-6.8-26.8-9.8-41.7-7.8c-36.9,5-62.8,39-57.7,76
			c2.8,20.5,14.5,37.8,30.7,48.1c6.9,6.3,15.7,10.6,24.7,10.6h6.5c3.1,0,6.3,0,9.5,0h229.5c19.1,0,35.3-18.8,35.3-38V764
			C-206,744.8-222.2,733-241.3,733z"/>
		<g>
			<path class="st2" d="M-241.3,729c-1.6,0-3.2,0-4.7,0c1.1,1.5,2.2,3,3.4,4.4c9.2-37.6-8.3-76.7-42.7-94.4
				c-34.5-17.8-77.8-7.8-102,22.2c1.4-0.2,2.8-0.4,4.2-0.5c-21-14.7-49.7-8.2-62.7,13.7c1.6-0.4,3.2-0.8,4.8-1.3
				c-22.7-12.2-50-11.6-72,1.9c-18.6,11.4-30.4,31.3-33,52.8c-2.8,23.7,7.7,47.7,26.1,62.7c9.8,8,20,15.2,33.1,15.6
				c5.5,0.1,11.1,0,16.6,0c50.3,0,100.7,0,151,0c23.8,0,47.5,0,71.3,0c9,0,17.2-0.7,25.4-5.4c18.4-10.8,27.1-37,14.8-55.4
				C-215.1,734.2-228.5,729.2-241.3,729c-4.5-0.1-4.5,6.9,0,7c11.5,0.2,22.7,4.8,28.9,14.8c6.1,9.9,3.7,22.9-2.1,32.3
				c-6.9,11.3-18.5,15.9-31.1,15.9c-22.3,0-44.7,0-67,0c-52.2,0-104.4,0-156.6,0c-3.7,0-7.4,0.2-11.1,0c-2.7-0.2-5.4,0-8.1,0
				c-6.4-0.2-12.4-3.1-17.6-6.7c-9.2-6.4-17.6-13.6-23.7-23.2c-6.3-9.9-9.4-21.4-9.7-33.1c-0.5-20.7,10-40.6,26.6-52.7
				c19.9-14.5,46.7-15.6,68.2-4.1c1.7,0.9,3.8,0.4,4.8-1.3c11.2-18.8,35.2-23.7,53.1-11.2c1.2,0.8,3.3,0.6,4.2-0.5
				c22.1-27.5,60.3-36.9,92.3-21.7c32.5,15.4,49.2,52.4,40.7,87.1c-0.5,2.2,1.1,4.4,3.4,4.4c1.6,0,3.2,0,4.7,0
				C-236.8,736-236.8,729-241.3,729z"/>
		</g>
	</g>
	<g>
		<path class="st1" d="M-228.2,734.3c-17.8-6.9-35.4,4.1-42.3,21.9"/>
		<g>
			<path class="st2" d="M-227.3,730.9c-20.3-7.4-39,5.7-46.6,24.4c-1.7,4.2,5.1,6,6.8,1.9c6.3-15.4,21.5-25.5,38-19.5
				C-224.9,739.2-223.1,732.4-227.3,730.9L-227.3,730.9z"/>
		</g>
	</g>
	<g>
		<path class="st1" d="M-422.8,695.9c-8-11.5-19.7-20.6-34-25.4"/>
		<g>
			<path class="st2" d="M-419.8,694.1c-9.1-12.7-21.4-21.9-36.1-27c-4.3-1.5-6.1,5.3-1.9,6.8c12.9,4.5,24,12.6,32,23.8
				C-423.2,701.3-417.1,697.8-419.8,694.1L-419.8,694.1z"/>
		</g>
	</g>
</g>
</svg>
