<?xml version="1.0" encoding="utf-8"?>
<!-- Generator: Adobe Illustrator 22.0.1, SVG Export Plug-In . SVG Version: 6.00 Build 0)  -->
<svg version="1.1" id="Layer_1" xmlns="http://www.w3.org/2000/svg" xmlns:xlink="http://www.w3.org/1999/xlink" x="0px" y="0px"
	 viewBox="0 0 1400 980" style="enable-background:new 0 0 1400 980;" xml:space="preserve">
<style type="text/css">
	.st0{display:none;fill:#DEFFF9;}
	.st1{fill:#FFFFFF;}
	.st2{fill:#96D6C9;}
</style>
<rect x="-4" y="-1" class="st0" width="1410" height="986"/>
<g>
	<g>
		<path class="st1" d="M-229.3,231.3c-13.7,0-26.1,5-35.8,13.2c-13.3-25.2-39.7-42.4-70.1-42.4c-43.7,0-79.2,35.5-79.2,79.2
			c0,39.6,29,72.6,67,78.5c2.5,0.6,5,1.2,7.6,1.2h182.5c19.1,0,35.3-18.8,35.3-38v-1c0-19.1-16.2-31-35.3-31h-17
			c0.1-2,0.2-3,0.2-4.3C-174.2,256.2-198.9,231.3-229.3,231.3z"/>
		<g>
			<path class="st2" d="M-229.3,227.8c-14.2,0.2-27.3,5.1-38.2,14.2c1.8,0.2,3.7,0.5,5.5,0.7c-11.1-20.7-30.3-35.8-53.1-41.7
				c-22.1-5.7-46.1-1.4-65.2,10.9c-38.6,24.8-48.7,78.3-23.2,116c12.4,18.2,32.1,30.8,53.7,34.7c7.6,1.4,14.8,1.3,22.5,1.3
				c28.6,0,57.1,0,85.7,0c26.1,0,52.1,0,78.2,0c11.2,0,21-1.9,30.1-9.2c16.8-13.4,21-40,5.9-56.1c-12.4-13.1-30.5-11.7-46.9-11.7
				c1.2,1.2,2.3,2.3,3.5,3.5C-168.7,256.8-195.7,228.2-229.3,227.8c-4.5-0.1-4.5,6.9,0,7c30,0.4,53.4,25.8,51.4,55.7
				c-0.1,1.9,1.7,3.5,3.5,3.5c16.3,0,34.9-1.7,45.3,13.8c13.3,19.8-5.6,49.2-28.2,49.2c-19,0-38,0-57,0c-31.4,0-62.9,0-94.3,0
				c-9.3,0-18.6,0-27.8,0c-14.8,0-29.3-5.1-41.6-13.3c-18.9-12.7-30.8-34.2-32.6-56.7c-1.8-22.7,7.1-44.9,23.4-60.6
				c16.6-16,40.4-23.3,63.1-20c24,3.4,44.7,18.7,56.1,39.9c1.1,2.1,3.8,2.1,5.5,0.7c9.5-7.9,21-12,33.3-12.2
				C-224.8,234.7-224.8,227.7-229.3,227.8z"/>
		</g>
	</g>
	<g>
		<path class="st1" d="M-181.9,318c16.7-25.4,9.7-59.6-15.7-76.3"/>
		<g>
			<path class="st2" d="M-178.8,319.8c17.4-27.2,9.6-63.1-17-81.1c-3.8-2.5-7.2,3.5-3.5,6c23.6,16,29.7,47.7,14.5,71.5
				C-187.3,320.1-181.3,323.6-178.8,319.8L-178.8,319.8z"/>
		</g>
	</g>
	<g>
		<path class="st1" d="M-255.3,281c-0.6-28.5-16.5-55.7-43.7-69.3"/>
		<g>
			<path class="st2" d="M-251.8,281c-0.9-30.6-18.2-58.4-45.4-72.3c-4-2.1-7.6,4-3.5,6c25.1,12.9,41.2,38,42,66.3
				C-258.6,285.5-251.6,285.5-251.8,281L-251.8,281z"/>
		</g>
	</g>
</g>
<g>
	<g>
		<path class="st1" d="M-146.3,612c6.8,0,13.3-2.6,18.9-6.4c22.9-10.6,38.7-33.9,38.7-60.8c0-36.9-29.9-66.9-66.8-66.9
			c-29.6,0-54.6,19.2-63.4,45.8c-6.6-12.8-19.9-21.5-35.3-21.5c-15,0-28.1,8.4-34.9,20.7c-6.4-23.3-27.8-40.5-53.1-40.5
			c-15.7,0-29.8,6.6-39.9,17.1c-12.5-27.3-40-46.3-72-46.3c-43.7,0-79.2,35.5-79.2,79.2c0,39.6,29,72.6,67,78.5
			c2.5,0.6,5,1.2,7.6,1.2h312.4V612z"/>
		<g>
			<path class="st2" d="M-146.3,615c6.4-0.2,12.2-1.9,17.8-4.9c5.6-3,11.1-6.1,16.1-9.9c9.1-7,16.3-16.2,21-26.7
				c9.5-20.9,7.7-45.5-3.9-65.1c-11.1-18.7-30.7-30.7-52-33.6c-22.9-3.1-46.2,6.5-61.3,23.6c-6.2,7-10.8,15.4-13.8,24.2
				c2.1-0.3,4.3-0.6,6.4-0.8c-7.7-14.3-22.1-23-38.3-23.3c-15.7-0.3-30.2,9-37.9,22.4c2.1,0.3,4.3,0.6,6.4,0.8
				c-5.5-19.1-19.9-34-38.8-40.3c-21.1-7-44.7-0.3-60.1,15.4c1.8,0.2,3.7,0.5,5.5,0.7c-9.8-21-27.8-36.8-49.8-44.1
				c-21.7-7.2-46-4.3-65.9,6.7c-40.2,22.2-53.5,75-30.5,114.3c15.1,25.8,43.4,40.5,72.9,40.5c20.2,0,40.3,0,60.5,0
				c62.6,0,125.1,0,187.7,0C-184.9,615-165.6,615-146.3,615c4.5,0,4.5-7,0-7c-40.7,0-81.4,0-122,0c-57.4,0-114.8,0-172.2,0
				c-5.6,0-11.2,0-16.8,0c-15.3,0-31.3-6.6-43.3-15.9c-18.5-14.3-29-36.6-29.2-59.8c-0.2-23,10.8-44.7,28.5-59.2
				c17.6-14.4,41.7-19.4,63.7-14.7c23.2,5,42.5,21.4,52.5,42.7c1,2.1,4,2.2,5.5,0.7c13.6-13.9,33.2-19.2,51.9-14
				c17.2,4.8,30.4,18.9,35.2,35.8c0.8,2.9,4.9,3.5,6.4,0.8c14.3-25.2,50.4-24.6,64.1,0.8c1.5,2.8,5.5,1.9,6.4-0.8
				c7.3-21.2,24.9-36.8,46.6-41.8c21.6-5,44.4,2.7,59.6,18.5c15.6,16.2,20.7,40,14.6,61.4c-3.1,10.9-9.4,20.5-17.6,28.3
				c-4.2,4-9.1,7.3-14.3,10c-6.5,3.4-12.1,6.8-19.7,7C-150.8,608.1-150.8,615.1-146.3,615z"/>
		</g>
	</g>
	<g>
		<path class="st1" d="M-192.3,489.2c-18,11.8-28.5,30.9-30,50.8"/>
		<g>
			<path class="st2" d="M-194,486.2c-18.4,12.4-29.8,31.8-31.7,53.8c-0.4,4.5,6.6,4.5,7,0c1.7-19.5,12.1-36.9,28.3-47.8
				C-186.8,489.7-190.3,483.6-194,486.2L-194,486.2z"/>
		</g>
	</g>
	<g>
		<path class="st1" d="M-374.1,540c2.5-29.9-12.3-60-40.2-75.6"/>
		<g>
			<path class="st2" d="M-370.6,540c2.3-32.1-14.1-62.6-41.9-78.6c-3.9-2.2-7.4,3.8-3.5,6c25.9,14.8,40.6,42.9,38.5,72.6
				C-377.9,544.5-370.9,544.5-370.6,540L-370.6,540z"/>
		</g>
	</g>
</g>
<g>
	<g>
		<path class="st1" d="M-249.5,804.8c-29.6,0-54.6,19.2-63.4,45.8c-6.6-12.8-19.9-21.5-35.3-21.5c-15,0-28.1,8.4-34.9,20.7
			c-6.4-23.3-27.8-40.5-53.1-40.5c-15.7,0-29.8,6.6-39.9,17.1c-12.5-27.3-40-46.3-72-46.3c-43.7,0-79.2,35.5-79.2,79.2
			c0,39.6,29,72.6,67,78.5c2.5,0.6,5,1.2,7.6,1.2h312.5c6.8,0,13.3-2.6,18.9-6.4c22.9-10.6,38.7-33.9,38.7-60.8
			C-182.7,834.9-212.6,804.8-249.5,804.8z"/>
		<g>
			<path class="st2" d="M-249.5,801.3c-30.4,0.3-57,19.7-66.8,48.4c2.1-0.3,4.3-0.6,6.4-0.8c-7.7-14.3-22.1-23-38.3-23.3
				c-15.7-0.3-30.2,9-37.9,22.4c2.1,0.3,4.3,0.6,6.4,0.8c-5.5-19.1-19.9-34-38.8-40.3c-21.1-7-44.7-0.3-60.1,15.4
				c1.8,0.2,3.7,0.5,5.5,0.7c-9.8-21-27.8-36.8-49.8-44.1c-21.7-7.2-46-4.3-65.9,6.7c-40.2,22.2-53.5,75-30.5,114.3
				c15.1,25.8,43.4,40.5,72.9,40.5c20.2,0,40.3,0,60.5,0c62.6,0,125.1,0,187.7,0c18.2,0,36.3,0,54.5,0c1.1,0,2.2,0,3.4,0
				c10.8,0,20.6-5.8,29.4-11.5c19.9-12.8,31.5-35.4,31.8-58.8C-178.8,833-211.6,801.7-249.5,801.3c-4.5,0-4.5,7,0,7
				c23.2,0.2,44.2,12.7,55.6,32.9c12.1,21.4,9.6,48.3-4.5,68c-7.4,10.4-18,16.7-29,22.7c-4.4,2.3-9.2,3.1-14.1,3.1
				c-5.5,0-11,0-16.5,0c-57.2,0-114.5,0-171.7,0c-41,0-82,0-123,0c-11.5,0-23.9-4.8-33.7-10.4c-9.8-5.7-18.2-13.8-24.6-23.2
				c-13.2-19.5-16-44.4-8.7-66.7c7.1-21.5,24.6-38.8,45.7-46.6c22.8-8.4,48.5-4.7,68.6,8.7c11.5,7.7,20.4,18.9,26.3,31.4
				c1,2.1,4,2.2,5.5,0.7c13.6-13.9,33.2-19.2,51.9-14c17.2,4.8,30.4,18.9,35.2,35.8c0.8,2.9,4.9,3.5,6.4,0.8
				c14.3-25.2,50.4-24.6,64.1,0.8c1.5,2.8,5.5,1.9,6.4-0.8c8.8-25.7,32.9-42.9,60.1-43.2C-245,808.3-245,801.3-249.5,801.3z"/>
		</g>
	</g>
	<g>
		<path class="st1" d="M-284.7,815.4c-18.4,11.6-29.2,30.8-30.8,50.9"/>
		<g>
			<path class="st2" d="M-286.5,812.4c-18.8,12.2-30.5,31.7-32.6,54c-0.4,4.5,6.6,4.5,7,0c1.9-19.7,12.6-37.2,29.1-47.9
				C-279.2,816-282.7,809.9-286.5,812.4L-286.5,812.4z"/>
		</g>
	</g>
	<g>
		<path class="st1" d="M-470,865c2.4-29.9-12.4-59.9-40.3-75.6"/>
		<g>
			<path class="st2" d="M-466.5,865c2.3-32.1-14.1-62.6-42-78.6c-3.9-2.2-7.5,3.8-3.5,6c25.9,14.8,40.7,42.8,38.5,72.5
				C-473.9,869.5-466.9,869.5-466.5,865L-466.5,865z"/>
		</g>
	</g>
</g>
<g>
	<g>
		<path class="st1" d="M1258.7,325h-4.7c2.5-10,3.2-20.2,1.8-30.7c-5.9-43.3-45.8-73.8-89.2-67.9c-30.2,4.1-54,24.7-63.8,51.4
			c-10.6-6.9-23.7-9.9-37.2-8c-27.8,3.8-47.9,27.2-47.6,55.2h-4.8c-19.1,0-38.1,11.8-38.1,31v1.1c0,19.1,19,38,38.1,38h245.5
			c19.1,0,35.3-18.8,35.3-38V356C1294,336.8,1277.8,325,1258.7,325z"/>
		<g>
			<path class="st2" d="M1258.7,321c-1.6,0-3.2,0-4.7,0c1.1,1.5,2.2,3,3.4,4.4c10.6-43.3-14.5-87.4-57.2-100.1
				c-41.6-12.4-85.8,11.5-100.7,51.6c1.7-0.7,3.4-1.4,5.1-2.1c-19.6-12.2-44.3-12.1-63.7,0.3c-16.6,10.7-26.4,29.8-26.5,49.4
				c1.2-1.2,2.3-2.3,3.5-3.5c-9.3,0-17.9,1-26.4,5.2c-9.4,4.6-16.6,13.2-18.9,23.5c-4.9,22.2,14,44.5,35.4,48
				c5.1,0.8,10.5,0.4,15.6,0.4c10.2,0,20.5,0,30.7,0c59.8,0,119.5,0,179.3,0c12.1,0,27.5,2.1,38.9-2.9c16.7-7.3,27.9-25.8,25.1-44.1
				C1294.7,331.9,1276.8,321.3,1258.7,321c-4.5-0.1-4.5,6.9,0,7c11.5,0.2,22.7,4.8,28.9,14.8c6.1,9.9,3.7,22.9-2.1,32.3
				c-6.8,11.2-18.3,15.9-30.8,15.9c-21.4,0-42.7,0-64.1,0c-56.3,0-112.7,0-169,0c-2.6,0-5.2,0-7.8,0c-10.1,0-18.9-4.9-25.7-12.1
				c-9.7-10.3-12.8-26.9-3.6-38.5c8.2-10.3,21.1-12.4,33.4-12.4c1.9,0,3.5-1.6,3.5-3.5c0.1-17.4,8.6-33.5,23-43.3
				c17-11.5,39.4-11.1,56.6-0.3c2.1,1.3,4.4,0,5.1-2.1c13.8-37,54.2-57.3,92.1-46.7c39.1,11,61.9,52.5,52.3,91.5
				c-0.5,2.2,1.1,4.4,3.4,4.4c1.6,0,3.2,0,4.7,0C1263.2,328,1263.2,321,1258.7,321z"/>
		</g>
	</g>
	<g>
		<path class="st1" d="M1255.4,318.6"/>
		<g>
			<path class="st2" d="M1254.1,328.5c2.6-3.7,4.2-7.7,4.8-11.9c0.2-1.7-3.2-1.7-3.5,0"/>
		</g>
	</g>
</g>
<g>
	<g>
		<path class="st1" d="M131.1,202.1c2.6,0.4,5.3,0.9,8,0.9h304.5c19.1,0,35.3-18.8,35.3-38v-1c0-19.1-16.2-31-35.3-31h-4.7
			c2.5-10,3.2-20.2,1.8-30.7c-5.9-43.3-45.8-73.8-89.2-67.9c-30.2,4.1-54,24.7-63.8,51.4c-10.6-6.9-23.7-10.1-37.2-8.3
			c-21.1,2.9-37.8,17.3-44.5,36.1c-5.2-1.5-10.8-2-16.4-1.2c-6.4,0.9-12.2,3.2-17.2,6.6c-10.9-18.5-32.2-29.7-54.9-26.6
			c-30.2,4.1-51.3,32-47.2,62.2C74.5,184.4,101.5,205.4,131.1,202.1z"/>
		<g>
			<path class="st2" d="M130.2,205.2c13.8,2,28.4,0.8,42.3,0.8c28.2,0,56.5,0,84.7,0c56.9,0,113.8,0,170.7,0c4.6,0,9.1,0,13.7,0
				c9.8,0,18.4-3.1,26-9.2c14-11.3,19.6-32.1,11.5-48.4c-7.6-15.2-24.7-19.4-40.2-19.4c1.1,1.5,2.2,3,3.4,4.4
				C453,90.2,427.8,46,385.2,33.3c-41.6-12.4-85.8,11.5-100.7,51.6c1.7-0.7,3.4-1.4,5.1-2.1c-32-19.9-73.8-5.1-86.8,30
				c1.4-0.8,2.9-1.6,4.3-2.4c-12.6-3.3-25.5-1.3-36.3,5.8c1.6,0.4,3.2,0.8,4.8,1.3c-11.6-19-32.6-30.1-54.8-28.6
				c-21,1.4-39.7,14.7-48.7,33.5c-9.1,19.1-6.7,42.2,5.6,59.3c12.1,16.9,32.9,25.9,53.6,23.9c4.4-0.4,4.5-7.4,0-7
				c-18,1.8-34.9-5.2-46.5-19c-12-14.4-14.1-34.9-7.3-52c6.8-17.3,23.6-29.3,41.8-31.5c20.2-2.5,39.9,7.9,50.3,25
				c1,1.6,3.2,2.3,4.8,1.3c9.4-6.1,20.1-7.9,30.9-5.1c2,0.5,3.6-0.6,4.3-2.4c11.5-31,48.6-43.2,76.6-25.8c2.1,1.3,4.4,0,5.1-2.1
				c13.8-37,54.2-57.3,92.1-46.7c39.1,11,61.9,52.5,52.3,91.5c-0.5,2.2,1.1,4.4,3.4,4.4c9.7,0,18.5,1.1,26.6,6.9
				c9.4,6.7,12,18.7,9.6,29.5c-3.5,15.3-17.5,26.6-33.1,26.6c-16.8,0-33.5,0-50.3,0c-62.3,0-124.6,0-186.9,0c-16,0-32,0-48,0
				c-8.1,0-16.7,0.7-24.8-0.5C127.6,197.9,125.7,204.6,130.2,205.2z"/>
		</g>
	</g>
</g>
<g>
	<g>
		<path class="st1" d="M927.1-140h373.5c19.1,0,35.3-18.8,35.3-38v-1.1c0-19.1-16.2-31-35.3-31h-1.6c3.1-10,4.2-20.4,2.7-31.1
			c-5.2-38.3-40.5-65.3-78.9-60.1c-26.5,3.6-47.5,21.5-56.2,44.9c-11.6-15.2-30.9-23.9-51.2-21.1c-8,1.1-15.3,3.8-21.7,7.8
			c-10.8-40.7-50.4-67.9-93.2-62.1c-46.3,6.3-78.7,49.2-72.4,95.5c1.3,9.3,4,18.2,7.9,26.2h-9c-19.1,0-38.1,11.8-38.1,31v1.1
			C889-158.8,905.3-140,927.1-140z"/>
		<g>
			<path class="st2" d="M927.1-137c36.2,0,72.4,0,108.6,0c63.4,0,126.9,0,190.3,0c20.8,0,41.6,0,62.3,0c4,0,7.9,0,11.9,0
				c18.1,0,33.1-13.7,38.2-30.4c3.6-11.8,1-24.7-7.1-34c-8-9.2-20.6-12.6-32.3-12.6c1.1,1.5,2.2,3,3.4,4.4
				c11.9-38.7-9.4-79.7-47.7-92.4c-37.3-12.4-77.6,8.8-91.4,44.7c2-0.5,3.9-1,5.8-1.5c-18.5-23.4-51.6-29.2-77.1-13.8
				c1.7,0.7,3.4,1.4,5.1,2.1c-12.4-45.4-58.5-73.1-104.4-63.3c-44.2,9.4-74.5,53.9-68,98.4c1.4,9.4,4.2,18.3,8.3,26.8
				c1-1.8,2-3.5,3-5.3c-9.4,0-18.5,0-27.4,3.7c-10.9,4.5-19.6,13.3-22.1,25C881.2-160.4,902.9-137.5,927.1-137c4.5,0.1,4.5-6.9,0-7
				c-20.8-0.4-38.1-19.9-33.5-40.8c2.2-10.2,11.4-17,20.8-20.2c7-2.4,14.4-2,21.7-2c2.8,0,4.1-2.9,3-5.3
				c-20.6-42.9,0.3-95.2,44.9-111.8c44.4-16.5,94,10.1,106.4,55.4c0.6,2.2,3.2,3.3,5.1,2.1c23.1-13.9,52-8.3,68.6,12.8
				c1.8,2.3,5,0.6,5.8-1.5c12.5-32.5,48.2-49.9,81.6-40.2c35.6,10.4,54.8,49.3,44,84.2c-0.7,2.2,1.2,4.4,3.4,4.4
				c10.8,0,20.9,3.2,28.1,11.5c7.6,8.7,7,22.1,2.3,31.9c-5.8,12.2-17.7,19.6-31,19.6c-15.1,0-30.1,0-45.2,0c-61.2,0-122.3,0-183.5,0
				c-46.1,0-92.2,0-138.3,0c-1.5,0-2.9,0-4.4,0C922.6-144,922.6-137,927.1-137z"/>
		</g>
	</g>
	<g>
		<path class="st1" d="M1094.6-248c0.4-29.8-15-58.9-42.7-74.7"/>
		<g>
			<path class="st2" d="M1098.1-248c0.2-32-16.8-61.6-44.5-77.8c-3.9-2.3-7.4,3.8-3.5,6c25.6,14.9,41.1,42.1,41,71.7
				C1091.1-243.5,1098.1-243.5,1098.1-248L1098.1-248z"/>
		</g>
	</g>
	<g>
		<path class="st1" d="M1189.6-286.1c-21.4,16-31.1,41.8-27.4,66.5"/>
		<g>
			<path class="st2" d="M1187.8-289.1c-22,16.7-32.8,43.1-29.1,70.5c0.6,4.5,7.4,2.6,6.8-1.9c-3.3-23.9,6.7-48,25.8-62.6
				C1194.9-285.8,1191.4-291.9,1187.8-289.1L1187.8-289.1z"/>
		</g>
	</g>
</g>
<g>
	<g>
		<path class="st1" d="M1065.7,856h-6.8c2-7,2.6-13.5,1.6-20.5c-3.5-25.9-27.4-44.2-53.3-40.7c-10.6,1.4-19.8,6.2-26.9,13.2
			c-11.7-29-42-47.5-74.4-43.1c-15.5,2.1-29,9.1-39.4,19.2c-17.2-37.8-57.6-61.5-100.9-55.7c-52.8,7.2-89.8,55.8-82.6,108.6
			c0.9,6.5,2.1,12.7,4.2,18.7c-17.4,1.8-33.3,13.8-33.3,31.4v1.1c0,19.1,16.3,37.8,38.1,37.8h373.5c19.1,0,35.3-18.7,35.3-37.8v-1.1
			C1101,868,1084.8,856,1065.7,856z"/>
		<g>
			<path class="st2" d="M1065.7,852c-2.3,0-4.5,0-6.8,0c1.1,1.5,2.2,3,3.4,4.4c6.4-22.4-2.5-45.7-22.1-58.2
				c-19.7-12.5-45.8-8.7-62.4,7.2c1.9,0.5,3.9,1,5.8,1.5c-9-21.6-27.1-37.8-49.8-43.9c-24.7-6.7-51.5,1-69.9,18.5
				c1.8,0.2,3.7,0.5,5.5,0.7c-20.2-43.7-69.3-66.7-115.9-55.1c-44,10.9-74.9,52.3-75,97.2c0,10.9,2,21.9,5.5,32.3
				c1.1-1.5,2.2-3,3.4-4.4c-21.5,2.6-39.2,18.3-36.2,41.2c2.8,20.1,20.8,35.6,41,35.6c11.2,0,22.5,0,33.7,0c58.8,0,117.6,0,176.4,0
				c50.9,0,101.7,0,152.6,0c12.2,0,23.4-0.1,33.7-8.3c12.9-10.3,19.6-27.6,14.9-43.7C1098.7,860.7,1081.6,852.3,1065.7,852
				c-4.5-0.1-4.5,6.9,0,7c11.5,0.2,22.7,4.9,28.9,15c6,9.9,3.7,22.9-2.1,32.3C1086,916.7,1075,922,1063,922c-15.6,0-31.2,0-46.8,0
				c-61.4,0-122.9,0-184.3,0c-45.4,0-90.7,0-136.1,0c-10.7,0-20.4-2.6-28.2-10.4c-8-8-11.6-20.4-8.6-31.4
				c3.3-12.4,16.7-19.5,28.6-20.9c2.1-0.3,4.2-2.1,3.4-4.4c-15.6-46.2,6.5-96.6,51.1-116.3c46.1-20.4,100.6,2.4,121.4,47.3
				c1,2.1,4,2.1,5.5,0.7c16.8-16,40.5-22.4,63.1-16.7c20.1,5,36.9,20,44.9,39c1,2.4,3.8,3.5,5.8,1.5c14.3-13.7,35.5-16.4,52.8-6.8
				c17.9,10,25.5,31.6,20,50.9c-0.6,2.2,1.1,4.4,3.4,4.4s4.5,0,6.8,0C1070.2,859,1070.2,852,1065.7,852z"/>
		</g>
	</g>
	<g>
		<path class="st1" d="M875.1,822.1c-1.6-41.5-30.1-78.8-72.3-89.7"/>
		<g>
			<path class="st2" d="M865.6,785.4c-2-26.8-27.6-49.6-63-56c-3.7-0.7-5.1,3.5-1.5,4.2c32.8,6,56.8,27.1,58.6,52
				C860,788.3,865.8,788.2,865.6,785.4L865.6,785.4z"/>
		</g>
	</g>
</g>
<g>
	<g>
		<path class="st1" d="M-409.3,742h-4.7c2.5-10,3.2-20.2,1.8-30.7c-5.9-43.3-45.8-73.8-89.2-67.9c-21.1,2.9-39.2,13.8-51.4,29.3
			c-6.6-4.8-14.6-7.7-23.4-7.7c-14.8,0-27.7,8.1-34.5,20.1c-12.3-6.8-26.8-9.8-41.7-7.8c-36.9,5-62.8,39-57.7,76
			c2.8,20.5,14.5,37.8,30.7,48.1c6.9,6.3,15.7,10.6,24.7,10.6h6.5c3.1,0,6.3,0,9.5,0h229.5c19.1,0,35.3-18.8,35.3-38v-1
			C-374,753.8-390.2,742-409.3,742z"/>
		<g>
			<path class="st2" d="M-409.3,738c-1.6,0-3.2,0-4.7,0c1.1,1.5,2.2,3,3.4,4.4c9.2-37.6-8.3-76.7-42.7-94.4
				c-34.5-17.8-77.8-7.8-102,22.2c1.4-0.2,2.8-0.4,4.2-0.5c-21-14.7-49.7-8.2-62.7,13.7c1.6-0.4,3.2-0.8,4.8-1.3
				c-22.7-12.2-50-11.6-72,1.9c-18.6,11.4-30.4,31.3-33,52.8c-2.8,23.7,7.7,47.7,26.1,62.7c9.8,8,20,15.2,33.1,15.6
				c5.5,0.1,11.1,0,16.6,0c50.3,0,100.7,0,151,0c23.8,0,47.5,0,71.3,0c9,0,17.2-0.7,25.4-5.4c18.4-10.8,27.1-37,14.8-55.4
				C-383.1,743.2-396.5,738.2-409.3,738c-4.5-0.1-4.5,6.9,0,7c11.5,0.2,22.7,4.8,28.9,14.8c6.1,9.9,3.7,22.9-2.1,32.3
				c-6.9,11.3-18.5,15.9-31.1,15.9c-22.3,0-44.7,0-67,0c-52.2,0-104.4,0-156.6,0c-3.7,0-7.4,0.2-11.1,0c-2.7-0.2-5.4,0-8.1,0
				c-6.4-0.2-12.4-3.1-17.6-6.7c-9.2-6.4-17.6-13.6-23.7-23.2c-6.3-9.9-9.4-21.4-9.7-33.1c-0.5-20.7,10-40.6,26.6-52.7
				c19.9-14.5,46.7-15.6,68.2-4.1c1.7,0.9,3.8,0.4,4.8-1.3c11.2-18.8,35.2-23.7,53.1-11.2c1.2,0.8,3.3,0.6,4.2-0.5
				c22.1-27.5,60.3-36.9,92.3-21.7c32.5,15.4,49.2,52.4,40.7,87.1c-0.5,2.2,1.1,4.4,3.4,4.4c1.6,0,3.2,0,4.7,0
				C-404.8,745-404.8,738-409.3,738z"/>
		</g>
	</g>
	<g>
		<path class="st1" d="M-396.2,743.3c-17.8-6.9-35.4,4.1-42.3,21.9"/>
		<g>
			<path class="st2" d="M-395.3,739.9c-20.3-7.4-39,5.7-46.6,24.4c-1.7,4.2,5.1,6,6.8,1.9c6.3-15.4,21.5-25.5,38-19.5
				C-392.9,748.2-391.1,741.4-395.3,739.9L-395.3,739.9z"/>
		</g>
	</g>
	<g>
		<path class="st1" d="M-590.8,704.9c-8-11.5-19.7-20.6-34-25.4"/>
		<g>
			<path class="st2" d="M-587.8,703.1c-9.1-12.7-21.4-21.9-36.1-27c-4.3-1.5-6.1,5.3-1.9,6.8c12.9,4.5,24,12.6,32,23.8
				C-591.2,710.3-585.1,706.8-587.8,703.1L-587.8,703.1z"/>
		</g>
	</g>
</g>
</svg>
