<?xml version="1.0" encoding="utf-8"?>
<!-- Generator: Adobe Illustrator 22.0.1, SVG Export Plug-In . SVG Version: 6.00 Build 0)  -->
<svg version="1.1" id="Layer_1" xmlns="http://www.w3.org/2000/svg" xmlns:xlink="http://www.w3.org/1999/xlink" x="0px" y="0px"
	 viewBox="0 0 1332.5 369.7" style="enable-background:new 0 0 1332.5 369.7;" xml:space="preserve">
<style type="text/css">
	.st0{display:none;fill:url(#sky_2_);}
	.st1{fill:url(#SVGID_1_);stroke:#000000;stroke-miterlimit:10;}
	.st2{display:none;fill:url(#SVGID_2_);}
	.st3{display:none;}
	.st4{display:inline;fill:url(#SVGID_3_);}
	.st5{display:inline;fill:url(#SVGID_4_);}
	.st6{display:inline;fill:url(#SVGID_5_);}
	.st7{display:inline;fill:url(#SVGID_6_);}
	.st8{display:inline;fill:url(#SVGID_7_);}
	.st9{display:inline;fill:url(#SVGID_8_);}
	.st10{display:inline;}
	.st11{opacity:0.3;}
	.st12{fill:#594C21;}
	.st13{fill:#526D1C;}
	.st14{fill:#455C18;}
	.st15{opacity:0.2;}
	.st16{fill:#7A6C3D;}
	.st17{fill:#544A2A;}
	.st18{fill:#384D13;}
	.st19{fill:#314211;}
	.st20{display:inline;fill:#D4CA9E;}
	.st21{display:inline;fill:#FCF1BA;}
	.st22{display:inline;fill:#9E4944;}
	.st23{display:inline;fill:#693836;}
	.st24{display:inline;fill:#948D6E;}
	.st25{display:inline;fill:#AFA782;}
	.st26{display:none;fill:url(#sky_3_);}
	.st27{display:none;fill:url(#SVGID_9_);}
	.st28{display:inline;fill:url(#SVGID_10_);}
	.st29{display:inline;fill:url(#SVGID_11_);}
	.st30{display:inline;fill:url(#SVGID_12_);}
	.st31{display:inline;fill:url(#SVGID_13_);}
	.st32{display:inline;fill:url(#SVGID_14_);}
	.st33{display:inline;fill:url(#SVGID_15_);}
	.st34{fill:#FFFFFF;}
</style>
<g id="illustration">
	
		<linearGradient id="sky_2_" gradientUnits="userSpaceOnUse" x1="138.3673" y1="176.7926" x2="1664.3673" y2="1484.7927" gradientTransform="matrix(1 0 0 1 0 -743.4421)">
		<stop  offset="4.138622e-02" style="stop-color:#0061E7"/>
		<stop  offset="0.2964" style="stop-color:#0CB0E8"/>
		<stop  offset="0.8886" style="stop-color:#11D4E8"/>
	</linearGradient>
	<rect id="sky" y="-465.7" class="st0" width="1400" height="760.9"/>
	<g id="hills">
		
			<linearGradient id="SVGID_1_" gradientUnits="userSpaceOnUse" x1="2794.1067" y1="1183.2816" x2="2794.1067" y2="784.5056" gradientTransform="matrix(-1 0 0 1 3457.6265 -743.4421)">
			<stop  offset="9.262460e-02" style="stop-color:#5B4F07"/>
			<stop  offset="0.9748" style="stop-color:#633103"/>
		</linearGradient>
		<path class="st1" d="M-23,70c58.8,12.3,143,26.1,206.1,20.6c97.2-8.4,176.5-44.1,242.7-75.5c70.3-33.4,119.6,6.5,174.8,33.5
			c81.7,39.9,162.3,48.1,259.3,18.1c63-19.5,128.8-37.3,188.8-59c78.1-28.2,127.1,28.7,283.8,68.2c39,78.6,22.5,273.5-12.4,313.5
			c-109.4,125-498.8-24.8-711,0c-213.8-19.4-445,32-637.1-3.4L-23,70z"/>
		
			<linearGradient id="SVGID_2_" gradientUnits="userSpaceOnUse" x1="1111.5" y1="1100.4421" x2="1111.5" y2="733.0411" gradientTransform="matrix(1 0 0 1 0 -743.4421)">
			<stop  offset="0" style="stop-color:#504B03"/>
			<stop  offset="3.110978e-02" style="stop-color:#554F05"/>
			<stop  offset="0.3955" style="stop-color:#5A5307"/>
			<stop  offset="0.5794" style="stop-color:#5B4F07"/>
			<stop  offset="0.841" style="stop-color:#633103"/>
		</linearGradient>
		<path class="st2" d="M0,262c154.8,81,493.6,72.4,686.9,95c654.2-59.2,1246.3-255.3,1536.1-208l0,0c0-21-16.3-38.4-37.3-39.8
			c-122.8-8.2-246.2-41-354.2-65.2c-61.3-13.7-122.1-28.6-185.3-40.4c-80.1-14.9-141,12.3-214.7,28.8
			c-97.1,21.6-202.8,55.5-314.4,45.9c-97.2-8.4-176.5-44.1-242.7-75.5C804-30.6,754.8,9.3,699.5,36.3
			c-81.7,39.9-162.3,48.1-259.3,18.1c-63-19.5-128.8-37.3-188.8-59C184.9-28.6,116.3,27,0,68.4"/>
	</g>
	<g id="fields" class="st3">
		
			<linearGradient id="SVGID_3_" gradientUnits="userSpaceOnUse" x1="3468.3162" y1="1307.8268" x2="3357.9883" y2="957.6605" gradientTransform="matrix(-1 0 0 1 3736.7581 -743.4421)">
			<stop  offset="0" style="stop-color:#192A06"/>
			<stop  offset="0.1003" style="stop-color:#2D3C0C"/>
			<stop  offset="0.5397" style="stop-color:#838824"/>
			<stop  offset="0.8497" style="stop-color:#B8B833"/>
			<stop  offset="1" style="stop-color:#CDCA39"/>
		</linearGradient>
		<path class="st4" d="M736,317.5L0,405.3v-226C316.6,167.4,578,229.7,736,317.5z"/>
		
			<linearGradient id="SVGID_4_" gradientUnits="userSpaceOnUse" x1="670.7908" y1="903.0195" x2="720.085" y2="1206.9989" gradientTransform="matrix(1 0 0 1 0 -743.4421)">
			<stop  offset="0" style="stop-color:#CDCA39"/>
			<stop  offset="0.4998" style="stop-color:#677018"/>
			<stop  offset="1" style="stop-color:#192A06"/>
		</linearGradient>
		<path class="st5" d="M1400,304.4v-81.6c-569.1-53-956.6-40.3-1400,33.8v200h876.9L1400,304.4z"/>
		
			<linearGradient id="SVGID_5_" gradientUnits="userSpaceOnUse" x1="1021.918" y1="772.7189" x2="1061.9647" y2="995.8453" gradientTransform="matrix(1 0 0 1 0 -743.4421)">
			<stop  offset="0" style="stop-color:#E0DE34"/>
			<stop  offset="0.1062" style="stop-color:#CBCB2F"/>
			<stop  offset="0.3238" style="stop-color:#969B23"/>
			<stop  offset="0.4998" style="stop-color:#677018"/>
			<stop  offset="1" style="stop-color:#192A06"/>
		</linearGradient>
		<path class="st6" d="M664,194l736,87.7V-23.1C1083.4-35,822,106.2,664,194z"/>
		
			<linearGradient id="SVGID_6_" gradientUnits="userSpaceOnUse" x1="1033.9283" y1="776.4437" x2="1033.9283" y2="1132.2775" gradientTransform="matrix(1 0 0 1 0 -743.4421)">
			<stop  offset="0" style="stop-color:#E6DD8F"/>
			<stop  offset="0.5" style="stop-color:#AFA782"/>
			<stop  offset="1" style="stop-color:#4A5436"/>
		</linearGradient>
		<path class="st7" d="M1270.1,116.2C1157.6,94.9,1108.6,46.1,1222,6.6l-26.5,4.6c-137.9,44-108.5,95.3-19.9,117.4
			c144.3,36.1-396.4,130.7-465.3,204.9h421.4C1366.3,242.1,1428,146.1,1270.1,116.2z"/>
		
			<linearGradient id="SVGID_7_" gradientUnits="userSpaceOnUse" x1="677.6665" y1="904.9684" x2="734.9782" y2="1258.3917" gradientTransform="matrix(1 0 0 1 0 -743.4421)">
			<stop  offset="0" style="stop-color:#E0DE34"/>
			<stop  offset="0.1062" style="stop-color:#CBCB2F"/>
			<stop  offset="0.3238" style="stop-color:#969B23"/>
			<stop  offset="0.4998" style="stop-color:#677018"/>
			<stop  offset="0.6652" style="stop-color:#495511"/>
			<stop  offset="0.8825" style="stop-color:#263609"/>
			<stop  offset="1" style="stop-color:#192A06"/>
		</linearGradient>
		<path class="st8" d="M1400,84.2C1024.3,100,479.3,235.9,0,430.5v83.8h1400V84.2z"/>
		
			<linearGradient id="SVGID_8_" gradientUnits="userSpaceOnUse" x1="566.5889" y1="957.2095" x2="566.5889" y2="1313.0432" gradientTransform="matrix(1 0 0 1 0 -743.4421)">
			<stop  offset="0" style="stop-color:#E6DD8F"/>
			<stop  offset="0.5" style="stop-color:#AFA782"/>
			<stop  offset="1" style="stop-color:#4A5436"/>
		</linearGradient>
		<path class="st9" d="M802.8,296.9c-112.5-21.3-161.5-70.1-48.1-109.6l-26.5,4.6c-137.9,44-108.5,95.3-19.9,117.4
			c144.3,36.2-396.4,130.7-465.4,205h421.4C899.1,422.8,960.7,326.9,802.8,296.9z"/>
	</g>
	<g id="trees" class="st3">
		<g class="st10">
			<g class="st11">
			</g>
			<g>
				<path class="st12" d="M953.4,308.3c-1.3,5.3-4.5,10.8,1.9,11.9c3,0.5,4,0.1,6.4-1c2.1-0.9,0.9-8.9,0.7-13.1
					c-0.2-5.8-1.5-4.3-0.1-9.7c0.8-3.3,0.2-17.1-0.8-20.3c-2.8-8.5-5.7-2.7-5.6,3.1C956,289.5,956.3,296.4,953.4,308.3z"/>
				<path class="st13" d="M946.6,104.6c-0.5,1.9,1.1,4,0.1,6s-3.3,2.6-4.8,4.3c-3.4,3.8-2.7,8-6.2,12.2c-1.7,2-4.5,4-5.1,6.3
					c-0.5,1.7,1.4,4.1,1.3,5.5c-0.3,4.4-4.5,6.9-5,11.3c-0.2,2,1.4,3.9,1.1,5.9c-0.4,2.6-2.9,4.9-4.2,7.2c-2,3.6-4.2,9-4.1,13.3
					c0.1,4.2,3.3,8.3,2.1,12.4c-1.3,4.5-5.9,7.9-6.8,12.7c-0.9,4.9,2.4,8,3.9,12.5c1.7,4.9-2.7,7.2-2.5,11.6
					c0.1,2.3,2.8,2.9,3.4,4.5c1.1,3.3-1,3.3-1.2,6.7c-0.1,1.3,1.4,4.6,1.7,6.1c0.2,1-1.1,1.6-0.6,3c0.6,1.8,2.7,2,3.5,3.6
					c1,2,0,3.1,0.7,4.9c1,2.6,3.2,4.2,4.9,6.5c3.5,4.8-0.1,6,0.3,11c0.4,4.9,6,6.9,10.4,9.6c4.6,2.8,14.9,12.2,21.1,11
					c3.4-0.7,10.6-5.8,13.4-8c4.5-3.4,0.8-10.2,5.9-13.1c5.1-2.9,8.5-7,8.8-12.1c0.3-5.2-1.3-8.7,0.4-14c1.4-4.2-0.3-7.6,0.3-11.9
					c0.7-4.9,5.9-8.8,6.7-14.2c0.7-4.6-2.1-8.9-1-13.4c1.3-5,4.4-8.2,3.2-13.7c-1-4.4-3.3-7.6-2.3-12.2c1-4.6,3.1-8.1,1.4-12.7
					c-1.7-4.7-4.8-8.1-4.8-13.2c0-5.5-2.4-9-3.2-14.2c-0.6-4.7,4.2-9.2,3.1-14.1c-1-4.3-5.6-7.1-8.8-10.3c-3-3.1-3.6-6.5-5.2-9.8
					c-1.9-4.1-4.1-4.8-4.5-9.1c-0.4-3.8-0.7-7.8-7-8.9c-7.2-1.2-6.5,3.7-9.7,6.7C953.1,98.1,948,98.8,946.6,104.6z"/>
				<path class="st13" d="M994.9,205.7c1.3-5,4.4-8.2,3.2-13.7c-1-4.4-3.3-7.6-2.3-12.2c1-4.6,3.1-8.1,1.4-12.7
					c-1.7-4.7-4.8-8.1-4.8-13.2c0-5.5-2.4-9-3.2-14.2c-0.6-4.7,4.2-9.2,3.1-14.1c-1-4.3-5.6-7.1-8.8-10.3c-3-3.1-3.6-6.5-5.2-9.8
					c-1.9-4.1-4.1-4.8-4.5-9.1c-0.4-3.8-0.7-7.8-7-8.9c-7.2-1.2-6.5,3.7-9.7,6.7c-0.3,0.2-0.5,0.4-0.7,0.7c0.6,0.7,5.8-4.6,6.7-4.1
					c1.9,1.2,5,0.8,6.4,2.2c3,2.7-3.8,8.4-3.8,11.2c0,4.2,6.1,8.3,4.6,11.7c-1.1,2.6-4.1,3.3-3.1,6.4c0.7,2.1,4.8,3.6,6.6,5.1
					c5.1,4.4,4.2,6.4-1.1,10.8c-1.6,1.3-3.9,1.8-5,3.4c-1.4,2,0.7,3.8-2.1,5.8c-5.2,3.8-9.7,1.8-7.1,9.1c1.6,4.5,1.7,6.7,5.3,9.9
					c7.2,6.3,0.1,5.7-4,10.3c-2.9,3.2-0.8,3.7,0.6,7c2.4,5.3,1.7,6.1-0.7,10.6c-1.7,3.2-0.3,7-1.9,10.1c-2,3.7-7.8,4.3-10.1,0.5
					c-1.7-2.8,3.3-5.7-1.8-7.5c-4.4-1.5-7,2.9-9.6,5c-7.6-4.6-2.9-7.8-1.4-12.6c2.1-6.7-4.6-5.2-7.9-8.4c-4.7-4.5,1.7-9.1,2.3-13.2
					c0.3-2.2-1.1-4-0.4-6.6c0.7-2.8,4.7-3.6,4.5-6.8c-0.3-3.7-2.2-6.5-5.2-8.3c-0.7,1.1-1.2,2.3-1.4,3.8c-0.2,2,1.4,3.9,1.1,5.9
					c-0.4,2.6-2.9,4.9-4.2,7.2c-2,3.6-4.2,9-4.1,13.3c0.1,4.2,3.3,8.3,2.1,12.4c-1.3,4.5-5.9,7.9-6.8,12.7c-0.9,4.9,2.4,8,3.9,12.5
					c1.7,4.9-2.7,7.2-2.5,11.6c0.1,2.3,2.8,2.9,3.4,4.5c1.1,3.3-1,3.3-1.2,6.7c-0.1,1.3,1.4,4.6,1.7,6.1c0.2,1-1.1,1.6-0.6,3
					c0.6,1.8,2.7,2,3.5,3.6c1,2,0,3.1,0.7,4.9c1,2.6,3.2,4.2,4.9,6.5c3.5,4.8-0.1,6,0.3,11c0.4,4.9,6,6.9,10.4,9.6
					c4.6,2.8,14.9,12.2,21.1,11c3.4-0.7,10.6-5.8,13.4-8c4.5-3.4,0.8-10.2,5.9-13.1c5.1-2.9,8.5-7,8.8-12.1c0.3-5.2-1.3-8.7,0.4-14
					c1.4-4.2-0.3-7.6,0.3-11.9c0.7-4.9,5.9-8.8,6.7-14.2C996.6,214.6,993.7,210.3,994.9,205.7z"/>
				<path class="st14" d="M995.7,179.9c1-4.6,3.1-8.1,1.4-12.7c-1.3-3.6-3.5-6.5-4.4-10c-0.1,0.2-0.5,0.4-0.4,0.7
					c1.9,6,0.4,7.6-1.7,11.5c-1.3,2.5-3.2,2.7-3.1,5.6c0,2.3,2.7,3.6,3.3,5.6c1.2,4-0.9,7.8-0.2,11.7c1,5.1,0.9,5.6-1.9,10.1
					c-1.4,2.1-2,1.6-2.5,4.3c-0.2,1.2,1,3.2,0.5,4.9c-1.7,5.5-6.6,4.4-11.2,7.4c2.1,5-2.9,5.5-5.1,9.3c-2.6,4.4,2.4,10.1-3.7,13.9
					c-2.2,1.4-4.7,0.9-7.6,1.9c-2.6,0.9-1.6,2.7-5.2,3c-9.4,0.8-6.2-0.3-7.5-3.4c-0.7-1.6-3.9-2-4.9-3.3c-1.5-2-7.1-2.2-8.3-4.2
					s-2.1-7.2-3.3-9.1c-1.2-1.9,0.8-3.8,0.1-5.7c-0.9-2.6-3.2-2.3-4.5-4.3c-1.1-1.7-0.4-3.6-1.4-5.5c-1.5-2.9-1.8-8.1-5.8-5.8
					c-1,0.6-1.5,1.9-1.9,3.5c0.8,1.6,1.7,3.2,2.3,5c1.7,4.9-2.7,7.2-2.5,11.6c0.1,2.3,2.8,2.9,3.4,4.5c1.1,3.3-1,3.3-1.2,6.7
					c-0.1,1.3,1.4,4.6,1.7,6.1c0.2,1-1.1,1.6-0.6,3c0.6,1.8,2.7,2,3.5,3.6c1,2,0,3.1,0.7,4.9c1,2.6,3.2,4.2,4.9,6.5
					c3.5,4.8-0.1,6,0.3,11c0.4,4.9,6,6.9,10.4,9.6c4.6,2.8,14.9,12.2,21.1,11c3.4-0.7,10.6-5.8,13.4-8c4.5-3.4,0.8-10.2,5.9-13.1
					c5.1-2.9,8.5-7,8.8-12.1c0.3-5.2-1.3-8.7,0.4-14c1.4-4.2-0.3-7.6,0.3-11.9c0.7-4.9,5.9-8.8,6.7-14.2c0.7-4.6-2.1-8.9-1-13.4
					c1.3-5,4.4-8.2,3.2-13.7C997,187.6,994.7,184.4,995.7,179.9z"/>
			</g>
		</g>
		<g class="st10">
			<g class="st15">
			</g>
			<g>
				<path class="st16" d="M360.9,252.3c-0.8,3.1-2.7,6.4,1.1,7c1.8,0.3,2.4,0,3.7-0.6c1.2-0.5,0.5-5.2,0.4-7.7
					c-0.1-3.4-0.9-2.5-0.1-5.7c0.5-1.9,0.1-10-0.5-11.9c-1.6-5-3.4-1.6-3.3,1.8C362.4,241.2,362.6,245.3,360.9,252.3z"/>
				<path class="st13" d="M356.9,132.7c-0.3,1.1,0.6,2.3,0,3.5s-1.9,1.5-2.8,2.5c-2,2.2-1.6,4.7-3.7,7.1c-1,1.2-2.6,2.4-3,3.7
					c-0.3,1,0.8,2.4,0.8,3.2c-0.2,2.6-2.6,4.1-2.9,6.6c-0.1,1.2,0.8,2.3,0.6,3.5c-0.2,1.6-1.7,2.9-2.5,4.2c-1.2,2.1-2.4,5.3-2.4,7.8
					c0,2.4,1.9,4.9,1.2,7.3c-0.8,2.6-3.5,4.6-4,7.4c-0.5,2.9,1.4,4.7,2.3,7.3c1,2.9-1.6,4.2-1.5,6.8c0.1,1.3,1.7,1.7,2,2.7
					c0.6,1.9-0.6,1.9-0.7,3.9c0,0.8,0.8,2.7,1,3.6c0.1,0.6-0.7,0.9-0.4,1.7c0.4,1,1.6,1.2,2,2.1c0.6,1.2,0,1.8,0.4,2.9
					c0.6,1.5,1.9,2.5,2.9,3.8c2.1,2.8-0.1,3.5,0.2,6.4c0.3,2.9,3.6,4.1,6.1,5.6c2.7,1.6,8.8,7.2,12.4,6.5c2-0.4,6.2-3.4,7.9-4.7
					c2.6-2,0.5-6,3.5-7.7s5-4.1,5.2-7.1c0.2-3.1-0.8-5.1,0.2-8.2c0.8-2.5-0.2-4.4,0.2-7c0.4-2.9,3.4-5.2,3.9-8.3
					c0.4-2.7-1.2-5.2-0.6-7.9c0.7-3,2.6-4.8,1.9-8c-0.6-2.6-1.9-4.5-1.4-7.1c0.6-2.7,1.8-4.8,0.8-7.5c-1-2.8-2.8-4.8-2.8-7.8
					c0-3.2-1.4-5.3-1.9-8.4c-0.4-2.8,2.5-5.4,1.8-8.3c-0.6-2.5-3.3-4.2-5.1-6.1c-1.7-1.8-2.1-3.8-3-5.8c-1.1-2.4-2.4-2.8-2.7-5.3
					c-0.2-2.2-0.4-4.6-4.1-5.2c-4.3-0.7-3.8,2.2-5.7,3.9C360.7,128.8,357.7,129.3,356.9,132.7z"/>
				<path class="st13" d="M385.3,192.1c0.7-3,2.6-4.8,1.9-8c-0.6-2.6-1.9-4.5-1.4-7.1c0.6-2.7,1.8-4.8,0.8-7.5
					c-1-2.8-2.8-4.8-2.8-7.8c0-3.2-1.4-5.3-1.9-8.4c-0.4-2.8,2.5-5.4,1.8-8.3c-0.6-2.5-3.3-4.2-5.1-6.1c-1.7-1.8-2.1-3.8-3-5.8
					c-1.1-2.4-2.4-2.8-2.7-5.3c-0.2-2.2-0.4-4.6-4.1-5.2c-4.3-0.7-3.8,2.2-5.7,3.9c-0.1,0.1-0.3,0.3-0.4,0.4
					c0.3,0.4,3.4-2.7,3.9-2.4c1.1,0.7,2.9,0.5,3.8,1.3c1.8,1.6-2.2,4.9-2.2,6.6c0,2.5,3.6,4.8,2.7,6.9c-0.7,1.5-2.4,1.9-1.8,3.8
					c0.4,1.2,2.8,2.1,3.8,3c3,2.6,2.5,3.8-0.6,6.3c-0.9,0.8-2.3,1.1-2.9,2c-0.8,1.2,0.4,2.2-1.2,3.4c-3,2.2-5.7,1-4.2,5.3
					c0.9,2.6,1,3.9,3.1,5.8c4.2,3.7,0.1,3.3-2.4,6.1c-1.7,1.9-0.5,2.2,0.3,4.1c1.4,3.1,1,3.6-0.4,6.2c-1,1.9-0.2,4.1-1.1,5.9
					c-1.2,2.2-4.6,2.5-5.9,0.3c-1-1.6,1.9-3.4-1-4.4c-2.6-0.9-4.1,1.7-5.7,2.9c-4.5-2.7-1.7-4.6-0.8-7.4c1.2-3.9-2.7-3.1-4.6-4.9
					c-2.8-2.6,1-5.3,1.4-7.8c0.2-1.3-0.6-2.3-0.2-3.9c0.4-1.6,2.8-2.1,2.6-4c-0.2-2.2-1.3-3.8-3-4.9c-0.4,0.7-0.7,1.4-0.8,2.2
					c-0.1,1.2,0.8,2.3,0.6,3.5c-0.2,1.6-1.7,2.9-2.5,4.2c-1.2,2.1-2.4,5.3-2.4,7.8c0,2.4,1.9,4.9,1.2,7.3c-0.8,2.6-3.5,4.6-4,7.4
					c-0.5,2.9,1.4,4.7,2.3,7.3c1,2.9-1.6,4.2-1.5,6.8c0.1,1.3,1.7,1.7,2,2.7c0.6,1.9-0.6,1.9-0.7,3.9c0,0.8,0.8,2.7,1,3.6
					c0.1,0.6-0.7,0.9-0.4,1.7c0.4,1,1.6,1.2,2,2.1c0.6,1.2,0,1.8,0.4,2.9c0.6,1.5,1.9,2.5,2.9,3.8c2.1,2.8-0.1,3.5,0.2,6.4
					c0.3,2.9,3.6,4.1,6.1,5.6c2.7,1.6,8.8,7.2,12.4,6.5c2-0.4,6.2-3.4,7.9-4.7c2.6-2,0.5-6,3.5-7.7s5-4.1,5.2-7.1
					c0.2-3.1-0.8-5.1,0.2-8.2c0.8-2.5-0.2-4.4,0.2-7c0.4-2.9,3.4-5.2,3.9-8.3C386.3,197.2,384.6,194.7,385.3,192.1z"/>
				<path class="st14" d="M385.8,176.9c0.6-2.7,1.8-4.8,0.8-7.5c-0.8-2.1-2-3.8-2.6-5.9c-0.1,0.1-0.3,0.3-0.2,0.4
					c1.1,3.5,0.2,4.5-1,6.7c-0.8,1.5-1.9,1.6-1.8,3.3c0,1.4,1.6,2.1,1.9,3.3c0.7,2.3-0.6,4.6-0.1,6.8c0.6,3,0.5,3.3-1.1,5.9
					c-0.8,1.3-1.2,0.9-1.5,2.5c-0.1,0.7,0.6,1.9,0.3,2.9c-1,3.2-3.8,2.6-6.6,4.3c1.2,2.9-1.7,3.2-3,5.4c-1.5,2.6,1.4,5.9-2.2,8.1
					c-1.3,0.8-2.8,0.5-4.5,1.1c-1.5,0.5-1,1.6-3.1,1.7c-5.5,0.5-3.6-0.2-4.4-2c-0.4-0.9-2.3-1.2-2.9-1.9c-0.9-1.2-4.2-1.3-4.9-2.5
					c-0.7-1.2-1.2-4.2-1.9-5.3c-0.7-1.1,0.5-2.2,0.1-3.3c-0.5-1.6-1.9-1.3-2.6-2.5c-0.6-1-0.2-2.1-0.8-3.2c-0.9-1.7-1-4.8-3.4-3.4
					c-0.6,0.3-0.9,1.1-1.1,2c0.5,0.9,1,1.9,1.4,2.9c1,2.9-1.6,4.2-1.5,6.8c0.1,1.3,1.7,1.7,2,2.7c0.6,1.9-0.6,1.9-0.7,3.9
					c0,0.8,0.8,2.7,1,3.6c0.1,0.6-0.7,0.9-0.4,1.7c0.4,1,1.6,1.2,2,2.1c0.6,1.2,0,1.8,0.4,2.9c0.6,1.5,1.9,2.5,2.9,3.8
					c2.1,2.8-0.1,3.5,0.2,6.4c0.3,2.9,3.6,4.1,6.1,5.6c2.7,1.6,8.8,7.2,12.4,6.5c2-0.4,6.2-3.4,7.9-4.7c2.6-2,0.5-6,3.5-7.7
					s5-4.1,5.2-7.1c0.2-3.1-0.8-5.1,0.2-8.2c0.8-2.5-0.2-4.4,0.2-7c0.4-2.9,3.4-5.2,3.9-8.3c0.4-2.7-1.2-5.2-0.6-7.9
					c0.7-3,2.6-4.8,1.9-8C386.5,181.4,385.2,179.5,385.8,176.9z"/>
			</g>
		</g>
		<g class="st10">
			<g class="st15">
			</g>
			<g>
				<path class="st16" d="M768.9,200.4c-0.9,3.6-3.1,7.4,1.3,8.1c2,0.3,2.8,0,4.3-0.7c1.4-0.6,0.6-6.1,0.5-9c-0.1-4-1-2.9-0.1-6.6
					c0.6-2.3,0.1-11.7-0.6-13.9c-1.9-5.9-3.9-1.8-3.9,2.1C770.7,187.6,770.9,192.3,768.9,200.4z"/>
				<path class="st13" d="M764.3,60.9c-0.3,1.3,0.7,2.7,0,4.1c-0.7,1.4-2.2,1.8-3.3,2.9c-2.3,2.6-1.9,5.5-4.3,8.3
					c-1.1,1.4-3,2.7-3.5,4.3c-0.3,1.2,1,2.8,0.9,3.8c-0.2,3-3.1,4.7-3.4,7.7c-0.1,1.3,0.9,2.7,0.7,4.1c-0.3,1.8-2,3.3-2.9,4.9
					c-1.4,2.5-2.8,6.2-2.8,9.1c0.1,2.9,2.2,5.7,1.4,8.5c-0.9,3.1-4.1,5.4-4.7,8.7c-0.6,3.3,1.6,5.5,2.7,8.5c1.2,3.3-1.9,4.9-1.7,8
					c0.1,1.6,1.9,2,2.3,3.1c0.7,2.2-0.7,2.3-0.8,4.6c-0.1,0.9,1,3.1,1.1,4.2c0.1,0.7-0.8,1.1-0.4,2c0.4,1.2,1.8,1.4,2.4,2.4
					c0.7,1.3,0,2.2,0.5,3.4c0.7,1.8,2.2,2.9,3.3,4.5c2.4,3.3-0.1,4.1,0.2,7.5s4.1,4.8,7.1,6.6c3.2,1.9,10.2,8.4,14.4,7.5
					c2.4-0.5,7.2-4,9.2-5.5c3.1-2.4,0.6-7,4.1-9s5.8-4.8,6-8.3c0.2-3.6-0.9-6,0.3-9.6c0.9-2.9-0.2-5.2,0.2-8.1c0.5-3.3,4-6,4.6-9.7
					c0.5-3.1-1.5-6.1-0.7-9.2c0.9-3.4,3-5.6,2.2-9.4c-0.7-3-2.2-5.2-1.6-8.3c0.7-3.1,2.1-5.6,1-8.7c-1.2-3.2-3.3-5.6-3.3-9.1
					c0-3.8-1.7-6.2-2.2-9.7c-0.4-3.2,2.9-6.3,2.1-9.7c-0.7-2.9-3.8-4.9-6-7.1c-2-2.1-2.5-4.5-3.5-6.7c-1.3-2.8-2.8-3.3-3.1-6.2
					c-0.3-2.6-0.5-5.4-4.8-6.1c-5-0.8-4.5,2.5-6.6,4.6C768.7,56.4,765.2,56.9,764.3,60.9z"/>
				<path class="st13" d="M797.3,130.2c0.9-3.4,3-5.6,2.2-9.4c-0.7-3-2.2-5.2-1.6-8.3c0.7-3.1,2.1-5.6,1-8.7
					c-1.2-3.2-3.3-5.6-3.3-9.1c0-3.8-1.7-6.2-2.2-9.7c-0.4-3.2,2.9-6.3,2.1-9.7c-0.7-2.9-3.8-4.9-6-7.1c-2-2.1-2.5-4.5-3.5-6.7
					c-1.3-2.8-2.8-3.3-3.1-6.2c-0.3-2.6-0.5-5.4-4.8-6.1c-5-0.8-4.5,2.5-6.6,4.6c-0.2,0.2-0.3,0.3-0.5,0.4c0.4,0.5,4-3.2,4.6-2.8
					c1.3,0.8,3.4,0.6,4.4,1.5c2.1,1.9-2.6,5.7-2.6,7.7c0,2.9,4.2,5.7,3.2,8c-0.8,1.8-2.8,2.2-2.1,4.4c0.5,1.4,3.3,2.5,4.5,3.5
					c3.5,3,2.9,4.4-0.7,7.4c-1.1,0.9-2.7,1.3-3.4,2.3c-1,1.3,0.5,2.6-1.4,4c-3.5,2.6-6.6,1.2-4.9,6.2c1.1,3.1,1.2,4.6,3.7,6.8
					c4.9,4.3,0.1,3.9-2.8,7.1c-2,2.2-0.6,2.6,0.4,4.8c1.6,3.6,1.1,4.1-0.5,7.2c-1.2,2.2-0.2,4.8-1.3,6.9c-1.4,2.5-5.4,3-6.9,0.3
					c-1.2-1.9,2.3-3.9-1.2-5.1c-3-1-4.8,2-6.6,3.4c-5.2-3.1-2-5.3-0.9-8.6c1.4-4.6-3.1-3.6-5.4-5.8c-3.2-3.1,1.2-6.2,1.6-9
					c0.2-1.5-0.7-2.7-0.3-4.5c0.5-1.9,3.2-2.4,3.1-4.6c-0.2-2.5-1.5-4.5-3.6-5.7c-0.4,0.8-0.8,1.6-0.9,2.6c-0.1,1.3,0.9,2.7,0.7,4.1
					c-0.3,1.8-2,3.3-2.9,4.9c-1.4,2.5-2.8,6.2-2.8,9.1c0.1,2.9,2.2,5.7,1.4,8.5c-0.9,3.1-4.1,5.4-4.7,8.7c-0.6,3.3,1.6,5.5,2.7,8.5
					c1.2,3.3-1.9,4.9-1.7,8c0.1,1.6,1.9,2,2.3,3.1c0.7,2.2-0.7,2.3-0.8,4.6c-0.1,0.9,1,3.1,1.1,4.2c0.1,0.7-0.8,1.1-0.4,2
					c0.4,1.2,1.8,1.4,2.4,2.4c0.7,1.3,0,2.2,0.5,3.4c0.7,1.8,2.2,2.9,3.3,4.5c2.4,3.3-0.1,4.1,0.2,7.5s4.1,4.8,7.1,6.6
					c3.2,1.9,10.2,8.4,14.4,7.5c2.4-0.5,7.2-4,9.2-5.5c3.1-2.4,0.6-7,4.1-9s5.8-4.8,6-8.3c0.2-3.6-0.9-6,0.3-9.6
					c0.9-2.9-0.2-5.2,0.2-8.1c0.5-3.3,4-6,4.6-9.7C798.5,136.2,796.6,133.3,797.3,130.2z"/>
				<path class="st14" d="M797.9,112.5c0.7-3.1,2.1-5.6,1-8.7c-0.9-2.5-2.4-4.5-3-6.8c-0.1,0.1-0.3,0.3-0.3,0.5
					c1.3,4.1,0.3,5.2-1.1,7.9c-0.9,1.7-2.2,1.9-2.1,3.8c0,1.6,1.8,2.4,2.3,3.8c0.9,2.7-0.6,5.3-0.1,8c0.7,3.5,0.6,3.8-1.3,6.9
					c-0.9,1.5-1.4,1.1-1.7,2.9c-0.1,0.8,0.7,2.2,0.3,3.4c-1.1,3.8-4.5,3-7.7,5c1.4,3.4-2,3.7-3.5,6.4c-1.7,3,1.6,6.9-2.5,9.5
					c-1.5,0.9-3.2,0.6-5.2,1.3c-1.8,0.6-1.1,1.8-3.6,2c-6.4,0.5-4.2-0.2-5.1-2.3c-0.5-1.1-2.7-1.4-3.3-2.3c-1-1.4-4.9-1.5-5.7-2.9
					s-1.4-4.9-2.3-6.2c-0.9-1.3,0.5-2.6,0.1-3.9c-0.6-1.8-2.2-1.6-3.1-2.9c-0.8-1.2-0.3-2.5-1-3.8c-1-2-1.2-5.6-4-4
					c-0.7,0.4-1.1,1.3-1.3,2.4c0.6,1.1,1.2,2.2,1.6,3.4c1.2,3.3-1.9,4.9-1.7,8c0.1,1.6,1.9,2,2.3,3.1c0.7,2.2-0.7,2.3-0.8,4.6
					c-0.1,0.9,1,3.1,1.1,4.2c0.1,0.7-0.8,1.1-0.4,2c0.4,1.2,1.8,1.4,2.4,2.4c0.7,1.3,0,2.2,0.5,3.4c0.7,1.8,2.2,2.9,3.3,4.5
					c2.4,3.3-0.1,4.1,0.2,7.5s4.1,4.8,7.1,6.6c3.2,1.9,10.2,8.4,14.4,7.5c2.4-0.5,7.2-4,9.2-5.5c3.1-2.4,0.6-7,4.1-9s5.8-4.8,6-8.3
					c0.2-3.6-0.9-6,0.3-9.6c0.9-2.9-0.2-5.2,0.2-8.1c0.5-3.3,4-6,4.6-9.7c0.5-3.1-1.5-6.1-0.7-9.2c0.9-3.4,3-5.6,2.2-9.4
					C798.8,117.8,797.3,115.6,797.9,112.5z"/>
			</g>
		</g>
		<g class="st10">
			<g class="st15">
			</g>
			<g>
				<path class="st16" d="M1021,39.5c-0.7,3-2.5,6.1,1.1,6.6c1.7,0.3,2.3,0,3.5-0.5s0.5-5,0.4-7.3c-0.1-3.3-0.8-2.4-0.1-5.4
					c0.5-1.8,0.1-9.6-0.5-11.3c-1.6-4.8-3.2-1.5-3.1,1.7C1022.5,29,1022.7,32.8,1021,39.5z"/>
				<path class="st13" d="M1017.3-74.2c-0.3,1,0.6,2.2,0,3.3c-0.6,1.1-1.8,1.4-2.7,2.4c-1.9,2.1-1.5,4.5-3.5,6.8
					c-0.9,1.1-2.5,2.2-2.9,3.5c-0.3,0.9,0.8,2.3,0.7,3.1c-0.2,2.5-2.5,3.9-2.8,6.3c-0.1,1.1,0.8,2.2,0.6,3.3c-0.2,1.5-1.6,2.7-2.4,4
					c-1.1,2-2.3,5-2.3,7.4c0,2.3,1.8,4.6,1.1,6.9c-0.7,2.5-3.3,4.4-3.8,7.1s1.3,4.5,2.2,7c0.9,2.7-1.5,4-1.4,6.5
					c0.1,1.3,1.6,1.6,1.9,2.5c0.6,1.8-0.6,1.9-0.7,3.7c0,0.8,0.8,2.6,0.9,3.4c0.1,0.5-0.6,0.9-0.3,1.7c0.4,1,1.5,1.1,1.9,2
					c0.5,1.1,0,1.8,0.4,2.8c0.6,1.4,1.8,2.4,2.7,3.6c2,2.7-0.1,3.3,0.2,6.1c0.2,2.7,3.4,3.9,5.8,5.4c2.6,1.6,8.3,6.8,11.8,6.1
					c1.9-0.4,5.9-3.2,7.5-4.5c2.5-1.9,0.5-5.7,3.3-7.3c2.8-1.6,4.7-3.9,4.9-6.7c0.2-2.9-0.8-4.9,0.2-7.8c0.8-2.3-0.2-4.2,0.2-6.6
					c0.4-2.7,3.3-4.9,3.7-7.9c0.4-2.6-1.2-5-0.6-7.5c0.7-2.8,2.5-4.6,1.8-7.6c-0.6-2.5-1.8-4.3-1.3-6.8c0.5-2.6,1.7-4.5,0.8-7.1
					c-1-2.6-2.7-4.5-2.7-7.4c0-3.1-1.4-5-1.8-7.9c-0.4-2.6,2.3-5.1,1.7-7.9c-0.5-2.4-3.1-4-4.9-5.8c-1.7-1.7-2-3.6-2.9-5.5
					c-1.1-2.3-2.3-2.7-2.5-5.1c-0.2-2.1-0.4-4.4-3.9-5c-4-0.7-3.6,2.1-5.4,3.7C1020.9-77.9,1018-77.5,1017.3-74.2z"/>
				<path class="st13" d="M1044.2-17.8c0.7-2.8,2.5-4.6,1.8-7.6c-0.6-2.5-1.8-4.3-1.3-6.8c0.5-2.6,1.7-4.5,0.8-7.1
					c-1-2.6-2.7-4.5-2.7-7.4c0-3.1-1.4-5-1.8-7.9c-0.4-2.6,2.3-5.1,1.7-7.9c-0.5-2.4-3.1-4-4.9-5.8c-1.7-1.7-2-3.6-2.9-5.5
					c-1.1-2.3-2.3-2.7-2.5-5.1c-0.2-2.1-0.4-4.4-3.9-5c-4-0.7-3.6,2.1-5.4,3.7c-0.1,0.1-0.3,0.2-0.4,0.4c0.3,0.4,3.2-2.6,3.7-2.3
					c1,0.6,2.8,0.5,3.6,1.2c1.7,1.5-2.1,4.7-2.1,6.3c0,2.3,3.4,4.6,2.6,6.6c-0.6,1.5-2.3,1.8-1.7,3.6c0.4,1.2,2.7,2,3.7,2.8
					c2.9,2.4,2.3,3.6-0.6,6c-0.9,0.7-2.2,1-2.8,1.9c-0.8,1.1,0.4,2.1-1.1,3.2c-2.9,2.1-5.4,1-4,5.1c0.9,2.5,1,3.7,3,5.5
					c4,3.5,0.1,3.2-2.2,5.8c-1.6,1.8-0.5,2.1,0.3,3.9c1.3,2.9,0.9,3.4-0.4,5.9c-0.9,1.8-0.1,3.9-1.1,5.6c-1.1,2.1-4.4,2.4-5.7,0.3
					c-0.9-1.6,1.8-3.2-1-4.2c-2.5-0.9-3.9,1.6-5.4,2.8c-4.3-2.5-1.6-4.3-0.8-7c1.2-3.7-2.6-2.9-4.4-4.7c-2.6-2.5,1-5.1,1.3-7.4
					c0.2-1.2-0.6-2.2-0.2-3.7c0.4-1.5,2.6-2,2.5-3.8c-0.2-2.1-1.2-3.6-2.9-4.7c-0.4,0.6-0.7,1.3-0.8,2.1c-0.1,1.1,0.8,2.2,0.6,3.3
					c-0.2,1.5-1.6,2.7-2.4,4c-1.1,2-2.3,5-2.3,7.4c0,2.3,1.8,4.6,1.1,6.9c-0.7,2.5-3.3,4.4-3.8,7.1s1.3,4.5,2.2,7
					c0.9,2.7-1.5,4-1.4,6.5c0.1,1.3,1.6,1.6,1.9,2.5c0.6,1.8-0.6,1.9-0.7,3.7c0,0.8,0.8,2.6,0.9,3.4c0.1,0.5-0.6,0.9-0.3,1.7
					c0.4,1,1.5,1.1,1.9,2c0.5,1.1,0,1.8,0.4,2.8c0.6,1.4,1.8,2.4,2.7,3.6c2,2.7-0.1,3.3,0.2,6.1c0.2,2.7,3.4,3.9,5.8,5.4
					c2.6,1.6,8.3,6.8,11.8,6.1c1.9-0.4,5.9-3.2,7.5-4.5c2.5-1.9,0.5-5.7,3.3-7.3c2.8-1.6,4.7-3.9,4.9-6.7c0.2-2.9-0.8-4.9,0.2-7.8
					c0.8-2.3-0.2-4.2,0.2-6.6c0.4-2.7,3.3-4.9,3.7-7.9C1045.2-12.8,1043.6-15.3,1044.2-17.8z"/>
				<path class="st14" d="M1044.7-32.2c0.5-2.6,1.7-4.5,0.8-7.1c-0.7-2-1.9-3.6-2.4-5.6c-0.1,0.1-0.3,0.2-0.2,0.4
					c1.1,3.3,0.2,4.2-0.9,6.4c-0.7,1.4-1.8,1.5-1.7,3.1c0,1.3,1.5,2,1.8,3.1c0.7,2.2-0.5,4.4-0.1,6.5c0.6,2.8,0.5,3.1-1.1,5.6
					c-0.8,1.2-1.1,0.9-1.4,2.4c-0.1,0.7,0.6,1.8,0.3,2.8c-0.9,3.1-3.7,2.5-6.3,4.1c1.2,2.8-1.6,3-2.9,5.2c-1.4,2.5,1.3,5.6-2.1,7.7
					c-1.2,0.8-2.6,0.5-4.3,1.1c-1.4,0.5-0.9,1.5-2.9,1.7c-5.2,0.4-3.4-0.2-4.2-1.9c-0.4-0.9-2.2-1.1-2.7-1.8c-0.8-1.1-4-1.2-4.6-2.3
					c-0.7-1.1-1.2-4-1.9-5.1s0.4-2.1,0.1-3.2c-0.5-1.5-1.8-1.3-2.5-2.4c-0.6-0.9-0.2-2-0.8-3.1c-0.9-1.6-1-4.5-3.3-3.3
					c-0.6,0.3-0.9,1-1,1.9c0.5,0.9,1,1.8,1.3,2.8c0.9,2.7-1.5,4-1.4,6.5c0.1,1.3,1.6,1.6,1.9,2.5c0.6,1.8-0.6,1.9-0.7,3.7
					c0,0.8,0.8,2.6,0.9,3.4c0.1,0.5-0.6,0.9-0.3,1.7c0.4,1,1.5,1.1,1.9,2c0.5,1.1,0,1.8,0.4,2.8c0.6,1.4,1.8,2.4,2.7,3.6
					c2,2.7-0.1,3.3,0.2,6.1c0.2,2.7,3.4,3.9,5.8,5.4c2.6,1.6,8.3,6.8,11.8,6.1c1.9-0.4,5.9-3.2,7.5-4.5c2.5-1.9,0.5-5.7,3.3-7.3
					c2.8-1.6,4.7-3.9,4.9-6.7c0.2-2.9-0.8-4.9,0.2-7.8c0.8-2.3-0.2-4.2,0.2-6.6c0.4-2.7,3.3-4.9,3.7-7.9c0.4-2.6-1.2-5-0.6-7.5
					c0.7-2.8,2.5-4.6,1.8-7.6C1045.4-27.9,1044.2-29.7,1044.7-32.2z"/>
			</g>
		</g>
		<g class="st10">
			<g class="st15">
			</g>
			<g>
				<path class="st16" d="M1092.5,12c-0.7,2.8-2.4,5.7,1,6.3c1.6,0.3,2.1,0,3.4-0.5c1.1-0.5,0.4-4.7,0.4-6.9c-0.1-3.1-0.8-2.3,0-5.1
					c0.4-1.7,0.1-9-0.4-10.7c-1.5-4.5-3-1.4-3,1.6C1093.9,2.1,1094.1,5.7,1092.5,12z"/>
				<path class="st13" d="M1088.9-95.5c-0.2,1,0.6,2.1,0,3.1c-0.5,1.1-1.7,1.4-2.5,2.3c-1.8,2-1.5,4.2-3.3,6.4
					c-0.9,1.1-2.3,2.1-2.7,3.3c-0.3,0.9,0.8,2.2,0.7,2.9c-0.2,2.3-2.4,3.7-2.6,6c-0.1,1,0.7,2.1,0.6,3.1c-0.2,1.4-1.5,2.6-2.2,3.8
					c-1.1,1.9-2.2,4.7-2.2,7c0,2.2,1.7,4.4,1.1,6.5c-0.7,2.4-3.1,4.1-3.6,6.7s1.2,4.2,2.1,6.6c0.9,2.6-1.4,3.8-1.3,6.1
					c0,1.2,1.5,1.5,1.8,2.4c0.6,1.7-0.5,1.8-0.6,3.5c0,0.7,0.7,2.4,0.9,3.2c0.1,0.5-0.6,0.8-0.3,1.6c0.3,0.9,1.4,1.1,1.8,1.9
					c0.5,1,0,1.7,0.4,2.6c0.5,1.4,1.7,2.2,2.6,3.4c1.8,2.5-0.1,3.2,0.2,5.8c0.2,2.6,3.2,3.7,5.5,5.1c2.4,1.5,7.9,6.5,11.1,5.8
					c1.8-0.4,5.6-3.1,7.1-4.2c2.4-1.8,0.4-5.4,3.1-6.9s4.5-3.7,4.6-6.4c0.2-2.8-0.7-4.6,0.2-7.4c0.7-2.2-0.2-4,0.1-6.3
					c0.3-2.6,3.1-4.6,3.5-7.5c0.4-2.4-1.1-4.7-0.5-7.1c0.7-2.7,2.3-4.3,1.7-7.2c-0.5-2.3-1.7-4-1.2-6.4s1.6-4.3,0.7-6.7
					c-0.9-2.5-2.5-4.3-2.5-7c0-2.9-1.3-4.8-1.7-7.5c-0.3-2.5,2.2-4.9,1.6-7.5c-0.5-2.2-3-3.7-4.6-5.5c-1.6-1.6-1.9-3.4-2.7-5.2
					c-1-2.2-2.2-2.6-2.4-4.8c-0.2-2-0.4-4.1-3.7-4.7c-3.8-0.6-3.4,1.9-5.1,3.5C1092.3-99,1089.7-98.6,1088.9-95.5z"/>
				<path class="st13" d="M1114.4-42.1c0.7-2.7,2.3-4.3,1.7-7.2c-0.5-2.3-1.7-4-1.2-6.4s1.6-4.3,0.7-6.7c-0.9-2.5-2.5-4.3-2.5-7
					c0-2.9-1.3-4.8-1.7-7.5c-0.3-2.5,2.2-4.9,1.6-7.5c-0.5-2.2-3-3.7-4.6-5.5c-1.6-1.6-1.9-3.4-2.7-5.2c-1-2.2-2.2-2.6-2.4-4.8
					c-0.2-2-0.4-4.1-3.7-4.7c-3.8-0.6-3.4,1.9-5.1,3.5c-0.1,0.1-0.3,0.2-0.4,0.3c0.3,0.4,3.1-2.4,3.5-2.1c1,0.6,2.6,0.4,3.4,1.1
					c1.6,1.4-2,4.4-2,5.9c0,2.2,3.2,4.4,2.4,6.2c-0.6,1.4-2.2,1.7-1.6,3.4c0.4,1.1,2.6,1.9,3.5,2.7c2.7,2.3,2.2,3.4-0.6,5.7
					c-0.8,0.7-2.1,1-2.7,1.8c-0.7,1,0.4,2-1.1,3.1c-2.7,2-5.1,0.9-3.7,4.8c0.8,2.4,0.9,3.5,2.8,5.2c3.8,3.3,0.1,3-2.1,5.5
					c-1.5,1.7-0.4,2,0.3,3.7c1.2,2.8,0.9,3.2-0.4,5.6c-0.9,1.7-0.1,3.7-1,5.3c-1.1,2-4.1,2.3-5.3,0.2c-0.9-1.5,1.7-3-0.9-3.9
					c-2.3-0.8-3.7,1.5-5.1,2.6c-4-2.4-1.5-4.1-0.7-6.6c1.1-3.5-2.4-2.8-4.2-4.4c-2.5-2.4,0.9-4.8,1.2-7c0.2-1.1-0.6-2.1-0.2-3.5
					c0.4-1.5,2.5-1.9,2.4-3.6c-0.2-1.9-1.2-3.4-2.7-4.4c-0.3,0.6-0.6,1.2-0.7,2c-0.1,1,0.7,2.1,0.6,3.1c-0.2,1.4-1.5,2.6-2.2,3.8
					c-1.1,1.9-2.2,4.7-2.2,7c0,2.2,1.7,4.4,1.1,6.5c-0.7,2.4-3.1,4.1-3.6,6.7s1.2,4.2,2.1,6.6c0.9,2.6-1.4,3.8-1.3,6.1
					c0,1.2,1.5,1.5,1.8,2.4c0.6,1.7-0.5,1.8-0.6,3.5c0,0.7,0.7,2.4,0.9,3.2c0.1,0.5-0.6,0.8-0.3,1.6c0.3,0.9,1.4,1.1,1.8,1.9
					c0.5,1,0,1.7,0.4,2.6c0.5,1.4,1.7,2.2,2.6,3.4c1.8,2.5-0.1,3.2,0.2,5.8c0.2,2.6,3.2,3.7,5.5,5.1c2.4,1.5,7.9,6.5,11.1,5.8
					c1.8-0.4,5.6-3.1,7.1-4.2c2.4-1.8,0.4-5.4,3.1-6.9s4.5-3.7,4.6-6.4c0.2-2.8-0.7-4.6,0.2-7.4c0.7-2.2-0.2-4,0.1-6.3
					c0.3-2.6,3.1-4.6,3.5-7.5C1115.3-37.5,1113.8-39.8,1114.4-42.1z"/>
				<path class="st14" d="M1114.8-55.8c0.5-2.4,1.6-4.3,0.7-6.7c-0.7-1.9-1.8-3.4-2.3-5.3c-0.1,0.1-0.3,0.2-0.2,0.4
					c1,3.2,0.2,4-0.9,6.1c-0.7,1.3-1.7,1.4-1.6,2.9c0,1.2,1.4,1.9,1.7,3c0.7,2.1-0.5,4.1-0.1,6.2c0.5,2.7,0.5,2.9-1,5.3
					c-0.7,1.1-1.1,0.8-1.3,2.3c-0.1,0.6,0.5,1.7,0.3,2.6c-0.9,2.9-3.5,2.3-5.9,3.9c1.1,2.6-1.5,2.9-2.7,4.9c-1.3,2.3,1.3,5.3-2,7.3
					c-1.2,0.7-2.5,0.5-4,1c-1.4,0.5-0.9,1.4-2.8,1.6c-4.9,0.4-3.2-0.2-3.9-1.8c-0.4-0.8-2.1-1-2.6-1.7c-0.8-1-3.8-1.2-4.4-2.2
					c-0.6-1.1-1.1-3.8-1.8-4.8c-0.7-1,0.4-2,0.1-3c-0.5-1.4-1.7-1.2-2.4-2.3c-0.6-0.9-0.2-1.9-0.7-2.9c-0.8-1.5-0.9-4.3-3.1-3.1
					c-0.5,0.3-0.8,1-1,1.8c0.4,0.8,0.9,1.7,1.2,2.6c0.9,2.6-1.4,3.8-1.3,6.1c0,1.2,1.5,1.5,1.8,2.4c0.6,1.7-0.5,1.8-0.6,3.5
					c0,0.7,0.7,2.4,0.9,3.2c0.1,0.5-0.6,0.8-0.3,1.6c0.3,0.9,1.4,1.1,1.8,1.9c0.5,1,0,1.7,0.4,2.6c0.5,1.4,1.7,2.2,2.6,3.4
					c1.8,2.5-0.1,3.2,0.2,5.8c0.2,2.6,3.2,3.7,5.5,5.1c2.4,1.5,7.9,6.5,11.1,5.8c1.8-0.4,5.6-3.1,7.1-4.2c2.4-1.8,0.4-5.4,3.1-6.9
					s4.5-3.7,4.6-6.4c0.2-2.8-0.7-4.6,0.2-7.4c0.7-2.2-0.2-4,0.1-6.3c0.3-2.6,3.1-4.6,3.5-7.5c0.4-2.4-1.1-4.7-0.5-7.1
					c0.7-2.7,2.3-4.3,1.7-7.2C1115.5-51.7,1114.3-53.4,1114.8-55.8z"/>
			</g>
		</g>
		<g class="st10">
			<g class="st15">
			</g>
			<g>
				<path class="st16" d="M1154.9-5.2c-0.6,2.5-2.1,5.1,0.9,5.6c1.4,0.2,1.9,0,3-0.4c1-0.4,0.4-4.2,0.3-6.1c-0.1-2.7-0.7-2,0-4.5
					c0.4-1.5,0.1-8-0.4-9.5c-1.3-4-2.7-1.2-2.6,1.4C1156.1-14,1156.3-10.8,1154.9-5.2z"/>
				<path class="st13" d="M1151.7-100.4c-0.2,0.9,0.5,1.9,0,2.8c-0.5,1-1.5,1.2-2.2,2c-1.6,1.8-1.3,3.7-2.9,5.7
					c-0.8,0.9-2.1,1.9-2.4,3c-0.2,0.8,0.7,1.9,0.6,2.6c-0.1,2.1-2.1,3.2-2.3,5.3c-0.1,0.9,0.6,1.8,0.5,2.8c-0.2,1.2-1.4,2.3-2,3.4
					c-0.9,1.7-1.9,4.2-1.9,6.2c0,1.9,1.5,3.9,1,5.8c-0.6,2.1-2.8,3.7-3.2,5.9c-0.4,2.3,1.1,3.7,1.8,5.8c0.8,2.3-1.3,3.3-1.2,5.4
					c0,1.1,1.3,1.3,1.6,2.1c0.5,1.5-0.5,1.5-0.6,3.1c0,0.6,0.7,2.1,0.8,2.8c0.1,0.5-0.5,0.7-0.3,1.4c0.3,0.8,1.2,0.9,1.6,1.7
					c0.5,0.9,0,1.5,0.3,2.3c0.5,1.2,1.5,2,2.3,3c1.6,2.2-0.1,2.8,0.2,5.1c0.2,2.3,2.8,3.2,4.8,4.5c2.2,1.3,7,5.7,9.8,5.1
					c1.6-0.3,4.9-2.7,6.2-3.7c2.1-1.6,0.4-4.8,2.8-6.1c2.4-1.4,4-3.3,4.1-5.6c0.2-2.4-0.6-4.1,0.2-6.6c0.6-2-0.1-3.5,0.1-5.6
					c0.3-2.3,2.7-4.1,3.1-6.6c0.3-2.1-1-4.2-0.5-6.3c0.6-2.4,2.1-3.8,1.5-6.4c-0.5-2.1-1.5-3.6-1.1-5.7c0.5-2.1,1.4-3.8,0.7-5.9
					c-0.8-2.2-2.2-3.8-2.2-6.2c0-2.6-1.1-4.2-1.5-6.6c-0.3-2.2,2-4.3,1.4-6.6c-0.5-2-2.6-3.3-4.1-4.8c-1.4-1.4-1.7-3-2.4-4.6
					c-0.9-1.9-1.9-2.3-2.1-4.2c-0.2-1.8-0.3-3.7-3.3-4.1c-3.4-0.6-3,1.7-4.5,3.1C1154.7-103.4,1152.4-103.1,1151.7-100.4z"/>
				<path class="st13" d="M1174.3-53.1c0.6-2.4,2.1-3.8,1.5-6.4c-0.5-2.1-1.5-3.6-1.1-5.7c0.5-2.1,1.4-3.8,0.7-5.9
					c-0.8-2.2-2.2-3.8-2.2-6.2c0-2.6-1.1-4.2-1.5-6.6c-0.3-2.2,2-4.3,1.4-6.6c-0.5-2-2.6-3.3-4.1-4.8c-1.4-1.4-1.7-3-2.4-4.6
					c-0.9-1.9-1.9-2.3-2.1-4.2c-0.2-1.8-0.3-3.7-3.3-4.1c-3.4-0.6-3,1.7-4.5,3.1c-0.1,0.1-0.2,0.2-0.3,0.3c0.3,0.3,2.7-2.2,3.1-1.9
					c0.9,0.5,2.3,0.4,3,1c1.4,1.3-1.8,3.9-1.8,5.2c0,2,2.8,3.9,2.2,5.5c-0.5,1.2-1.9,1.5-1.4,3c0.3,1,2.3,1.7,3.1,2.4
					c2.4,2,2,3-0.5,5c-0.7,0.6-1.8,0.9-2.3,1.6c-0.7,0.9,0.3,1.8-1,2.7c-2.4,1.8-4.5,0.8-3.3,4.2c0.8,2.1,0.8,3.1,2.5,4.6
					c3.4,2.9,0.1,2.7-1.9,4.8c-1.4,1.5-0.4,1.7,0.3,3.2c1.1,2.5,0.8,2.8-0.3,4.9c-0.8,1.5-0.1,3.3-0.9,4.7c-1,1.7-3.6,2-4.7,0.2
					c-0.8-1.3,1.5-2.7-0.8-3.5c-2.1-0.7-3.3,1.3-4.5,2.3c-3.6-2.1-1.3-3.6-0.6-5.9c1-3.1-2.1-2.4-3.7-3.9c-2.2-2.1,0.8-4.3,1.1-6.2
					c0.1-1-0.5-1.8-0.2-3.1c0.3-1.3,2.2-1.7,2.1-3.2c-0.1-1.7-1-3-2.4-3.9c-0.3,0.5-0.6,1.1-0.6,1.8c-0.1,0.9,0.6,1.8,0.5,2.8
					c-0.2,1.2-1.4,2.3-2,3.4c-0.9,1.7-1.9,4.2-1.9,6.2c0,1.9,1.5,3.9,1,5.8c-0.6,2.1-2.8,3.7-3.2,5.9c-0.4,2.3,1.1,3.7,1.8,5.8
					c0.8,2.3-1.3,3.3-1.2,5.4c0,1.1,1.3,1.3,1.6,2.1c0.5,1.5-0.5,1.5-0.6,3.1c0,0.6,0.7,2.1,0.8,2.8c0.1,0.5-0.5,0.7-0.3,1.4
					c0.3,0.8,1.2,0.9,1.6,1.7c0.5,0.9,0,1.5,0.3,2.3c0.5,1.2,1.5,2,2.3,3c1.6,2.2-0.1,2.8,0.2,5.1c0.2,2.3,2.8,3.2,4.8,4.5
					c2.2,1.3,7,5.7,9.8,5.1c1.6-0.3,4.9-2.7,6.2-3.7c2.1-1.6,0.4-4.8,2.8-6.1c2.4-1.4,4-3.3,4.1-5.6c0.2-2.4-0.6-4.1,0.2-6.6
					c0.6-2-0.1-3.5,0.1-5.6c0.3-2.3,2.7-4.1,3.1-6.6C1175.1-49,1173.7-51,1174.3-53.1z"/>
				<path class="st14" d="M1174.6-65.2c0.5-2.1,1.4-3.8,0.7-5.9c-0.6-1.7-1.6-3-2-4.7c-0.1,0.1-0.2,0.2-0.2,0.3
					c0.9,2.8,0.2,3.5-0.8,5.4c-0.6,1.2-1.5,1.3-1.5,2.6c0,1.1,1.2,1.7,1.5,2.6c0.6,1.9-0.4,3.6-0.1,5.4c0.5,2.4,0.4,2.6-0.9,4.7
					c-0.6,1-0.9,0.7-1.2,2c-0.1,0.5,0.5,1.5,0.2,2.3c-0.8,2.6-3.1,2.1-5.2,3.4c1,2.3-1.4,2.5-2.4,4.3c-1.2,2.1,1.1,4.7-1.7,6.5
					c-1,0.6-2.2,0.4-3.6,0.9c-1.2,0.4-0.8,1.2-2.4,1.4c-4.4,0.4-2.9-0.1-3.5-1.6c-0.3-0.7-1.8-0.9-2.3-1.5c-0.7-0.9-3.3-1-3.9-2
					c-0.6-0.9-1-3.3-1.6-4.2s0.4-1.8,0-2.7c-0.4-1.2-1.5-1.1-2.1-2c-0.5-0.8-0.2-1.7-0.6-2.6c-0.7-1.4-0.8-3.8-2.7-2.7
					c-0.5,0.3-0.7,0.9-0.9,1.6c0.4,0.7,0.8,1.5,1.1,2.3c0.8,2.3-1.3,3.3-1.2,5.4c0,1.1,1.3,1.3,1.6,2.1c0.5,1.5-0.5,1.5-0.6,3.1
					c0,0.6,0.7,2.1,0.8,2.8c0.1,0.5-0.5,0.7-0.3,1.4c0.3,0.8,1.2,0.9,1.6,1.7c0.5,0.9,0,1.5,0.3,2.3c0.5,1.2,1.5,2,2.3,3
					c1.6,2.2-0.1,2.8,0.2,5.1c0.2,2.3,2.8,3.2,4.8,4.5c2.2,1.3,7,5.7,9.8,5.1c1.6-0.3,4.9-2.7,6.2-3.7c2.1-1.6,0.4-4.8,2.8-6.1
					c2.4-1.4,4-3.3,4.1-5.6c0.2-2.4-0.6-4.1,0.2-6.6c0.6-2-0.1-3.5,0.1-5.6c0.3-2.3,2.7-4.1,3.1-6.6c0.3-2.1-1-4.2-0.5-6.3
					c0.6-2.4,2.1-3.8,1.5-6.4C1175.3-61.6,1174.2-63.1,1174.6-65.2z"/>
			</g>
		</g>
		<g class="st10">
			<g class="st11">
			</g>
			<g>
				<path class="st17" d="M154.5,450.3c-1.5,6.3-5.4,12.9,2.3,14.1c3.5,0.6,4.8,0.1,7.5-1.1c2.5-1.1,1-10.6,0.8-15.5
					c-0.2-6.9-1.7-5.1-0.1-11.5c1-3.9,0.2-20.3-1-24c-3.3-10.1-6.8-3.1-6.7,3.6C157.6,428,158,436.2,154.5,450.3z"/>
				<path class="st18" d="M203.7,328.7c1.5-6,5.3-9.7,3.8-16.2c-1.2-5.3-3.9-9-2.8-14.4c1.1-5.4,3.7-9.6,1.7-15
					c-2-5.6-5.7-9.6-5.7-15.7c0-6.5-2.9-10.7-3.7-16.9c-0.8-5.6,5-10.9,3.7-16.8c-1.2-5-6.7-8.4-10.4-12.2
					c-3.5-3.6-4.3-7.7-6.1-11.6c-2.3-4.8-4.9-5.7-5.4-10.8c-0.5-4.5-0.9-9.3-8.2-10.5c-8.6-1.4-7.7,4.4-11.5,7.9
					c-4.8,4.6-10.9,5.5-12.5,12.3c-0.5,2.2,1.3,4.7,0.1,7.1c-1.2,2.4-3.9,3.1-5.6,5.1c-4,4.5-3.3,9.5-7.4,14.4
					c-2,2.4-5.3,4.7-6.1,7.5c-0.6,2,1.7,4.9,1.6,6.5c-0.3,3.6-2.6,6.1-4.3,8.9l0,0c-0.1,0.2-0.3,0.5-0.4,0.7c0,0.1-0.1,0.2-0.1,0.3
					c-0.2,0.4-0.4,0.9-0.6,1.4c-0.1,0.2-0.1,0.3-0.2,0.5c-0.2,0.5-0.3,1-0.4,1.6c-0.2,2.3,1.6,4.6,1.3,7c-0.5,3.1-3.5,5.8-5,8.5
					c-2.4,4.3-4.9,10.6-4.9,15.7c0.1,4.9,3.9,9.8,2.4,14.7c-1.6,5.3-7,9.3-8.1,15c-1,5.8,2.8,9.5,4.6,14.8c2,5.8-3.2,8.5-3,13.8
					c0.1,2.7,3.4,3.4,4,5.4c1.3,3.9-1.2,3.9-1.4,7.9c-0.1,1.6,1.7,5.4,2,7.2c0.2,1.2-1.3,1.9-0.7,3.5c0.8,2.1,3.2,2.4,4.1,4.2
					c1.2,2.3,0,3.7,0.9,5.9c1.2,3,3.8,5,5.8,7.7c4.1,5.6-0.1,7.1,0.4,13c0.5,5.8,7.2,8.2,12.3,11.4c5.5,3.3,17.7,14.5,25,13
					c4.1-0.8,12.5-6.9,15.8-9.5c5.3-4.1,1-12.1,7-15.6s10-8.3,10.4-14.3c0.4-6.2-1.6-10.4,0.4-16.6c1.6-5-0.4-9,0.3-14.1
					c0.8-5.8,6.9-10.4,8-16.8C205.7,339.2,202.3,334.1,203.7,328.7z"/>
				<path class="st19" d="M204.7,298.1c1.1-5.4,3.7-9.6,1.7-15c-1.6-4.3-4.1-7.7-5.2-11.8c-0.2,0.3-0.6,0.5-0.5,0.8
					c2.3,7.1,0.4,9-2,13.6c-1.5,2.9-3.8,3.2-3.7,6.6c0,2.8,3.2,4.2,3.9,6.6c1.5,4.7-1.1,9.2-0.2,13.8c1.2,6,1,6.6-2.3,11.9
					c-1.6,2.5-2.4,1.9-2.9,5.1c-0.2,1.4,1.2,3.8,0.6,5.9c-2,6.5-7.8,5.3-13.3,8.7c2.5,5.9-3.5,6.5-6.1,11c-3,5.2,2.8,12-4.4,16.4
					c-2.6,1.6-5.6,1.1-9,2.2c-3.1,1-1.9,3.2-6.2,3.5c-11.1,0.9-7.3-0.4-8.9-4c-0.8-1.9-4.6-2.3-5.8-3.9c-1.8-2.4-8.5-2.6-9.8-5
					c-1.4-2.4-2.5-8.5-3.9-10.8c-1.5-2.3,0.9-4.5,0.1-6.7c-1.1-3.1-3.8-2.7-5.3-5.1c-1.3-2-0.4-4.2-1.6-6.5
					c-1.8-3.4-2.1-9.6-6.9-6.9c-1.2,0.7-1.8,2.2-2.2,4.1c1,1.9,2,3.7,2.8,5.9c2,5.8-3.2,8.5-3,13.8c0.1,2.7,3.4,3.4,4,5.4
					c1.3,3.9-1.2,3.9-1.4,7.9c-0.1,1.6,1.7,5.4,2,7.2c0.2,1.2-1.3,1.9-0.7,3.5c0.8,2.1,3.2,2.4,4.1,4.2c1.2,2.3,0,3.7,0.9,5.9
					c1.2,3,3.8,5,5.8,7.7c4.1,5.6-0.1,7.1,0.4,13c0.5,5.8,7.2,8.2,12.3,11.4c5.5,3.3,17.7,14.5,25,13c4.1-0.8,12.5-6.9,15.8-9.5
					c5.3-4.1,1-12.1,7-15.6s10-8.3,10.4-14.3c0.4-6.2-1.6-10.4,0.4-16.6c1.6-5-0.4-9,0.3-14.1c0.8-5.8,6.9-10.4,8-16.8
					c0.9-5.4-2.5-10.5-1.2-15.9c1.5-6,5.3-9.7,3.8-16.2C206.2,307.3,203.5,303.5,204.7,298.1z"/>
			</g>
		</g>
		<g class="st10">
			<g class="st15">
			</g>
			<g>
				<path class="st16" d="M1340.8-26.4c-0.5,2.1-1.8,4.2,0.8,4.7c1.2,0.2,1.6,0,2.5-0.4c0.8-0.4,0.3-3.5,0.3-5.1
					c-0.1-2.3-0.6-1.7,0-3.8c0.3-1.3,0.1-6.7-0.3-7.9c-1.1-3.3-2.2-1-2.2,1.2C1341.9-33.7,1342-31,1340.8-26.4z"/>
				<path class="st13" d="M1338.2-106.1c-0.2,0.7,0.4,1.6,0,2.3c-0.4,0.8-1.3,1-1.9,1.7c-1.3,1.5-1.1,3.1-2.4,4.8
					c-0.7,0.8-1.7,1.6-2,2.5c-0.2,0.7,0.6,1.6,0.5,2.1c-0.1,1.7-1.7,2.7-1.9,4.4c-0.1,0.8,0.5,1.5,0.4,2.3c-0.2,1-1.1,1.9-1.7,2.8
					c-0.8,1.4-1.6,3.5-1.6,5.2c0,1.6,1.3,3.2,0.8,4.8c-0.5,1.8-2.3,3.1-2.7,5c-0.3,1.9,0.9,3.1,1.5,4.9c0.7,1.9-1.1,2.8-1,4.6
					c0,0.9,1.1,1.1,1.3,1.8c0.4,1.3-0.4,1.3-0.5,2.6c0,0.5,0.6,1.8,0.7,2.4c0.1,0.4-0.4,0.6-0.2,1.2c0.3,0.7,1,0.8,1.4,1.4
					c0.4,0.8,0,1.2,0.3,1.9c0.4,1,1.3,1.7,1.9,2.5c1.4,1.9,0,2.3,0.1,4.3c0.2,1.9,2.4,2.7,4.1,3.8c1.8,1.1,5.8,4.8,8.2,4.3
					c1.3-0.3,4.1-2.3,5.2-3.1c1.7-1.3,0.3-4,2.3-5.1s3.3-2.7,3.4-4.7s-0.5-3.4,0.1-5.5c0.5-1.6-0.1-3,0.1-4.7
					c0.3-1.9,2.3-3.4,2.6-5.5c0.3-1.8-0.8-3.5-0.4-5.2c0.5-2,1.7-3.2,1.2-5.4c-0.4-1.7-1.3-3-0.9-4.8s1.2-3.2,0.6-5
					c-0.7-1.8-1.9-3.2-1.9-5.2c0-2.1-1-3.5-1.2-5.6c-0.2-1.8,1.6-3.6,1.2-5.5c-0.4-1.7-2.2-2.8-3.4-4c-1.2-1.2-1.4-2.6-2-3.8
					c-0.7-1.6-1.6-1.9-1.8-3.6c-0.2-1.5-0.3-3.1-2.7-3.5c-2.8-0.5-2.6,1.4-3.8,2.6C1340.7-108.6,1338.7-108.4,1338.2-106.1z"/>
				<path class="st13" d="M1357.1-66.5c0.5-2,1.7-3.2,1.2-5.4c-0.4-1.7-1.3-3-0.9-4.8s1.2-3.2,0.6-5c-0.7-1.8-1.9-3.2-1.9-5.2
					c0-2.1-1-3.5-1.2-5.6c-0.2-1.8,1.6-3.6,1.2-5.5c-0.4-1.7-2.2-2.8-3.4-4c-1.2-1.2-1.4-2.6-2-3.8c-0.7-1.6-1.6-1.9-1.8-3.6
					c-0.2-1.5-0.3-3.1-2.7-3.5c-2.8-0.5-2.6,1.4-3.8,2.6c-0.1,0.1-0.2,0.2-0.3,0.3c0.2,0.3,2.3-1.8,2.6-1.6c0.7,0.5,1.9,0.3,2.5,0.8
					c1.2,1.1-1.5,3.3-1.5,4.4c0,1.6,2.4,3.2,1.8,4.6c-0.4,1-1.6,1.3-1.2,2.5c0.3,0.8,1.9,1.4,2.6,2c2,1.7,1.6,2.5-0.4,4.2
					c-0.6,0.5-1.5,0.7-2,1.3c-0.6,0.8,0.3,1.5-0.8,2.3c-2,1.5-3.8,0.7-2.8,3.5c0.6,1.8,0.7,2.6,2.1,3.9c2.8,2.5,0.1,2.2-1.6,4
					c-1.1,1.3-0.3,1.5,0.2,2.7c0.9,2.1,0.6,2.4-0.3,4.1c-0.7,1.3-0.1,2.7-0.7,3.9c-0.8,1.5-3.1,1.7-4,0.2c-0.7-1.1,1.3-2.2-0.7-2.9
					c-1.7-0.6-2.7,1.1-3.8,1.9c-3-1.8-1.1-3-0.5-4.9c0.8-2.6-1.8-2-3.1-3.3c-1.8-1.7,0.7-3.6,0.9-5.2c0.1-0.8-0.4-1.5-0.1-2.6
					s1.8-1.4,1.8-2.6c-0.1-1.4-0.9-2.5-2-3.3c-0.3,0.4-0.5,0.9-0.5,1.5c-0.1,0.8,0.5,1.5,0.4,2.3c-0.2,1-1.1,1.9-1.7,2.8
					c-0.8,1.4-1.6,3.5-1.6,5.2c0,1.6,1.3,3.2,0.8,4.8c-0.5,1.8-2.3,3.1-2.7,5c-0.3,1.9,0.9,3.1,1.5,4.9c0.7,1.9-1.1,2.8-1,4.6
					c0,0.9,1.1,1.1,1.3,1.8c0.4,1.3-0.4,1.3-0.5,2.6c0,0.5,0.6,1.8,0.7,2.4c0.1,0.4-0.4,0.6-0.2,1.2c0.3,0.7,1,0.8,1.4,1.4
					c0.4,0.8,0,1.2,0.3,1.9c0.4,1,1.3,1.7,1.9,2.5c1.4,1.9,0,2.3,0.1,4.3c0.2,1.9,2.4,2.7,4.1,3.8c1.8,1.1,5.8,4.8,8.2,4.3
					c1.3-0.3,4.1-2.3,5.2-3.1c1.7-1.3,0.3-4,2.3-5.1s3.3-2.7,3.4-4.7s-0.5-3.4,0.1-5.5c0.5-1.6-0.1-3,0.1-4.7
					c0.3-1.9,2.3-3.4,2.6-5.5C1357.7-63,1356.6-64.7,1357.1-66.5z"/>
				<path class="st14" d="M1357.4-76.6c0.4-1.8,1.2-3.2,0.6-5c-0.5-1.4-1.4-2.6-1.7-3.9c-0.1,0.1-0.2,0.2-0.2,0.3
					c0.8,2.3,0.1,3-0.7,4.5c-0.5,1-1.2,1.1-1.2,2.2c0,0.9,1,1.4,1.3,2.2c0.5,1.6-0.4,3.1-0.1,4.6c0.4,2,0.3,2.2-0.7,3.9
					c-0.5,0.8-0.8,0.6-1,1.7c-0.1,0.5,0.4,1.3,0.2,1.9c-0.7,2.1-2.6,1.7-4.4,2.9c0.8,1.9-1.1,2.1-2,3.6c-1,1.7,0.9,4-1.5,5.4
					c-0.9,0.5-1.8,0.4-3,0.7c-1,0.3-0.6,1-2,1.2c-3.7,0.3-2.4-0.1-2.9-1.3c-0.3-0.6-1.5-0.8-1.9-1.3c-0.6-0.8-2.8-0.9-3.2-1.6
					c-0.5-0.8-0.8-2.8-1.3-3.6s0.3-1.5,0-2.2c-0.4-1-1.3-0.9-1.8-1.7c-0.4-0.7-0.1-1.4-0.5-2.2c-0.6-1.1-0.7-3.2-2.3-2.3
					c-0.4,0.2-0.6,0.7-0.7,1.4c0.3,0.6,0.7,1.2,0.9,1.9c0.7,1.9-1.1,2.8-1,4.6c0,0.9,1.1,1.1,1.3,1.8c0.4,1.3-0.4,1.3-0.5,2.6
					c0,0.5,0.6,1.8,0.7,2.4c0.1,0.4-0.4,0.6-0.2,1.2c0.3,0.7,1,0.8,1.4,1.4c0.4,0.8,0,1.2,0.3,1.9c0.4,1,1.3,1.7,1.9,2.5
					c1.4,1.9,0,2.3,0.1,4.3c0.2,1.9,2.4,2.7,4.1,3.8c1.8,1.1,5.8,4.8,8.2,4.3c1.3-0.3,4.1-2.3,5.2-3.1c1.7-1.3,0.3-4,2.3-5.1
					s3.3-2.7,3.4-4.7s-0.5-3.4,0.1-5.5c0.5-1.6-0.1-3,0.1-4.7c0.3-1.9,2.3-3.4,2.6-5.5c0.3-1.8-0.8-3.5-0.4-5.2
					c0.5-2,1.7-3.2,1.2-5.4C1357.9-73.6,1357-74.8,1357.4-76.6z"/>
			</g>
		</g>
		<g class="st10">
			<g class="st15">
			</g>
			<g>
				<path class="st16" d="M89.5,197.9c-0.5,2.1-1.8,4.2,0.8,4.7c1.2,0.2,1.6,0,2.5-0.4c0.8-0.4,0.3-3.5,0.3-5.1
					c-0.1-2.3-0.6-1.7,0-3.8c0.3-1.3,0.1-6.7-0.3-7.9c-1.1-3.3-2.2-1-2.2,1.2C90.5,190.5,90.6,193.2,89.5,197.9z"/>
				<path class="st13" d="M86.8,118.2c-0.2,0.7,0.4,1.6,0,2.3c-0.4,0.8-1.3,1-1.9,1.7c-1.3,1.5-1.1,3.1-2.4,4.8
					c-0.7,0.8-1.7,1.6-2,2.5c-0.2,0.7,0.6,1.6,0.5,2.1c-0.1,1.7-1.7,2.7-1.9,4.4c-0.1,0.8,0.5,1.5,0.4,2.3c-0.2,1-1.1,1.9-1.7,2.8
					c-0.8,1.4-1.6,3.5-1.6,5.2c0,1.6,1.3,3.2,0.8,4.8c-0.5,1.8-2.3,3.1-2.7,5c-0.3,1.9,0.9,3.1,1.5,4.9c0.7,1.9-1.1,2.8-1,4.6
					c0,0.9,1.1,1.1,1.3,1.8c0.4,1.3-0.4,1.3-0.5,2.6c0,0.5,0.6,1.8,0.7,2.4c0.1,0.4-0.4,0.6-0.2,1.2c0.3,0.7,1,0.8,1.4,1.4
					c0.4,0.8,0,1.2,0.3,1.9c0.4,1,1.3,1.7,1.9,2.5c1.4,1.9,0,2.3,0.1,4.3c0.2,1.9,2.4,2.7,4.1,3.8c1.8,1.1,5.8,4.8,8.2,4.3
					c1.3-0.3,4.1-2.3,5.2-3.1c1.7-1.3,0.3-4,2.3-5.1s3.3-2.7,3.4-4.7s-0.5-3.4,0.1-5.5c0.5-1.6-0.1-3,0.1-4.7
					c0.3-1.9,2.3-3.4,2.6-5.5c0.3-1.8-0.8-3.5-0.4-5.2c0.5-2,1.7-3.2,1.2-5.4c-0.4-1.7-1.3-3-0.9-4.8s1.2-3.2,0.6-5
					c-0.7-1.8-1.9-3.2-1.9-5.2c0-2.1-1-3.5-1.2-5.6c-0.2-1.8,1.6-3.6,1.2-5.5c-0.4-1.7-2.2-2.8-3.4-4c-1.2-1.2-1.4-2.6-2-3.8
					c-0.7-1.6-1.6-1.9-1.8-3.6c-0.2-1.5-0.3-3.1-2.7-3.5c-2.8-0.5-2.6,1.4-3.8,2.6C89.4,115.6,87.4,115.9,86.8,118.2z"/>
				<path class="st13" d="M105.7,157.7c0.5-2,1.7-3.2,1.2-5.4c-0.4-1.7-1.3-3-0.9-4.8s1.2-3.2,0.6-5c-0.7-1.8-1.9-3.2-1.9-5.2
					c0-2.1-1-3.5-1.2-5.6c-0.2-1.8,1.6-3.6,1.2-5.5c-0.4-1.7-2.2-2.8-3.4-4c-1.2-1.2-1.4-2.6-2-3.8c-0.7-1.6-1.6-1.9-1.8-3.6
					c-0.2-1.5-0.3-3.1-2.7-3.5c-2.8-0.5-2.6,1.4-3.8,2.6c-0.1,0.1-0.2,0.2-0.3,0.3c0.2,0.3,2.3-1.8,2.6-1.6c0.7,0.5,1.9,0.3,2.5,0.8
					c1.2,1.1-1.5,3.3-1.5,4.4c0,1.6,2.4,3.2,1.8,4.6c-0.4,1-1.6,1.3-1.2,2.5c0.3,0.8,1.9,1.4,2.6,2c2,1.7,1.6,2.5-0.4,4.2
					c-0.6,0.5-1.5,0.7-2,1.3c-0.6,0.8,0.3,1.5-0.8,2.3c-2,1.5-3.8,0.7-2.8,3.5c0.6,1.8,0.7,2.6,2.1,3.9c2.8,2.5,0.1,2.2-1.6,4
					c-1.1,1.3-0.3,1.5,0.2,2.7c0.9,2.1,0.6,2.4-0.3,4.1c-0.7,1.3-0.1,2.7-0.7,3.9c-0.8,1.5-3.1,1.7-4,0.2c-0.7-1.1,1.3-2.2-0.7-2.9
					c-1.7-0.6-2.7,1.1-3.8,1.9c-3-1.8-1.1-3-0.5-4.9c0.8-2.6-1.8-2-3.1-3.3c-1.8-1.7,0.7-3.6,0.9-5.2c0.1-0.8-0.4-1.5-0.1-2.6
					s1.8-1.4,1.8-2.6c-0.1-1.4-0.9-2.5-2-3.3c-0.3,0.4-0.5,0.9-0.5,1.5c-0.1,0.8,0.5,1.5,0.4,2.3c-0.2,1-1.1,1.9-1.7,2.8
					c-0.8,1.4-1.6,3.5-1.6,5.2c0,1.6,1.3,3.2,0.8,4.8c-0.5,1.8-2.3,3.1-2.7,5c-0.3,1.9,0.9,3.1,1.5,4.9c0.7,1.9-1.1,2.8-1,4.6
					c0,0.9,1.1,1.1,1.3,1.8c0.4,1.3-0.4,1.3-0.5,2.6c0,0.5,0.6,1.8,0.7,2.4c0.1,0.4-0.4,0.6-0.2,1.2c0.3,0.7,1,0.8,1.4,1.4
					c0.4,0.8,0,1.2,0.3,1.9c0.4,1,1.3,1.7,1.9,2.5c1.4,1.9,0,2.3,0.1,4.3c0.2,1.9,2.4,2.7,4.1,3.8c1.8,1.1,5.8,4.8,8.2,4.3
					c1.3-0.3,4.1-2.3,5.2-3.1c1.7-1.3,0.3-4,2.3-5.1s3.3-2.7,3.4-4.7s-0.5-3.4,0.1-5.5c0.5-1.6-0.1-3,0.1-4.7
					c0.3-1.9,2.3-3.4,2.6-5.5C106.4,161.2,105.3,159.5,105.7,157.7z"/>
				<path class="st14" d="M106.1,147.6c0.4-1.8,1.2-3.2,0.6-5c-0.5-1.4-1.4-2.6-1.7-3.9c-0.1,0.1-0.2,0.2-0.2,0.3
					c0.8,2.3,0.1,3-0.7,4.5c-0.5,1-1.2,1.1-1.2,2.2c0,0.9,1,1.4,1.3,2.2c0.5,1.6-0.4,3.1-0.1,4.6c0.4,2,0.3,2.2-0.7,3.9
					c-0.5,0.8-0.8,0.6-1,1.7c-0.1,0.5,0.4,1.3,0.2,1.9c-0.7,2.1-2.6,1.7-4.4,2.9c0.8,1.9-1.1,2.1-2,3.6c-1,1.7,0.9,4-1.5,5.4
					c-0.9,0.5-1.8,0.4-3,0.7c-1,0.3-0.6,1-2,1.2c-3.7,0.3-2.4-0.1-2.9-1.3c-0.3-0.6-1.5-0.8-1.9-1.3c-0.6-0.8-2.8-0.9-3.2-1.6
					c-0.5-0.8-0.8-2.8-1.3-3.6s0.3-1.5,0-2.2c-0.4-1-1.3-0.9-1.8-1.7c-0.4-0.7-0.1-1.4-0.5-2.2c-0.6-1.1-0.7-3.2-2.3-2.3
					c-0.4,0.2-0.6,0.7-0.7,1.4c0.3,0.6,0.7,1.2,0.9,1.9c0.7,1.9-1.1,2.8-1,4.6c0,0.9,1.1,1.1,1.3,1.8c0.4,1.3-0.4,1.3-0.5,2.6
					c0,0.5,0.6,1.8,0.7,2.4c0.1,0.4-0.4,0.6-0.2,1.2c0.3,0.7,1,0.8,1.4,1.4c0.4,0.8,0,1.2,0.3,1.9c0.4,1,1.3,1.7,1.9,2.5
					c1.4,1.9,0,2.3,0.1,4.3c0.2,1.9,2.4,2.7,4.1,3.8c1.8,1.1,5.8,4.8,8.2,4.3c1.3-0.3,4.1-2.3,5.2-3.1c1.7-1.3,0.3-4,2.3-5.1
					s3.3-2.7,3.4-4.7s-0.5-3.4,0.1-5.5c0.5-1.6-0.1-3,0.1-4.7c0.3-1.9,2.3-3.4,2.6-5.5c0.3-1.8-0.8-3.5-0.4-5.2
					c0.5-2,1.7-3.2,1.2-5.4C106.6,150.6,105.7,149.4,106.1,147.6z"/>
			</g>
		</g>
	</g>
	<g id="house" class="st3">
		<polygon class="st20" points="1226.8,-81.7 1253.7,-41.3 1200.4,-41.1 		"/>
		<polygon class="st20" points="1254.1,-1.2 1253.9,-41.3 1202.8,-41.1 1203,-1.2 		"/>
		<polygon class="st21" points="1313.1,-1.2 1313.1,-41.6 1253.4,-41.3 1253.4,-1.2 		"/>
		<polygon class="st22" points="1314.7,-41.3 1288,-81.7 1227,-81.7 1253.8,-41.3 		"/>
		<polygon class="st23" points="1254,-41.1 1226.8,-81.7 1225.7,-80.1 1251.4,-41.1 		"/>
		<polygon class="st23" points="1226.8,-81.7 1200.4,-41.1 1202.8,-41.1 1227.7,-80.1 		"/>
		<polygon class="st24" points="1232.8,-45.9 1232.8,-55.6 1221.6,-55.6 1221.7,-45.8 		"/>
		<rect x="1265.1" y="-32.7" class="st25" width="8.6" height="7.5"/>
		<rect x="1280.9" y="-32.7" class="st25" width="8.6" height="7.5"/>
		<rect x="1295.7" y="-32.7" class="st25" width="8.6" height="7.5"/>
		<polygon class="st20" points="1245.7,-110.6 1255.1,-96.5 1236.4,-96.4 		"/>
		<polygon class="st20" points="1246.4,-81.7 1255.3,-75.2 1255.1,-96.5 1237.3,-96.4 1237.3,-81.7 		"/>
		
			<rect x="1255" y="-96.6" transform="matrix(1 -5.590417e-03 5.590417e-03 1 0.5014 7.0732)" class="st21" width="20.9" height="20.9"/>
		<polygon class="st22" points="1276.4,-96.6 1267.1,-110.7 1245.8,-110.7 1255.1,-96.5 		"/>
		<polygon class="st23" points="1255.2,-96.5 1245.7,-110.6 1245.3,-110.1 1254.3,-96.4 		"/>
		<polygon class="st23" points="1245.7,-110.6 1236.4,-96.4 1237.3,-96.4 1246,-110.1 		"/>
		<polygon class="st24" points="1243.9,-91 1243.9,-94.4 1240,-94.4 1240,-90.9 		"/>
		
			<rect x="1247.7" y="-94.4" transform="matrix(1 -6.038353e-03 6.038353e-03 1 0.5825 7.5443)" class="st24" width="3.9" height="3.4"/>
		<polygon class="st25" points="1268.2,-88 1268.2,-91.4 1264.3,-91.4 1264.3,-88 		"/>
	</g>
</g>
<g id="illustration_1_">
	
		<linearGradient id="sky_3_" gradientUnits="userSpaceOnUse" x1="1470.8689" y1="187.2941" x2="2996.8689" y2="1495.2941" gradientTransform="matrix(1 0 0 1 0 -743.4421)">
		<stop  offset="4.138622e-02" style="stop-color:#0061E7"/>
		<stop  offset="0.2964" style="stop-color:#0CB0E8"/>
		<stop  offset="0.8886" style="stop-color:#11D4E8"/>
	</linearGradient>
	<rect id="sky_1_" x="1332.5" y="-455.2" class="st26" width="1400" height="760.9"/>
	<g id="hills_1_">
		
			<linearGradient id="SVGID_9_" gradientUnits="userSpaceOnUse" x1="2444" y1="1110.9421" x2="2444" y2="743.5411" gradientTransform="matrix(1 0 0 1 0 -743.4421)">
			<stop  offset="0" style="stop-color:#504B03"/>
			<stop  offset="3.110978e-02" style="stop-color:#554F05"/>
			<stop  offset="0.3955" style="stop-color:#5A5307"/>
			<stop  offset="0.5794" style="stop-color:#5B4F07"/>
			<stop  offset="0.841" style="stop-color:#633103"/>
		</linearGradient>
		<path class="st27" d="M1332.5,272.5c154.8,81,493.6,72.4,686.9,95c654.2-59.2,1246.3-255.3,1536.1-208l0,0
			c0-21-16.3-38.4-37.3-39.8c-122.8-8.2-246.2-41-354.2-65.2c-61.3-13.7-122.1-28.6-185.3-40.4c-80.1-14.9-141,12.3-214.7,28.8
			c-97.1,21.6-202.8,55.5-314.4,45.9c-97.2-8.4-176.5-44.1-242.7-75.5c-70.4-33.4-119.6,6.5-174.9,33.5
			c-81.7,39.9-162.3,48.1-259.3,18.1c-63-19.5-128.8-37.3-188.8-59c-66.5-24-135.1,31.6-251.4,73"/>
	</g>
	<g id="fields_1_" class="st3">
		
			<linearGradient id="SVGID_10_" gradientUnits="userSpaceOnUse" x1="2135.8157" y1="1318.3253" x2="2025.4879" y2="968.1591" gradientTransform="matrix(-1 0 0 1 3736.7581 -743.4421)">
			<stop  offset="0" style="stop-color:#192A06"/>
			<stop  offset="0.1003" style="stop-color:#2D3C0C"/>
			<stop  offset="0.5397" style="stop-color:#838824"/>
			<stop  offset="0.8497" style="stop-color:#B8B833"/>
			<stop  offset="1" style="stop-color:#CDCA39"/>
		</linearGradient>
		<path class="st28" d="M2068.5,328l-736,87.8v-226C1649.1,177.9,1910.5,240.2,2068.5,328z"/>
		
			<linearGradient id="SVGID_11_" gradientUnits="userSpaceOnUse" x1="2003.2908" y1="913.5196" x2="2052.585" y2="1217.4988" gradientTransform="matrix(1 0 0 1 0 -743.4421)">
			<stop  offset="0" style="stop-color:#CDCA39"/>
			<stop  offset="0.4998" style="stop-color:#677018"/>
			<stop  offset="1" style="stop-color:#192A06"/>
		</linearGradient>
		<path class="st29" d="M2732.5,314.9v-81.6c-569.1-53-956.6-40.3-1400,33.8v200h876.9L2732.5,314.9z"/>
		
			<linearGradient id="SVGID_12_" gradientUnits="userSpaceOnUse" x1="2354.418" y1="783.2189" x2="2394.4646" y2="1006.3455" gradientTransform="matrix(1 0 0 1 0 -743.4421)">
			<stop  offset="0" style="stop-color:#E0DE34"/>
			<stop  offset="0.1062" style="stop-color:#CBCB2F"/>
			<stop  offset="0.3238" style="stop-color:#969B23"/>
			<stop  offset="0.4998" style="stop-color:#677018"/>
			<stop  offset="1" style="stop-color:#192A06"/>
		</linearGradient>
		<path class="st30" d="M1996.5,204.5l736,87.7V-12.6C2415.9-24.5,2154.5,116.7,1996.5,204.5z"/>
		
			<linearGradient id="SVGID_13_" gradientUnits="userSpaceOnUse" x1="2366.4285" y1="786.9432" x2="2366.4285" y2="1142.7769" gradientTransform="matrix(1 0 0 1 0 -743.4421)">
			<stop  offset="0" style="stop-color:#E6DD8F"/>
			<stop  offset="0.5" style="stop-color:#AFA782"/>
			<stop  offset="1" style="stop-color:#4A5436"/>
		</linearGradient>
		<path class="st31" d="M2602.6,126.7c-112.5-21.3-161.5-70.1-48.1-109.6l-26.5,4.6c-137.9,44-108.5,95.3-19.9,117.4
			c144.3,36.1-396.4,130.7-465.3,204.9h421.4C2698.8,252.6,2760.5,156.6,2602.6,126.7z"/>
		
			<linearGradient id="SVGID_14_" gradientUnits="userSpaceOnUse" x1="2010.1665" y1="915.4684" x2="2067.4783" y2="1268.8918" gradientTransform="matrix(1 0 0 1 0 -743.4421)">
			<stop  offset="0" style="stop-color:#E0DE34"/>
			<stop  offset="0.1062" style="stop-color:#CBCB2F"/>
			<stop  offset="0.3238" style="stop-color:#969B23"/>
			<stop  offset="0.4998" style="stop-color:#677018"/>
			<stop  offset="0.6652" style="stop-color:#495511"/>
			<stop  offset="0.8825" style="stop-color:#263609"/>
			<stop  offset="1" style="stop-color:#192A06"/>
		</linearGradient>
		<path class="st32" d="M2732.5,94.7c-375.7,15.8-920.7,151.7-1400,346.3v83.8h1400V94.7z"/>
		
			<linearGradient id="SVGID_15_" gradientUnits="userSpaceOnUse" x1="1899.0889" y1="967.7089" x2="1899.0889" y2="1323.5427" gradientTransform="matrix(1 0 0 1 0 -743.4421)">
			<stop  offset="0" style="stop-color:#E6DD8F"/>
			<stop  offset="0.5" style="stop-color:#AFA782"/>
			<stop  offset="1" style="stop-color:#4A5436"/>
		</linearGradient>
		<path class="st33" d="M2135.3,307.4c-112.5-21.3-161.5-70.1-48.1-109.6l-26.5,4.6c-137.9,44-108.5,95.3-19.9,117.4
			c144.3,36.2-396.4,130.7-465.4,205h421.4C2231.6,433.3,2293.2,337.4,2135.3,307.4z"/>
	</g>
	<g id="trees_1_" class="st3">
		<g class="st10">
			<g class="st11">
			</g>
			<g>
				<path class="st12" d="M2285.9,318.8c-1.3,5.3-4.5,10.8,1.9,11.9c3,0.5,4,0.1,6.4-1c2.1-0.9,0.9-8.9,0.7-13.1
					c-0.2-5.8-1.5-4.3-0.1-9.7c0.8-3.3,0.2-17.1-0.8-20.3c-2.8-8.5-5.7-2.7-5.6,3.1C2288.5,300,2288.8,306.9,2285.9,318.8z"/>
				<path class="st13" d="M2279.1,115.1c-0.5,1.9,1.1,4,0.1,6s-3.3,2.6-4.8,4.3c-3.4,3.8-2.7,8-6.2,12.2c-1.7,2-4.5,4-5.1,6.3
					c-0.5,1.7,1.4,4.1,1.3,5.5c-0.3,4.4-4.5,6.9-5,11.3c-0.2,2,1.4,3.9,1.1,5.9c-0.4,2.6-2.9,4.9-4.2,7.2c-2,3.6-4.2,9-4.1,13.3
					c0.1,4.2,3.3,8.3,2.1,12.4c-1.3,4.5-5.9,7.9-6.8,12.7c-0.9,4.9,2.4,8,3.9,12.5c1.7,4.9-2.7,7.2-2.5,11.6
					c0.1,2.3,2.8,2.9,3.4,4.5c1.1,3.3-1,3.3-1.2,6.7c-0.1,1.3,1.4,4.6,1.7,6.1c0.2,1-1.1,1.6-0.6,3c0.6,1.8,2.7,2,3.5,3.6
					c1,2,0,3.1,0.7,4.9c1,2.6,3.2,4.2,4.9,6.5c3.5,4.8-0.1,6,0.3,11c0.4,4.9,6,6.9,10.4,9.6c4.6,2.8,14.9,12.2,21.1,11
					c3.4-0.7,10.6-5.8,13.4-8c4.5-3.4,0.8-10.2,5.9-13.1c5.1-2.9,8.5-7,8.8-12.1c0.3-5.2-1.3-8.7,0.4-14c1.4-4.2-0.3-7.6,0.3-11.9
					c0.7-4.9,5.9-8.8,6.7-14.2c0.7-4.6-2.1-8.9-1-13.4c1.3-5,4.4-8.2,3.2-13.7c-1-4.4-3.3-7.6-2.3-12.2c1-4.6,3.1-8.1,1.4-12.7
					c-1.7-4.7-4.8-8.1-4.8-13.2c0-5.5-2.4-9-3.2-14.2c-0.6-4.7,4.2-9.2,3.1-14.1c-1-4.3-5.6-7.1-8.8-10.3c-3-3.1-3.6-6.5-5.2-9.8
					c-1.9-4.1-4.1-4.8-4.5-9.1c-0.4-3.8-0.7-7.8-7-8.9c-7.2-1.2-6.5,3.7-9.7,6.7C2285.6,108.6,2280.5,109.3,2279.1,115.1z"/>
				<path class="st13" d="M2327.4,216.2c1.3-5,4.4-8.2,3.2-13.7c-1-4.4-3.3-7.6-2.3-12.2c1-4.6,3.1-8.1,1.4-12.7
					c-1.7-4.7-4.8-8.1-4.8-13.2c0-5.5-2.4-9-3.2-14.2c-0.6-4.7,4.2-9.2,3.1-14.1c-1-4.3-5.6-7.1-8.8-10.3c-3-3.1-3.6-6.5-5.2-9.8
					c-1.9-4.1-4.1-4.8-4.5-9.1c-0.4-3.8-0.7-7.8-7-8.9c-7.2-1.2-6.5,3.7-9.7,6.7c-0.3,0.2-0.5,0.4-0.7,0.7c0.6,0.7,5.8-4.6,6.7-4.1
					c1.9,1.2,5,0.8,6.4,2.2c3,2.7-3.8,8.4-3.8,11.2c0,4.2,6.1,8.3,4.6,11.7c-1.1,2.6-4.1,3.3-3.1,6.4c0.7,2.1,4.8,3.6,6.6,5.1
					c5.1,4.4,4.2,6.4-1.1,10.8c-1.6,1.3-3.9,1.8-5,3.4c-1.4,2,0.7,3.8-2.1,5.8c-5.2,3.8-9.7,1.8-7.1,9.1c1.6,4.5,1.7,6.7,5.3,9.9
					c7.2,6.3,0.1,5.7-4,10.3c-2.9,3.2-0.8,3.7,0.6,7c2.4,5.3,1.7,6.1-0.7,10.6c-1.7,3.2-0.3,7-1.9,10.1c-2,3.7-7.8,4.3-10.1,0.5
					c-1.7-2.8,3.3-5.7-1.8-7.5c-4.4-1.5-7,2.9-9.6,5c-7.6-4.6-2.9-7.8-1.4-12.6c2.1-6.7-4.6-5.2-7.9-8.4c-4.7-4.5,1.7-9.1,2.3-13.2
					c0.3-2.2-1.1-4-0.4-6.6c0.7-2.8,4.7-3.6,4.5-6.8c-0.3-3.7-2.2-6.5-5.2-8.3c-0.7,1.1-1.2,2.3-1.4,3.8c-0.2,2,1.4,3.9,1.1,5.9
					c-0.4,2.6-2.9,4.9-4.2,7.2c-2,3.6-4.2,9-4.1,13.3c0.1,4.2,3.3,8.3,2.1,12.4c-1.3,4.5-5.9,7.9-6.8,12.7c-0.9,4.9,2.4,8,3.9,12.5
					c1.7,4.9-2.7,7.2-2.5,11.6c0.1,2.3,2.8,2.9,3.4,4.5c1.1,3.3-1,3.3-1.2,6.7c-0.1,1.3,1.4,4.6,1.7,6.1c0.2,1-1.1,1.6-0.6,3
					c0.6,1.8,2.7,2,3.5,3.6c1,2,0,3.1,0.7,4.9c1,2.6,3.2,4.2,4.9,6.5c3.5,4.8-0.1,6,0.3,11c0.4,4.9,6,6.9,10.4,9.6
					c4.6,2.8,14.9,12.2,21.1,11c3.4-0.7,10.6-5.8,13.4-8c4.5-3.4,0.8-10.2,5.9-13.1c5.1-2.9,8.5-7,8.8-12.1c0.3-5.2-1.3-8.7,0.4-14
					c1.4-4.2-0.3-7.6,0.3-11.9c0.7-4.9,5.9-8.8,6.7-14.2C2329.1,225.1,2326.2,220.8,2327.4,216.2z"/>
				<path class="st14" d="M2328.2,190.4c1-4.6,3.1-8.1,1.4-12.7c-1.3-3.6-3.5-6.5-4.4-10c-0.1,0.2-0.5,0.4-0.4,0.7
					c1.9,6,0.4,7.6-1.7,11.5c-1.3,2.5-3.2,2.7-3.1,5.6c0,2.3,2.7,3.6,3.3,5.6c1.2,4-0.9,7.8-0.2,11.7c1,5.1,0.9,5.6-1.9,10.1
					c-1.4,2.1-2,1.6-2.5,4.3c-0.2,1.2,1,3.2,0.5,4.9c-1.7,5.5-6.6,4.4-11.2,7.4c2.1,5-2.9,5.5-5.1,9.3c-2.6,4.4,2.4,10.1-3.7,13.9
					c-2.2,1.4-4.7,0.9-7.6,1.9c-2.6,0.9-1.6,2.7-5.2,3c-9.4,0.8-6.2-0.3-7.5-3.4c-0.7-1.6-3.9-2-4.9-3.3c-1.5-2-7.1-2.2-8.3-4.2
					s-2.1-7.2-3.3-9.1c-1.2-1.9,0.8-3.8,0.1-5.7c-0.9-2.6-3.2-2.3-4.5-4.3c-1.1-1.7-0.4-3.6-1.4-5.5c-1.5-2.9-1.8-8.1-5.8-5.8
					c-1,0.6-1.5,1.9-1.9,3.5c0.8,1.6,1.7,3.2,2.3,5c1.7,4.9-2.7,7.2-2.5,11.6c0.1,2.3,2.8,2.9,3.4,4.5c1.1,3.3-1,3.3-1.2,6.7
					c-0.1,1.3,1.4,4.6,1.7,6.1c0.2,1-1.1,1.6-0.6,3c0.6,1.8,2.7,2,3.5,3.6c1,2,0,3.1,0.7,4.9c1,2.6,3.2,4.2,4.9,6.5
					c3.5,4.8-0.1,6,0.3,11c0.4,4.9,6,6.9,10.4,9.6c4.6,2.8,14.9,12.2,21.1,11c3.4-0.7,10.6-5.8,13.4-8c4.5-3.4,0.8-10.2,5.9-13.1
					c5.1-2.9,8.5-7,8.8-12.1c0.3-5.2-1.3-8.7,0.4-14c1.4-4.2-0.3-7.6,0.3-11.9c0.7-4.9,5.9-8.8,6.7-14.2c0.7-4.6-2.1-8.9-1-13.4
					c1.3-5,4.4-8.2,3.2-13.7C2329.5,198.1,2327.2,194.9,2328.2,190.4z"/>
			</g>
		</g>
		<g class="st10">
			<g class="st15">
			</g>
			<g>
				<path class="st16" d="M1693.4,262.8c-0.8,3.1-2.7,6.4,1.1,7c1.8,0.3,2.4,0,3.7-0.6c1.2-0.5,0.5-5.2,0.4-7.7
					c-0.1-3.4-0.9-2.5-0.1-5.7c0.5-1.9,0.1-10-0.5-11.9c-1.6-5-3.4-1.6-3.3,1.8C1694.9,251.7,1695.1,255.8,1693.4,262.8z"/>
				<path class="st13" d="M1689.4,143.2c-0.3,1.1,0.6,2.3,0,3.5s-1.9,1.5-2.8,2.5c-2,2.2-1.6,4.7-3.7,7.1c-1,1.2-2.6,2.4-3,3.7
					c-0.3,1,0.8,2.4,0.8,3.2c-0.2,2.6-2.6,4.1-2.9,6.6c-0.1,1.2,0.8,2.3,0.6,3.5c-0.2,1.6-1.7,2.9-2.5,4.2c-1.2,2.1-2.4,5.3-2.4,7.8
					c0,2.4,1.9,4.9,1.2,7.3c-0.8,2.6-3.5,4.6-4,7.4c-0.5,2.9,1.4,4.7,2.3,7.3c1,2.9-1.6,4.2-1.5,6.8c0.1,1.3,1.7,1.7,2,2.7
					c0.6,1.9-0.6,1.9-0.7,3.9c0,0.8,0.8,2.7,1,3.6c0.1,0.6-0.7,0.9-0.4,1.7c0.4,1,1.6,1.2,2,2.1c0.6,1.2,0,1.8,0.4,2.9
					c0.6,1.5,1.9,2.5,2.9,3.8c2.1,2.8-0.1,3.5,0.2,6.4c0.3,2.9,3.6,4.1,6.1,5.6c2.7,1.6,8.8,7.2,12.4,6.5c2-0.4,6.2-3.4,7.9-4.7
					c2.6-2,0.5-6,3.5-7.7s5-4.1,5.2-7.1c0.2-3.1-0.8-5.1,0.2-8.2c0.8-2.5-0.2-4.4,0.2-7c0.4-2.9,3.4-5.2,3.9-8.3
					c0.4-2.7-1.2-5.2-0.6-7.9c0.7-3,2.6-4.8,1.9-8c-0.6-2.6-1.9-4.5-1.4-7.1c0.6-2.7,1.8-4.8,0.8-7.5c-1-2.8-2.8-4.8-2.8-7.8
					c0-3.2-1.4-5.3-1.9-8.4c-0.4-2.8,2.5-5.4,1.8-8.3c-0.6-2.5-3.3-4.2-5.1-6.1c-1.7-1.8-2.1-3.8-3-5.8c-1.1-2.4-2.4-2.8-2.7-5.3
					c-0.2-2.2-0.4-4.6-4.1-5.2c-4.3-0.7-3.8,2.2-5.7,3.9C1693.2,139.3,1690.2,139.8,1689.4,143.2z"/>
				<path class="st13" d="M1717.8,202.6c0.7-3,2.6-4.8,1.9-8c-0.6-2.6-1.9-4.5-1.4-7.1c0.6-2.7,1.8-4.8,0.8-7.5
					c-1-2.8-2.8-4.8-2.8-7.8c0-3.2-1.4-5.3-1.9-8.4c-0.4-2.8,2.5-5.4,1.8-8.3c-0.6-2.5-3.3-4.2-5.1-6.1c-1.7-1.8-2.1-3.8-3-5.8
					c-1.1-2.4-2.4-2.8-2.7-5.3c-0.2-2.2-0.4-4.6-4.1-5.2c-4.3-0.7-3.8,2.2-5.7,3.9c-0.1,0.1-0.3,0.3-0.4,0.4
					c0.3,0.4,3.4-2.7,3.9-2.4c1.1,0.7,2.9,0.5,3.8,1.3c1.8,1.6-2.2,4.9-2.2,6.6c0,2.5,3.6,4.8,2.7,6.9c-0.7,1.5-2.4,1.9-1.8,3.8
					c0.4,1.2,2.8,2.1,3.8,3c3,2.6,2.5,3.8-0.6,6.3c-0.9,0.8-2.3,1.1-2.9,2c-0.8,1.2,0.4,2.2-1.2,3.4c-3,2.2-5.7,1-4.2,5.3
					c0.9,2.6,1,3.9,3.1,5.8c4.2,3.7,0.1,3.3-2.4,6.1c-1.7,1.9-0.5,2.2,0.3,4.1c1.4,3.1,1,3.6-0.4,6.2c-1,1.9-0.2,4.1-1.1,5.9
					c-1.2,2.2-4.6,2.5-5.9,0.3c-1-1.6,1.9-3.4-1-4.4c-2.6-0.9-4.1,1.7-5.7,2.9c-4.5-2.7-1.7-4.6-0.8-7.4c1.2-3.9-2.7-3.1-4.6-4.9
					c-2.8-2.6,1-5.3,1.4-7.8c0.2-1.3-0.6-2.3-0.2-3.9c0.4-1.6,2.8-2.1,2.6-4c-0.2-2.2-1.3-3.8-3-4.9c-0.4,0.7-0.7,1.4-0.8,2.2
					c-0.1,1.2,0.8,2.3,0.6,3.5c-0.2,1.6-1.7,2.9-2.5,4.2c-1.2,2.1-2.4,5.3-2.4,7.8c0,2.4,1.9,4.9,1.2,7.3c-0.8,2.6-3.5,4.6-4,7.4
					c-0.5,2.9,1.4,4.7,2.3,7.3c1,2.9-1.6,4.2-1.5,6.8c0.1,1.3,1.7,1.7,2,2.7c0.6,1.9-0.6,1.9-0.7,3.9c0,0.8,0.8,2.7,1,3.6
					c0.1,0.6-0.7,0.9-0.4,1.7c0.4,1,1.6,1.2,2,2.1c0.6,1.2,0,1.8,0.4,2.9c0.6,1.5,1.9,2.5,2.9,3.8c2.1,2.8-0.1,3.5,0.2,6.4
					s3.6,4.1,6.1,5.6c2.7,1.6,8.8,7.2,12.4,6.5c2-0.4,6.2-3.4,7.9-4.7c2.6-2,0.5-6,3.5-7.7s5-4.1,5.2-7.1c0.2-3.1-0.8-5.1,0.2-8.2
					c0.8-2.5-0.2-4.4,0.2-7c0.4-2.9,3.4-5.2,3.9-8.3C1718.8,207.7,1717.1,205.2,1717.8,202.6z"/>
				<path class="st14" d="M1718.3,187.4c0.6-2.7,1.8-4.8,0.8-7.5c-0.8-2.1-2-3.8-2.6-5.9c-0.1,0.1-0.3,0.3-0.2,0.4
					c1.1,3.5,0.2,4.5-1,6.7c-0.8,1.5-1.9,1.6-1.8,3.3c0,1.4,1.6,2.1,1.9,3.3c0.7,2.3-0.6,4.6-0.1,6.8c0.6,3,0.5,3.3-1.1,5.9
					c-0.8,1.3-1.2,0.9-1.5,2.5c-0.1,0.7,0.6,1.9,0.3,2.9c-1,3.2-3.8,2.6-6.6,4.3c1.2,2.9-1.7,3.2-3,5.4c-1.5,2.6,1.4,5.9-2.2,8.1
					c-1.3,0.8-2.8,0.5-4.5,1.1c-1.5,0.5-1,1.6-3.1,1.7c-5.5,0.5-3.6-0.2-4.4-2c-0.4-0.9-2.3-1.2-2.9-1.9c-0.9-1.2-4.2-1.3-4.9-2.5
					c-0.7-1.2-1.2-4.2-1.9-5.3s0.5-2.2,0.1-3.3c-0.5-1.6-1.9-1.3-2.6-2.5c-0.6-1-0.2-2.1-0.8-3.2c-0.9-1.7-1-4.8-3.4-3.4
					c-0.6,0.3-0.9,1.1-1.1,2c0.5,0.9,1,1.9,1.4,2.9c1,2.9-1.6,4.2-1.5,6.8c0.1,1.3,1.7,1.7,2,2.7c0.6,1.9-0.6,1.9-0.7,3.9
					c0,0.8,0.8,2.7,1,3.6c0.1,0.6-0.7,0.9-0.4,1.7c0.4,1,1.6,1.2,2,2.1c0.6,1.2,0,1.8,0.4,2.9c0.6,1.5,1.9,2.5,2.9,3.8
					c2.1,2.8-0.1,3.5,0.2,6.4s3.6,4.1,6.1,5.6c2.7,1.6,8.8,7.2,12.4,6.5c2-0.4,6.2-3.4,7.9-4.7c2.6-2,0.5-6,3.5-7.7s5-4.1,5.2-7.1
					c0.2-3.1-0.8-5.1,0.2-8.2c0.8-2.5-0.2-4.4,0.2-7c0.4-2.9,3.4-5.2,3.9-8.3c0.4-2.7-1.2-5.2-0.6-7.9c0.7-3,2.6-4.8,1.9-8
					C1719,191.9,1717.7,190,1718.3,187.4z"/>
			</g>
		</g>
		<g class="st10">
			<g class="st15">
			</g>
			<g>
				<path class="st16" d="M2101.4,210.9c-0.9,3.6-3.1,7.4,1.3,8.1c2,0.3,2.8,0,4.3-0.7c1.4-0.6,0.6-6.1,0.5-9c-0.1-4-1-2.9-0.1-6.6
					c0.6-2.3,0.1-11.7-0.6-13.9c-1.9-5.9-3.9-1.8-3.9,2.1C2103.2,198.1,2103.4,202.8,2101.4,210.9z"/>
				<path class="st13" d="M2096.8,71.4c-0.3,1.3,0.7,2.7,0,4.1s-2.2,1.8-3.3,2.9c-2.3,2.6-1.9,5.5-4.3,8.3c-1.1,1.4-3,2.7-3.5,4.3
					c-0.3,1.2,1,2.8,0.9,3.8c-0.2,3-3.1,4.7-3.4,7.7c-0.1,1.3,0.9,2.7,0.7,4.1c-0.3,1.8-2,3.3-2.9,4.9c-1.4,2.5-2.8,6.2-2.8,9.1
					c0.1,2.9,2.2,5.7,1.4,8.5c-0.9,3.1-4.1,5.4-4.7,8.7c-0.6,3.3,1.6,5.5,2.7,8.5c1.2,3.3-1.9,4.9-1.7,8c0.1,1.6,1.9,2,2.3,3.1
					c0.7,2.2-0.7,2.3-0.8,4.6c-0.1,0.9,1,3.1,1.1,4.2c0.1,0.7-0.8,1.1-0.4,2c0.4,1.2,1.8,1.4,2.4,2.4c0.7,1.3,0,2.2,0.5,3.4
					c0.7,1.8,2.2,2.9,3.3,4.5c2.4,3.3-0.1,4.1,0.2,7.5s4.1,4.8,7.1,6.6c3.2,1.9,10.2,8.4,14.4,7.5c2.4-0.5,7.2-4,9.2-5.5
					c3.1-2.4,0.6-7,4.1-9s5.8-4.8,6-8.3c0.2-3.6-0.9-6,0.3-9.6c0.9-2.9-0.2-5.2,0.2-8.1c0.5-3.3,4-6,4.6-9.7
					c0.5-3.1-1.5-6.1-0.7-9.2c0.9-3.4,3-5.6,2.2-9.4c-0.7-3-2.2-5.2-1.6-8.3c0.7-3.1,2.1-5.6,1-8.7c-1.2-3.2-3.3-5.6-3.3-9.1
					c0-3.8-1.7-6.2-2.2-9.7c-0.4-3.2,2.9-6.3,2.1-9.7c-0.7-2.9-3.8-4.9-6-7.1c-2-2.1-2.5-4.5-3.5-6.7c-1.3-2.8-2.8-3.3-3.1-6.2
					c-0.3-2.6-0.5-5.4-4.8-6.1c-5-0.8-4.5,2.5-6.6,4.6C2101.2,66.9,2097.7,67.4,2096.8,71.4z"/>
				<path class="st13" d="M2129.8,140.7c0.9-3.4,3-5.6,2.2-9.4c-0.7-3-2.2-5.2-1.6-8.3c0.7-3.1,2.1-5.6,1-8.7
					c-1.2-3.2-3.3-5.6-3.3-9.1c0-3.8-1.7-6.2-2.2-9.7c-0.4-3.2,2.9-6.3,2.1-9.7c-0.7-2.9-3.8-4.9-6-7.1c-2-2.1-2.5-4.5-3.5-6.7
					c-1.3-2.8-2.8-3.3-3.1-6.2c-0.3-2.6-0.5-5.4-4.8-6.1c-5-0.8-4.5,2.5-6.6,4.6c-0.2,0.2-0.3,0.3-0.5,0.4c0.4,0.5,4-3.2,4.6-2.8
					c1.3,0.8,3.4,0.6,4.4,1.5c2.1,1.9-2.6,5.7-2.6,7.7c0,2.9,4.2,5.7,3.2,8c-0.8,1.8-2.8,2.2-2.1,4.4c0.5,1.4,3.3,2.5,4.5,3.5
					c3.5,3,2.9,4.4-0.7,7.4c-1.1,0.9-2.7,1.3-3.4,2.3c-1,1.3,0.5,2.6-1.4,4c-3.5,2.6-6.6,1.2-4.9,6.2c1.1,3.1,1.2,4.6,3.7,6.8
					c4.9,4.3,0.1,3.9-2.8,7.1c-2,2.2-0.6,2.6,0.4,4.8c1.6,3.6,1.1,4.1-0.5,7.2c-1.2,2.2-0.2,4.8-1.3,6.9c-1.4,2.5-5.4,3-6.9,0.3
					c-1.2-1.9,2.3-3.9-1.2-5.1c-3-1-4.8,2-6.6,3.4c-5.2-3.1-2-5.3-0.9-8.6c1.4-4.6-3.1-3.6-5.4-5.8c-3.2-3.1,1.2-6.2,1.6-9
					c0.2-1.5-0.7-2.7-0.3-4.5c0.5-1.9,3.2-2.4,3.1-4.6c-0.2-2.5-1.5-4.5-3.6-5.7c-0.4,0.8-0.8,1.6-0.9,2.6c-0.1,1.3,0.9,2.7,0.7,4.1
					c-0.3,1.8-2,3.3-2.9,4.9c-1.4,2.5-2.8,6.2-2.8,9.1c0.1,2.9,2.2,5.7,1.4,8.5c-0.9,3.1-4.1,5.4-4.7,8.7c-0.6,3.3,1.6,5.5,2.7,8.5
					c1.2,3.3-1.9,4.9-1.7,8c0.1,1.6,1.9,2,2.3,3.1c0.7,2.2-0.7,2.3-0.8,4.6c-0.1,0.9,1,3.1,1.1,4.2c0.1,0.7-0.8,1.1-0.4,2
					c0.4,1.2,1.8,1.4,2.4,2.4c0.7,1.3,0,2.2,0.5,3.4c0.7,1.8,2.2,2.9,3.3,4.5c2.4,3.3-0.1,4.1,0.2,7.5s4.1,4.8,7.1,6.6
					c3.2,1.9,10.2,8.4,14.4,7.5c2.4-0.5,7.2-4,9.2-5.5c3.1-2.4,0.6-7,4.1-9s5.8-4.8,6-8.3c0.2-3.6-0.9-6,0.3-9.6
					c0.9-2.9-0.2-5.2,0.2-8.1c0.5-3.3,4-6,4.6-9.7C2131,146.7,2129.1,143.8,2129.8,140.7z"/>
				<path class="st14" d="M2130.4,123c0.7-3.1,2.1-5.6,1-8.7c-0.9-2.5-2.4-4.5-3-6.8c-0.1,0.1-0.3,0.3-0.3,0.5
					c1.3,4.1,0.3,5.2-1.1,7.9c-0.9,1.7-2.2,1.9-2.1,3.8c0,1.6,1.8,2.4,2.3,3.8c0.9,2.7-0.6,5.3-0.1,8c0.7,3.5,0.6,3.8-1.3,6.9
					c-0.9,1.5-1.4,1.1-1.7,2.9c-0.1,0.8,0.7,2.2,0.3,3.4c-1.1,3.8-4.5,3-7.7,5c1.4,3.4-2,3.7-3.5,6.4c-1.7,3,1.6,6.9-2.5,9.5
					c-1.5,0.9-3.2,0.6-5.2,1.3c-1.8,0.6-1.1,1.8-3.6,2c-6.4,0.5-4.2-0.2-5.1-2.3c-0.5-1.1-2.7-1.4-3.3-2.3c-1-1.4-4.9-1.5-5.7-2.9
					s-1.4-4.9-2.3-6.2c-0.9-1.3,0.5-2.6,0.1-3.9c-0.6-1.8-2.2-1.6-3.1-2.9c-0.8-1.2-0.3-2.5-1-3.8c-1-2-1.2-5.6-4-4
					c-0.7,0.4-1.1,1.3-1.3,2.4c0.6,1.1,1.2,2.2,1.6,3.4c1.2,3.3-1.9,4.9-1.7,8c0.1,1.6,1.9,2,2.3,3.1c0.7,2.2-0.7,2.3-0.8,4.6
					c-0.1,0.9,1,3.1,1.1,4.2c0.1,0.7-0.8,1.1-0.4,2c0.4,1.2,1.8,1.4,2.4,2.4c0.7,1.3,0,2.2,0.5,3.4c0.7,1.8,2.2,2.9,3.3,4.5
					c2.4,3.3-0.1,4.1,0.2,7.5s4.1,4.8,7.1,6.6c3.2,1.9,10.2,8.4,14.4,7.5c2.4-0.5,7.2-4,9.2-5.5c3.1-2.4,0.6-7,4.1-9s5.8-4.8,6-8.3
					c0.2-3.6-0.9-6,0.3-9.6c0.9-2.9-0.2-5.2,0.2-8.1c0.5-3.3,4-6,4.6-9.7c0.5-3.1-1.5-6.1-0.7-9.2c0.9-3.4,3-5.6,2.2-9.4
					C2131.3,128.3,2129.8,126.1,2130.4,123z"/>
			</g>
		</g>
		<g class="st10">
			<g class="st15">
			</g>
			<g>
				<path class="st16" d="M2353.5,50c-0.7,3-2.5,6.1,1.1,6.6c1.7,0.3,2.3,0,3.5-0.5s0.5-5,0.4-7.3c-0.1-3.3-0.8-2.4-0.1-5.4
					c0.5-1.8,0.1-9.6-0.5-11.3c-1.6-4.8-3.2-1.5-3.1,1.7C2355,39.5,2355.2,43.3,2353.5,50z"/>
				<path class="st13" d="M2349.8-63.7c-0.3,1,0.6,2.2,0,3.3s-1.8,1.4-2.7,2.4c-1.9,2.1-1.5,4.5-3.5,6.8c-0.9,1.1-2.5,2.2-2.9,3.5
					c-0.3,0.9,0.8,2.3,0.7,3.1c-0.2,2.5-2.5,3.9-2.8,6.3c-0.1,1.1,0.8,2.2,0.6,3.3c-0.2,1.5-1.6,2.7-2.4,4c-1.1,2-2.3,5-2.3,7.4
					c0,2.3,1.8,4.6,1.1,6.9c-0.7,2.5-3.3,4.4-3.8,7.1s1.3,4.5,2.2,7c0.9,2.7-1.5,4-1.4,6.5c0.1,1.3,1.6,1.6,1.9,2.5
					c0.6,1.8-0.6,1.9-0.7,3.7c0,0.8,0.8,2.6,0.9,3.4c0.1,0.5-0.6,0.9-0.3,1.7c0.4,1,1.5,1.1,1.9,2c0.5,1.1,0,1.8,0.4,2.8
					c0.6,1.4,1.8,2.4,2.7,3.6c2,2.7-0.1,3.3,0.2,6.1c0.2,2.7,3.4,3.9,5.8,5.4c2.6,1.6,8.3,6.8,11.8,6.1c1.9-0.4,5.9-3.2,7.5-4.5
					c2.5-1.9,0.5-5.7,3.3-7.3c2.8-1.6,4.7-3.9,4.9-6.7c0.2-2.9-0.8-4.9,0.2-7.8c0.8-2.3-0.2-4.2,0.2-6.6c0.4-2.7,3.3-4.9,3.7-7.9
					c0.4-2.6-1.2-5-0.6-7.5c0.7-2.8,2.5-4.6,1.8-7.6c-0.6-2.5-1.8-4.3-1.3-6.8c0.5-2.6,1.7-4.5,0.8-7.1c-1-2.6-2.7-4.5-2.7-7.4
					c0-3.1-1.4-5-1.8-7.9c-0.4-2.6,2.3-5.1,1.7-7.9c-0.5-2.4-3.1-4-4.9-5.8c-1.7-1.7-2-3.6-2.9-5.5c-1.1-2.3-2.3-2.7-2.5-5.1
					c-0.2-2.1-0.4-4.4-3.9-5c-4-0.7-3.6,2.1-5.4,3.7C2353.4-67.4,2350.5-67,2349.8-63.7z"/>
				<path class="st13" d="M2376.7-7.3c0.7-2.8,2.5-4.6,1.8-7.6c-0.6-2.5-1.8-4.3-1.3-6.8c0.5-2.6,1.7-4.5,0.8-7.1
					c-1-2.6-2.7-4.5-2.7-7.4c0-3.1-1.4-5-1.8-7.9c-0.4-2.6,2.3-5.1,1.7-7.9c-0.5-2.4-3.1-4-4.9-5.8c-1.7-1.7-2-3.6-2.9-5.5
					c-1.1-2.3-2.3-2.7-2.5-5.1c-0.2-2.1-0.4-4.4-3.9-5c-4-0.7-3.6,2.1-5.4,3.7c-0.1,0.1-0.3,0.2-0.4,0.4c0.3,0.4,3.2-2.6,3.7-2.3
					c1,0.6,2.8,0.5,3.6,1.2c1.7,1.5-2.1,4.7-2.1,6.3c0,2.3,3.4,4.6,2.6,6.6c-0.6,1.5-2.3,1.8-1.7,3.6c0.4,1.2,2.7,2,3.7,2.8
					c2.9,2.4,2.3,3.6-0.6,6c-0.9,0.7-2.2,1-2.8,1.9c-0.8,1.1,0.4,2.1-1.1,3.2c-2.9,2.1-5.4,1-4,5.1c0.9,2.5,1,3.7,3,5.5
					c4,3.5,0.1,3.2-2.2,5.8c-1.6,1.8-0.5,2.1,0.3,3.9c1.3,2.9,0.9,3.4-0.4,5.9c-0.9,1.8-0.1,3.9-1.1,5.6c-1.1,2.1-4.4,2.4-5.7,0.3
					c-0.9-1.6,1.8-3.2-1-4.2c-2.5-0.9-3.9,1.6-5.4,2.8c-4.3-2.5-1.6-4.3-0.8-7c1.2-3.7-2.6-2.9-4.4-4.7c-2.6-2.5,1-5.1,1.3-7.4
					c0.2-1.2-0.6-2.2-0.2-3.7c0.4-1.5,2.6-2,2.5-3.8c-0.2-2.1-1.2-3.6-2.9-4.7c-0.4,0.6-0.7,1.3-0.8,2.1c-0.1,1.1,0.8,2.2,0.6,3.3
					c-0.2,1.5-1.6,2.7-2.4,4c-1.1,2-2.3,5-2.3,7.4c0,2.3,1.8,4.6,1.1,6.9c-0.7,2.5-3.3,4.4-3.8,7.1s1.3,4.5,2.2,7
					c0.9,2.7-1.5,4-1.4,6.5c0.1,1.3,1.6,1.6,1.9,2.5c0.6,1.8-0.6,1.9-0.7,3.7c0,0.8,0.8,2.6,0.9,3.4c0.1,0.5-0.6,0.9-0.3,1.7
					c0.4,1,1.5,1.1,1.9,2c0.5,1.1,0,1.8,0.4,2.8c0.6,1.4,1.8,2.4,2.7,3.6c2,2.7-0.1,3.3,0.2,6.1c0.2,2.7,3.4,3.9,5.8,5.4
					c2.6,1.6,8.3,6.8,11.8,6.1c1.9-0.4,5.9-3.2,7.5-4.5c2.5-1.9,0.5-5.7,3.3-7.3c2.8-1.6,4.7-3.9,4.9-6.7c0.2-2.9-0.8-4.9,0.2-7.8
					c0.8-2.3-0.2-4.2,0.2-6.6c0.4-2.7,3.3-4.9,3.7-7.9C2377.7-2.3,2376.1-4.8,2376.7-7.3z"/>
				<path class="st14" d="M2377.2-21.7c0.5-2.6,1.7-4.5,0.8-7.1c-0.7-2-1.9-3.6-2.4-5.6c-0.1,0.1-0.3,0.2-0.2,0.4
					c1.1,3.3,0.2,4.2-0.9,6.4c-0.7,1.4-1.8,1.5-1.7,3.1c0,1.3,1.5,2,1.8,3.1c0.7,2.2-0.5,4.4-0.1,6.5c0.6,2.8,0.5,3.1-1.1,5.6
					c-0.8,1.2-1.1,0.9-1.4,2.4c-0.1,0.7,0.6,1.8,0.3,2.8c-0.9,3.1-3.7,2.5-6.3,4.1c1.2,2.8-1.6,3-2.9,5.2c-1.4,2.5,1.3,5.6-2.1,7.7
					c-1.2,0.8-2.6,0.5-4.3,1.1c-1.4,0.5-0.9,1.5-2.9,1.7c-5.2,0.4-3.4-0.2-4.2-1.9c-0.4-0.9-2.2-1.1-2.7-1.8c-0.8-1.1-4-1.2-4.6-2.3
					c-0.7-1.1-1.2-4-1.9-5.1s0.4-2.1,0.1-3.2c-0.5-1.5-1.8-1.3-2.5-2.4c-0.6-0.9-0.2-2-0.8-3.1c-0.9-1.6-1-4.5-3.3-3.3
					c-0.6,0.3-0.9,1-1,1.9c0.5,0.9,1,1.8,1.3,2.8c0.9,2.7-1.5,4-1.4,6.5c0.1,1.3,1.6,1.6,1.9,2.5c0.6,1.8-0.6,1.9-0.7,3.7
					c0,0.8,0.8,2.6,0.9,3.4c0.1,0.5-0.6,0.9-0.3,1.7c0.4,1,1.5,1.1,1.9,2c0.5,1.1,0,1.8,0.4,2.8c0.6,1.4,1.8,2.4,2.7,3.6
					c2,2.7-0.1,3.3,0.2,6.1c0.2,2.7,3.4,3.9,5.8,5.4c2.6,1.6,8.3,6.8,11.8,6.1c1.9-0.4,5.9-3.2,7.5-4.5c2.5-1.9,0.5-5.7,3.3-7.3
					c2.8-1.6,4.7-3.9,4.9-6.7c0.2-2.9-0.8-4.9,0.2-7.8c0.8-2.3-0.2-4.2,0.2-6.6c0.4-2.7,3.3-4.9,3.7-7.9c0.4-2.6-1.2-5-0.6-7.5
					c0.7-2.8,2.5-4.6,1.8-7.6C2377.9-17.4,2376.7-19.2,2377.2-21.7z"/>
			</g>
		</g>
		<g class="st10">
			<g class="st15">
			</g>
			<g>
				<path class="st16" d="M2425,22.5c-0.7,2.8-2.4,5.7,1,6.3c1.6,0.3,2.1,0,3.4-0.5c1.1-0.5,0.4-4.7,0.4-6.9c-0.1-3.1-0.8-2.3,0-5.1
					c0.4-1.7,0.1-9-0.4-10.7c-1.5-4.5-3-1.4-3,1.6C2426.4,12.6,2426.6,16.2,2425,22.5z"/>
				<path class="st13" d="M2421.4-85c-0.2,1,0.6,2.1,0,3.1c-0.5,1.1-1.7,1.4-2.5,2.3c-1.8,2-1.5,4.2-3.3,6.4
					c-0.9,1.1-2.3,2.1-2.7,3.3c-0.3,0.9,0.8,2.2,0.7,2.9c-0.2,2.3-2.4,3.7-2.6,6c-0.1,1,0.7,2.1,0.6,3.1c-0.2,1.4-1.5,2.6-2.2,3.8
					c-1.1,1.9-2.2,4.7-2.2,7c0,2.2,1.7,4.4,1.1,6.5c-0.7,2.4-3.1,4.1-3.6,6.7s1.2,4.2,2.1,6.6c0.9,2.6-1.4,3.8-1.3,6.1
					c0,1.2,1.5,1.5,1.8,2.4c0.6,1.7-0.5,1.8-0.6,3.5c0,0.7,0.7,2.4,0.9,3.2c0.1,0.5-0.6,0.8-0.3,1.6c0.3,0.9,1.4,1.1,1.8,1.9
					c0.5,1,0,1.7,0.4,2.6c0.5,1.4,1.7,2.2,2.6,3.4c1.8,2.5-0.1,3.2,0.2,5.8c0.2,2.6,3.2,3.7,5.5,5.1c2.4,1.5,7.9,6.5,11.1,5.8
					c1.8-0.4,5.6-3.1,7.1-4.2c2.4-1.8,0.4-5.4,3.1-6.9s4.5-3.7,4.6-6.4c0.2-2.8-0.7-4.6,0.2-7.4c0.7-2.2-0.2-4,0.1-6.3
					c0.3-2.6,3.1-4.6,3.5-7.5c0.4-2.4-1.1-4.7-0.5-7.1c0.7-2.7,2.3-4.3,1.7-7.2c-0.5-2.3-1.7-4-1.2-6.4s1.6-4.3,0.7-6.7
					c-0.9-2.5-2.5-4.3-2.5-7c0-2.9-1.3-4.8-1.7-7.5c-0.3-2.5,2.2-4.9,1.6-7.5c-0.5-2.2-3-3.7-4.6-5.5c-1.6-1.6-1.9-3.4-2.7-5.2
					c-1-2.2-2.2-2.6-2.4-4.8c-0.2-2-0.4-4.1-3.7-4.7c-3.8-0.6-3.4,1.9-5.1,3.5C2424.8-88.5,2422.2-88.1,2421.4-85z"/>
				<path class="st13" d="M2446.9-31.6c0.7-2.7,2.3-4.3,1.7-7.2c-0.5-2.3-1.7-4-1.2-6.4s1.6-4.3,0.7-6.7c-0.9-2.5-2.5-4.3-2.5-7
					c0-2.9-1.3-4.8-1.7-7.5c-0.3-2.5,2.2-4.9,1.6-7.5c-0.5-2.2-3-3.7-4.6-5.5c-1.6-1.6-1.9-3.4-2.7-5.2c-1-2.2-2.2-2.6-2.4-4.8
					c-0.2-2-0.4-4.1-3.7-4.7c-3.8-0.6-3.4,1.9-5.1,3.5c-0.1,0.1-0.3,0.2-0.4,0.3c0.3,0.4,3.1-2.4,3.5-2.1c1,0.6,2.6,0.4,3.4,1.1
					c1.6,1.4-2,4.4-2,5.9c0,2.2,3.2,4.4,2.4,6.2c-0.6,1.4-2.2,1.7-1.6,3.4c0.4,1.1,2.6,1.9,3.5,2.7c2.7,2.3,2.2,3.4-0.6,5.7
					c-0.8,0.7-2.1,1-2.7,1.8c-0.7,1,0.4,2-1.1,3.1c-2.7,2-5.1,0.9-3.7,4.8c0.8,2.4,0.9,3.5,2.8,5.2c3.8,3.3,0.1,3-2.1,5.5
					c-1.5,1.7-0.4,2,0.3,3.7c1.2,2.8,0.9,3.2-0.4,5.6c-0.9,1.7-0.1,3.7-1,5.3c-1.1,2-4.1,2.3-5.3,0.2c-0.9-1.5,1.7-3-0.9-3.9
					c-2.3-0.8-3.7,1.5-5.1,2.6c-4-2.4-1.5-4.1-0.7-6.6c1.1-3.5-2.4-2.8-4.2-4.4c-2.5-2.4,0.9-4.8,1.2-7c0.2-1.1-0.6-2.1-0.2-3.5
					c0.4-1.5,2.5-1.9,2.4-3.6c-0.2-1.9-1.2-3.4-2.7-4.4c-0.3,0.6-0.6,1.2-0.7,2c-0.1,1,0.7,2.1,0.6,3.1c-0.2,1.4-1.5,2.6-2.2,3.8
					c-1.1,1.9-2.2,4.7-2.2,7c0,2.2,1.7,4.4,1.1,6.5c-0.7,2.4-3.1,4.1-3.6,6.7s1.2,4.2,2.1,6.6c0.9,2.6-1.4,3.8-1.3,6.1
					c0,1.2,1.5,1.5,1.8,2.4c0.6,1.7-0.5,1.8-0.6,3.5c0,0.7,0.7,2.4,0.9,3.2c0.1,0.5-0.6,0.8-0.3,1.6c0.3,0.9,1.4,1.1,1.8,1.9
					c0.5,1,0,1.7,0.4,2.6c0.5,1.4,1.7,2.2,2.6,3.4c1.8,2.5-0.1,3.2,0.2,5.8c0.2,2.6,3.2,3.7,5.5,5.1c2.4,1.5,7.9,6.5,11.1,5.8
					c1.8-0.4,5.6-3.1,7.1-4.2c2.4-1.8,0.4-5.4,3.1-6.9s4.5-3.7,4.6-6.4c0.2-2.8-0.7-4.6,0.2-7.4c0.7-2.2-0.2-4,0.1-6.3
					c0.3-2.6,3.1-4.6,3.5-7.5C2447.8-27,2446.3-29.3,2446.9-31.6z"/>
				<path class="st14" d="M2447.3-45.3c0.5-2.4,1.6-4.3,0.7-6.7c-0.7-1.9-1.8-3.4-2.3-5.3c-0.1,0.1-0.3,0.2-0.2,0.4
					c1,3.2,0.2,4-0.9,6.1c-0.7,1.3-1.7,1.4-1.6,2.9c0,1.2,1.4,1.9,1.7,3c0.7,2.1-0.5,4.1-0.1,6.2c0.5,2.7,0.5,2.9-1,5.3
					c-0.7,1.1-1.1,0.8-1.3,2.3c-0.1,0.6,0.5,1.7,0.3,2.6c-0.9,2.9-3.5,2.3-5.9,3.9c1.1,2.6-1.5,2.9-2.7,4.9c-1.3,2.3,1.3,5.3-2,7.3
					c-1.2,0.7-2.5,0.5-4,1c-1.4,0.5-0.9,1.4-2.8,1.6c-4.9,0.4-3.2-0.2-3.9-1.8c-0.4-0.8-2.1-1-2.6-1.7c-0.8-1-3.8-1.2-4.4-2.2
					c-0.6-1.1-1.1-3.8-1.8-4.8c-0.7-1,0.4-2,0.1-3c-0.5-1.4-1.7-1.2-2.4-2.3c-0.6-0.9-0.2-1.9-0.7-2.9c-0.8-1.5-0.9-4.3-3.1-3.1
					c-0.5,0.3-0.8,1-1,1.8c0.4,0.8,0.9,1.7,1.2,2.6c0.9,2.6-1.4,3.8-1.3,6.1c0,1.2,1.5,1.5,1.8,2.4c0.6,1.7-0.5,1.8-0.6,3.5
					c0,0.7,0.7,2.4,0.9,3.2c0.1,0.5-0.6,0.8-0.3,1.6c0.3,0.9,1.4,1.1,1.8,1.9c0.5,1,0,1.7,0.4,2.6c0.5,1.4,1.7,2.2,2.6,3.4
					c1.8,2.5-0.1,3.2,0.2,5.8c0.2,2.6,3.2,3.7,5.5,5.1c2.4,1.5,7.9,6.5,11.1,5.8c1.8-0.4,5.6-3.1,7.1-4.2c2.4-1.8,0.4-5.4,3.1-6.9
					s4.5-3.7,4.6-6.4c0.2-2.8-0.7-4.6,0.2-7.4c0.7-2.2-0.2-4,0.1-6.3c0.3-2.6,3.1-4.6,3.5-7.5c0.4-2.4-1.1-4.7-0.5-7.1
					c0.7-2.7,2.3-4.3,1.7-7.2C2448-41.2,2446.8-42.9,2447.3-45.3z"/>
			</g>
		</g>
		<g class="st10">
			<g class="st15">
			</g>
			<g>
				<path class="st16" d="M2487.4,5.3c-0.6,2.5-2.1,5.1,0.9,5.6c1.4,0.2,1.9,0,3-0.4c1-0.4,0.4-4.2,0.3-6.1c-0.1-2.7-0.7-2,0-4.5
					c0.4-1.5,0.1-8-0.4-9.5c-1.3-4-2.7-1.2-2.6,1.4C2488.6-3.5,2488.8-0.3,2487.4,5.3z"/>
				<path class="st13" d="M2484.2-89.9c-0.2,0.9,0.5,1.9,0,2.8c-0.5,1-1.5,1.2-2.2,2c-1.6,1.8-1.3,3.7-2.9,5.7
					c-0.8,0.9-2.1,1.9-2.4,3c-0.2,0.8,0.7,1.9,0.6,2.6c-0.1,2.1-2.1,3.2-2.3,5.3c-0.1,0.9,0.6,1.8,0.5,2.8c-0.2,1.2-1.4,2.3-2,3.4
					c-0.9,1.7-1.9,4.2-1.9,6.2c0,1.9,1.5,3.9,1,5.8c-0.6,2.1-2.8,3.7-3.2,5.9c-0.4,2.3,1.1,3.7,1.8,5.8c0.8,2.3-1.3,3.3-1.2,5.4
					c0,1.1,1.3,1.3,1.6,2.1c0.5,1.5-0.5,1.5-0.6,3.1c0,0.6,0.7,2.1,0.8,2.8c0.1,0.5-0.5,0.7-0.3,1.4c0.3,0.8,1.2,0.9,1.6,1.7
					c0.5,0.9,0,1.5,0.3,2.3c0.5,1.2,1.5,2,2.3,3c1.6,2.2-0.1,2.8,0.2,5.1c0.2,2.3,2.8,3.2,4.8,4.5c2.2,1.3,7,5.7,9.8,5.1
					c1.6-0.3,4.9-2.7,6.2-3.7c2.1-1.6,0.4-4.8,2.8-6.1c2.4-1.4,4-3.3,4.1-5.6c0.2-2.4-0.6-4.1,0.2-6.6c0.6-2-0.1-3.5,0.1-5.6
					c0.3-2.3,2.7-4.1,3.1-6.6c0.3-2.1-1-4.2-0.5-6.3c0.6-2.4,2.1-3.8,1.5-6.4c-0.5-2.1-1.5-3.6-1.1-5.7c0.5-2.1,1.4-3.8,0.7-5.9
					c-0.8-2.2-2.2-3.8-2.2-6.2c0-2.6-1.1-4.2-1.5-6.6c-0.3-2.2,2-4.3,1.4-6.6c-0.5-2-2.6-3.3-4.1-4.8c-1.4-1.4-1.7-3-2.4-4.6
					c-0.9-1.9-1.9-2.3-2.1-4.2c-0.2-1.8-0.3-3.7-3.3-4.1c-3.4-0.6-3,1.7-4.5,3.1C2487.2-92.9,2484.9-92.6,2484.2-89.9z"/>
				<path class="st13" d="M2506.8-42.6c0.6-2.4,2.1-3.8,1.5-6.4c-0.5-2.1-1.5-3.6-1.1-5.7c0.5-2.1,1.4-3.8,0.7-5.9
					c-0.8-2.2-2.2-3.8-2.2-6.2c0-2.6-1.1-4.2-1.5-6.6c-0.3-2.2,2-4.3,1.4-6.6c-0.5-2-2.6-3.3-4.1-4.8c-1.4-1.4-1.7-3-2.4-4.6
					c-0.9-1.9-1.9-2.3-2.1-4.2c-0.2-1.8-0.3-3.7-3.3-4.1c-3.4-0.6-3,1.7-4.5,3.1c-0.1,0.1-0.2,0.2-0.3,0.3c0.3,0.3,2.7-2.2,3.1-1.9
					c0.9,0.5,2.3,0.4,3,1c1.4,1.3-1.8,3.9-1.8,5.2c0,2,2.8,3.9,2.2,5.5c-0.5,1.2-1.9,1.5-1.4,3c0.3,1,2.3,1.7,3.1,2.4
					c2.4,2,2,3-0.5,5c-0.7,0.6-1.8,0.9-2.3,1.6c-0.7,0.9,0.3,1.8-1,2.7c-2.4,1.8-4.5,0.8-3.3,4.2c0.8,2.1,0.8,3.1,2.5,4.6
					c3.4,2.9,0.1,2.7-1.9,4.8c-1.4,1.5-0.4,1.7,0.3,3.2c1.1,2.5,0.8,2.8-0.3,4.9c-0.8,1.5-0.1,3.3-0.9,4.7c-1,1.7-3.6,2-4.7,0.2
					c-0.8-1.3,1.5-2.7-0.8-3.5c-2.1-0.7-3.3,1.3-4.5,2.3c-3.6-2.1-1.3-3.6-0.6-5.9c1-3.1-2.1-2.4-3.7-3.9c-2.2-2.1,0.8-4.3,1.1-6.2
					c0.1-1-0.5-1.8-0.2-3.1c0.3-1.3,2.2-1.7,2.1-3.2c-0.1-1.7-1-3-2.4-3.9c-0.3,0.5-0.6,1.1-0.6,1.8c-0.1,0.9,0.6,1.8,0.5,2.8
					c-0.2,1.2-1.4,2.3-2,3.4c-0.9,1.7-1.9,4.2-1.9,6.2c0,1.9,1.5,3.9,1,5.8c-0.6,2.1-2.8,3.7-3.2,5.9c-0.4,2.3,1.1,3.7,1.8,5.8
					c0.8,2.3-1.3,3.3-1.2,5.4c0,1.1,1.3,1.3,1.6,2.1c0.5,1.5-0.5,1.5-0.6,3.1c0,0.6,0.7,2.1,0.8,2.8c0.1,0.5-0.5,0.7-0.3,1.4
					c0.3,0.8,1.2,0.9,1.6,1.7c0.5,0.9,0,1.5,0.3,2.3c0.5,1.2,1.5,2,2.3,3c1.6,2.2-0.1,2.8,0.2,5.1c0.2,2.3,2.8,3.2,4.8,4.5
					c2.2,1.3,7,5.7,9.8,5.1c1.6-0.3,4.9-2.7,6.2-3.7c2.1-1.6,0.4-4.8,2.8-6.1c2.4-1.4,4-3.3,4.1-5.6c0.2-2.4-0.6-4.1,0.2-6.6
					c0.6-2-0.1-3.5,0.1-5.6c0.3-2.3,2.7-4.1,3.1-6.6C2507.6-38.5,2506.2-40.5,2506.8-42.6z"/>
				<path class="st14" d="M2507.1-54.7c0.5-2.1,1.4-3.8,0.7-5.9c-0.6-1.7-1.6-3-2-4.7c-0.1,0.1-0.2,0.2-0.2,0.3
					c0.9,2.8,0.2,3.5-0.8,5.4c-0.6,1.2-1.5,1.3-1.5,2.6c0,1.1,1.2,1.7,1.5,2.6c0.6,1.9-0.4,3.6-0.1,5.4c0.5,2.4,0.4,2.6-0.9,4.7
					c-0.6,1-0.9,0.7-1.2,2c-0.1,0.5,0.5,1.5,0.2,2.3c-0.8,2.6-3.1,2.1-5.2,3.4c1,2.3-1.4,2.5-2.4,4.3c-1.2,2.1,1.1,4.7-1.7,6.5
					c-1,0.6-2.2,0.4-3.6,0.9c-1.2,0.4-0.8,1.2-2.4,1.4c-4.4,0.4-2.9-0.1-3.5-1.6c-0.3-0.7-1.8-0.9-2.3-1.5c-0.7-0.9-3.3-1-3.9-2
					c-0.6-0.9-1-3.3-1.6-4.2c-0.6-0.9,0.4-1.8,0-2.7c-0.4-1.2-1.5-1.1-2.1-2c-0.5-0.8-0.2-1.7-0.6-2.6c-0.7-1.4-0.8-3.8-2.7-2.7
					c-0.5,0.3-0.7,0.9-0.9,1.6c0.4,0.7,0.8,1.5,1.1,2.3c0.8,2.3-1.3,3.3-1.2,5.4c0,1.1,1.3,1.3,1.6,2.1c0.5,1.5-0.5,1.5-0.6,3.1
					c0,0.6,0.7,2.1,0.8,2.8c0.1,0.5-0.5,0.7-0.3,1.4c0.3,0.8,1.2,0.9,1.6,1.7c0.5,0.9,0,1.5,0.3,2.3c0.5,1.2,1.5,2,2.3,3
					c1.6,2.2-0.1,2.8,0.2,5.1c0.2,2.3,2.8,3.2,4.8,4.5c2.2,1.3,7,5.7,9.8,5.1c1.6-0.3,4.9-2.7,6.2-3.7c2.1-1.6,0.4-4.8,2.8-6.1
					c2.4-1.4,4-3.3,4.1-5.6c0.2-2.4-0.6-4.1,0.2-6.6c0.6-2-0.1-3.5,0.1-5.6c0.3-2.3,2.7-4.1,3.1-6.6c0.3-2.1-1-4.2-0.5-6.3
					c0.6-2.4,2.1-3.8,1.5-6.4C2507.8-51.1,2506.7-52.6,2507.1-54.7z"/>
			</g>
		</g>
		<g class="st10">
			<g class="st11">
			</g>
			<g>
				<path class="st17" d="M1487,460.8c-1.5,6.3-5.4,12.9,2.3,14.1c3.5,0.6,4.8,0.1,7.5-1.1c2.5-1.1,1-10.6,0.8-15.5
					c-0.2-6.9-1.7-5.1-0.1-11.5c1-3.9,0.2-20.3-1-24c-3.3-10.1-6.8-3.1-6.7,3.6C1490.1,438.5,1490.5,446.7,1487,460.8z"/>
				<path class="st18" d="M1536.2,339.2c1.5-6,5.3-9.7,3.8-16.2c-1.2-5.3-3.9-9-2.8-14.4s3.7-9.6,1.7-15c-2-5.6-5.7-9.6-5.7-15.7
					c0-6.5-2.9-10.7-3.7-16.9c-0.8-5.6,5-10.9,3.7-16.8c-1.2-5-6.7-8.4-10.4-12.2c-3.5-3.6-4.3-7.7-6.1-11.6
					c-2.3-4.8-4.9-5.7-5.4-10.8c-0.5-4.5-0.9-9.3-8.2-10.5c-8.6-1.4-7.7,4.4-11.5,7.9c-4.8,4.6-10.9,5.5-12.5,12.3
					c-0.5,2.2,1.3,4.7,0.1,7.1c-1.2,2.4-3.9,3.1-5.6,5.1c-4,4.5-3.3,9.5-7.4,14.4c-2,2.4-5.3,4.7-6.1,7.5c-0.6,2,1.7,4.9,1.6,6.5
					c-0.3,3.6-2.6,6.1-4.3,8.9l0,0c-0.1,0.2-0.3,0.5-0.4,0.7c0,0.1-0.1,0.2-0.1,0.3c-0.2,0.4-0.4,0.9-0.6,1.4
					c-0.1,0.2-0.1,0.3-0.2,0.5c-0.2,0.5-0.3,1-0.4,1.6c-0.2,2.3,1.6,4.6,1.3,7c-0.5,3.1-3.5,5.8-5,8.5c-2.4,4.3-4.9,10.6-4.9,15.7
					c0.1,4.9,3.9,9.8,2.4,14.7c-1.6,5.3-7,9.3-8.1,15c-1,5.8,2.8,9.5,4.6,14.8c2,5.8-3.2,8.5-3,13.8c0.1,2.7,3.4,3.4,4,5.4
					c1.3,3.9-1.2,3.9-1.4,7.9c-0.1,1.6,1.7,5.4,2,7.2c0.2,1.2-1.3,1.9-0.7,3.5c0.8,2.1,3.2,2.4,4.1,4.2c1.2,2.3,0,3.7,0.9,5.9
					c1.2,3,3.8,5,5.8,7.7c4.1,5.6-0.1,7.1,0.4,13c0.5,5.8,7.2,8.2,12.3,11.4c5.5,3.3,17.7,14.5,25,13c4.1-0.8,12.5-6.9,15.8-9.5
					c5.3-4.1,1-12.1,7-15.6s10-8.3,10.4-14.3c0.4-6.2-1.6-10.4,0.4-16.6c1.6-5-0.4-9,0.3-14.1c0.8-5.8,6.9-10.4,8-16.8
					C1538.2,349.7,1534.8,344.6,1536.2,339.2z"/>
				<path class="st19" d="M1537.2,308.6c1.1-5.4,3.7-9.6,1.7-15c-1.6-4.3-4.1-7.7-5.2-11.8c-0.2,0.3-0.6,0.5-0.5,0.8
					c2.3,7.1,0.4,9-2,13.6c-1.5,2.9-3.8,3.2-3.7,6.6c0,2.8,3.2,4.2,3.9,6.6c1.5,4.7-1.1,9.2-0.2,13.8c1.2,6,1,6.6-2.3,11.9
					c-1.6,2.5-2.4,1.9-2.9,5.1c-0.2,1.4,1.2,3.8,0.6,5.9c-2,6.5-7.8,5.3-13.3,8.7c2.5,5.9-3.5,6.5-6.1,11c-3,5.2,2.8,12-4.4,16.4
					c-2.6,1.6-5.6,1.1-9,2.2c-3.1,1-1.9,3.2-6.2,3.5c-11.1,0.9-7.3-0.4-8.9-4c-0.8-1.9-4.6-2.3-5.8-3.9c-1.8-2.4-8.5-2.6-9.8-5
					c-1.4-2.4-2.5-8.5-3.9-10.8c-1.5-2.3,0.9-4.5,0.1-6.7c-1.1-3.1-3.8-2.7-5.3-5.1c-1.3-2-0.4-4.2-1.6-6.5
					c-1.8-3.4-2.1-9.6-6.9-6.9c-1.2,0.7-1.8,2.2-2.2,4.1c1,1.9,2,3.7,2.8,5.9c2,5.8-3.2,8.5-3,13.8c0.1,2.7,3.4,3.4,4,5.4
					c1.3,3.9-1.2,3.9-1.4,7.9c-0.1,1.6,1.7,5.4,2,7.2c0.2,1.2-1.3,1.9-0.7,3.5c0.8,2.1,3.2,2.4,4.1,4.2c1.2,2.3,0,3.7,0.9,5.9
					c1.2,3,3.8,5,5.8,7.7c4.1,5.6-0.1,7.1,0.4,13c0.5,5.8,7.2,8.2,12.3,11.4c5.5,3.3,17.7,14.5,25,13c4.1-0.8,12.5-6.9,15.8-9.5
					c5.3-4.1,1-12.1,7-15.6s10-8.3,10.4-14.3c0.4-6.2-1.6-10.4,0.4-16.6c1.6-5-0.4-9,0.3-14.1c0.8-5.8,6.9-10.4,8-16.8
					c0.9-5.4-2.5-10.5-1.2-15.9c1.5-6,5.3-9.7,3.8-16.2C1538.7,317.8,1536,314,1537.2,308.6z"/>
			</g>
		</g>
		<g class="st10">
			<g class="st15">
			</g>
			<g>
				<path class="st16" d="M2673.3-15.9c-0.5,2.1-1.8,4.2,0.8,4.7c1.2,0.2,1.6,0,2.5-0.4c0.8-0.4,0.3-3.5,0.3-5.1
					c-0.1-2.3-0.6-1.7,0-3.8c0.3-1.3,0.1-6.7-0.3-7.9c-1.1-3.3-2.2-1-2.2,1.2C2674.4-23.2,2674.5-20.5,2673.3-15.9z"/>
				<path class="st13" d="M2670.7-95.6c-0.2,0.7,0.4,1.6,0,2.3c-0.4,0.8-1.3,1-1.9,1.7c-1.3,1.5-1.1,3.1-2.4,4.8
					c-0.7,0.8-1.7,1.6-2,2.5c-0.2,0.7,0.6,1.6,0.5,2.1c-0.1,1.7-1.7,2.7-1.9,4.4c-0.1,0.8,0.5,1.5,0.4,2.3c-0.2,1-1.1,1.9-1.7,2.8
					c-0.8,1.4-1.6,3.5-1.6,5.2c0,1.6,1.3,3.2,0.8,4.8c-0.5,1.8-2.3,3.1-2.7,5c-0.3,1.9,0.9,3.1,1.5,4.9c0.7,1.9-1.1,2.8-1,4.6
					c0,0.9,1.1,1.1,1.3,1.8c0.4,1.3-0.4,1.3-0.5,2.6c0,0.5,0.6,1.8,0.7,2.4c0.1,0.4-0.4,0.6-0.2,1.2c0.3,0.7,1,0.8,1.4,1.4
					c0.4,0.8,0,1.2,0.3,1.9c0.4,1,1.3,1.7,1.9,2.5c1.4,1.9,0,2.3,0.1,4.3c0.2,1.9,2.4,2.7,4.1,3.8c1.8,1.1,5.8,4.8,8.2,4.3
					c1.3-0.3,4.1-2.3,5.2-3.1c1.7-1.3,0.3-4,2.3-5.1s3.3-2.7,3.4-4.7c0.1-2-0.5-3.4,0.1-5.5c0.5-1.6-0.1-3,0.1-4.7
					c0.3-1.9,2.3-3.4,2.6-5.5c0.3-1.8-0.8-3.5-0.4-5.2c0.5-2,1.7-3.2,1.2-5.4c-0.4-1.7-1.3-3-0.9-4.8c0.4-1.8,1.2-3.2,0.6-5
					c-0.7-1.8-1.9-3.2-1.9-5.2c0-2.1-1-3.5-1.2-5.6c-0.2-1.8,1.6-3.6,1.2-5.5c-0.4-1.7-2.2-2.8-3.4-4s-1.4-2.6-2-3.8
					c-0.7-1.6-1.6-1.9-1.8-3.6c-0.2-1.5-0.3-3.1-2.7-3.5c-2.8-0.5-2.6,1.4-3.8,2.6C2673.2-98.1,2671.2-97.9,2670.7-95.6z"/>
				<path class="st13" d="M2689.6-56c0.5-2,1.7-3.2,1.2-5.4c-0.4-1.7-1.3-3-0.9-4.8c0.4-1.8,1.2-3.2,0.6-5c-0.7-1.8-1.9-3.2-1.9-5.2
					c0-2.1-1-3.5-1.2-5.6c-0.2-1.8,1.6-3.6,1.2-5.5c-0.4-1.7-2.2-2.8-3.4-4s-1.4-2.6-2-3.8c-0.7-1.6-1.6-1.9-1.8-3.6
					c-0.2-1.5-0.3-3.1-2.7-3.5c-2.8-0.5-2.6,1.4-3.8,2.6c-0.1,0.1-0.2,0.2-0.3,0.3c0.2,0.3,2.3-1.8,2.6-1.6c0.7,0.5,1.9,0.3,2.5,0.8
					c1.2,1.1-1.5,3.3-1.5,4.4c0,1.6,2.4,3.2,1.8,4.6c-0.4,1-1.6,1.3-1.2,2.5c0.3,0.8,1.9,1.4,2.6,2c2,1.7,1.6,2.5-0.4,4.2
					c-0.6,0.5-1.5,0.7-2,1.3c-0.6,0.8,0.3,1.5-0.8,2.3c-2,1.5-3.8,0.7-2.8,3.5c0.6,1.8,0.7,2.6,2.1,3.9c2.8,2.5,0.1,2.2-1.6,4
					c-1.1,1.3-0.3,1.5,0.2,2.7c0.9,2.1,0.6,2.4-0.3,4.1c-0.7,1.3-0.1,2.7-0.7,3.9c-0.8,1.5-3.1,1.7-4,0.2c-0.7-1.1,1.3-2.2-0.7-2.9
					c-1.7-0.6-2.7,1.1-3.8,1.9c-3-1.8-1.1-3-0.5-4.9c0.8-2.6-1.8-2-3.1-3.3c-1.8-1.7,0.7-3.6,0.9-5.2c0.1-0.8-0.4-1.5-0.1-2.6
					s1.8-1.4,1.8-2.6c-0.1-1.4-0.9-2.5-2-3.3c-0.3,0.4-0.5,0.9-0.5,1.5c-0.1,0.8,0.5,1.5,0.4,2.3c-0.2,1-1.1,1.9-1.7,2.8
					c-0.8,1.4-1.6,3.5-1.6,5.2c0,1.6,1.3,3.2,0.8,4.8c-0.5,1.8-2.3,3.1-2.7,5c-0.3,1.9,0.9,3.1,1.5,4.9c0.7,1.9-1.1,2.8-1,4.6
					c0,0.9,1.1,1.1,1.3,1.8c0.4,1.3-0.4,1.3-0.5,2.6c0,0.5,0.6,1.8,0.7,2.4c0.1,0.4-0.4,0.6-0.2,1.2c0.3,0.7,1,0.8,1.4,1.4
					c0.4,0.8,0,1.2,0.3,1.9c0.4,1,1.3,1.7,1.9,2.5c1.4,1.9,0,2.3,0.1,4.3c0.2,1.9,2.4,2.7,4.1,3.8c1.8,1.1,5.8,4.8,8.2,4.3
					c1.3-0.3,4.1-2.3,5.2-3.1c1.7-1.3,0.3-4,2.3-5.1s3.3-2.7,3.4-4.7c0.1-2-0.5-3.4,0.1-5.5c0.5-1.6-0.1-3,0.1-4.7
					c0.3-1.9,2.3-3.4,2.6-5.5C2690.2-52.5,2689.1-54.2,2689.6-56z"/>
				<path class="st14" d="M2689.9-66.1c0.4-1.8,1.2-3.2,0.6-5c-0.5-1.4-1.4-2.6-1.7-3.9c-0.1,0.1-0.2,0.2-0.2,0.3
					c0.8,2.3,0.1,3-0.7,4.5c-0.5,1-1.2,1.1-1.2,2.2c0,0.9,1,1.4,1.3,2.2c0.5,1.6-0.4,3.1-0.1,4.6c0.4,2,0.3,2.2-0.7,3.9
					c-0.5,0.8-0.8,0.6-1,1.7c-0.1,0.5,0.4,1.3,0.2,1.9c-0.7,2.1-2.6,1.7-4.4,2.9c0.8,1.9-1.1,2.1-2,3.6c-1,1.7,0.9,4-1.5,5.4
					c-0.9,0.5-1.8,0.4-3,0.7c-1,0.3-0.6,1-2,1.2c-3.7,0.3-2.4-0.1-2.9-1.3c-0.3-0.6-1.5-0.8-1.9-1.3c-0.6-0.8-2.8-0.9-3.2-1.6
					c-0.5-0.8-0.8-2.8-1.3-3.6s0.3-1.5,0-2.2c-0.4-1-1.3-0.9-1.8-1.7c-0.4-0.7-0.1-1.4-0.5-2.2c-0.6-1.1-0.7-3.2-2.3-2.3
					c-0.4,0.2-0.6,0.7-0.7,1.4c0.3,0.6,0.7,1.2,0.9,1.9c0.7,1.9-1.1,2.8-1,4.6c0,0.9,1.1,1.1,1.3,1.8c0.4,1.3-0.4,1.3-0.5,2.6
					c0,0.5,0.6,1.8,0.7,2.4c0.1,0.4-0.4,0.6-0.2,1.2c0.3,0.7,1,0.8,1.4,1.4c0.4,0.8,0,1.2,0.3,1.9c0.4,1,1.3,1.7,1.9,2.5
					c1.4,1.9,0,2.3,0.1,4.3c0.2,1.9,2.4,2.7,4.1,3.8c1.8,1.1,5.8,4.8,8.2,4.3c1.3-0.3,4.1-2.3,5.2-3.1c1.7-1.3,0.3-4,2.3-5.1
					s3.3-2.7,3.4-4.7c0.1-2-0.5-3.4,0.1-5.5c0.5-1.6-0.1-3,0.1-4.7c0.3-1.9,2.3-3.4,2.6-5.5c0.3-1.8-0.8-3.5-0.4-5.2
					c0.5-2,1.7-3.2,1.2-5.4C2690.4-63.1,2689.5-64.3,2689.9-66.1z"/>
			</g>
		</g>
		<g class="st10">
			<g class="st15">
			</g>
			<g>
				<path class="st16" d="M1422,208.4c-0.5,2.1-1.8,4.2,0.8,4.7c1.2,0.2,1.6,0,2.5-0.4c0.8-0.4,0.3-3.5,0.3-5.1
					c-0.1-2.3-0.6-1.7,0-3.8c0.3-1.3,0.1-6.7-0.3-7.9c-1.1-3.3-2.2-1-2.2,1.2C1423,201,1423.1,203.7,1422,208.4z"/>
				<path class="st13" d="M1419.3,128.7c-0.2,0.7,0.4,1.6,0,2.3c-0.4,0.8-1.3,1-1.9,1.7c-1.3,1.5-1.1,3.1-2.4,4.8
					c-0.7,0.8-1.7,1.6-2,2.5c-0.2,0.7,0.6,1.6,0.5,2.1c-0.1,1.7-1.7,2.7-1.9,4.4c-0.1,0.8,0.5,1.5,0.4,2.3c-0.2,1-1.1,1.9-1.7,2.8
					c-0.8,1.4-1.6,3.5-1.6,5.2c0,1.6,1.3,3.2,0.8,4.8c-0.5,1.8-2.3,3.1-2.7,5c-0.3,1.9,0.9,3.1,1.5,4.9c0.7,1.9-1.1,2.8-1,4.6
					c0,0.9,1.1,1.1,1.3,1.8c0.4,1.3-0.4,1.3-0.5,2.6c0,0.5,0.6,1.8,0.7,2.4c0.1,0.4-0.4,0.6-0.2,1.2c0.3,0.7,1,0.8,1.4,1.4
					c0.4,0.8,0,1.2,0.3,1.9c0.4,1,1.3,1.7,1.9,2.5c1.4,1.9,0,2.3,0.1,4.3c0.2,1.9,2.4,2.7,4.1,3.8c1.8,1.1,5.8,4.8,8.2,4.3
					c1.3-0.3,4.1-2.3,5.2-3.1c1.7-1.3,0.3-4,2.3-5.1s3.3-2.7,3.4-4.7s-0.5-3.4,0.1-5.5c0.5-1.6-0.1-3,0.1-4.7
					c0.3-1.9,2.3-3.4,2.6-5.5c0.3-1.8-0.8-3.5-0.4-5.2c0.5-2,1.7-3.2,1.2-5.4c-0.4-1.7-1.3-3-0.9-4.8s1.2-3.2,0.6-5
					c-0.7-1.8-1.9-3.2-1.9-5.2c0-2.1-1-3.5-1.2-5.6c-0.2-1.8,1.6-3.6,1.2-5.5c-0.4-1.7-2.2-2.8-3.4-4c-1.2-1.2-1.4-2.6-2-3.8
					c-0.7-1.6-1.6-1.9-1.8-3.6c-0.2-1.5-0.3-3.1-2.7-3.5c-2.8-0.5-2.6,1.4-3.8,2.6C1421.9,126.1,1419.9,126.4,1419.3,128.7z"/>
				<path class="st13" d="M1438.2,168.2c0.5-2,1.7-3.2,1.2-5.4c-0.4-1.7-1.3-3-0.9-4.8s1.2-3.2,0.6-5c-0.7-1.8-1.9-3.2-1.9-5.2
					c0-2.1-1-3.5-1.2-5.6c-0.2-1.8,1.6-3.6,1.2-5.5c-0.4-1.7-2.2-2.8-3.4-4c-1.2-1.2-1.4-2.6-2-3.8c-0.7-1.6-1.6-1.9-1.8-3.6
					c-0.2-1.5-0.3-3.1-2.7-3.5c-2.8-0.5-2.6,1.4-3.8,2.6c-0.1,0.1-0.2,0.2-0.3,0.3c0.2,0.3,2.3-1.8,2.6-1.6c0.7,0.5,1.9,0.3,2.5,0.8
					c1.2,1.1-1.5,3.3-1.5,4.4c0,1.6,2.4,3.2,1.8,4.6c-0.4,1-1.6,1.3-1.2,2.5c0.3,0.8,1.9,1.4,2.6,2c2,1.7,1.6,2.5-0.4,4.2
					c-0.6,0.5-1.5,0.7-2,1.3c-0.6,0.8,0.3,1.5-0.8,2.3c-2,1.5-3.8,0.7-2.8,3.5c0.6,1.8,0.7,2.6,2.1,3.9c2.8,2.5,0.1,2.2-1.6,4
					c-1.1,1.3-0.3,1.5,0.2,2.7c0.9,2.1,0.6,2.4-0.3,4.1c-0.7,1.3-0.1,2.7-0.7,3.9c-0.8,1.5-3.1,1.7-4,0.2c-0.7-1.1,1.3-2.2-0.7-2.9
					c-1.7-0.6-2.7,1.1-3.8,1.9c-3-1.8-1.1-3-0.5-4.9c0.8-2.6-1.8-2-3.1-3.3c-1.8-1.7,0.7-3.6,0.9-5.2c0.1-0.8-0.4-1.5-0.1-2.6
					s1.8-1.4,1.8-2.6c-0.1-1.4-0.9-2.5-2-3.3c-0.3,0.4-0.5,0.9-0.5,1.5c-0.1,0.8,0.5,1.5,0.4,2.3c-0.2,1-1.1,1.9-1.7,2.8
					c-0.8,1.4-1.6,3.5-1.6,5.2c0,1.6,1.3,3.2,0.8,4.8c-0.5,1.8-2.3,3.1-2.7,5c-0.3,1.9,0.9,3.1,1.5,4.9c0.7,1.9-1.1,2.8-1,4.6
					c0,0.9,1.1,1.1,1.3,1.8c0.4,1.3-0.4,1.3-0.5,2.6c0,0.5,0.6,1.8,0.7,2.4c0.1,0.4-0.4,0.6-0.2,1.2c0.3,0.7,1,0.8,1.4,1.4
					c0.4,0.8,0,1.2,0.3,1.9c0.4,1,1.3,1.7,1.9,2.5c1.4,1.9,0,2.3,0.1,4.3c0.2,1.9,2.4,2.7,4.1,3.8c1.8,1.1,5.8,4.8,8.2,4.3
					c1.3-0.3,4.1-2.3,5.2-3.1c1.7-1.3,0.3-4,2.3-5.1s3.3-2.7,3.4-4.7s-0.5-3.4,0.1-5.5c0.5-1.6-0.1-3,0.1-4.7
					c0.3-1.9,2.3-3.4,2.6-5.5C1438.9,171.7,1437.8,170,1438.2,168.2z"/>
				<path class="st14" d="M1438.6,158.1c0.4-1.8,1.2-3.2,0.6-5c-0.5-1.4-1.4-2.6-1.7-3.9c-0.1,0.1-0.2,0.2-0.2,0.3
					c0.8,2.3,0.1,3-0.7,4.5c-0.5,1-1.2,1.1-1.2,2.2c0,0.9,1,1.4,1.3,2.2c0.5,1.6-0.4,3.1-0.1,4.6c0.4,2,0.3,2.2-0.7,3.9
					c-0.5,0.8-0.8,0.6-1,1.7c-0.1,0.5,0.4,1.3,0.2,1.9c-0.7,2.1-2.6,1.7-4.4,2.9c0.8,1.9-1.1,2.1-2,3.6c-1,1.7,0.9,4-1.5,5.4
					c-0.9,0.5-1.8,0.4-3,0.7c-1,0.3-0.6,1-2,1.2c-3.7,0.3-2.4-0.1-2.9-1.3c-0.3-0.6-1.5-0.8-1.9-1.3c-0.6-0.8-2.8-0.9-3.2-1.6
					c-0.5-0.8-0.8-2.8-1.3-3.6s0.3-1.5,0-2.2c-0.4-1-1.3-0.9-1.8-1.7c-0.4-0.7-0.1-1.4-0.5-2.2c-0.6-1.1-0.7-3.2-2.3-2.3
					c-0.4,0.2-0.6,0.7-0.7,1.4c0.3,0.6,0.7,1.2,0.9,1.9c0.7,1.9-1.1,2.8-1,4.6c0,0.9,1.1,1.1,1.3,1.8c0.4,1.3-0.4,1.3-0.5,2.6
					c0,0.5,0.6,1.8,0.7,2.4c0.1,0.4-0.4,0.6-0.2,1.2c0.3,0.7,1,0.8,1.4,1.4c0.4,0.8,0,1.2,0.3,1.9c0.4,1,1.3,1.7,1.9,2.5
					c1.4,1.9,0,2.3,0.1,4.3c0.2,1.9,2.4,2.7,4.1,3.8c1.8,1.1,5.8,4.8,8.2,4.3c1.3-0.3,4.1-2.3,5.2-3.1c1.7-1.3,0.3-4,2.3-5.1
					s3.3-2.7,3.4-4.7s-0.5-3.4,0.1-5.5c0.5-1.6-0.1-3,0.1-4.7c0.3-1.9,2.3-3.4,2.6-5.5c0.3-1.8-0.8-3.5-0.4-5.2
					c0.5-2,1.7-3.2,1.2-5.4C1439.1,161.1,1438.2,159.9,1438.6,158.1z"/>
			</g>
		</g>
	</g>
	<g id="house_1_" class="st3">
		<polygon class="st20" points="2559.3,-71.2 2586.2,-30.8 2532.9,-30.6 		"/>
		<polygon class="st20" points="2586.6,9.3 2586.4,-30.8 2535.3,-30.6 2535.5,9.3 		"/>
		<polygon class="st21" points="2645.6,9.3 2645.6,-31.1 2585.9,-30.8 2585.9,9.3 		"/>
		<polygon class="st22" points="2647.2,-30.8 2620.5,-71.2 2559.5,-71.2 2586.3,-30.8 		"/>
		<polygon class="st23" points="2586.5,-30.6 2559.3,-71.2 2558.2,-69.6 2583.9,-30.6 		"/>
		<polygon class="st23" points="2559.3,-71.2 2532.9,-30.6 2535.3,-30.6 2560.2,-69.6 		"/>
		<polygon class="st24" points="2565.3,-35.4 2565.3,-45.1 2554.1,-45.1 2554.2,-35.3 		"/>
		<rect x="2597.6" y="-22.2" class="st25" width="8.6" height="7.5"/>
		<rect x="2613.4" y="-22.2" class="st25" width="8.6" height="7.5"/>
		<rect x="2628.2" y="-22.2" class="st25" width="8.6" height="7.5"/>
		<polygon class="st20" points="2578.2,-100.1 2587.6,-86 2568.9,-85.9 		"/>
		<polygon class="st20" points="2578.9,-71.2 2587.8,-64.7 2587.6,-86 2569.8,-85.9 2569.8,-71.2 		"/>
		
			<rect x="2587.5" y="-86.1" transform="matrix(1 -5.590417e-03 5.590417e-03 1 0.4635 14.5227)" class="st21" width="20.9" height="20.9"/>
		<polygon class="st22" points="2608.9,-86.1 2599.6,-100.2 2578.3,-100.2 2587.6,-86 		"/>
		<polygon class="st23" points="2587.7,-86 2578.2,-100.1 2577.8,-99.6 2586.8,-85.9 		"/>
		<polygon class="st23" points="2578.2,-100.1 2568.9,-85.9 2569.8,-85.9 2578.5,-99.6 		"/>
		<polygon class="st24" points="2576.4,-80.5 2576.4,-83.9 2572.5,-83.9 2572.5,-80.4 		"/>
		
			<rect x="2580.2" y="-83.9" transform="matrix(1 -6.038353e-03 6.038353e-03 1 0.5434 15.5907)" class="st24" width="3.9" height="3.4"/>
		<polygon class="st25" points="2600.7,-77.5 2600.7,-80.9 2596.8,-80.9 2596.8,-77.5 		"/>
	</g>
</g>
<g id="text" class="st3">
	<g class="st10">
		<path class="st34" d="M339.3-243.5c-63.2-38.9-104.7-37.9-129.8-6.3c-18.1,22.7-5.1,51,15.4,60.3c15.5-28.8,54.5-42.5,77.7-22.9
			c4.9-6.3,8.6-13.9,10.8-22.6c0.2-1,3.6-4.9,2.5-0.6c-2.4,9.5-6.3,17.9-11.4,24.9c2.1,2,4.2,4.4,6,7c0.8,1.4-2.7,2.5-3.8,0.8
			c-1.2-1.8-2.7-3.5-4.3-5c-16.6,21-43.7,29.6-69.5,25.4c-2-0.3-4.1-0.9-6.1-1.5l-1,2.6c-10.7,31.8,8.4,51.1,36.5,51.1
			c27.7,0,52.1-23.6,57.2-65.2c1.9-16,3.7-31.9,4.9-40.3c0.2-1.9,11.6-8.2,11.3-5.9c-0.6,4.7-4.6,39.3-5.2,44.5
			c-5.9,47.7-37.4,70.7-72.5,70.7c-27.2,0-47-22.3-36.7-54c0.5-1.7,1.1-3.4,1.9-5.1c-22.5-10.1-36.6-40.3-17.3-65
			c28.9-37.1,78.9-41.5,143.3-1.6c48.1,29.7,93.1,10.4,93.4-0.1c0.1-1.4,4.1-5.3,4-1.6C445.6-238,392.3-210.8,339.3-243.5z
			 M228.8-188c1.8,0.6,3.7,1,5.5,1.4c24.7,3.6,50.4-4.4,66.1-23.1C279-228,242.4-213.9,228.8-188z"/>
		<path class="st34" d="M414.5-182.1c-5,12.1-13.2,32.5-26.6,32.5c-9.7,0-13.1-6.9-12.9-20.2c-4.2,10.3-11.8,20.2-20.8,20.2
			c-12.8,0-14.6-11.6-11.9-34l3.3-27c0.2-1.9,11.5-7,11.2-4.6c-0.2,1.9-3.2,24.6-3.6,28.5c-2.5,20.9-2.6,34.1,3.1,34.1
			c7.8,0,17.7-16.8,19.7-29.4l3.5-28.6c0.2-1.9,11.5-7,11.2-4.6c-0.2,1.9-3.2,24.6-3.6,28.5c-2.5,20.9-2.6,34.1,3.1,34.1
			c8.2,0,17.3-18.4,22.3-30.5C413.6-186,415.7-185.1,414.5-182.1z"/>
		<path class="st34" d="M449.1-165.9c-2.6,11.6-17.2,17.1-28.7,16.5c-14-0.8-19-11.1-16.6-20.6c2.8-11.4,19.7-5.1,11.9,1.1
			c-4.1,3.2-5.3,6.4-5.3,8.9c0.1,4.3,4.2,7.3,12.2,7.8c7.5,0.3,20-4.5,21.7-12.7c2-9.2-15.4-13.1-19.1-14.5
			c-12.4-4.6-16.7-12.9-12-23.7c4.2-9.4,13.6-13.1,24.5-13.1c12.4,0,16.6,8.4,15,16c-2.3,9.5-16.2,5.2-9.8-0.6
			c2.5-2.1,3.2-5.1,3.1-7.2c0-3.2-4-5.4-10.2-5.4c-7,0-15.4,3.5-17.7,8.9c-3.4,7.7,2.5,11,13.8,15.3
			C444.8-184.2,452-179,449.1-165.9z"/>
		<path class="st34" d="M518.8-182.9c-9.2,22.4-24.1,33.7-37.2,33.7c-15.5,0-23.5-8.9-21.1-28.5c3.2-25.6,19.5-37.7,31.5-37.7
			c9.8,0,15.9,11.1,11.2,21.9c-4.7,11-19.8,1.7-11.3-3.1c4.4-2.6,6.8-5.4,6.8-8c-0.2-4.9-1.7-8-8.7-8c-7.2,0-15.9,12.4-18.5,33.2
			c-2,16.6,1,26.9,12.8,26.9c9.3,0,22.9-8.5,32.4-31.5C517.8-186.8,519.9-185.9,518.8-182.9z"/>
		<path class="st34" d="M582.6-181.7c-5,12.1-13.2,32.5-26.4,32.5c-9.2,0-12.8-6.1-13-17.9c-4.1,10.6-10.5,17.9-18.5,17.9
			c-10.6,0-16.8-9.5-14.5-28.6c3.2-26.1,18-36.8,31.2-37.6c10.7-0.6,17.5,2.8,17.1,6.9c-0.5,3.7-4,5.9-7.1,6.9
			c-3.2,1.2-6.7,0.7-5.9-2.5c1.2-4.5,0.3-8.5-6.6-8.5c-7.2,0-15.1,11.8-17.9,33.2c-1.9,15.9-0.7,27.1,6.2,27.1
			c6.4,0,13.8-12.5,16.5-26c0.1-1.6,0.3-3.3,0.5-5l1.5-12c0.3-2.3,11.3-6,11.1-4.1l-1.6,12.8c-2.6,20.9-2.6,34.2,3.1,34.2
			c8.2,0,17.3-18.4,22.3-30.6C581.6-185.7,583.9-184.8,582.6-181.7z"/>
		<path class="st34" d="M645-138.3c-3.5,7.9-12.1,16-21,16c-15.7,0-25.3-7.7-18.9-60.9c2.5-20,4.6-29.2-1.6-29.2
			c-8.1,0-19.4,18.8-21.8,33.6l-3.3,26.6c-0.2,1.9-11.3,4.1-11,1.7l7.3-59.5c0.2-1.9,11.5-7,11.3-4.6l-2.6,20.8
			c5.2-11.9,13.8-21.5,22.5-21.5c10.5,0,12.9,6.3,10.1,29c-6.3,51.8,1.5,61,10.1,61c6,0,12.9-6.4,15.9-13.1
			C644.5-143.8,647.4-143.9,645-138.3z"/>
		<path class="st34" d="M688.5-131.7c-6.4-2.7-14-4.9-22.3-6.4c-17.5,43.5-61.1,56.8-90.5,48.2c-24.7-7.3-22-29.7-2-42.4
			c17.7-11.1,53.2-14.6,84.2-10.5c1.9-6.3,3.5-13.2,4.4-20.8l0.6-4.1c-4.4,9.5-11.5,18.1-19.9,18.1c-12.7,0-14.6-11.6-11.9-34
			l3.3-27c0.2-1.9,11.5-7,11.2-4.6c-0.2,1.9-3.2,24.6-3.6,28.5c-2.5,20.9-2.6,34.1,3.1,34.1c7.7,0,17.2-15.8,19.4-28.2
			c1.2-9.2,2.6-20,3.7-29.7c0.2-1.9,11.5-7,11.2-4.6c-1,8.9-4.9,39.2-6.2,50.1c-1.1,8.8-2.9,16.7-5.6,24c8.6,1.6,16.6,3.8,23.5,6.7
			C692.9-133.7,689.7-131.2,688.5-131.7z M656.7-139.7c-28.7-4-61.5-1.4-78.9,8.8c-19,11-23.2,31.8,0.5,38.8
			C604.2-84.5,641.7-98,656.7-139.7z"/>
	</g>
	<g class="st10">
		<path class="st34" d="M377-276.4l0.7,7.9c-1.9,1.6-4.1,2.6-6.8,2.8c-1.6,0.1-3.1,0-4.5-0.4s-2.5-1-3.6-1.8c-1-0.8-1.8-1.8-2.4-3
			s-1-2.6-1.1-4.1s0-2.9,0.3-4.2c0.4-1.3,1-2.4,1.8-3.4s1.8-1.8,3.1-2.4c1.2-0.6,2.6-1,4.2-1.1c0.8-0.1,1.6-0.1,2.3,0
			c0.7,0.1,1.4,0.2,2,0.3c0.6,0.2,1.2,0.4,1.7,0.7c0.5,0.3,1,0.6,1.5,0.9l-0.8,1.6c-0.1,0.2-0.3,0.4-0.5,0.5s-0.5,0-0.8-0.1
			s-0.6-0.3-0.9-0.4s-0.7-0.3-1.1-0.4s-0.9-0.2-1.4-0.3s-1.1,0-1.8,0c-1.1,0.1-2,0.4-2.8,0.8s-1.5,1-2,1.7s-0.9,1.5-1.2,2.5
			c-0.2,1-0.3,2-0.2,3.1c0.1,1.2,0.4,2.3,0.8,3.2s1,1.7,1.7,2.3s1.5,1,2.4,1.3s1.9,0.3,3.1,0.2c0.8-0.1,1.6-0.2,2.2-0.5
			c0.6-0.2,1.2-0.5,1.8-0.9l-0.4-4l-2.8,0.3c-0.2,0-0.4,0-0.5-0.1s-0.2-0.2-0.2-0.4l-0.2-1.9L377-276.4z"/>
		<path class="st34" d="M399.8-268.1l-2.9,0.2c-0.6,0-1-0.2-1.3-0.6l-5.2-6.4c-0.2-0.2-0.4-0.4-0.6-0.5s-0.5-0.1-0.8-0.1l-1.8,0.1
			l0.6,8.1l-3.3,0.2l-1.4-20.1l5.9-0.4c1.3-0.1,2.5,0,3.4,0.2c1,0.2,1.8,0.5,2.4,1c0.7,0.5,1.1,1,1.5,1.7c0.3,0.7,0.5,1.4,0.6,2.3
			c0,0.7,0,1.4-0.2,2s-0.4,1.2-0.8,1.7s-0.8,1-1.4,1.4s-1.2,0.7-1.9,1c0.4,0.2,0.8,0.5,1.1,0.9L399.8-268.1z M389.6-277.9
			c0.7-0.1,1.4-0.2,1.9-0.4c0.5-0.2,1-0.5,1.3-0.9s0.6-0.8,0.8-1.2c0.2-0.5,0.2-1,0.2-1.5c-0.1-1.1-0.5-1.9-1.3-2.4
			s-1.9-0.7-3.4-0.6l-2.7,0.2l0.5,7.1L389.6-277.9z"/>
		<path class="st34" d="M417.4-271.7l0.1,2.6l-12.6,0.7l-1.1-20.1l12.6-0.7l0.1,2.6l-9.3,0.5l0.3,6.1l7.4-0.4l0.1,2.6l-7.4,0.4
			l0.3,6.2L417.4-271.7z"/>
		<path class="st34" d="M436.3-272.5l0.1,2.6l-12.6,0.5l-0.8-20.1l12.6-0.5l0.1,2.6l-9.3,0.4l0.2,6.1l7.4-0.3l0.1,2.6l-7.4,0.3
			l0.2,6.2L436.3-272.5z"/>
		<path class="st34" d="M456.1-287.8l-6.3,0.2l0.4,17.4l-3.3,0.1l-0.4-17.4l-6.3,0.2l-0.1-2.7l15.8-0.4L456.1-287.8z"/>
		<path class="st34" d="M465.3-270.5H462l-0.3-20.2h3.3L465.3-270.5z"/>
		<path class="st34" d="M489.5-290.8l0.1,20.2h-1.7c-0.3,0-0.5,0-0.6-0.1c-0.2-0.1-0.3-0.2-0.5-0.4l-11.1-14.2
			c0,0.3,0.1,0.5,0.1,0.8s0,0.5,0,0.7v13.3h-2.9l-0.1-20.2h1.7c0.1,0,0.3,0,0.4,0s0.2,0,0.3,0.1c0.1,0,0.2,0.1,0.2,0.2
			c0.1,0.1,0.2,0.2,0.2,0.3l11.1,14.2c0-0.3-0.1-0.6-0.1-0.9s0-0.5,0-0.8v-13.1L489.5-290.8z"/>
		<path class="st34" d="M513.7-280.3l-0.1,8c-2,1.4-4.4,2.1-7,2.1c-1.6,0-3.1-0.3-4.4-0.8s-2.4-1.3-3.3-2.2s-1.6-2-2.1-3.3
			s-0.7-2.7-0.7-4.2s0.3-2.9,0.8-4.2c0.5-1.3,1.2-2.3,2.1-3.2s2-1.6,3.3-2.1s2.7-0.7,4.3-0.7c0.8,0,1.6,0.1,2.3,0.2
			c0.7,0.1,1.3,0.3,1.9,0.6c0.6,0.2,1.1,0.5,1.6,0.8c0.5,0.3,1,0.7,1.4,1.1l-1,1.5c-0.2,0.2-0.3,0.4-0.6,0.4c-0.2,0.1-0.5,0-0.8-0.2
			s-0.6-0.3-0.9-0.5s-0.6-0.4-1-0.5c-0.4-0.2-0.8-0.3-1.4-0.4s-1.1-0.2-1.8-0.2c-1.1,0-2,0.1-2.9,0.5c-0.9,0.3-1.6,0.8-2.2,1.5
			c-0.6,0.6-1.1,1.4-1.4,2.3s-0.5,1.9-0.5,3.1s0.1,2.3,0.5,3.2c0.3,1,0.8,1.8,1.4,2.4c0.6,0.7,1.4,1.2,2.3,1.5
			c0.9,0.4,1.9,0.5,3,0.6c0.8,0,1.6-0.1,2.2-0.2c0.7-0.2,1.3-0.4,1.9-0.7l0.1-4h-2.8c-0.2,0-0.4-0.1-0.5-0.2s-0.2-0.3-0.2-0.5v-1.9
			L513.7-280.3z"/>
		<path class="st34" d="M531.2-286.6c-0.1,0.2-0.2,0.3-0.3,0.4s-0.3,0.1-0.4,0.1c-0.2,0-0.4-0.1-0.6-0.2c-0.2-0.2-0.5-0.3-0.8-0.5
			s-0.7-0.4-1.1-0.5c-0.4-0.2-1-0.3-1.6-0.3s-1.1,0-1.5,0.2c-0.4,0.1-0.8,0.3-1.1,0.6c-0.3,0.2-0.5,0.5-0.7,0.9
			c-0.2,0.3-0.2,0.7-0.2,1.1c0,0.5,0.1,0.9,0.4,1.3c0.3,0.3,0.6,0.7,1,0.9c0.4,0.3,0.9,0.5,1.5,0.7s1.1,0.4,1.7,0.6
			c0.6,0.2,1.2,0.5,1.7,0.8c0.6,0.3,1.1,0.6,1.5,1s0.8,0.9,1,1.5c0.3,0.6,0.4,1.3,0.3,2.1c0,0.9-0.2,1.7-0.5,2.5s-0.8,1.4-1.4,2
			c-0.6,0.6-1.3,1-2.2,1.3s-1.8,0.5-2.9,0.4c-0.6,0-1.3-0.1-1.9-0.2c-0.6-0.1-1.2-0.3-1.7-0.6c-0.5-0.2-1.1-0.5-1.5-0.9
			c-0.5-0.3-0.9-0.7-1.3-1.1l1-1.5c0.1-0.1,0.2-0.2,0.3-0.3s0.3-0.1,0.4-0.1c0.2,0,0.4,0.1,0.7,0.3c0.3,0.2,0.6,0.4,0.9,0.7
			c0.4,0.2,0.8,0.5,1.3,0.7s1.1,0.3,1.9,0.4c1.2,0,2.1-0.2,2.8-0.8s1-1.3,1-2.4c0-0.6-0.1-1-0.4-1.4c-0.3-0.4-0.6-0.7-1-0.9
			c-0.4-0.3-0.9-0.5-1.5-0.7s-1.1-0.4-1.7-0.6c-0.6-0.2-1.2-0.4-1.7-0.7c-0.6-0.3-1.1-0.6-1.5-1.1c-0.4-0.4-0.8-1-1-1.6
			c-0.3-0.6-0.4-1.4-0.3-2.3c0-0.7,0.2-1.4,0.5-2.1s0.7-1.3,1.3-1.8s1.2-0.9,2.1-1.2c0.8-0.3,1.7-0.4,2.8-0.4c1.2,0,2.2,0.2,3.2,0.6
			s1.8,0.9,2.5,1.6L531.2-286.6z"/>
		<path class="st34" d="M552.1-286.5l-0.3,6.4l7.9,0.4l-0.1,2.6l-7.9-0.4l-0.4,8.4l-3.3-0.2l1-20.1l12.6,0.6l-0.1,2.6L552.1-286.5z"
			/>
		<path class="st34" d="M581.8-267.2l-2.9-0.2c-0.6,0-1-0.3-1.2-0.8l-4.3-7.1c-0.1-0.2-0.3-0.4-0.5-0.5s-0.5-0.2-0.8-0.2l-1.8-0.1
			l-0.5,8.1l-3.3-0.2l1.3-20.1l5.9,0.4c1.3,0.1,2.5,0.3,3.4,0.6c0.9,0.3,1.7,0.8,2.3,1.3s1,1.2,1.2,1.9c0.2,0.7,0.3,1.5,0.3,2.4
			c0,0.7-0.2,1.3-0.4,1.9s-0.6,1.1-1,1.6s-0.9,0.9-1.5,1.2c-0.6,0.3-1.3,0.6-2,0.7c0.4,0.3,0.7,0.6,1,1.1L581.8-267.2z M573-278.3
			c0.7,0,1.4,0,2-0.1s1.1-0.4,1.4-0.7c0.4-0.3,0.7-0.7,0.9-1.1s0.3-0.9,0.4-1.5c0.1-1.1-0.2-2-0.9-2.6s-1.8-1-3.2-1.1l-2.7-0.2
			l-0.5,7.1L573-278.3z"/>
		<path class="st34" d="M606.4-275.3c-0.1,1.5-0.5,2.8-1.1,4.1c-0.6,1.2-1.4,2.2-2.3,3.1c-1,0.8-2.1,1.5-3.3,1.9
			c-1.3,0.4-2.7,0.6-4.2,0.4c-1.5-0.1-2.8-0.5-4-1.1s-2.2-1.4-3-2.4s-1.4-2.1-1.8-3.4c-0.4-1.3-0.5-2.7-0.4-4.2s0.5-2.8,1.1-4.1
			c0.6-1.2,1.4-2.2,2.3-3.1c1-0.8,2.1-1.5,3.4-1.9c1.3-0.4,2.7-0.6,4.2-0.4c1.5,0.1,2.9,0.5,4,1.1c1.2,0.6,2.2,1.4,3,2.4
			s1.4,2.1,1.8,3.4C606.4-278.2,606.5-276.8,606.4-275.3z M603-275.6c0.1-1.2,0-2.2-0.2-3.2c-0.2-0.9-0.6-1.8-1.1-2.5
			s-1.2-1.2-2-1.7c-0.8-0.4-1.7-0.7-2.7-0.7c-1-0.1-2,0-2.8,0.3c-0.9,0.3-1.6,0.7-2.2,1.3c-0.6,0.6-1.2,1.3-1.5,2.2
			c-0.4,0.9-0.6,1.9-0.7,3.1c-0.1,1.2,0,2.2,0.2,3.2c0.2,0.9,0.6,1.8,1.2,2.4c0.5,0.7,1.2,1.2,2,1.6s1.7,0.7,2.7,0.7
			c1,0.1,2,0,2.8-0.3c0.9-0.3,1.6-0.7,2.2-1.3c0.6-0.6,1.1-1.3,1.5-2.2C602.7-273.4,602.9-274.4,603-275.6z"/>
		<path class="st34" d="M635.2-282.5l-2.1,20l-2.9-0.3l1.4-13.7c0-0.2,0.1-0.5,0.1-0.7c0-0.3,0.1-0.5,0.1-0.8l-7.7,11.2
			c-0.3,0.5-0.7,0.7-1.2,0.6h-0.5c-0.5-0.1-0.9-0.3-1.1-0.9l-5.3-12.6c0,0.3,0,0.5,0,0.8s0,0.5-0.1,0.8l-1.4,13.7l-2.9-0.3l2.1-20
			l2.4,0.3c0.3,0,0.5,0.1,0.7,0.1c0.2,0.1,0.3,0.2,0.4,0.5l5.2,12.3c0.1,0.3,0.2,0.6,0.3,0.9s0.2,0.6,0.2,0.9
			c0.1-0.3,0.3-0.6,0.4-0.8c0.2-0.3,0.3-0.5,0.5-0.8l7.6-11c0.2-0.2,0.3-0.4,0.5-0.4s0.4,0,0.7,0L635.2-282.5z"/>
	</g>
</g>
</svg>
