<?xml version="1.0" encoding="utf-8"?>
<!-- Generator: Adobe Illustrator 22.0.1, SVG Export Plug-In . SVG Version: 6.00 Build 0)  -->
<svg version="1.1" xmlns="http://www.w3.org/2000/svg" xmlns:xlink="http://www.w3.org/1999/xlink" x="0px" y="0px"
	 viewBox="0 0 1400 980" style="enable-background:new 0 0 1400 980;" xml:space="preserve">
<style type="text/css">
	.st0{display:none;fill:url(#sky_1_);}
	.st1{display:none;}
	.st2{fill:url(#SVGID_1_);}
	.st3{fill:url(#SVGID_2_);}
	.st4{display:none;fill:url(#SVGID_3_);}
	.st5{display:none;fill:url(#SVGID_4_);}
	.st6{fill:url(#SVGID_5_);}
	.st7{display:none;fill:url(#SVGID_6_);}
	.st8{display:none;fill:url(#SVGID_7_);}
	.st9{display:none;fill:url(#SVGID_8_);}
	.st10{display:inline;}
	.st11{opacity:0.3;}
	.st12{fill:#594C21;}
	.st13{fill:#526D1C;}
	.st14{fill:#455C18;}
	.st15{opacity:0.2;}
	.st16{fill:#7A6C3D;}
	.st17{fill:#544A2A;}
	.st18{fill:#384D13;}
	.st19{fill:#314211;}
	.st20{display:inline;fill:#D4CA9E;}
	.st21{display:inline;fill:#FCF1BA;}
	.st22{display:inline;fill:#9E4944;}
	.st23{display:inline;fill:#693836;}
	.st24{display:inline;fill:#948D6E;}
	.st25{display:inline;fill:#AFA782;}
	.st26{fill:#FFFFFF;}
</style>
<g id="illustration">
	<linearGradient id="sky_1_" gradientUnits="userSpaceOnUse" x1="138.3661" y1="-100.9271" x2="1664.3661" y2="1207.0729">
		<stop  offset="4.138622e-02" style="stop-color:#0061E7"/>
		<stop  offset="0.2964" style="stop-color:#0CB0E8"/>
		<stop  offset="0.8886" style="stop-color:#11D4E8"/>
	</linearGradient>
	<rect id="sky" class="st0" width="1400" height="760.9"/>
	<g id="hills" class="st1">
		
			<linearGradient id="SVGID_1_" gradientUnits="userSpaceOnUse" x1="1286.8938" y1="834.9967" x2="1286.8938" y2="501.7647" gradientTransform="matrix(-1 0 0 1 1977.6263 0)">
			<stop  offset="0" style="stop-color:#504B03"/>
			<stop  offset="3.110978e-02" style="stop-color:#554F05"/>
			<stop  offset="0.2434" style="stop-color:#5A5307"/>
			<stop  offset="0.6423" style="stop-color:#5B4F07"/>
			<stop  offset="0.9748" style="stop-color:#633103"/>
		</linearGradient>
		<path class="st2" d="M0,541c58.8,12.3,120,20.8,183.1,15.3c97.2-8.4,176.5-44.1,242.7-75.5c70.3-33.4,119.6,6.5,174.8,33.5
			c81.7,39.9,162.3,48.1,259.3,18.1c63-19.5,128.8-37.3,188.8-59c78.1-28.2,162.3,53.4,319,92.9C1478.4,835,893.2,802.3,613.3,835
			c-213.8-19.4-421-53.3-613.1-88.7L0,541z"/>
		<linearGradient id="SVGID_2_" gradientUnits="userSpaceOnUse" x1="1111.5" y1="822.682" x2="1111.5" y2="455.3488">
			<stop  offset="0" style="stop-color:#504B03"/>
			<stop  offset="3.110978e-02" style="stop-color:#554F05"/>
			<stop  offset="0.3955" style="stop-color:#5A5307"/>
			<stop  offset="0.5794" style="stop-color:#5B4F07"/>
			<stop  offset="0.841" style="stop-color:#633103"/>
		</linearGradient>
		<path class="st3" d="M0,727.7c154.8,81,493.6,72.4,686.9,95c654.2-59.2,1246.3-255.3,1536.1-208l0,0c0-21-16.3-38.4-37.3-39.8
			c-122.8-8.2-246.2-41-354.2-65.2c-61.3-13.7-122.1-28.6-185.3-40.4c-80.1-14.9-141,12.3-214.7,28.8
			c-97.1,21.6-202.8,55.5-314.4,45.9c-97.2-8.4-176.5-44.1-242.7-75.5C804,435.1,754.8,475,699.5,502
			c-81.7,39.9-162.3,48.1-259.3,18.1c-63-19.5-128.8-37.3-188.8-59c-66.5-24-135.1,31.6-251.4,73"/>
	</g>
	<g id="fields">
		
			<linearGradient id="SVGID_3_" gradientUnits="userSpaceOnUse" x1="1988.3313" y1="1030.101" x2="1878.0035" y2="679.9347" gradientTransform="matrix(-1 0 0 1 2256.7581 0)">
			<stop  offset="0" style="stop-color:#192A06"/>
			<stop  offset="0.1003" style="stop-color:#2D3C0C"/>
			<stop  offset="0.5397" style="stop-color:#838824"/>
			<stop  offset="0.8497" style="stop-color:#B8B833"/>
			<stop  offset="1" style="stop-color:#CDCA39"/>
		</linearGradient>
		<path class="st4" d="M736,783.2L0,871V645C316.6,633.1,578,695.4,736,783.2z"/>
		<linearGradient id="SVGID_4_" gradientUnits="userSpaceOnUse" x1="670.7941" y1="625.298" x2="720.0884" y2="929.2772">
			<stop  offset="0" style="stop-color:#CDCA39"/>
			<stop  offset="0.4998" style="stop-color:#677018"/>
			<stop  offset="1" style="stop-color:#192A06"/>
		</linearGradient>
		<path class="st5" d="M1400,770.1v-81.6c-569.1-53-956.6-40.3-1400,33.8v200h876.9L1400,770.1z"/>
		<linearGradient id="SVGID_5_" gradientUnits="userSpaceOnUse" x1="1021.9306" y1="494.9955" x2="1061.9773" y2="718.1221">
			<stop  offset="0" style="stop-color:#E0DE34"/>
			<stop  offset="0.1062" style="stop-color:#CBCB2F"/>
			<stop  offset="0.3238" style="stop-color:#969B23"/>
			<stop  offset="0.4998" style="stop-color:#677018"/>
			<stop  offset="1" style="stop-color:#192A06"/>
		</linearGradient>
		<path class="st6" d="M664,659.7l736,87.7V442.6C1083.4,430.7,822,571.9,664,659.7z"/>
		<linearGradient id="SVGID_6_" gradientUnits="userSpaceOnUse" x1="1033.875" y1="498.7227" x2="1033.875" y2="854.5564">
			<stop  offset="0" style="stop-color:#E6DD8F"/>
			<stop  offset="0.5" style="stop-color:#AFA782"/>
			<stop  offset="1" style="stop-color:#4A5436"/>
		</linearGradient>
		<path class="st7" d="M1270.1,581.9c-112.5-21.3-161.5-70.1-48.1-109.6l-26.5,4.6c-137.9,44-108.5,95.3-19.9,117.4
			c144.3,36.1-396.4,130.7-465.3,204.9h421.4C1366.3,707.8,1428,611.8,1270.1,581.9z"/>
		<linearGradient id="SVGID_7_" gradientUnits="userSpaceOnUse" x1="677.6694" y1="627.2469" x2="734.9811" y2="980.6702">
			<stop  offset="0" style="stop-color:#E0DE34"/>
			<stop  offset="0.1062" style="stop-color:#CBCB2F"/>
			<stop  offset="0.3238" style="stop-color:#969B23"/>
			<stop  offset="0.4998" style="stop-color:#677018"/>
			<stop  offset="0.6652" style="stop-color:#495511"/>
			<stop  offset="0.8825" style="stop-color:#263609"/>
			<stop  offset="1" style="stop-color:#192A06"/>
		</linearGradient>
		<path class="st8" d="M1400,549.9C1024.3,565.7,479.3,701.6,0,896.2V980h1400V549.9z"/>
		<linearGradient id="SVGID_8_" gradientUnits="userSpaceOnUse" x1="566.6103" y1="679.4884" x2="566.6103" y2="1035.3221">
			<stop  offset="0" style="stop-color:#E6DD8F"/>
			<stop  offset="0.5" style="stop-color:#AFA782"/>
			<stop  offset="1" style="stop-color:#4A5436"/>
		</linearGradient>
		<path class="st9" d="M802.8,762.6c-112.5-21.3-161.5-70.1-48.1-109.6l-26.5,4.6c-137.9,44-108.5,95.3-19.9,117.4
			C852.6,811.2,311.9,905.7,242.9,980h421.4C899.1,888.5,960.7,792.6,802.8,762.6z"/>
	</g>
	<g id="trees" class="st1">
		<g class="st10">
			<g class="st11">
				
					<image style="overflow:visible;" width="236" height="88" xlink:href="FF16D42FF39E62CC.png"  transform="matrix(1 0 0 1 891 736)">
				</image>
			</g>
			<g>
				<path class="st12" d="M953.4,774c-1.3,5.3-4.5,10.8,1.9,11.9c3,0.5,4,0.1,6.4-1c2.1-0.9,0.9-8.9,0.7-13.1
					c-0.2-5.8-1.5-4.3-0.1-9.7c0.8-3.3,0.2-17.1-0.8-20.3c-2.8-8.5-5.7-2.7-5.6,3.1C956,755.2,956.3,762.1,953.4,774z"/>
				<path class="st13" d="M946.6,570.3c-0.5,1.9,1.1,4,0.1,6c-1,2-3.3,2.6-4.8,4.3c-3.4,3.8-2.7,8-6.2,12.2c-1.7,2-4.5,4-5.1,6.3
					c-0.5,1.7,1.4,4.1,1.3,5.5c-0.3,4.4-4.5,6.9-5,11.3c-0.2,2,1.4,3.9,1.1,5.9c-0.4,2.6-2.9,4.9-4.2,7.2c-2,3.6-4.2,9-4.1,13.3
					c0.1,4.2,3.3,8.3,2.1,12.4c-1.3,4.5-5.9,7.9-6.8,12.7c-0.9,4.9,2.4,8,3.9,12.5c1.7,4.9-2.7,7.2-2.5,11.6
					c0.1,2.3,2.8,2.9,3.4,4.5c1.1,3.3-1,3.3-1.2,6.7c-0.1,1.3,1.4,4.6,1.7,6.1c0.2,1-1.1,1.6-0.6,3c0.6,1.8,2.7,2,3.5,3.6
					c1,2,0,3.1,0.7,4.9c1,2.6,3.2,4.2,4.9,6.5c3.5,4.8-0.1,6,0.3,11c0.4,4.9,6,6.9,10.4,9.6c4.6,2.8,14.9,12.2,21.1,11
					c3.4-0.7,10.6-5.8,13.4-8c4.5-3.4,0.8-10.2,5.9-13.1c5.1-2.9,8.5-7,8.8-12.1c0.3-5.2-1.3-8.7,0.4-14c1.4-4.2-0.3-7.6,0.3-11.9
					c0.7-4.9,5.9-8.8,6.7-14.2c0.7-4.6-2.1-8.9-1-13.4c1.3-5,4.4-8.2,3.2-13.7c-1-4.4-3.3-7.6-2.3-12.2c1-4.6,3.1-8.1,1.4-12.7
					c-1.7-4.7-4.8-8.1-4.8-13.2c0-5.5-2.4-9-3.2-14.2c-0.6-4.7,4.2-9.2,3.1-14.1c-1-4.3-5.6-7.1-8.8-10.3c-3-3.1-3.6-6.5-5.2-9.8
					c-1.9-4.1-4.1-4.8-4.5-9.1c-0.4-3.8-0.7-7.8-7-8.9c-7.2-1.2-6.5,3.7-9.7,6.7C953.1,563.8,948,564.5,946.6,570.3z"/>
				<path class="st13" d="M994.9,671.4c1.3-5,4.4-8.2,3.2-13.7c-1-4.4-3.3-7.6-2.3-12.2c1-4.6,3.1-8.1,1.4-12.7
					c-1.7-4.7-4.8-8.1-4.8-13.2c0-5.5-2.4-9-3.2-14.2c-0.6-4.7,4.2-9.2,3.1-14.1c-1-4.3-5.6-7.1-8.8-10.3c-3-3.1-3.6-6.5-5.2-9.8
					c-1.9-4.1-4.1-4.8-4.5-9.1c-0.4-3.8-0.7-7.8-7-8.9c-7.2-1.2-6.5,3.7-9.7,6.7c-0.3,0.2-0.5,0.4-0.7,0.7c0.6,0.7,5.8-4.6,6.7-4.1
					c1.9,1.2,5,0.8,6.4,2.2c3,2.7-3.8,8.4-3.8,11.2c0,4.2,6.1,8.3,4.6,11.7c-1.1,2.6-4.1,3.3-3.1,6.4c0.7,2.1,4.8,3.6,6.6,5.1
					c5.1,4.4,4.2,6.4-1.1,10.8c-1.6,1.3-3.9,1.8-5,3.4c-1.4,2,0.7,3.8-2.1,5.8c-5.2,3.8-9.7,1.8-7.1,9.1c1.6,4.5,1.7,6.7,5.3,9.9
					c7.2,6.3,0.1,5.7-4,10.3c-2.9,3.2-0.8,3.7,0.6,7c2.4,5.3,1.7,6.1-0.7,10.6c-1.7,3.2-0.3,7-1.9,10.1c-2,3.7-7.8,4.3-10.1,0.5
					c-1.7-2.8,3.3-5.7-1.8-7.5c-4.4-1.5-7,2.9-9.6,5c-7.6-4.6-2.9-7.8-1.4-12.6c2.1-6.7-4.6-5.2-7.9-8.4c-4.7-4.5,1.7-9.1,2.3-13.2
					c0.3-2.2-1.1-4-0.4-6.6c0.7-2.8,4.7-3.6,4.5-6.8c-0.3-3.7-2.2-6.5-5.2-8.3c-0.7,1.1-1.2,2.3-1.4,3.8c-0.2,2,1.4,3.9,1.1,5.9
					c-0.4,2.6-2.9,4.9-4.2,7.2c-2,3.6-4.2,9-4.1,13.3c0.1,4.2,3.3,8.3,2.1,12.4c-1.3,4.5-5.9,7.9-6.8,12.7c-0.9,4.9,2.4,8,3.9,12.5
					c1.7,4.9-2.7,7.2-2.5,11.6c0.1,2.3,2.8,2.9,3.4,4.5c1.1,3.3-1,3.3-1.2,6.7c-0.1,1.3,1.4,4.6,1.7,6.1c0.2,1-1.1,1.6-0.6,3
					c0.6,1.8,2.7,2,3.5,3.6c1,2,0,3.1,0.7,4.9c1,2.6,3.2,4.2,4.9,6.5c3.5,4.8-0.1,6,0.3,11c0.4,4.9,6,6.9,10.4,9.6
					c4.6,2.8,14.9,12.2,21.1,11c3.4-0.7,10.6-5.8,13.4-8c4.5-3.4,0.8-10.2,5.9-13.1c5.1-2.9,8.5-7,8.8-12.1c0.3-5.2-1.3-8.7,0.4-14
					c1.4-4.2-0.3-7.6,0.3-11.9c0.7-4.9,5.9-8.8,6.7-14.2C996.6,680.3,993.7,676,994.9,671.4z"/>
				<path class="st14" d="M995.7,645.6c1-4.6,3.1-8.1,1.4-12.7c-1.3-3.6-3.5-6.5-4.4-10c-0.1,0.2-0.5,0.4-0.4,0.7
					c1.9,6,0.4,7.6-1.7,11.5c-1.3,2.5-3.2,2.7-3.1,5.6c0,2.3,2.7,3.6,3.3,5.6c1.2,4-0.9,7.8-0.2,11.7c1,5.1,0.9,5.6-1.9,10.1
					c-1.4,2.1-2,1.6-2.5,4.3c-0.2,1.2,1,3.2,0.5,4.9c-1.7,5.5-6.6,4.4-11.2,7.4c2.1,5-2.9,5.5-5.1,9.3c-2.6,4.4,2.4,10.1-3.7,13.9
					c-2.2,1.4-4.7,0.9-7.6,1.9c-2.6,0.9-1.6,2.7-5.2,3c-9.4,0.8-6.2-0.3-7.5-3.4c-0.7-1.6-3.9-2-4.9-3.3c-1.5-2-7.1-2.2-8.3-4.2
					c-1.2-2-2.1-7.2-3.3-9.1c-1.2-1.9,0.8-3.8,0.1-5.7c-0.9-2.6-3.2-2.3-4.5-4.3c-1.1-1.7-0.4-3.6-1.4-5.5c-1.5-2.9-1.8-8.1-5.8-5.8
					c-1,0.6-1.5,1.9-1.9,3.5c0.8,1.6,1.7,3.2,2.3,5c1.7,4.9-2.7,7.2-2.5,11.6c0.1,2.3,2.8,2.9,3.4,4.5c1.1,3.3-1,3.3-1.2,6.7
					c-0.1,1.3,1.4,4.6,1.7,6.1c0.2,1-1.1,1.6-0.6,3c0.6,1.8,2.7,2,3.5,3.6c1,2,0,3.1,0.7,4.9c1,2.6,3.2,4.2,4.9,6.5
					c3.5,4.8-0.1,6,0.3,11c0.4,4.9,6,6.9,10.4,9.6c4.6,2.8,14.9,12.2,21.1,11c3.4-0.7,10.6-5.8,13.4-8c4.5-3.4,0.8-10.2,5.9-13.1
					c5.1-2.9,8.5-7,8.8-12.1c0.3-5.2-1.3-8.7,0.4-14c1.4-4.2-0.3-7.6,0.3-11.9c0.7-4.9,5.9-8.8,6.7-14.2c0.7-4.6-2.1-8.9-1-13.4
					c1.3-5,4.4-8.2,3.2-13.7C997,653.3,994.7,650.1,995.7,645.6z"/>
			</g>
		</g>
		<g class="st10">
			<g class="st15">
				
					<image style="overflow:visible;" width="169" height="81" xlink:href="FF16D42FF39E62CD.png"  transform="matrix(1 0 0 1 309 681)">
				</image>
			</g>
			<g>
				<path class="st16" d="M360.9,718c-0.8,3.1-2.7,6.4,1.1,7c1.8,0.3,2.4,0,3.7-0.6c1.2-0.5,0.5-5.2,0.4-7.7
					c-0.1-3.4-0.9-2.5-0.1-5.7c0.5-1.9,0.1-10-0.5-11.9c-1.6-5-3.4-1.6-3.3,1.8C362.4,706.9,362.6,711,360.9,718z"/>
				<path class="st13" d="M356.9,598.4c-0.3,1.1,0.6,2.3,0,3.5c-0.6,1.2-1.9,1.5-2.8,2.5c-2,2.2-1.6,4.7-3.7,7.1
					c-1,1.2-2.6,2.4-3,3.7c-0.3,1,0.8,2.4,0.8,3.2c-0.2,2.6-2.6,4.1-2.9,6.6c-0.1,1.2,0.8,2.3,0.6,3.5c-0.2,1.6-1.7,2.9-2.5,4.2
					c-1.2,2.1-2.4,5.3-2.4,7.8c0,2.4,1.9,4.9,1.2,7.3c-0.8,2.6-3.5,4.6-4,7.4c-0.5,2.9,1.4,4.7,2.3,7.3c1,2.9-1.6,4.2-1.5,6.8
					c0.1,1.3,1.7,1.7,2,2.7c0.6,1.9-0.6,1.9-0.7,3.9c0,0.8,0.8,2.7,1,3.6c0.1,0.6-0.7,0.9-0.4,1.7c0.4,1,1.6,1.2,2,2.1
					c0.6,1.2,0,1.8,0.4,2.9c0.6,1.5,1.9,2.5,2.9,3.8c2.1,2.8-0.1,3.5,0.2,6.4c0.3,2.9,3.6,4.1,6.1,5.6c2.7,1.6,8.8,7.2,12.4,6.5
					c2-0.4,6.2-3.4,7.9-4.7c2.6-2,0.5-6,3.5-7.7c3-1.7,5-4.1,5.2-7.1c0.2-3.1-0.8-5.1,0.2-8.2c0.8-2.5-0.2-4.4,0.2-7
					c0.4-2.9,3.4-5.2,3.9-8.3c0.4-2.7-1.2-5.2-0.6-7.9c0.7-3,2.6-4.8,1.9-8c-0.6-2.6-1.9-4.5-1.4-7.1c0.6-2.7,1.8-4.8,0.8-7.5
					c-1-2.8-2.8-4.8-2.8-7.8c0-3.2-1.4-5.3-1.9-8.4c-0.4-2.8,2.5-5.4,1.8-8.3c-0.6-2.5-3.3-4.2-5.1-6.1c-1.7-1.8-2.1-3.8-3-5.8
					c-1.1-2.4-2.4-2.8-2.7-5.3c-0.2-2.2-0.4-4.6-4.1-5.2c-4.3-0.7-3.8,2.2-5.7,3.9C360.7,594.5,357.7,595,356.9,598.4z"/>
				<path class="st13" d="M385.3,657.8c0.7-3,2.6-4.8,1.9-8c-0.6-2.6-1.9-4.5-1.4-7.1c0.6-2.7,1.8-4.8,0.8-7.5
					c-1-2.8-2.8-4.8-2.8-7.8c0-3.2-1.4-5.3-1.9-8.4c-0.4-2.8,2.5-5.4,1.8-8.3c-0.6-2.5-3.3-4.2-5.1-6.1c-1.7-1.8-2.1-3.8-3-5.8
					c-1.1-2.4-2.4-2.8-2.7-5.3c-0.2-2.2-0.4-4.6-4.1-5.2c-4.3-0.7-3.8,2.2-5.7,3.9c-0.1,0.1-0.3,0.3-0.4,0.4
					c0.3,0.4,3.4-2.7,3.9-2.4c1.1,0.7,2.9,0.5,3.8,1.3c1.8,1.6-2.2,4.9-2.2,6.6c0,2.5,3.6,4.8,2.7,6.9c-0.7,1.5-2.4,1.9-1.8,3.8
					c0.4,1.2,2.8,2.1,3.8,3c3,2.6,2.5,3.8-0.6,6.3c-0.9,0.8-2.3,1.1-2.9,2c-0.8,1.2,0.4,2.2-1.2,3.4c-3,2.2-5.7,1-4.2,5.3
					c0.9,2.6,1,3.9,3.1,5.8c4.2,3.7,0.1,3.3-2.4,6.1c-1.7,1.9-0.5,2.2,0.3,4.1c1.4,3.1,1,3.6-0.4,6.2c-1,1.9-0.2,4.1-1.1,5.9
					c-1.2,2.2-4.6,2.5-5.9,0.3c-1-1.6,1.9-3.4-1-4.4c-2.6-0.9-4.1,1.7-5.7,2.9c-4.5-2.7-1.7-4.6-0.8-7.4c1.2-3.9-2.7-3.1-4.6-4.9
					c-2.8-2.6,1-5.3,1.4-7.8c0.2-1.3-0.6-2.3-0.2-3.9c0.4-1.6,2.8-2.1,2.6-4c-0.2-2.2-1.3-3.8-3-4.9c-0.4,0.7-0.7,1.4-0.8,2.2
					c-0.1,1.2,0.8,2.3,0.6,3.5c-0.2,1.6-1.7,2.9-2.5,4.2c-1.2,2.1-2.4,5.3-2.4,7.8c0,2.4,1.9,4.9,1.2,7.3c-0.8,2.6-3.5,4.6-4,7.4
					c-0.5,2.9,1.4,4.7,2.3,7.3c1,2.9-1.6,4.2-1.5,6.8c0.1,1.3,1.7,1.7,2,2.7c0.6,1.9-0.6,1.9-0.7,3.9c0,0.8,0.8,2.7,1,3.6
					c0.1,0.6-0.7,0.9-0.4,1.7c0.4,1,1.6,1.2,2,2.1c0.6,1.2,0,1.8,0.4,2.9c0.6,1.5,1.9,2.5,2.9,3.8c2.1,2.8-0.1,3.5,0.2,6.4
					c0.3,2.9,3.6,4.1,6.1,5.6c2.7,1.6,8.8,7.2,12.4,6.5c2-0.4,6.2-3.4,7.9-4.7c2.6-2,0.5-6,3.5-7.7c3-1.7,5-4.1,5.2-7.1
					c0.2-3.1-0.8-5.1,0.2-8.2c0.8-2.5-0.2-4.4,0.2-7c0.4-2.9,3.4-5.2,3.9-8.3C386.3,662.9,384.6,660.4,385.3,657.8z"/>
				<path class="st14" d="M385.8,642.6c0.6-2.7,1.8-4.8,0.8-7.5c-0.8-2.1-2-3.8-2.6-5.9c-0.1,0.1-0.3,0.3-0.2,0.4
					c1.1,3.5,0.2,4.5-1,6.7c-0.8,1.5-1.9,1.6-1.8,3.3c0,1.4,1.6,2.1,1.9,3.3c0.7,2.3-0.6,4.6-0.1,6.8c0.6,3,0.5,3.3-1.1,5.9
					c-0.8,1.3-1.2,0.9-1.5,2.5c-0.1,0.7,0.6,1.9,0.3,2.9c-1,3.2-3.8,2.6-6.6,4.3c1.2,2.9-1.7,3.2-3,5.4c-1.5,2.6,1.4,5.9-2.2,8.1
					c-1.3,0.8-2.8,0.5-4.5,1.1c-1.5,0.5-1,1.6-3.1,1.7c-5.5,0.5-3.6-0.2-4.4-2c-0.4-0.9-2.3-1.2-2.9-1.9c-0.9-1.2-4.2-1.3-4.9-2.5
					c-0.7-1.2-1.2-4.2-1.9-5.3c-0.7-1.1,0.5-2.2,0.1-3.3c-0.5-1.6-1.9-1.3-2.6-2.5c-0.6-1-0.2-2.1-0.8-3.2c-0.9-1.7-1-4.8-3.4-3.4
					c-0.6,0.3-0.9,1.1-1.1,2c0.5,0.9,1,1.9,1.4,2.9c1,2.9-1.6,4.2-1.5,6.8c0.1,1.3,1.7,1.7,2,2.7c0.6,1.9-0.6,1.9-0.7,3.9
					c0,0.8,0.8,2.7,1,3.6c0.1,0.6-0.7,0.9-0.4,1.7c0.4,1,1.6,1.2,2,2.1c0.6,1.2,0,1.8,0.4,2.9c0.6,1.5,1.9,2.5,2.9,3.8
					c2.1,2.8-0.1,3.5,0.2,6.4c0.3,2.9,3.6,4.1,6.1,5.6c2.7,1.6,8.8,7.2,12.4,6.5c2-0.4,6.2-3.4,7.9-4.7c2.6-2,0.5-6,3.5-7.7
					c3-1.7,5-4.1,5.2-7.1c0.2-3.1-0.8-5.1,0.2-8.2c0.8-2.5-0.2-4.4,0.2-7c0.4-2.9,3.4-5.2,3.9-8.3c0.4-2.7-1.2-5.2-0.6-7.9
					c0.7-3,2.6-4.8,1.9-8C386.5,647.1,385.2,645.2,385.8,642.6z"/>
			</g>
		</g>
		<g class="st10">
			<g class="st15">
				
					<image style="overflow:visible;" width="184" height="83" xlink:href="FF16D42FF39E62C2.png"  transform="matrix(1 0 0 1 715 629)">
				</image>
			</g>
			<g>
				<path class="st16" d="M768.9,666.1c-0.9,3.6-3.1,7.4,1.3,8.1c2,0.3,2.8,0,4.3-0.7c1.4-0.6,0.6-6.1,0.5-9c-0.1-4-1-2.9-0.1-6.6
					c0.6-2.3,0.1-11.7-0.6-13.9c-1.9-5.9-3.9-1.8-3.9,2.1C770.7,653.3,770.9,658,768.9,666.1z"/>
				<path class="st13" d="M764.3,526.6c-0.3,1.3,0.7,2.7,0,4.1c-0.7,1.4-2.2,1.8-3.3,2.9c-2.3,2.6-1.9,5.5-4.3,8.3
					c-1.1,1.4-3,2.7-3.5,4.3c-0.3,1.2,1,2.8,0.9,3.8c-0.2,3-3.1,4.7-3.4,7.7c-0.1,1.3,0.9,2.7,0.7,4.1c-0.3,1.8-2,3.3-2.9,4.9
					c-1.4,2.5-2.8,6.2-2.8,9.1c0.1,2.9,2.2,5.7,1.4,8.5c-0.9,3.1-4.1,5.4-4.7,8.7c-0.6,3.3,1.6,5.5,2.7,8.5c1.2,3.3-1.9,4.9-1.7,8
					c0.1,1.6,1.9,2,2.3,3.1c0.7,2.2-0.7,2.3-0.8,4.6c-0.1,0.9,1,3.1,1.1,4.2c0.1,0.7-0.8,1.1-0.4,2c0.4,1.2,1.8,1.4,2.4,2.4
					c0.7,1.3,0,2.2,0.5,3.4c0.7,1.8,2.2,2.9,3.3,4.5c2.4,3.3-0.1,4.1,0.2,7.5c0.3,3.4,4.1,4.8,7.1,6.6c3.2,1.9,10.2,8.4,14.4,7.5
					c2.4-0.5,7.2-4,9.2-5.5c3.1-2.4,0.6-7,4.1-9c3.5-2,5.8-4.8,6-8.3c0.2-3.6-0.9-6,0.3-9.6c0.9-2.9-0.2-5.2,0.2-8.1
					c0.5-3.3,4-6,4.6-9.7c0.5-3.1-1.5-6.1-0.7-9.2c0.9-3.4,3-5.6,2.2-9.4c-0.7-3-2.2-5.2-1.6-8.3c0.7-3.1,2.1-5.6,1-8.7
					c-1.2-3.2-3.3-5.6-3.3-9.1c0-3.8-1.7-6.2-2.2-9.7c-0.4-3.2,2.9-6.3,2.1-9.7c-0.7-2.9-3.8-4.9-6-7.1c-2-2.1-2.5-4.5-3.5-6.7
					c-1.3-2.8-2.8-3.3-3.1-6.2c-0.3-2.6-0.5-5.4-4.8-6.1c-5-0.8-4.5,2.5-6.6,4.6C768.7,522.1,765.2,522.6,764.3,526.6z"/>
				<path class="st13" d="M797.3,595.9c0.9-3.4,3-5.6,2.2-9.4c-0.7-3-2.2-5.2-1.6-8.3c0.7-3.1,2.1-5.6,1-8.7
					c-1.2-3.2-3.3-5.6-3.3-9.1c0-3.8-1.7-6.2-2.2-9.7c-0.4-3.2,2.9-6.3,2.1-9.7c-0.7-2.9-3.8-4.9-6-7.1c-2-2.1-2.5-4.5-3.5-6.7
					c-1.3-2.8-2.8-3.3-3.1-6.2c-0.3-2.6-0.5-5.4-4.8-6.1c-5-0.8-4.5,2.5-6.6,4.6c-0.2,0.2-0.3,0.3-0.5,0.4c0.4,0.5,4-3.2,4.6-2.8
					c1.3,0.8,3.4,0.6,4.4,1.5c2.1,1.9-2.6,5.7-2.6,7.7c0,2.9,4.2,5.7,3.2,8c-0.8,1.8-2.8,2.2-2.1,4.4c0.5,1.4,3.3,2.5,4.5,3.5
					c3.5,3,2.9,4.4-0.7,7.4c-1.1,0.9-2.7,1.3-3.4,2.3c-1,1.3,0.5,2.6-1.4,4c-3.5,2.6-6.6,1.2-4.9,6.2c1.1,3.1,1.2,4.6,3.7,6.8
					c4.9,4.3,0.1,3.9-2.8,7.1c-2,2.2-0.6,2.6,0.4,4.8c1.6,3.6,1.1,4.1-0.5,7.2c-1.2,2.2-0.2,4.8-1.3,6.9c-1.4,2.5-5.4,3-6.9,0.3
					c-1.2-1.9,2.3-3.9-1.2-5.1c-3-1-4.8,2-6.6,3.4c-5.2-3.1-2-5.3-0.9-8.6c1.4-4.6-3.1-3.6-5.4-5.8c-3.2-3.1,1.2-6.2,1.6-9
					c0.2-1.5-0.7-2.7-0.3-4.5c0.5-1.9,3.2-2.4,3.1-4.6c-0.2-2.5-1.5-4.5-3.6-5.7c-0.4,0.8-0.8,1.6-0.9,2.6c-0.1,1.3,0.9,2.7,0.7,4.1
					c-0.3,1.8-2,3.3-2.9,4.9c-1.4,2.5-2.8,6.2-2.8,9.1c0.1,2.9,2.2,5.7,1.4,8.5c-0.9,3.1-4.1,5.4-4.7,8.7c-0.6,3.3,1.6,5.5,2.7,8.5
					c1.2,3.3-1.9,4.9-1.7,8c0.1,1.6,1.9,2,2.3,3.1c0.7,2.2-0.7,2.3-0.8,4.6c-0.1,0.9,1,3.1,1.1,4.2c0.1,0.7-0.8,1.1-0.4,2
					c0.4,1.2,1.8,1.4,2.4,2.4c0.7,1.3,0,2.2,0.5,3.4c0.7,1.8,2.2,2.9,3.3,4.5c2.4,3.3-0.1,4.1,0.2,7.5c0.3,3.4,4.1,4.8,7.1,6.6
					c3.2,1.9,10.2,8.4,14.4,7.5c2.4-0.5,7.2-4,9.2-5.5c3.1-2.4,0.6-7,4.1-9c3.5-2,5.8-4.8,6-8.3c0.2-3.6-0.9-6,0.3-9.6
					c0.9-2.9-0.2-5.2,0.2-8.1c0.5-3.3,4-6,4.6-9.7C798.5,601.9,796.6,599,797.3,595.9z"/>
				<path class="st14" d="M797.9,578.2c0.7-3.1,2.1-5.6,1-8.7c-0.9-2.5-2.4-4.5-3-6.8c-0.1,0.1-0.3,0.3-0.3,0.5
					c1.3,4.1,0.3,5.2-1.1,7.9c-0.9,1.7-2.2,1.9-2.1,3.8c0,1.6,1.8,2.4,2.3,3.8c0.9,2.7-0.6,5.3-0.1,8c0.7,3.5,0.6,3.8-1.3,6.9
					c-0.9,1.5-1.4,1.1-1.7,2.9c-0.1,0.8,0.7,2.2,0.3,3.4c-1.1,3.8-4.5,3-7.7,5c1.4,3.4-2,3.7-3.5,6.4c-1.7,3,1.6,6.9-2.5,9.5
					c-1.5,0.9-3.2,0.6-5.2,1.3c-1.8,0.6-1.1,1.8-3.6,2c-6.4,0.5-4.2-0.2-5.1-2.3c-0.5-1.1-2.7-1.4-3.3-2.3c-1-1.4-4.9-1.5-5.7-2.9
					c-0.8-1.4-1.4-4.9-2.3-6.2c-0.9-1.3,0.5-2.6,0.1-3.9c-0.6-1.8-2.2-1.6-3.1-2.9c-0.8-1.2-0.3-2.5-1-3.8c-1-2-1.2-5.6-4-4
					c-0.7,0.4-1.1,1.3-1.3,2.4c0.6,1.1,1.2,2.2,1.6,3.4c1.2,3.3-1.9,4.9-1.7,8c0.1,1.6,1.9,2,2.3,3.1c0.7,2.2-0.7,2.3-0.8,4.6
					c-0.1,0.9,1,3.1,1.1,4.2c0.1,0.7-0.8,1.1-0.4,2c0.4,1.2,1.8,1.4,2.4,2.4c0.7,1.3,0,2.2,0.5,3.4c0.7,1.8,2.2,2.9,3.3,4.5
					c2.4,3.3-0.1,4.1,0.2,7.5c0.3,3.4,4.1,4.8,7.1,6.6c3.2,1.9,10.2,8.4,14.4,7.5c2.4-0.5,7.2-4,9.2-5.5c3.1-2.4,0.6-7,4.1-9
					c3.5-2,5.8-4.8,6-8.3c0.2-3.6-0.9-6,0.3-9.6c0.9-2.9-0.2-5.2,0.2-8.1c0.5-3.3,4-6,4.6-9.7c0.5-3.1-1.5-6.1-0.7-9.2
					c0.9-3.4,3-5.6,2.2-9.4C798.8,583.5,797.3,581.3,797.9,578.2z"/>
			</g>
		</g>
		<g class="st10">
			<g class="st15">
				
					<image style="overflow:visible;" width="164" height="81" xlink:href="FF16D42FF39E62C3.png"  transform="matrix(1 0 0 1 970 468)">
				</image>
			</g>
			<g>
				<path class="st16" d="M1021,505.2c-0.7,3-2.5,6.1,1.1,6.6c1.7,0.3,2.3,0,3.5-0.5c1.2-0.5,0.5-5,0.4-7.3
					c-0.1-3.3-0.8-2.4-0.1-5.4c0.5-1.8,0.1-9.6-0.5-11.3c-1.6-4.8-3.2-1.5-3.1,1.7C1022.5,494.7,1022.7,498.5,1021,505.2z"/>
				<path class="st13" d="M1017.3,391.5c-0.3,1,0.6,2.2,0,3.3c-0.6,1.1-1.8,1.4-2.7,2.4c-1.9,2.1-1.5,4.5-3.5,6.8
					c-0.9,1.1-2.5,2.2-2.9,3.5c-0.3,0.9,0.8,2.3,0.7,3.1c-0.2,2.5-2.5,3.9-2.8,6.3c-0.1,1.1,0.8,2.2,0.6,3.3c-0.2,1.5-1.6,2.7-2.4,4
					c-1.1,2-2.3,5-2.3,7.4c0,2.3,1.8,4.6,1.1,6.9c-0.7,2.5-3.3,4.4-3.8,7.1c-0.5,2.7,1.3,4.5,2.2,7c0.9,2.7-1.5,4-1.4,6.5
					c0.1,1.3,1.6,1.6,1.9,2.5c0.6,1.8-0.6,1.9-0.7,3.7c0,0.8,0.8,2.6,0.9,3.4c0.1,0.5-0.6,0.9-0.3,1.7c0.4,1,1.5,1.1,1.9,2
					c0.5,1.1,0,1.8,0.4,2.8c0.6,1.4,1.8,2.4,2.7,3.6c2,2.7-0.1,3.3,0.2,6.1c0.2,2.7,3.4,3.9,5.8,5.4c2.6,1.6,8.3,6.8,11.8,6.1
					c1.9-0.4,5.9-3.2,7.5-4.5c2.5-1.9,0.5-5.7,3.3-7.3c2.8-1.6,4.7-3.9,4.9-6.7c0.2-2.9-0.8-4.9,0.2-7.8c0.8-2.3-0.2-4.2,0.2-6.6
					c0.4-2.7,3.3-4.9,3.7-7.9c0.4-2.6-1.2-5-0.6-7.5c0.7-2.8,2.5-4.6,1.8-7.6c-0.6-2.5-1.8-4.3-1.3-6.8c0.5-2.6,1.7-4.5,0.8-7.1
					c-1-2.6-2.7-4.5-2.7-7.4c0-3.1-1.4-5-1.8-7.9c-0.4-2.6,2.3-5.1,1.7-7.9c-0.5-2.4-3.1-4-4.9-5.8c-1.7-1.7-2-3.6-2.9-5.5
					c-1.1-2.3-2.3-2.7-2.5-5.1c-0.2-2.1-0.4-4.4-3.9-5c-4-0.7-3.6,2.1-5.4,3.7C1020.9,387.8,1018,388.2,1017.3,391.5z"/>
				<path class="st13" d="M1044.2,447.9c0.7-2.8,2.5-4.6,1.8-7.6c-0.6-2.5-1.8-4.3-1.3-6.8c0.5-2.6,1.7-4.5,0.8-7.1
					c-1-2.6-2.7-4.5-2.7-7.4c0-3.1-1.4-5-1.8-7.9c-0.4-2.6,2.3-5.1,1.7-7.9c-0.5-2.4-3.1-4-4.9-5.8c-1.7-1.7-2-3.6-2.9-5.5
					c-1.1-2.3-2.3-2.7-2.5-5.1c-0.2-2.1-0.4-4.4-3.9-5c-4-0.7-3.6,2.1-5.4,3.7c-0.1,0.1-0.3,0.2-0.4,0.4c0.3,0.4,3.2-2.6,3.7-2.3
					c1,0.6,2.8,0.5,3.6,1.2c1.7,1.5-2.1,4.7-2.1,6.3c0,2.3,3.4,4.6,2.6,6.6c-0.6,1.5-2.3,1.8-1.7,3.6c0.4,1.2,2.7,2,3.7,2.8
					c2.9,2.4,2.3,3.6-0.6,6c-0.9,0.7-2.2,1-2.8,1.9c-0.8,1.1,0.4,2.1-1.1,3.2c-2.9,2.1-5.4,1-4,5.1c0.9,2.5,1,3.7,3,5.5
					c4,3.5,0.1,3.2-2.2,5.8c-1.6,1.8-0.5,2.1,0.3,3.9c1.3,2.9,0.9,3.4-0.4,5.9c-0.9,1.8-0.1,3.9-1.1,5.6c-1.1,2.1-4.4,2.4-5.7,0.3
					c-0.9-1.6,1.8-3.2-1-4.2c-2.5-0.9-3.9,1.6-5.4,2.8c-4.3-2.5-1.6-4.3-0.8-7c1.2-3.7-2.6-2.9-4.4-4.7c-2.6-2.5,1-5.1,1.3-7.4
					c0.2-1.2-0.6-2.2-0.2-3.7c0.4-1.5,2.6-2,2.5-3.8c-0.2-2.1-1.2-3.6-2.9-4.7c-0.4,0.6-0.7,1.3-0.8,2.1c-0.1,1.1,0.8,2.2,0.6,3.3
					c-0.2,1.5-1.6,2.7-2.4,4c-1.1,2-2.3,5-2.3,7.4c0,2.3,1.8,4.6,1.1,6.9c-0.7,2.5-3.3,4.4-3.8,7.1c-0.5,2.7,1.3,4.5,2.2,7
					c0.9,2.7-1.5,4-1.4,6.5c0.1,1.3,1.6,1.6,1.9,2.5c0.6,1.8-0.6,1.9-0.7,3.7c0,0.8,0.8,2.6,0.9,3.4c0.1,0.5-0.6,0.9-0.3,1.7
					c0.4,1,1.5,1.1,1.9,2c0.5,1.1,0,1.8,0.4,2.8c0.6,1.4,1.8,2.4,2.7,3.6c2,2.7-0.1,3.3,0.2,6.1c0.2,2.7,3.4,3.9,5.8,5.4
					c2.6,1.6,8.3,6.8,11.8,6.1c1.9-0.4,5.9-3.2,7.5-4.5c2.5-1.9,0.5-5.7,3.3-7.3c2.8-1.6,4.7-3.9,4.9-6.7c0.2-2.9-0.8-4.9,0.2-7.8
					c0.8-2.3-0.2-4.2,0.2-6.6c0.4-2.7,3.3-4.9,3.7-7.9C1045.2,452.9,1043.6,450.4,1044.2,447.9z"/>
				<path class="st14" d="M1044.7,433.5c0.5-2.6,1.7-4.5,0.8-7.1c-0.7-2-1.9-3.6-2.4-5.6c-0.1,0.1-0.3,0.2-0.2,0.4
					c1.1,3.3,0.2,4.2-0.9,6.4c-0.7,1.4-1.8,1.5-1.7,3.1c0,1.3,1.5,2,1.8,3.1c0.7,2.2-0.5,4.4-0.1,6.5c0.6,2.8,0.5,3.1-1.1,5.6
					c-0.8,1.2-1.1,0.9-1.4,2.4c-0.1,0.7,0.6,1.8,0.3,2.8c-0.9,3.1-3.7,2.5-6.3,4.1c1.2,2.8-1.6,3-2.9,5.2c-1.4,2.5,1.3,5.6-2.1,7.7
					c-1.2,0.8-2.6,0.5-4.3,1.1c-1.4,0.5-0.9,1.5-2.9,1.7c-5.2,0.4-3.4-0.2-4.2-1.9c-0.4-0.9-2.2-1.1-2.7-1.8c-0.8-1.1-4-1.2-4.6-2.3
					c-0.7-1.1-1.2-4-1.9-5.1c-0.7-1.1,0.4-2.1,0.1-3.2c-0.5-1.5-1.8-1.3-2.5-2.4c-0.6-0.9-0.2-2-0.8-3.1c-0.9-1.6-1-4.5-3.3-3.3
					c-0.6,0.3-0.9,1-1,1.9c0.5,0.9,1,1.8,1.3,2.8c0.9,2.7-1.5,4-1.4,6.5c0.1,1.3,1.6,1.6,1.9,2.5c0.6,1.8-0.6,1.9-0.7,3.7
					c0,0.8,0.8,2.6,0.9,3.4c0.1,0.5-0.6,0.9-0.3,1.7c0.4,1,1.5,1.1,1.9,2c0.5,1.1,0,1.8,0.4,2.8c0.6,1.4,1.8,2.4,2.7,3.6
					c2,2.7-0.1,3.3,0.2,6.1c0.2,2.7,3.4,3.9,5.8,5.4c2.6,1.6,8.3,6.8,11.8,6.1c1.9-0.4,5.9-3.2,7.5-4.5c2.5-1.9,0.5-5.7,3.3-7.3
					c2.8-1.6,4.7-3.9,4.9-6.7c0.2-2.9-0.8-4.9,0.2-7.8c0.8-2.3-0.2-4.2,0.2-6.6c0.4-2.7,3.3-4.9,3.7-7.9c0.4-2.6-1.2-5-0.6-7.5
					c0.7-2.8,2.5-4.6,1.8-7.6C1045.4,437.8,1044.2,436,1044.7,433.5z"/>
			</g>
		</g>
		<g class="st10">
			<g class="st15">
				
					<image style="overflow:visible;" width="159" height="81" xlink:href="FF16D42FF39E62C4.png"  transform="matrix(1 0 0 1 1042 440)">
				</image>
			</g>
			<g>
				<path class="st16" d="M1092.5,477.7c-0.7,2.8-2.4,5.7,1,6.3c1.6,0.3,2.1,0,3.4-0.5c1.1-0.5,0.4-4.7,0.4-6.9
					c-0.1-3.1-0.8-2.3,0-5.1c0.4-1.7,0.1-9-0.4-10.7c-1.5-4.5-3-1.4-3,1.6C1093.9,467.8,1094.1,471.4,1092.5,477.7z"/>
				<path class="st13" d="M1088.9,370.2c-0.2,1,0.6,2.1,0,3.1c-0.5,1.1-1.7,1.4-2.5,2.3c-1.8,2-1.5,4.2-3.3,6.4
					c-0.9,1.1-2.3,2.1-2.7,3.3c-0.3,0.9,0.8,2.2,0.7,2.9c-0.2,2.3-2.4,3.7-2.6,6c-0.1,1,0.7,2.1,0.6,3.1c-0.2,1.4-1.5,2.6-2.2,3.8
					c-1.1,1.9-2.2,4.7-2.2,7c0,2.2,1.7,4.4,1.1,6.5c-0.7,2.4-3.1,4.1-3.6,6.7c-0.5,2.6,1.2,4.2,2.1,6.6c0.9,2.6-1.4,3.8-1.3,6.1
					c0,1.2,1.5,1.5,1.8,2.4c0.6,1.7-0.5,1.8-0.6,3.5c0,0.7,0.7,2.4,0.9,3.2c0.1,0.5-0.6,0.8-0.3,1.6c0.3,0.9,1.4,1.1,1.8,1.9
					c0.5,1,0,1.7,0.4,2.6c0.5,1.4,1.7,2.2,2.6,3.4c1.8,2.5-0.1,3.2,0.2,5.8c0.2,2.6,3.2,3.7,5.5,5.1c2.4,1.5,7.9,6.5,11.1,5.8
					c1.8-0.4,5.6-3.1,7.1-4.2c2.4-1.8,0.4-5.4,3.1-6.9c2.7-1.5,4.5-3.7,4.6-6.4c0.2-2.8-0.7-4.6,0.2-7.4c0.7-2.2-0.2-4,0.1-6.3
					c0.3-2.6,3.1-4.6,3.5-7.5c0.4-2.4-1.1-4.7-0.5-7.1c0.7-2.7,2.3-4.3,1.7-7.2c-0.5-2.3-1.7-4-1.2-6.4c0.5-2.4,1.6-4.3,0.7-6.7
					c-0.9-2.5-2.5-4.3-2.5-7c0-2.9-1.3-4.8-1.7-7.5c-0.3-2.5,2.2-4.9,1.6-7.5c-0.5-2.2-3-3.7-4.6-5.5c-1.6-1.6-1.9-3.4-2.7-5.2
					c-1-2.2-2.2-2.6-2.4-4.8c-0.2-2-0.4-4.1-3.7-4.7c-3.8-0.6-3.4,1.9-5.1,3.5C1092.3,366.7,1089.7,367.1,1088.9,370.2z"/>
				<path class="st13" d="M1114.4,423.6c0.7-2.7,2.3-4.3,1.7-7.2c-0.5-2.3-1.7-4-1.2-6.4c0.5-2.4,1.6-4.3,0.7-6.7
					c-0.9-2.5-2.5-4.3-2.5-7c0-2.9-1.3-4.8-1.7-7.5c-0.3-2.5,2.2-4.9,1.6-7.5c-0.5-2.2-3-3.7-4.6-5.5c-1.6-1.6-1.9-3.4-2.7-5.2
					c-1-2.2-2.2-2.6-2.4-4.8c-0.2-2-0.4-4.1-3.7-4.7c-3.8-0.6-3.4,1.9-5.1,3.5c-0.1,0.1-0.3,0.2-0.4,0.3c0.3,0.4,3.1-2.4,3.5-2.1
					c1,0.6,2.6,0.4,3.4,1.1c1.6,1.4-2,4.4-2,5.9c0,2.2,3.2,4.4,2.4,6.2c-0.6,1.4-2.2,1.7-1.6,3.4c0.4,1.1,2.6,1.9,3.5,2.7
					c2.7,2.3,2.2,3.4-0.6,5.7c-0.8,0.7-2.1,1-2.7,1.8c-0.7,1,0.4,2-1.1,3.1c-2.7,2-5.1,0.9-3.7,4.8c0.8,2.4,0.9,3.5,2.8,5.2
					c3.8,3.3,0.1,3-2.1,5.5c-1.5,1.7-0.4,2,0.3,3.7c1.2,2.8,0.9,3.2-0.4,5.6c-0.9,1.7-0.1,3.7-1,5.3c-1.1,2-4.1,2.3-5.3,0.2
					c-0.9-1.5,1.7-3-0.9-3.9c-2.3-0.8-3.7,1.5-5.1,2.6c-4-2.4-1.5-4.1-0.7-6.6c1.1-3.5-2.4-2.8-4.2-4.4c-2.5-2.4,0.9-4.8,1.2-7
					c0.2-1.1-0.6-2.1-0.2-3.5c0.4-1.5,2.5-1.9,2.4-3.6c-0.2-1.9-1.2-3.4-2.7-4.4c-0.3,0.6-0.6,1.2-0.7,2c-0.1,1,0.7,2.1,0.6,3.1
					c-0.2,1.4-1.5,2.6-2.2,3.8c-1.1,1.9-2.2,4.7-2.2,7c0,2.2,1.7,4.4,1.1,6.5c-0.7,2.4-3.1,4.1-3.6,6.7c-0.5,2.6,1.2,4.2,2.1,6.6
					c0.9,2.6-1.4,3.8-1.3,6.1c0,1.2,1.5,1.5,1.8,2.4c0.6,1.7-0.5,1.8-0.6,3.5c0,0.7,0.7,2.4,0.9,3.2c0.1,0.5-0.6,0.8-0.3,1.6
					c0.3,0.9,1.4,1.1,1.8,1.9c0.5,1,0,1.7,0.4,2.6c0.5,1.4,1.7,2.2,2.6,3.4c1.8,2.5-0.1,3.2,0.2,5.8c0.2,2.6,3.2,3.7,5.5,5.1
					c2.4,1.5,7.9,6.5,11.1,5.8c1.8-0.4,5.6-3.1,7.1-4.2c2.4-1.8,0.4-5.4,3.1-6.9c2.7-1.5,4.5-3.7,4.6-6.4c0.2-2.8-0.7-4.6,0.2-7.4
					c0.7-2.2-0.2-4,0.1-6.3c0.3-2.6,3.1-4.6,3.5-7.5C1115.3,428.2,1113.8,425.9,1114.4,423.6z"/>
				<path class="st14" d="M1114.8,409.9c0.5-2.4,1.6-4.3,0.7-6.7c-0.7-1.9-1.8-3.4-2.3-5.3c-0.1,0.1-0.3,0.2-0.2,0.4
					c1,3.2,0.2,4-0.9,6.1c-0.7,1.3-1.7,1.4-1.6,2.9c0,1.2,1.4,1.9,1.7,3c0.7,2.1-0.5,4.1-0.1,6.2c0.5,2.7,0.5,2.9-1,5.3
					c-0.7,1.1-1.1,0.8-1.3,2.3c-0.1,0.6,0.5,1.7,0.3,2.6c-0.9,2.9-3.5,2.3-5.9,3.9c1.1,2.6-1.5,2.9-2.7,4.9c-1.3,2.3,1.3,5.3-2,7.3
					c-1.2,0.7-2.5,0.5-4,1c-1.4,0.5-0.9,1.4-2.8,1.6c-4.9,0.4-3.2-0.2-3.9-1.8c-0.4-0.8-2.1-1-2.6-1.7c-0.8-1-3.8-1.2-4.4-2.2
					c-0.6-1.1-1.1-3.8-1.8-4.8c-0.7-1,0.4-2,0.1-3c-0.5-1.4-1.7-1.2-2.4-2.3c-0.6-0.9-0.2-1.9-0.7-2.9c-0.8-1.5-0.9-4.3-3.1-3.1
					c-0.5,0.3-0.8,1-1,1.8c0.4,0.8,0.9,1.7,1.2,2.6c0.9,2.6-1.4,3.8-1.3,6.1c0,1.2,1.5,1.5,1.8,2.4c0.6,1.7-0.5,1.8-0.6,3.5
					c0,0.7,0.7,2.4,0.9,3.2c0.1,0.5-0.6,0.8-0.3,1.6c0.3,0.9,1.4,1.1,1.8,1.9c0.5,1,0,1.7,0.4,2.6c0.5,1.4,1.7,2.2,2.6,3.4
					c1.8,2.5-0.1,3.2,0.2,5.8c0.2,2.6,3.2,3.7,5.5,5.1c2.4,1.5,7.9,6.5,11.1,5.8c1.8-0.4,5.6-3.1,7.1-4.2c2.4-1.8,0.4-5.4,3.1-6.9
					c2.7-1.5,4.5-3.7,4.6-6.4c0.2-2.8-0.7-4.6,0.2-7.4c0.7-2.2-0.2-4,0.1-6.3c0.3-2.6,3.1-4.6,3.5-7.5c0.4-2.4-1.1-4.7-0.5-7.1
					c0.7-2.7,2.3-4.3,1.7-7.2C1115.5,414,1114.3,412.3,1114.8,409.9z"/>
			</g>
		</g>
		<g class="st10">
			<g class="st15">
				
					<image style="overflow:visible;" width="149" height="80" xlink:href="FF16D42FF39E62C1.png"  transform="matrix(1 0 0 1 1106 423)">
				</image>
			</g>
			<g>
				<path class="st16" d="M1154.9,460.5c-0.6,2.5-2.1,5.1,0.9,5.6c1.4,0.2,1.9,0,3-0.4c1-0.4,0.4-4.2,0.3-6.1c-0.1-2.7-0.7-2,0-4.5
					c0.4-1.5,0.1-8-0.4-9.5c-1.3-4-2.7-1.2-2.6,1.4C1156.1,451.7,1156.3,454.9,1154.9,460.5z"/>
				<path class="st13" d="M1151.7,365.3c-0.2,0.9,0.5,1.9,0,2.8c-0.5,1-1.5,1.2-2.2,2c-1.6,1.8-1.3,3.7-2.9,5.7
					c-0.8,0.9-2.1,1.9-2.4,3c-0.2,0.8,0.7,1.9,0.6,2.6c-0.1,2.1-2.1,3.2-2.3,5.3c-0.1,0.9,0.6,1.8,0.5,2.8c-0.2,1.2-1.4,2.3-2,3.4
					c-0.9,1.7-1.9,4.2-1.9,6.2c0,1.9,1.5,3.9,1,5.8c-0.6,2.1-2.8,3.7-3.2,5.9c-0.4,2.3,1.1,3.7,1.8,5.8c0.8,2.3-1.3,3.3-1.2,5.4
					c0,1.1,1.3,1.3,1.6,2.1c0.5,1.5-0.5,1.5-0.6,3.1c0,0.6,0.7,2.1,0.8,2.8c0.1,0.5-0.5,0.7-0.3,1.4c0.3,0.8,1.2,0.9,1.6,1.7
					c0.5,0.9,0,1.5,0.3,2.3c0.5,1.2,1.5,2,2.3,3c1.6,2.2-0.1,2.8,0.2,5.1c0.2,2.3,2.8,3.2,4.8,4.5c2.2,1.3,7,5.7,9.8,5.1
					c1.6-0.3,4.9-2.7,6.2-3.7c2.1-1.6,0.4-4.8,2.8-6.1c2.4-1.4,4-3.3,4.1-5.6c0.2-2.4-0.6-4.1,0.2-6.6c0.6-2-0.1-3.5,0.1-5.6
					c0.3-2.3,2.7-4.1,3.1-6.6c0.3-2.1-1-4.2-0.5-6.3c0.6-2.4,2.1-3.8,1.5-6.4c-0.5-2.1-1.5-3.6-1.1-5.7c0.5-2.1,1.4-3.8,0.7-5.9
					c-0.8-2.2-2.2-3.8-2.2-6.2c0-2.6-1.1-4.2-1.5-6.6c-0.3-2.2,2-4.3,1.4-6.6c-0.5-2-2.6-3.3-4.1-4.8c-1.4-1.4-1.7-3-2.4-4.6
					c-0.9-1.9-1.9-2.3-2.1-4.2c-0.2-1.8-0.3-3.7-3.3-4.1c-3.4-0.6-3,1.7-4.5,3.1C1154.7,362.3,1152.4,362.6,1151.7,365.3z"/>
				<path class="st13" d="M1174.3,412.6c0.6-2.4,2.1-3.8,1.5-6.4c-0.5-2.1-1.5-3.6-1.1-5.7c0.5-2.1,1.4-3.8,0.7-5.9
					c-0.8-2.2-2.2-3.8-2.2-6.2c0-2.6-1.1-4.2-1.5-6.6c-0.3-2.2,2-4.3,1.4-6.6c-0.5-2-2.6-3.3-4.1-4.8c-1.4-1.4-1.7-3-2.4-4.6
					c-0.9-1.9-1.9-2.3-2.1-4.2c-0.2-1.8-0.3-3.7-3.3-4.1c-3.4-0.6-3,1.7-4.5,3.1c-0.1,0.1-0.2,0.2-0.3,0.3c0.3,0.3,2.7-2.2,3.1-1.9
					c0.9,0.5,2.3,0.4,3,1c1.4,1.3-1.8,3.9-1.8,5.2c0,2,2.8,3.9,2.2,5.5c-0.5,1.2-1.9,1.5-1.4,3c0.3,1,2.3,1.7,3.1,2.4
					c2.4,2,2,3-0.5,5c-0.7,0.6-1.8,0.9-2.3,1.6c-0.7,0.9,0.3,1.8-1,2.7c-2.4,1.8-4.5,0.8-3.3,4.2c0.8,2.1,0.8,3.1,2.5,4.6
					c3.4,2.9,0.1,2.7-1.9,4.8c-1.4,1.5-0.4,1.7,0.3,3.2c1.1,2.5,0.8,2.8-0.3,4.9c-0.8,1.5-0.1,3.3-0.9,4.7c-1,1.7-3.6,2-4.7,0.2
					c-0.8-1.3,1.5-2.7-0.8-3.5c-2.1-0.7-3.3,1.3-4.5,2.3c-3.6-2.1-1.3-3.6-0.6-5.9c1-3.1-2.1-2.4-3.7-3.9c-2.2-2.1,0.8-4.3,1.1-6.2
					c0.1-1-0.5-1.8-0.2-3.1c0.3-1.3,2.2-1.7,2.1-3.2c-0.1-1.7-1-3-2.4-3.9c-0.3,0.5-0.6,1.1-0.6,1.8c-0.1,0.9,0.6,1.8,0.5,2.8
					c-0.2,1.2-1.4,2.3-2,3.4c-0.9,1.7-1.9,4.2-1.9,6.2c0,1.9,1.5,3.9,1,5.8c-0.6,2.1-2.8,3.7-3.2,5.9c-0.4,2.3,1.1,3.7,1.8,5.8
					c0.8,2.3-1.3,3.3-1.2,5.4c0,1.1,1.3,1.3,1.6,2.1c0.5,1.5-0.5,1.5-0.6,3.1c0,0.6,0.7,2.1,0.8,2.8c0.1,0.5-0.5,0.7-0.3,1.4
					c0.3,0.8,1.2,0.9,1.6,1.7c0.5,0.9,0,1.5,0.3,2.3c0.5,1.2,1.5,2,2.3,3c1.6,2.2-0.1,2.8,0.2,5.1c0.2,2.3,2.8,3.2,4.8,4.5
					c2.2,1.3,7,5.7,9.8,5.1c1.6-0.3,4.9-2.7,6.2-3.7c2.1-1.6,0.4-4.8,2.8-6.1c2.4-1.4,4-3.3,4.1-5.6c0.2-2.4-0.6-4.1,0.2-6.6
					c0.6-2-0.1-3.5,0.1-5.6c0.3-2.3,2.7-4.1,3.1-6.6C1175.1,416.7,1173.7,414.7,1174.3,412.6z"/>
				<path class="st14" d="M1174.6,400.5c0.5-2.1,1.4-3.8,0.7-5.9c-0.6-1.7-1.6-3-2-4.7c-0.1,0.1-0.2,0.2-0.2,0.3
					c0.9,2.8,0.2,3.5-0.8,5.4c-0.6,1.2-1.5,1.3-1.5,2.6c0,1.1,1.2,1.7,1.5,2.6c0.6,1.9-0.4,3.6-0.1,5.4c0.5,2.4,0.4,2.6-0.9,4.7
					c-0.6,1-0.9,0.7-1.2,2c-0.1,0.5,0.5,1.5,0.2,2.3c-0.8,2.6-3.1,2.1-5.2,3.4c1,2.3-1.4,2.5-2.4,4.3c-1.2,2.1,1.1,4.7-1.7,6.5
					c-1,0.6-2.2,0.4-3.6,0.9c-1.2,0.4-0.8,1.2-2.4,1.4c-4.4,0.4-2.9-0.1-3.5-1.6c-0.3-0.7-1.8-0.9-2.3-1.5c-0.7-0.9-3.3-1-3.9-2
					c-0.6-0.9-1-3.3-1.6-4.2c-0.6-0.9,0.4-1.8,0-2.7c-0.4-1.2-1.5-1.1-2.1-2c-0.5-0.8-0.2-1.7-0.6-2.6c-0.7-1.4-0.8-3.8-2.7-2.7
					c-0.5,0.3-0.7,0.9-0.9,1.6c0.4,0.7,0.8,1.5,1.1,2.3c0.8,2.3-1.3,3.3-1.2,5.4c0,1.1,1.3,1.3,1.6,2.1c0.5,1.5-0.5,1.5-0.6,3.1
					c0,0.6,0.7,2.1,0.8,2.8c0.1,0.5-0.5,0.7-0.3,1.4c0.3,0.8,1.2,0.9,1.6,1.7c0.5,0.9,0,1.5,0.3,2.3c0.5,1.2,1.5,2,2.3,3
					c1.6,2.2-0.1,2.8,0.2,5.1c0.2,2.3,2.8,3.2,4.8,4.5c2.2,1.3,7,5.7,9.8,5.1c1.6-0.3,4.9-2.7,6.2-3.7c2.1-1.6,0.4-4.8,2.8-6.1
					c2.4-1.4,4-3.3,4.1-5.6c0.2-2.4-0.6-4.1,0.2-6.6c0.6-2-0.1-3.5,0.1-5.6c0.3-2.3,2.7-4.1,3.1-6.6c0.3-2.1-1-4.2-0.5-6.3
					c0.6-2.4,2.1-3.8,1.5-6.4C1175.3,404.1,1174.2,402.6,1174.6,400.5z"/>
			</g>
		</g>
		<g class="st10">
			<g class="st11">
				
					<image style="overflow:visible;" width="266" height="90" xlink:href="FF16D42FF39E62C0.png"  transform="matrix(1 0 0 1 87 878)">
				</image>
			</g>
			<g>
				<path class="st17" d="M154.5,916c-1.5,6.3-5.4,12.9,2.3,14.1c3.5,0.6,4.8,0.1,7.5-1.1c2.5-1.1,1-10.6,0.8-15.5
					c-0.2-6.9-1.7-5.1-0.1-11.5c1-3.9,0.2-20.3-1-24c-3.3-10.1-6.8-3.1-6.7,3.6C157.6,893.7,158,901.9,154.5,916z"/>
				<path class="st18" d="M203.7,794.4c1.5-6,5.3-9.7,3.8-16.2c-1.2-5.3-3.9-9-2.8-14.4c1.1-5.4,3.7-9.6,1.7-15
					c-2-5.6-5.7-9.6-5.7-15.7c0-6.5-2.9-10.7-3.7-16.9c-0.8-5.6,5-10.9,3.7-16.8c-1.2-5-6.7-8.4-10.4-12.2
					c-3.5-3.6-4.3-7.7-6.1-11.6c-2.3-4.8-4.9-5.7-5.4-10.8c-0.5-4.5-0.9-9.3-8.2-10.5c-8.6-1.4-7.7,4.4-11.5,7.9
					c-4.8,4.6-10.9,5.5-12.5,12.3c-0.5,2.2,1.3,4.7,0.1,7.1c-1.2,2.4-3.9,3.1-5.6,5.1c-4,4.5-3.3,9.5-7.4,14.4
					c-2,2.4-5.3,4.7-6.1,7.5c-0.6,2,1.7,4.9,1.6,6.5c-0.3,3.6-2.6,6.1-4.3,8.9c0,0,0,0,0,0c-0.1,0.2-0.3,0.5-0.4,0.7
					c0,0.1-0.1,0.2-0.1,0.3c-0.2,0.4-0.4,0.9-0.6,1.4c-0.1,0.2-0.1,0.3-0.2,0.5c-0.2,0.5-0.3,1-0.4,1.6c-0.2,2.3,1.6,4.6,1.3,7
					c-0.5,3.1-3.5,5.8-5,8.5c-2.4,4.3-4.9,10.6-4.9,15.7c0.1,4.9,3.9,9.8,2.4,14.7c-1.6,5.3-7,9.3-8.1,15c-1,5.8,2.8,9.5,4.6,14.8
					c2,5.8-3.2,8.5-3,13.8c0.1,2.7,3.4,3.4,4,5.4c1.3,3.9-1.2,3.9-1.4,7.9c-0.1,1.6,1.7,5.4,2,7.2c0.2,1.2-1.3,1.9-0.7,3.5
					c0.8,2.1,3.2,2.4,4.1,4.2c1.2,2.3,0,3.7,0.9,5.9c1.2,3,3.8,5,5.8,7.7c4.1,5.6-0.1,7.1,0.4,13c0.5,5.8,7.2,8.2,12.3,11.4
					c5.5,3.3,17.7,14.5,25,13c4.1-0.8,12.5-6.9,15.8-9.5c5.3-4.1,1-12.1,7-15.6c6-3.5,10-8.3,10.4-14.3c0.4-6.2-1.6-10.4,0.4-16.6
					c1.6-5-0.4-9,0.3-14.1c0.8-5.8,6.9-10.4,8-16.8C205.7,804.9,202.3,799.8,203.7,794.4z"/>
				<path class="st19" d="M204.7,763.8c1.1-5.4,3.7-9.6,1.7-15c-1.6-4.3-4.1-7.7-5.2-11.8c-0.2,0.3-0.6,0.5-0.5,0.8
					c2.3,7.1,0.4,9-2,13.6c-1.5,2.9-3.8,3.2-3.7,6.6c0,2.8,3.2,4.2,3.9,6.6c1.5,4.7-1.1,9.2-0.2,13.8c1.2,6,1,6.6-2.3,11.9
					c-1.6,2.5-2.4,1.9-2.9,5.1c-0.2,1.4,1.2,3.8,0.6,5.9c-2,6.5-7.8,5.3-13.3,8.7c2.5,5.9-3.5,6.5-6.1,11c-3,5.2,2.8,12-4.4,16.4
					c-2.6,1.6-5.6,1.1-9,2.2c-3.1,1-1.9,3.2-6.2,3.5c-11.1,0.9-7.3-0.4-8.9-4c-0.8-1.9-4.6-2.3-5.8-3.9c-1.8-2.4-8.5-2.6-9.8-5
					c-1.4-2.4-2.5-8.5-3.9-10.8c-1.5-2.3,0.9-4.5,0.1-6.7c-1.1-3.1-3.8-2.7-5.3-5.1c-1.3-2-0.4-4.2-1.6-6.5
					c-1.8-3.4-2.1-9.6-6.9-6.9c-1.2,0.7-1.8,2.2-2.2,4.1c1,1.9,2,3.7,2.8,5.9c2,5.8-3.2,8.5-3,13.8c0.1,2.7,3.4,3.4,4,5.4
					c1.3,3.9-1.2,3.9-1.4,7.9c-0.1,1.6,1.7,5.4,2,7.2c0.2,1.2-1.3,1.9-0.7,3.5c0.8,2.1,3.2,2.4,4.1,4.2c1.2,2.3,0,3.7,0.9,5.9
					c1.2,3,3.8,5,5.8,7.7c4.1,5.6-0.1,7.1,0.4,13c0.5,5.8,7.2,8.2,12.3,11.4c5.5,3.3,17.7,14.5,25,13c4.1-0.8,12.5-6.9,15.8-9.5
					c5.3-4.1,1-12.1,7-15.6c6-3.5,10-8.3,10.4-14.3c0.4-6.2-1.6-10.4,0.4-16.6c1.6-5-0.4-9,0.3-14.1c0.8-5.8,6.9-10.4,8-16.8
					c0.9-5.4-2.5-10.5-1.2-15.9c1.5-6,5.3-9.7,3.8-16.2C206.2,773,203.5,769.2,204.7,763.8z"/>
			</g>
		</g>
		<g class="st10">
			<g class="st15">
				
					<image style="overflow:visible;" width="137" height="79" xlink:href="FF16D42FF39E62DF.png"  transform="matrix(1 0 0 1 1294 402)">
				</image>
			</g>
			<g>
				<path class="st16" d="M1340.8,439.3c-0.5,2.1-1.8,4.2,0.8,4.7c1.2,0.2,1.6,0,2.5-0.4c0.8-0.4,0.3-3.5,0.3-5.1
					c-0.1-2.3-0.6-1.7,0-3.8c0.3-1.3,0.1-6.7-0.3-7.9c-1.1-3.3-2.2-1-2.2,1.2C1341.9,432,1342,434.7,1340.8,439.3z"/>
				<path class="st13" d="M1338.2,359.6c-0.2,0.7,0.4,1.6,0,2.3c-0.4,0.8-1.3,1-1.9,1.7c-1.3,1.5-1.1,3.1-2.4,4.8
					c-0.7,0.8-1.7,1.6-2,2.5c-0.2,0.7,0.6,1.6,0.5,2.1c-0.1,1.7-1.7,2.7-1.9,4.4c-0.1,0.8,0.5,1.5,0.4,2.3c-0.2,1-1.1,1.9-1.7,2.8
					c-0.8,1.4-1.6,3.5-1.6,5.2c0,1.6,1.3,3.2,0.8,4.8c-0.5,1.8-2.3,3.1-2.7,5c-0.3,1.9,0.9,3.1,1.5,4.9c0.7,1.9-1.1,2.8-1,4.6
					c0,0.9,1.1,1.1,1.3,1.8c0.4,1.3-0.4,1.3-0.5,2.6c0,0.5,0.6,1.8,0.7,2.4c0.1,0.4-0.4,0.6-0.2,1.2c0.3,0.7,1,0.8,1.4,1.4
					c0.4,0.8,0,1.2,0.3,1.9c0.4,1,1.3,1.7,1.9,2.5c1.4,1.9,0,2.3,0.1,4.3c0.2,1.9,2.4,2.7,4.1,3.8c1.8,1.1,5.8,4.8,8.2,4.3
					c1.3-0.3,4.1-2.3,5.2-3.1c1.7-1.3,0.3-4,2.3-5.1c2-1.1,3.3-2.7,3.4-4.7c0.1-2-0.5-3.4,0.1-5.5c0.5-1.6-0.1-3,0.1-4.7
					c0.3-1.9,2.3-3.4,2.6-5.5c0.3-1.8-0.8-3.5-0.4-5.2c0.5-2,1.7-3.2,1.2-5.4c-0.4-1.7-1.3-3-0.9-4.8c0.4-1.8,1.2-3.2,0.6-5
					c-0.7-1.8-1.9-3.2-1.9-5.2c0-2.1-1-3.5-1.2-5.6c-0.2-1.8,1.6-3.6,1.2-5.5c-0.4-1.7-2.2-2.8-3.4-4c-1.2-1.2-1.4-2.6-2-3.8
					c-0.7-1.6-1.6-1.9-1.8-3.6c-0.2-1.5-0.3-3.1-2.7-3.5c-2.8-0.5-2.6,1.4-3.8,2.6C1340.7,357.1,1338.7,357.3,1338.2,359.6z"/>
				<path class="st13" d="M1357.1,399.2c0.5-2,1.7-3.2,1.2-5.4c-0.4-1.7-1.3-3-0.9-4.8c0.4-1.8,1.2-3.2,0.6-5
					c-0.7-1.8-1.9-3.2-1.9-5.2c0-2.1-1-3.5-1.2-5.6c-0.2-1.8,1.6-3.6,1.2-5.5c-0.4-1.7-2.2-2.8-3.4-4c-1.2-1.2-1.4-2.6-2-3.8
					c-0.7-1.6-1.6-1.9-1.8-3.6c-0.2-1.5-0.3-3.1-2.7-3.5c-2.8-0.5-2.6,1.4-3.8,2.6c-0.1,0.1-0.2,0.2-0.3,0.3
					c0.2,0.3,2.3-1.8,2.6-1.6c0.7,0.5,1.9,0.3,2.5,0.8c1.2,1.1-1.5,3.3-1.5,4.4c0,1.6,2.4,3.2,1.8,4.6c-0.4,1-1.6,1.3-1.2,2.5
					c0.3,0.8,1.9,1.4,2.6,2c2,1.7,1.6,2.5-0.4,4.2c-0.6,0.5-1.5,0.7-2,1.3c-0.6,0.8,0.3,1.5-0.8,2.3c-2,1.5-3.8,0.7-2.8,3.5
					c0.6,1.8,0.7,2.6,2.1,3.9c2.8,2.5,0.1,2.2-1.6,4c-1.1,1.3-0.3,1.5,0.2,2.7c0.9,2.1,0.6,2.4-0.3,4.1c-0.7,1.3-0.1,2.7-0.7,3.9
					c-0.8,1.5-3.1,1.7-4,0.2c-0.7-1.1,1.3-2.2-0.7-2.9c-1.7-0.6-2.7,1.1-3.8,1.9c-3-1.8-1.1-3-0.5-4.9c0.8-2.6-1.8-2-3.1-3.3
					c-1.8-1.7,0.7-3.6,0.9-5.2c0.1-0.8-0.4-1.5-0.1-2.6c0.3-1.1,1.8-1.4,1.8-2.6c-0.1-1.4-0.9-2.5-2-3.3c-0.3,0.4-0.5,0.9-0.5,1.5
					c-0.1,0.8,0.5,1.5,0.4,2.3c-0.2,1-1.1,1.9-1.7,2.8c-0.8,1.4-1.6,3.5-1.6,5.2c0,1.6,1.3,3.2,0.8,4.8c-0.5,1.8-2.3,3.1-2.7,5
					c-0.3,1.9,0.9,3.1,1.5,4.9c0.7,1.9-1.1,2.8-1,4.6c0,0.9,1.1,1.1,1.3,1.8c0.4,1.3-0.4,1.3-0.5,2.6c0,0.5,0.6,1.8,0.7,2.4
					c0.1,0.4-0.4,0.6-0.2,1.2c0.3,0.7,1,0.8,1.4,1.4c0.4,0.8,0,1.2,0.3,1.9c0.4,1,1.3,1.7,1.9,2.5c1.4,1.9,0,2.3,0.1,4.3
					c0.2,1.9,2.4,2.7,4.1,3.8c1.8,1.1,5.8,4.8,8.2,4.3c1.3-0.3,4.1-2.3,5.2-3.1c1.7-1.3,0.3-4,2.3-5.1c2-1.1,3.3-2.7,3.4-4.7
					c0.1-2-0.5-3.4,0.1-5.5c0.5-1.6-0.1-3,0.1-4.7c0.3-1.9,2.3-3.4,2.6-5.5C1357.7,402.7,1356.6,401,1357.1,399.2z"/>
				<path class="st14" d="M1357.4,389.1c0.4-1.8,1.2-3.2,0.6-5c-0.5-1.4-1.4-2.6-1.7-3.9c-0.1,0.1-0.2,0.2-0.2,0.3
					c0.8,2.3,0.1,3-0.7,4.5c-0.5,1-1.2,1.1-1.2,2.2c0,0.9,1,1.4,1.3,2.2c0.5,1.6-0.4,3.1-0.1,4.6c0.4,2,0.3,2.2-0.7,3.9
					c-0.5,0.8-0.8,0.6-1,1.7c-0.1,0.5,0.4,1.3,0.2,1.9c-0.7,2.1-2.6,1.7-4.4,2.9c0.8,1.9-1.1,2.1-2,3.6c-1,1.7,0.9,4-1.5,5.4
					c-0.9,0.5-1.8,0.4-3,0.7c-1,0.3-0.6,1-2,1.2c-3.7,0.3-2.4-0.1-2.9-1.3c-0.3-0.6-1.5-0.8-1.9-1.3c-0.6-0.8-2.8-0.9-3.2-1.6
					c-0.5-0.8-0.8-2.8-1.3-3.6c-0.5-0.8,0.3-1.5,0-2.2c-0.4-1-1.3-0.9-1.8-1.7c-0.4-0.7-0.1-1.4-0.5-2.2c-0.6-1.1-0.7-3.2-2.3-2.3
					c-0.4,0.2-0.6,0.7-0.7,1.4c0.3,0.6,0.7,1.2,0.9,1.9c0.7,1.9-1.1,2.8-1,4.6c0,0.9,1.1,1.1,1.3,1.8c0.4,1.3-0.4,1.3-0.5,2.6
					c0,0.5,0.6,1.8,0.7,2.4c0.1,0.4-0.4,0.6-0.2,1.2c0.3,0.7,1,0.8,1.4,1.4c0.4,0.8,0,1.2,0.3,1.9c0.4,1,1.3,1.7,1.9,2.5
					c1.4,1.9,0,2.3,0.1,4.3c0.2,1.9,2.4,2.7,4.1,3.8c1.8,1.1,5.8,4.8,8.2,4.3c1.3-0.3,4.1-2.3,5.2-3.1c1.7-1.3,0.3-4,2.3-5.1
					c2-1.1,3.3-2.7,3.4-4.7c0.1-2-0.5-3.4,0.1-5.5c0.5-1.6-0.1-3,0.1-4.7c0.3-1.9,2.3-3.4,2.6-5.5c0.3-1.8-0.8-3.5-0.4-5.2
					c0.5-2,1.7-3.2,1.2-5.4C1357.9,392.1,1357,390.9,1357.4,389.1z"/>
			</g>
		</g>
		<g class="st10">
			<g class="st15">
				
					<image style="overflow:visible;" width="137" height="79" xlink:href="FF16D42FF39E62DA.png"  transform="matrix(1 0 0 1 43 626)">
				</image>
			</g>
			<g>
				<path class="st16" d="M89.5,663.6c-0.5,2.1-1.8,4.2,0.8,4.7c1.2,0.2,1.6,0,2.5-0.4c0.8-0.4,0.3-3.5,0.3-5.1
					c-0.1-2.3-0.6-1.7,0-3.8c0.3-1.3,0.1-6.7-0.3-7.9c-1.1-3.3-2.2-1-2.2,1.2C90.5,656.2,90.6,658.9,89.5,663.6z"/>
				<path class="st13" d="M86.8,583.9c-0.2,0.7,0.4,1.6,0,2.3c-0.4,0.8-1.3,1-1.9,1.7c-1.3,1.5-1.1,3.1-2.4,4.8
					c-0.7,0.8-1.7,1.6-2,2.5c-0.2,0.7,0.6,1.6,0.5,2.1c-0.1,1.7-1.7,2.7-1.9,4.4c-0.1,0.8,0.5,1.5,0.4,2.3c-0.2,1-1.1,1.9-1.7,2.8
					c-0.8,1.4-1.6,3.5-1.6,5.2c0,1.6,1.3,3.2,0.8,4.8c-0.5,1.8-2.3,3.1-2.7,5c-0.3,1.9,0.9,3.1,1.5,4.9c0.7,1.9-1.1,2.8-1,4.6
					c0,0.9,1.1,1.1,1.3,1.8c0.4,1.3-0.4,1.3-0.5,2.6c0,0.5,0.6,1.8,0.7,2.4c0.1,0.4-0.4,0.6-0.2,1.2c0.3,0.7,1,0.8,1.4,1.4
					c0.4,0.8,0,1.2,0.3,1.9c0.4,1,1.3,1.7,1.9,2.5c1.4,1.9,0,2.3,0.1,4.3c0.2,1.9,2.4,2.7,4.1,3.8c1.8,1.1,5.8,4.8,8.2,4.3
					c1.3-0.3,4.1-2.3,5.2-3.1c1.7-1.3,0.3-4,2.3-5.1c2-1.1,3.3-2.7,3.4-4.7c0.1-2-0.5-3.4,0.1-5.5c0.5-1.6-0.1-3,0.1-4.7
					c0.3-1.9,2.3-3.4,2.6-5.5c0.3-1.8-0.8-3.5-0.4-5.2c0.5-2,1.7-3.2,1.2-5.4c-0.4-1.7-1.3-3-0.9-4.8c0.4-1.8,1.2-3.2,0.6-5
					c-0.7-1.8-1.9-3.2-1.9-5.2c0-2.1-1-3.5-1.2-5.6c-0.2-1.8,1.6-3.6,1.2-5.5c-0.4-1.7-2.2-2.8-3.4-4c-1.2-1.2-1.4-2.6-2-3.8
					c-0.7-1.6-1.6-1.9-1.8-3.6c-0.2-1.5-0.3-3.1-2.7-3.5c-2.8-0.5-2.6,1.4-3.8,2.6C89.4,581.3,87.4,581.6,86.8,583.9z"/>
				<path class="st13" d="M105.7,623.4c0.5-2,1.7-3.2,1.2-5.4c-0.4-1.7-1.3-3-0.9-4.8c0.4-1.8,1.2-3.2,0.6-5
					c-0.7-1.8-1.9-3.2-1.9-5.2c0-2.1-1-3.5-1.2-5.6c-0.2-1.8,1.6-3.6,1.2-5.5c-0.4-1.7-2.2-2.8-3.4-4c-1.2-1.2-1.4-2.6-2-3.8
					c-0.7-1.6-1.6-1.9-1.8-3.6c-0.2-1.5-0.3-3.1-2.7-3.5c-2.8-0.5-2.6,1.4-3.8,2.6c-0.1,0.1-0.2,0.2-0.3,0.3
					c0.2,0.3,2.3-1.8,2.6-1.6c0.7,0.5,1.9,0.3,2.5,0.8c1.2,1.1-1.5,3.3-1.5,4.4c0,1.6,2.4,3.2,1.8,4.6c-0.4,1-1.6,1.3-1.2,2.5
					c0.3,0.8,1.9,1.4,2.6,2c2,1.7,1.6,2.5-0.4,4.2c-0.6,0.5-1.5,0.7-2,1.3c-0.6,0.8,0.3,1.5-0.8,2.3c-2,1.5-3.8,0.7-2.8,3.5
					c0.6,1.8,0.7,2.6,2.1,3.9c2.8,2.5,0.1,2.2-1.6,4c-1.1,1.3-0.3,1.5,0.2,2.7c0.9,2.1,0.6,2.4-0.3,4.1c-0.7,1.3-0.1,2.7-0.7,3.9
					c-0.8,1.5-3.1,1.7-4,0.2c-0.7-1.1,1.3-2.2-0.7-2.9c-1.7-0.6-2.7,1.1-3.8,1.9c-3-1.8-1.1-3-0.5-4.9c0.8-2.6-1.8-2-3.1-3.3
					c-1.8-1.7,0.7-3.6,0.9-5.2c0.1-0.8-0.4-1.5-0.1-2.6c0.3-1.1,1.8-1.4,1.8-2.6c-0.1-1.4-0.9-2.5-2-3.3c-0.3,0.4-0.5,0.9-0.5,1.5
					c-0.1,0.8,0.5,1.5,0.4,2.3c-0.2,1-1.1,1.9-1.7,2.8c-0.8,1.4-1.6,3.5-1.6,5.2c0,1.6,1.3,3.2,0.8,4.8c-0.5,1.8-2.3,3.1-2.7,5
					c-0.3,1.9,0.9,3.1,1.5,4.9c0.7,1.9-1.1,2.8-1,4.6c0,0.9,1.1,1.1,1.3,1.8c0.4,1.3-0.4,1.3-0.5,2.6c0,0.5,0.6,1.8,0.7,2.4
					c0.1,0.4-0.4,0.6-0.2,1.2c0.3,0.7,1,0.8,1.4,1.4c0.4,0.8,0,1.2,0.3,1.9c0.4,1,1.3,1.7,1.9,2.5c1.4,1.9,0,2.3,0.1,4.3
					c0.2,1.9,2.4,2.7,4.1,3.8c1.8,1.1,5.8,4.8,8.2,4.3c1.3-0.3,4.1-2.3,5.2-3.1c1.7-1.3,0.3-4,2.3-5.1c2-1.1,3.3-2.7,3.4-4.7
					c0.1-2-0.5-3.4,0.1-5.5c0.5-1.6-0.1-3,0.1-4.7c0.3-1.9,2.3-3.4,2.6-5.5C106.4,626.9,105.3,625.2,105.7,623.4z"/>
				<path class="st14" d="M106.1,613.3c0.4-1.8,1.2-3.2,0.6-5c-0.5-1.4-1.4-2.6-1.7-3.9c-0.1,0.1-0.2,0.2-0.2,0.3
					c0.8,2.3,0.1,3-0.7,4.5c-0.5,1-1.2,1.1-1.2,2.2c0,0.9,1,1.4,1.3,2.2c0.5,1.6-0.4,3.1-0.1,4.6c0.4,2,0.3,2.2-0.7,3.9
					c-0.5,0.8-0.8,0.6-1,1.7c-0.1,0.5,0.4,1.3,0.2,1.9c-0.7,2.1-2.6,1.7-4.4,2.9c0.8,1.9-1.1,2.1-2,3.6c-1,1.7,0.9,4-1.5,5.4
					c-0.9,0.5-1.8,0.4-3,0.7c-1,0.3-0.6,1-2,1.2c-3.7,0.3-2.4-0.1-2.9-1.3c-0.3-0.6-1.5-0.8-1.9-1.3c-0.6-0.8-2.8-0.9-3.2-1.6
					c-0.5-0.8-0.8-2.8-1.3-3.6c-0.5-0.8,0.3-1.5,0-2.2c-0.4-1-1.3-0.9-1.8-1.7c-0.4-0.7-0.1-1.4-0.5-2.2c-0.6-1.1-0.7-3.2-2.3-2.3
					c-0.4,0.2-0.6,0.7-0.7,1.4c0.3,0.6,0.7,1.2,0.9,1.9c0.7,1.9-1.1,2.8-1,4.6c0,0.9,1.1,1.1,1.3,1.8c0.4,1.3-0.4,1.3-0.5,2.6
					c0,0.5,0.6,1.8,0.7,2.4c0.1,0.4-0.4,0.6-0.2,1.2c0.3,0.7,1,0.8,1.4,1.4c0.4,0.8,0,1.2,0.3,1.9c0.4,1,1.3,1.7,1.9,2.5
					c1.4,1.9,0,2.3,0.1,4.3c0.2,1.9,2.4,2.7,4.1,3.8c1.8,1.1,5.8,4.8,8.2,4.3c1.3-0.3,4.1-2.3,5.2-3.1c1.7-1.3,0.3-4,2.3-5.1
					c2-1.1,3.3-2.7,3.4-4.7c0.1-2-0.5-3.4,0.1-5.5c0.5-1.6-0.1-3,0.1-4.7c0.3-1.9,2.3-3.4,2.6-5.5c0.3-1.8-0.8-3.5-0.4-5.2
					c0.5-2,1.7-3.2,1.2-5.4C106.6,616.3,105.7,615.1,106.1,613.3z"/>
			</g>
		</g>
	</g>
	<g id="house" class="st1">
		<polygon class="st20" points="1226.8,384 1253.7,424.4 1200.4,424.6 		"/>
		<polygon class="st20" points="1254.1,464.5 1253.9,424.4 1202.8,424.6 1203,464.5 		"/>
		<polygon class="st21" points="1313.1,464.5 1313.1,424.1 1253.4,424.4 1253.4,464.5 		"/>
		<polygon class="st22" points="1314.7,424.4 1288,384 1227,384 1253.8,424.4 		"/>
		<polygon class="st23" points="1254,424.6 1226.8,384 1225.7,385.6 1251.4,424.6 		"/>
		<polygon class="st23" points="1226.8,384 1200.4,424.6 1202.8,424.6 1227.7,385.6 		"/>
		<polygon class="st24" points="1232.8,419.8 1232.8,410.1 1221.6,410.1 1221.7,419.9 		"/>
		<rect x="1265.1" y="433" class="st25" width="8.6" height="7.5"/>
		<rect x="1280.9" y="433" class="st25" width="8.6" height="7.5"/>
		<rect x="1295.7" y="433" class="st25" width="8.6" height="7.5"/>
		<polygon class="st20" points="1245.7,355.1 1255.1,369.2 1236.4,369.3 		"/>
		<polygon class="st20" points="1246.4,384 1255.3,390.5 1255.1,369.2 1237.3,369.3 1237.3,384 		"/>
		
			<rect x="1255" y="369.1" transform="matrix(1 -5.590593e-03 5.590593e-03 1 -2.1023 7.0807)" class="st21" width="20.9" height="20.9"/>
		<polygon class="st22" points="1276.4,369.1 1267.1,355 1245.8,355 1255.1,369.2 		"/>
		<polygon class="st23" points="1255.2,369.2 1245.7,355.1 1245.3,355.6 1254.3,369.3 		"/>
		<polygon class="st23" points="1245.7,355.1 1236.4,369.3 1237.3,369.3 1246,355.6 		"/>
		<polygon class="st24" points="1243.9,374.7 1243.9,371.3 1240,371.3 1240,374.8 		"/>
		
			<rect x="1247.7" y="371.3" transform="matrix(1 -6.038573e-03 6.038573e-03 1 -2.2296 7.5531)" class="st24" width="3.9" height="3.4"/>
		<polygon class="st25" points="1268.2,377.7 1268.2,374.3 1264.3,374.3 1264.3,377.7 		"/>
	</g>
</g>
<g id="text" class="st1">
	<g class="st10">
		<path class="st26" d="M339.3,222.2c-63.2-38.9-104.7-37.9-129.8-6.3c-18.1,22.7-5.1,51,15.4,60.3c15.5-28.8,54.5-42.5,77.7-22.9
			c4.9-6.3,8.6-13.9,10.8-22.6c0.2-1,3.6-4.9,2.5-0.6c-2.4,9.5-6.3,17.9-11.4,24.9c2.1,2,4.2,4.4,6,7c0.8,1.4-2.7,2.5-3.8,0.8
			c-1.2-1.8-2.7-3.5-4.3-5c-16.6,21-43.7,29.6-69.5,25.4c-2-0.3-4.1-0.9-6.1-1.5l-1,2.6c-10.7,31.8,8.4,51.1,36.5,51.1
			c27.7,0,52.1-23.6,57.2-65.2c1.9-16,3.7-31.9,4.9-40.3c0.2-1.9,11.6-8.2,11.3-5.9c-0.6,4.7-4.6,39.3-5.2,44.5
			c-5.9,47.7-37.4,70.7-72.5,70.7c-27.2,0-47-22.3-36.7-54c0.5-1.7,1.1-3.4,1.9-5.1c-22.5-10.1-36.6-40.3-17.3-65
			c28.9-37.1,78.9-41.5,143.3-1.6c48.1,29.7,93.1,10.4,93.4-0.1c0.1-1.4,4.1-5.3,4-1.6C445.6,227.7,392.3,254.9,339.3,222.2z
			 M228.8,277.7c1.8,0.6,3.7,1,5.5,1.4c24.7,3.6,50.4-4.4,66.1-23.1C279,237.7,242.4,251.8,228.8,277.7z"/>
		<path class="st26" d="M414.5,283.6c-5,12.1-13.2,32.5-26.6,32.5c-9.7,0-13.1-6.9-12.9-20.2c-4.2,10.3-11.8,20.2-20.8,20.2
			c-12.8,0-14.6-11.6-11.9-34l3.3-27c0.2-1.9,11.5-7,11.2-4.6c-0.2,1.9-3.2,24.6-3.6,28.5c-2.5,20.9-2.6,34.1,3.1,34.1
			c7.8,0,17.7-16.8,19.7-29.4l3.5-28.6c0.2-1.9,11.5-7,11.2-4.6c-0.2,1.9-3.2,24.6-3.6,28.5c-2.5,20.9-2.6,34.1,3.1,34.1
			c8.2,0,17.3-18.4,22.3-30.5C413.6,279.7,415.7,280.6,414.5,283.6z"/>
		<path class="st26" d="M449.1,299.8c-2.6,11.6-17.2,17.1-28.7,16.5c-14-0.8-19-11.1-16.6-20.6c2.8-11.4,19.7-5.1,11.9,1.1
			c-4.1,3.2-5.3,6.4-5.3,8.9c0.1,4.3,4.2,7.3,12.2,7.8c7.5,0.3,20-4.5,21.7-12.7c2-9.2-15.4-13.1-19.1-14.5
			c-12.4-4.6-16.7-12.9-12-23.7c4.2-9.4,13.6-13.1,24.5-13.1c12.4,0,16.6,8.4,15,16c-2.3,9.5-16.2,5.2-9.8-0.6
			c2.5-2.1,3.2-5.1,3.1-7.2c0-3.2-4-5.4-10.2-5.4c-7,0-15.4,3.5-17.7,8.9c-3.4,7.7,2.5,11,13.8,15.3
			C444.8,281.5,452,286.7,449.1,299.8z"/>
		<path class="st26" d="M518.8,282.8c-9.2,22.4-24.1,33.7-37.2,33.7c-15.5,0-23.5-8.9-21.1-28.5c3.2-25.6,19.5-37.7,31.5-37.7
			c9.8,0,15.9,11.1,11.2,21.9c-4.7,11-19.8,1.7-11.3-3.1c4.4-2.6,6.8-5.4,6.8-8c-0.2-4.9-1.7-8-8.7-8c-7.2,0-15.9,12.4-18.5,33.2
			c-2,16.6,1,26.9,12.8,26.9c9.3,0,22.9-8.5,32.4-31.5C517.8,278.9,519.9,279.8,518.8,282.8z"/>
		<path class="st26" d="M582.6,284c-5,12.1-13.2,32.5-26.4,32.5c-9.2,0-12.8-6.1-13-17.9c-4.1,10.6-10.5,17.9-18.5,17.9
			c-10.6,0-16.8-9.5-14.5-28.6c3.2-26.1,18-36.8,31.2-37.6c10.7-0.6,17.5,2.8,17.1,6.9c-0.5,3.7-4,5.9-7.1,6.9
			c-3.2,1.2-6.7,0.7-5.9-2.5c1.2-4.5,0.3-8.5-6.6-8.5c-7.2,0-15.1,11.8-17.9,33.2c-1.9,15.9-0.7,27.1,6.2,27.1
			c6.4,0,13.8-12.5,16.5-26c0.1-1.6,0.3-3.3,0.5-5l1.5-12c0.3-2.3,11.3-6,11.1-4.1l-1.6,12.8c-2.6,20.9-2.6,34.2,3.1,34.2
			c8.2,0,17.3-18.4,22.3-30.6C581.6,280,583.9,280.9,582.6,284z"/>
		<path class="st26" d="M645,327.4c-3.5,7.9-12.1,16-21,16c-15.7,0-25.3-7.7-18.9-60.9c2.5-20,4.6-29.2-1.6-29.2
			c-8.1,0-19.4,18.8-21.8,33.6l-3.3,26.6c-0.2,1.9-11.3,4.1-11,1.7l7.3-59.5c0.2-1.9,11.5-7,11.3-4.6l-2.6,20.8
			c5.2-11.9,13.8-21.5,22.5-21.5c10.5,0,12.9,6.3,10.1,29c-6.3,51.8,1.5,61,10.1,61c6,0,12.9-6.4,15.9-13.1
			C644.5,321.9,647.4,321.8,645,327.4z"/>
		<path class="st26" d="M688.5,334c-6.4-2.7-14-4.9-22.3-6.4c-17.5,43.5-61.1,56.8-90.5,48.2c-24.7-7.3-22-29.7-2-42.4
			c17.7-11.1,53.2-14.6,84.2-10.5c1.9-6.3,3.5-13.2,4.4-20.8l0.6-4.1c-4.4,9.5-11.5,18.1-19.9,18.1c-12.7,0-14.6-11.6-11.9-34
			l3.3-27c0.2-1.9,11.5-7,11.2-4.6c-0.2,1.9-3.2,24.6-3.6,28.5c-2.5,20.9-2.6,34.1,3.1,34.1c7.7,0,17.2-15.8,19.4-28.2
			c1.2-9.2,2.6-20,3.7-29.7c0.2-1.9,11.5-7,11.2-4.6c-1,8.9-4.9,39.2-6.2,50.1c-1.1,8.8-2.9,16.7-5.6,24c8.6,1.6,16.6,3.8,23.5,6.7
			C692.9,332,689.7,334.5,688.5,334z M656.7,326c-28.7-4-61.5-1.4-78.9,8.8c-19,11-23.2,31.8,0.5,38.8
			C604.2,381.2,641.7,367.7,656.7,326z"/>
	</g>
	<g class="st10">
		<path class="st26" d="M377,189.3l0.7,7.9c-1.9,1.6-4.1,2.6-6.8,2.8c-1.6,0.1-3.1,0-4.5-0.4c-1.4-0.4-2.5-1-3.6-1.8
			c-1-0.8-1.8-1.8-2.4-3c-0.6-1.2-1-2.6-1.1-4.1c-0.1-1.5,0-2.9,0.3-4.2c0.4-1.3,1-2.4,1.8-3.4c0.8-1,1.8-1.8,3.1-2.4
			c1.2-0.6,2.6-1,4.2-1.1c0.8-0.1,1.6-0.1,2.3,0c0.7,0.1,1.4,0.2,2,0.3c0.6,0.2,1.2,0.4,1.7,0.7c0.5,0.3,1,0.6,1.5,0.9l-0.8,1.6
			c-0.1,0.2-0.3,0.4-0.5,0.5c-0.2,0.1-0.5,0-0.8-0.1c-0.3-0.1-0.6-0.3-0.9-0.4c-0.3-0.1-0.7-0.3-1.1-0.4c-0.4-0.1-0.9-0.2-1.4-0.3
			c-0.5-0.1-1.1,0-1.8,0c-1.1,0.1-2,0.4-2.8,0.8c-0.8,0.4-1.5,1-2,1.7c-0.5,0.7-0.9,1.5-1.2,2.5c-0.2,1-0.3,2-0.2,3.1
			c0.1,1.2,0.4,2.3,0.8,3.2c0.4,0.9,1,1.7,1.7,2.3c0.7,0.6,1.5,1,2.4,1.3c0.9,0.3,1.9,0.3,3.1,0.2c0.8-0.1,1.6-0.2,2.2-0.5
			c0.6-0.2,1.2-0.5,1.8-0.9l-0.4-4l-2.8,0.3c-0.2,0-0.4,0-0.5-0.1c-0.1-0.1-0.2-0.2-0.2-0.4l-0.2-1.9L377,189.3z"/>
		<path class="st26" d="M399.8,197.6l-2.9,0.2c-0.6,0-1-0.2-1.3-0.6l-5.2-6.4c-0.2-0.2-0.4-0.4-0.6-0.5c-0.2-0.1-0.5-0.1-0.8-0.1
			l-1.8,0.1l0.6,8.1l-3.3,0.2l-1.4-20.1l5.9-0.4c1.3-0.1,2.5,0,3.4,0.2c1,0.2,1.8,0.5,2.4,1c0.7,0.5,1.1,1,1.5,1.7
			c0.3,0.7,0.5,1.4,0.6,2.3c0,0.7,0,1.4-0.2,2c-0.2,0.6-0.4,1.2-0.8,1.7c-0.4,0.5-0.8,1-1.4,1.4c-0.6,0.4-1.2,0.7-1.9,1
			c0.4,0.2,0.8,0.5,1.1,0.9L399.8,197.6z M389.6,187.8c0.7-0.1,1.4-0.2,1.9-0.4c0.5-0.2,1-0.5,1.3-0.9c0.3-0.4,0.6-0.8,0.8-1.2
			c0.2-0.5,0.2-1,0.2-1.5c-0.1-1.1-0.5-1.9-1.3-2.4c-0.8-0.5-1.9-0.7-3.4-0.6l-2.7,0.2l0.5,7.1L389.6,187.8z"/>
		<path class="st26" d="M417.4,194l0.1,2.6l-12.6,0.7l-1.1-20.1l12.6-0.7l0.1,2.6l-9.3,0.5l0.3,6.1l7.4-0.4l0.1,2.6l-7.4,0.4
			l0.3,6.2L417.4,194z"/>
		<path class="st26" d="M436.3,193.2l0.1,2.6l-12.6,0.5l-0.8-20.1l12.6-0.5l0.1,2.6l-9.3,0.4l0.2,6.1l7.4-0.3l0.1,2.6l-7.4,0.3
			l0.2,6.2L436.3,193.2z"/>
		<path class="st26" d="M456.1,177.9l-6.3,0.2l0.4,17.4l-3.3,0.1l-0.4-17.4l-6.3,0.2l-0.1-2.7l15.8-0.4L456.1,177.9z"/>
		<path class="st26" d="M465.3,195.2l-3.3,0l-0.3-20.2l3.3,0L465.3,195.2z"/>
		<path class="st26" d="M489.5,174.9l0.1,20.2l-1.7,0c-0.3,0-0.5,0-0.6-0.1c-0.2-0.1-0.3-0.2-0.5-0.4l-11.1-14.2
			c0,0.3,0.1,0.5,0.1,0.8c0,0.3,0,0.5,0,0.7l0,13.3l-2.9,0l-0.1-20.2l1.7,0c0.1,0,0.3,0,0.4,0c0.1,0,0.2,0,0.3,0.1
			c0.1,0,0.2,0.1,0.2,0.2c0.1,0.1,0.2,0.2,0.2,0.3l11.1,14.2c0-0.3-0.1-0.6-0.1-0.9c0-0.3,0-0.5,0-0.8l0-13.1L489.5,174.9z"/>
		<path class="st26" d="M513.7,185.4l-0.1,8c-2,1.4-4.4,2.1-7,2.1c-1.6,0-3.1-0.3-4.4-0.8c-1.3-0.5-2.4-1.3-3.3-2.2
			c-0.9-0.9-1.6-2-2.1-3.3c-0.5-1.3-0.7-2.7-0.7-4.2c0-1.5,0.3-2.9,0.8-4.2c0.5-1.3,1.2-2.3,2.1-3.2c0.9-0.9,2-1.6,3.3-2.1
			c1.3-0.5,2.7-0.7,4.3-0.7c0.8,0,1.6,0.1,2.3,0.2c0.7,0.1,1.3,0.3,1.9,0.6c0.6,0.2,1.1,0.5,1.6,0.8c0.5,0.3,1,0.7,1.4,1.1l-1,1.5
			c-0.2,0.2-0.3,0.4-0.6,0.4c-0.2,0.1-0.5,0-0.8-0.2c-0.3-0.2-0.6-0.3-0.9-0.5c-0.3-0.2-0.6-0.4-1-0.5c-0.4-0.2-0.8-0.3-1.4-0.4
			s-1.1-0.2-1.8-0.2c-1.1,0-2,0.1-2.9,0.5c-0.9,0.3-1.6,0.8-2.2,1.5c-0.6,0.6-1.1,1.4-1.4,2.3c-0.3,0.9-0.5,1.9-0.5,3.1
			c0,1.2,0.1,2.3,0.5,3.2c0.3,1,0.8,1.8,1.4,2.4c0.6,0.7,1.4,1.2,2.3,1.5c0.9,0.4,1.9,0.5,3,0.6c0.8,0,1.6-0.1,2.2-0.2
			c0.7-0.2,1.3-0.4,1.9-0.7l0.1-4l-2.8,0c-0.2,0-0.4-0.1-0.5-0.2c-0.1-0.1-0.2-0.3-0.2-0.5l0-1.9L513.7,185.4z"/>
		<path class="st26" d="M531.2,179.1c-0.1,0.2-0.2,0.3-0.3,0.4c-0.1,0.1-0.3,0.1-0.4,0.1c-0.2,0-0.4-0.1-0.6-0.2
			c-0.2-0.2-0.5-0.3-0.8-0.5c-0.3-0.2-0.7-0.4-1.1-0.5c-0.4-0.2-1-0.3-1.6-0.3c-0.6,0-1.1,0-1.5,0.2c-0.4,0.1-0.8,0.3-1.1,0.6
			c-0.3,0.2-0.5,0.5-0.7,0.9c-0.2,0.3-0.2,0.7-0.2,1.1c0,0.5,0.1,0.9,0.4,1.3c0.3,0.3,0.6,0.7,1,0.9c0.4,0.3,0.9,0.5,1.5,0.7
			c0.6,0.2,1.1,0.4,1.7,0.6c0.6,0.2,1.2,0.5,1.7,0.8c0.6,0.3,1.1,0.6,1.5,1c0.4,0.4,0.8,0.9,1,1.5c0.3,0.6,0.4,1.3,0.3,2.1
			c0,0.9-0.2,1.7-0.5,2.5c-0.3,0.8-0.8,1.4-1.4,2c-0.6,0.6-1.3,1-2.2,1.3c-0.9,0.3-1.8,0.5-2.9,0.4c-0.6,0-1.3-0.1-1.9-0.2
			c-0.6-0.1-1.2-0.3-1.7-0.6c-0.5-0.2-1.1-0.5-1.5-0.9c-0.5-0.3-0.9-0.7-1.3-1.1l1-1.5c0.1-0.1,0.2-0.2,0.3-0.3
			c0.1-0.1,0.3-0.1,0.4-0.1c0.2,0,0.4,0.1,0.7,0.3c0.3,0.2,0.6,0.4,0.9,0.7c0.4,0.2,0.8,0.5,1.3,0.7c0.5,0.2,1.1,0.3,1.9,0.4
			c1.2,0,2.1-0.2,2.8-0.8c0.7-0.6,1-1.3,1-2.4c0-0.6-0.1-1-0.4-1.4c-0.3-0.4-0.6-0.7-1-0.9c-0.4-0.3-0.9-0.5-1.5-0.7
			c-0.6-0.2-1.1-0.4-1.7-0.6c-0.6-0.2-1.2-0.4-1.7-0.7c-0.6-0.3-1.1-0.6-1.5-1.1c-0.4-0.4-0.8-1-1-1.6c-0.3-0.6-0.4-1.4-0.3-2.3
			c0-0.7,0.2-1.4,0.5-2.1c0.3-0.7,0.7-1.3,1.3-1.8c0.6-0.5,1.2-0.9,2.1-1.2c0.8-0.3,1.7-0.4,2.8-0.4c1.2,0,2.2,0.2,3.2,0.6
			c1,0.4,1.8,0.9,2.5,1.6L531.2,179.1z"/>
		<path class="st26" d="M552.1,179.2l-0.3,6.4l7.9,0.4l-0.1,2.6l-7.9-0.4l-0.4,8.4l-3.3-0.2l1-20.1l12.6,0.6l-0.1,2.6L552.1,179.2z"
			/>
		<path class="st26" d="M581.8,198.5l-2.9-0.2c-0.6,0-1-0.3-1.2-0.8l-4.3-7.1c-0.1-0.2-0.3-0.4-0.5-0.5c-0.2-0.1-0.5-0.2-0.8-0.2
			l-1.8-0.1l-0.5,8.1l-3.3-0.2l1.3-20.1l5.9,0.4c1.3,0.1,2.5,0.3,3.4,0.6c0.9,0.3,1.7,0.8,2.3,1.3c0.6,0.5,1,1.2,1.2,1.9
			c0.2,0.7,0.3,1.5,0.3,2.4c0,0.7-0.2,1.3-0.4,1.9c-0.2,0.6-0.6,1.1-1,1.6c-0.4,0.5-0.9,0.9-1.5,1.2c-0.6,0.3-1.3,0.6-2,0.7
			c0.4,0.3,0.7,0.6,1,1.1L581.8,198.5z M573,187.4c0.7,0,1.4,0,2-0.1c0.6-0.1,1.1-0.4,1.4-0.7c0.4-0.3,0.7-0.7,0.9-1.1
			c0.2-0.4,0.3-0.9,0.4-1.5c0.1-1.1-0.2-2-0.9-2.6c-0.7-0.6-1.8-1-3.2-1.1l-2.7-0.2l-0.5,7.1L573,187.4z"/>
		<path class="st26" d="M606.4,190.4c-0.1,1.5-0.5,2.8-1.1,4.1c-0.6,1.2-1.4,2.2-2.3,3.1c-1,0.8-2.1,1.5-3.3,1.9
			c-1.3,0.4-2.7,0.6-4.2,0.4c-1.5-0.1-2.8-0.5-4-1.1c-1.2-0.6-2.2-1.4-3-2.4c-0.8-1-1.4-2.1-1.8-3.4c-0.4-1.3-0.5-2.7-0.4-4.2
			c0.1-1.5,0.5-2.8,1.1-4.1c0.6-1.2,1.4-2.2,2.3-3.1c1-0.8,2.1-1.5,3.4-1.9c1.3-0.4,2.7-0.6,4.2-0.4c1.5,0.1,2.9,0.5,4,1.1
			c1.2,0.6,2.2,1.4,3,2.4c0.8,1,1.4,2.1,1.8,3.4C606.4,187.5,606.5,188.9,606.4,190.4z M603,190.1c0.1-1.2,0-2.2-0.2-3.2
			c-0.2-0.9-0.6-1.8-1.1-2.5c-0.5-0.7-1.2-1.2-2-1.7c-0.8-0.4-1.7-0.7-2.7-0.7c-1-0.1-2,0-2.8,0.3c-0.9,0.3-1.6,0.7-2.2,1.3
			c-0.6,0.6-1.2,1.3-1.5,2.2c-0.4,0.9-0.6,1.9-0.7,3.1c-0.1,1.2,0,2.2,0.2,3.2c0.2,0.9,0.6,1.8,1.2,2.4c0.5,0.7,1.2,1.2,2,1.6
			c0.8,0.4,1.7,0.7,2.7,0.7c1,0.1,2,0,2.8-0.3c0.9-0.3,1.6-0.7,2.2-1.3c0.6-0.6,1.1-1.3,1.5-2.2C602.7,192.3,602.9,191.3,603,190.1z
			"/>
		<path class="st26" d="M635.2,183.2l-2.1,20l-2.9-0.3l1.4-13.7c0-0.2,0.1-0.5,0.1-0.7c0-0.3,0.1-0.5,0.1-0.8l-7.7,11.2
			c-0.3,0.5-0.7,0.7-1.2,0.6l-0.5,0c-0.5-0.1-0.9-0.3-1.1-0.9l-5.3-12.6c0,0.3,0,0.5,0,0.8c0,0.3,0,0.5-0.1,0.8l-1.4,13.7l-2.9-0.3
			l2.1-20l2.4,0.3c0.3,0,0.5,0.1,0.7,0.1c0.2,0.1,0.3,0.2,0.4,0.5l5.2,12.3c0.1,0.3,0.2,0.6,0.3,0.9c0.1,0.3,0.2,0.6,0.2,0.9
			c0.1-0.3,0.3-0.6,0.4-0.8c0.2-0.3,0.3-0.5,0.5-0.8l7.6-11c0.2-0.2,0.3-0.4,0.5-0.4c0.2,0,0.4,0,0.7,0L635.2,183.2z"/>
	</g>
</g>
</svg>
