<?xml version="1.0" encoding="utf-8"?>
<!-- Generator: Adobe Illustrator 22.0.1, SVG Export Plug-In . SVG Version: 6.00 Build 0)  -->
<svg version="1.1" id="Layer_1" xmlns="http://www.w3.org/2000/svg" xmlns:xlink="http://www.w3.org/1999/xlink" x="0px" y="0px"
	 viewBox="0 0 2133.4 980" style="enable-background:new 0 0 2133.4 980;" xml:space="preserve">
<style type="text/css">
	.st0{fill:url(#SVGID_1_);stroke:#000000;stroke-miterlimit:10;}
	.st1{fill:url(#SVGID_2_);stroke:#000000;stroke-miterlimit:10;}
	.st2{fill:url(#SVGID_3_);stroke:#000000;stroke-miterlimit:10;}
	.st3{fill:url(#SVGID_4_);}
	.st4{fill:url(#SVGID_5_);stroke:#000000;stroke-miterlimit:10;}
	.st5{fill:url(#SVGID_6_);}
	.st6{display:none;}
	.st7{display:inline;fill:#D4CA9E;}
	.st8{display:inline;fill:#FCF1BA;}
	.st9{display:inline;fill:#9E4944;}
	.st10{display:inline;fill:#693836;}
	.st11{display:inline;fill:#948D6E;}
	.st12{display:inline;fill:#AFA782;}
	.st13{fill:#CBC7AF;}
	.st14{fill:#DDD8BD;}
	.st15{fill:#75B6E4;}
	.st16{fill:#552702;}
	.st17{fill:#763021;}
	.st18{fill:#C35543;}
	.st19{fill:#F4E2D4;}
	.st20{fill:#BBAFA6;}
	.st21{fill:#A2562B;}
	.st22{fill:#BD6537;}
	.st23{display:inline;fill:#683410;}
	.st24{display:inline;}
	.st25{display:inline;fill:#8A4722;}
	.st26{display:inline;fill:url(#SVGID_7_);stroke:#000000;stroke-miterlimit:10;}
	.st27{display:inline;fill:url(#SVGID_8_);stroke:#000000;stroke-miterlimit:10;}
	.st28{display:inline;fill:url(#SVGID_9_);}
	.st29{display:inline;fill:#B8BABC;}
	.st30{display:inline;fill:url(#SVGID_10_);}
	.st31{fill:#FFFFFF;}
	.st32{fill:#38596B;}
	.st33{fill:#5C95BD;}
	.st34{fill:#406287;}
	.st35{fill:#9FDBEC;}
	.st36{fill:#578DB3;}
	.st37{fill:#D3D4D6;}
	.st38{fill:#1B3442;}
	.st39{fill:#F8DFD0;}
	.st40{fill:#C63C33;}
	.st41{fill:#AA505A;}
	.st42{fill:#73BDD4;}
	.st43{fill:#68483B;}
	.st44{fill:#D0D2D3;}
	.st45{fill:#9A9C9F;}
	.st46{fill:#B14125;}
	.st47{fill:#913319;}
	.st48{fill:#E06D3C;}
	.st49{fill:#BBBDBF;}
	.st50{fill:#FCBB5C;}
	.st51{fill:#A34436;}
	.st52{fill:#E6E7E8;}
	.st53{fill:#B64C3E;}
	.st54{fill:#4EC9F5;}
	.st55{fill:#B2DAEE;}
	.st56{display:inline;fill:#00A8B5;}
	.st57{display:inline;fill:#00BABB;}
</style>
<g id="Layer_4">
	<g id="illustration">
		<g id="fields">
			
				<linearGradient id="SVGID_1_" gradientUnits="userSpaceOnUse" x1="4026.3223" y1="842.1038" x2="3915.9944" y2="491.9376" gradientTransform="matrix(-1 0 0 1 4294.7578 188)">
				<stop  offset="0" style="stop-color:#192A06"/>
				<stop  offset="0.1003" style="stop-color:#2D3C0C"/>
				<stop  offset="0.5397" style="stop-color:#838824"/>
				<stop  offset="0.8497" style="stop-color:#B8B833"/>
				<stop  offset="1" style="stop-color:#CDCA39"/>
			</linearGradient>
			<path class="st0" d="M736,783.2L0,871V645C316.6,633.1,578,695.4,736,783.2z"/>
			
				<linearGradient id="SVGID_2_" gradientUnits="userSpaceOnUse" x1="670.7941" y1="437.298" x2="720.0883" y2="741.2772" gradientTransform="matrix(1 0 0 1 0 188)">
				<stop  offset="0" style="stop-color:#CDCA39"/>
				<stop  offset="0.4998" style="stop-color:#677018"/>
				<stop  offset="1" style="stop-color:#192A06"/>
			</linearGradient>
			<path class="st1" d="M1400,770.1v-81.6c-569.1-53-956.6-40.3-1400,33.8v200h876.9L1400,770.1z"/>
			
				<linearGradient id="SVGID_3_" gradientUnits="userSpaceOnUse" x1="1172.8446" y1="538.3702" x2="1813.4873" y2="35.0081" gradientTransform="matrix(1 0 0 -1 0 980)">
				<stop  offset="0" style="stop-color:#E0DE34"/>
				<stop  offset="0.1062" style="stop-color:#CBCB2F"/>
				<stop  offset="0.3238" style="stop-color:#969B23"/>
				<stop  offset="0.4998" style="stop-color:#677018"/>
				<stop  offset="1" style="stop-color:#192A06"/>
			</linearGradient>
			<path class="st2" d="M1920,656.1c362.8-21.9,328.7-153-526.3-213.7C1080,432.6,821,572.5,664,659.7l736,87.7v-82.6L1920,656.1z"
				/>
			
				<linearGradient id="SVGID_4_" gradientUnits="userSpaceOnUse" x1="1956.6849" y1="294.4893" x2="1956.6849" y2="650.323" gradientTransform="matrix(-1 0 0 1 3345.8567 188)">
				<stop  offset="0" style="stop-color:#E6DD8F"/>
				<stop  offset="0.5" style="stop-color:#AFA782"/>
				<stop  offset="1" style="stop-color:#4A5436"/>
			</linearGradient>
			<path class="st3" d="M1291.4,783h421.4c-68.9-74.2-609.6-168.8-465.3-204.9c88.6-22.1,118-73.4-19.9-117.4l-26.5-4.6
				c113.4,39.5,64.4,88.3-48.1,109.6C995.1,595.6,1056.8,691.6,1291.4,783z"/>
			
				<linearGradient id="SVGID_5_" gradientUnits="userSpaceOnUse" x1="1094.0386" y1="459.4225" x2="1050.7432" y2="-201.6664" gradientTransform="matrix(1 0 0 -1 0 980)">
				<stop  offset="0" style="stop-color:#E0DE34"/>
				<stop  offset="0.1062" style="stop-color:#CBCB2F"/>
				<stop  offset="0.3238" style="stop-color:#969B23"/>
				<stop  offset="0.4998" style="stop-color:#677018"/>
				<stop  offset="0.6652" style="stop-color:#495511"/>
				<stop  offset="0.8825" style="stop-color:#263609"/>
				<stop  offset="1" style="stop-color:#192A06"/>
			</linearGradient>
			<path class="st4" d="M2138.4,604l-5,376H1400h-135.3H0v-83.8c479.3-194.6,1024.3-298.7,1400-314.5l0,0L2138.4,604z"/>
			
				<linearGradient id="SVGID_6_" gradientUnits="userSpaceOnUse" x1="954.9733" y1="481.6883" x2="954.9733" y2="972.272" gradientTransform="matrix(-1 0 0 1 2411.1777 188)">
				<stop  offset="0" style="stop-color:#E6DD8F"/>
				<stop  offset="0.5" style="stop-color:#AFA782"/>
				<stop  offset="1" style="stop-color:#4A5436"/>
			</linearGradient>
			<path class="st5" d="M2138.4,1084V806c-191.5-34.4-1008.1-24.3-1180.5-40.2c34.1-37.8,50.4-81.1-87.5-127.8l-26.5-4.9
				c113.4,41.9,64.4,93.7-48.1,116.2C637.9,781.2,1364.4,980,2138.4,1084z"/>
		</g>
		<g id="house" class="st6">
			<polygon class="st7" points="1226.8,384 1253.7,424.4 1200.4,424.6 			"/>
			<polygon class="st7" points="1254.1,464.5 1253.9,424.4 1202.8,424.6 1203,464.5 			"/>
			<polygon class="st8" points="1313.1,464.5 1313.1,424.1 1253.4,424.4 1253.4,464.5 			"/>
			<polygon class="st9" points="1314.7,424.4 1288,384 1227,384 1253.8,424.4 			"/>
			<polygon class="st10" points="1254,424.6 1226.8,384 1225.7,385.6 1251.4,424.6 			"/>
			<polygon class="st10" points="1226.8,384 1200.4,424.6 1202.8,424.6 1227.7,385.6 			"/>
			<polygon class="st11" points="1232.8,419.8 1232.8,410.1 1221.6,410.1 1221.7,419.9 			"/>
			<rect x="1265.1" y="433" class="st12" width="8.6" height="7.5"/>
			<rect x="1280.9" y="433" class="st12" width="8.6" height="7.5"/>
			<rect x="1295.7" y="433" class="st12" width="8.6" height="7.5"/>
			<polygon class="st7" points="1245.7,355.1 1255.1,369.2 1236.4,369.3 			"/>
			<polygon class="st7" points="1246.4,384 1255.3,390.5 1255.1,369.2 1237.3,369.3 1237.3,384 			"/>
			
				<rect x="1255" y="369.1" transform="matrix(1 -5.590417e-03 5.590417e-03 1 -2.1021 7.0804)" class="st8" width="20.9" height="20.9"/>
			<polygon class="st9" points="1276.4,369.1 1267.1,355 1245.8,355 1255.1,369.2 			"/>
			<polygon class="st10" points="1255.2,369.2 1245.7,355.1 1245.3,355.6 1254.3,369.3 			"/>
			<polygon class="st10" points="1245.7,355.1 1236.4,369.3 1237.3,369.3 1246,355.6 			"/>
			<polygon class="st11" points="1243.9,374.7 1243.9,371.3 1240,371.3 1240,374.8 			"/>
			
				<rect x="1247.7" y="371.3" transform="matrix(1 -6.038353e-03 6.038353e-03 1 -2.2296 7.5528)" class="st11" width="3.9" height="3.4"/>
			<polygon class="st12" points="1268.2,377.7 1268.2,374.3 1264.3,374.3 1264.3,377.7 			"/>
		</g>
	</g>
	<g id="Layer_2_1_">
		<g>
			<g>
				<g>
					<rect x="1270.3" y="389.9" class="st13" width="60.9" height="76.4"/>
					<path d="M1270.1,389.7h61.4v76.9h-61.4V389.7z M1331,390.2h-60.5v75.9h60.5V390.2z"/>
				</g>
				<g>
					<polygon class="st14" points="1201.5,466.3 1270.3,466.3 1270.3,389.9 1232.2,346.5 1201.5,389.9 					"/>
					<path d="M1201.3,389.8l30.7-43.5l0.2-0.2l38.3,43.6l0.1,0.1v76.7h-69.3L1201.3,389.8L1201.3,389.8z M1270.1,390l-37.9-43.1
						l-30.5,43.1v76.1h68.3L1270.1,390L1270.1,390z"/>
				</g>
				<g>
					<rect x="1254.4" y="439.4" class="st15" width="10" height="12.4"/>
					<path d="M1254.2,439.2h10.5V452h-10.5V439.2z M1264.2,439.6h-9.6v11.9h9.6V439.6z"/>
				</g>
				<g>
					<path class="st15" d="M1226.3,389.3h10v-13.9c0-2.8-2.2-5-5-5l0,0c-2.8,0-5,2.2-5,5V389.3z"/>
					<path d="M1226,375.4c0-2.9,2.4-5.3,5.3-5.3s5.3,2.4,5.3,5.3v14.1H1226V375.4z M1236.1,375.4c0-2.6-2.1-4.8-4.8-4.8
						c-2.6,0-4.8,2.1-4.8,4.8V389h9.6L1236.1,375.4L1236.1,375.4z"/>
				</g>
				<g>
					<rect x="1204.7" y="439.4" class="st15" width="10" height="12.4"/>
					<path d="M1204.5,439.2h10.5V452h-10.5V439.2z M1214.6,439.6h-9.6v11.9h9.6V439.6z"/>
				</g>
				<g>
					<rect x="1254.4" y="406.4" class="st15" width="10" height="12.4"/>
					<path d="M1254.2,406.2h10.5V419h-10.5V406.2z M1264.2,406.6h-9.6v11.9h9.6V406.6z"/>
				</g>
				<g>
					<rect x="1311.3" y="439.4" class="st15" width="10" height="12.4"/>
					<path d="M1311,439.2h10.5V452H1311V439.2z M1321.1,439.6h-9.6v11.9h9.6V439.6z"/>
				</g>
				<g>
					<rect x="1311.3" y="406.4" class="st15" width="10" height="12.4"/>
					<path d="M1311,406.2h10.5V419H1311V406.2z M1321.1,406.6h-9.6v11.9h9.6V406.6z"/>
				</g>
				<g>
					<rect x="1287.2" y="439.4" class="st15" width="10" height="12.4"/>
					<path d="M1286.9,439.2h10.5V452h-10.5V439.2z M1296.9,439.6h-9.6v11.9h9.6V439.6z"/>
				</g>
				<g>
					<rect x="1287.2" y="406.4" class="st15" width="10" height="12.4"/>
					<path d="M1286.9,406.2h10.5V419h-10.5V406.2z M1296.9,406.6h-9.6v11.9h9.6V406.6z"/>
				</g>
				<g>
					<rect x="1204.7" y="406.4" class="st15" width="10" height="12.4"/>
					<path d="M1204.5,406.2h10.5V419h-10.5V406.2z M1214.6,406.6h-9.6v11.9h9.6V406.6z"/>
				</g>
				<g>
					<path class="st16" d="M1220,455.9h15.5v-15.7c0-3.3-2.7-5.9-5.9-5.9h-3.6c-3.3,0-5.9,2.7-5.9,5.9L1220,455.9L1220,455.9z"/>
					<path d="M1219.8,441.7c0-4,3.3-7.3,7.3-7.3h1.5c4,0,7.3,3.3,7.3,7.3v14.8h-16v-14.8H1219.8z M1235.3,441.7c0-3.7-3-6.8-6.8-6.8
						h-1.5c-3.7,0-6.8,3-6.8,6.8v14.4h15v-14.4H1235.3z"/>
				</g>
				<g>
					<polygon class="st17" points="1231.3,345.2 1233.9,340.9 1340.3,391.7 1337.8,395.9 1266.3,395.9 					"/>
					<path d="M1231.1,345.3l-0.1-0.1l2.8-4.6l106.6,50.8l0.2,0.1l-2.8,4.6h-71.7L1231.1,345.3z M1340,391.8l-106-50.5l-2.4,3.9
						l34.9,50.5h71.2L1340,391.8z"/>
				</g>
				<g>
					<polygon class="st18" points="1235.5,341.7 1233.9,340.9 1197.9,392.4 1200.5,392.4 					"/>
					<path d="M1233.8,340.6l2.1,1l-35.2,51l-0.1,0.1h-3.2L1233.8,340.6z M1235.2,341.8l-1.2-0.6l-35.6,50.9h2.1L1235.2,341.8z"/>
				</g>
				<g>
					<polygon class="st18" points="1233.9,340.9 1298,340.9 1340.3,391.7 1268.9,391.7 					"/>
					<path d="M1233.7,341.1l-0.3-0.4h64.7l42.7,51.2h-72.1L1233.7,341.1z M1297.9,341.2h-63.6l34.7,50.3h70.8L1297.9,341.2z"/>
				</g>
			</g>
			<g>
				<rect x="1204.7" y="433.4" class="st19" width="4.1" height="25.3"/>
				<path d="M1204.4,433.2h4.6V459h-4.6V433.2z M1208.5,433.7h-3.6v24.8h3.6V433.7z"/>
			</g>
			<g>
				<rect x="1203.5" y="457.9" class="st20" width="6.3" height="9.6"/>
				<path d="M1203.3,457.7h6.7v10.1h-6.7V457.7z M1209.6,458.1h-5.8v9.2h5.8V458.1z"/>
			</g>
			<g>
				<g>
					<rect x="1201.6" y="456.6" class="st21" width="45.7" height="3.7"/>
					<path d="M1201.3,456.4h46.2v4.1h-46.2V456.4z M1247,456.8h-45.3v3.2h45.3V456.8z"/>
				</g>
				<g>
					<rect x="1201.5" y="456.6" class="st22" width="16.5" height="3.7"/>
					<path d="M1201.3,456.4h16.9v4.1h-16.9V456.4z M1217.8,456.8h-16v3.2h16V456.8z"/>
				</g>
				<g class="st6">
					<rect x="1214.4" y="455.9" class="st23" width="32.8" height="0.7"/>
					<path class="st24" d="M1214.2,455.7h33.3v1.1h-33.3V455.7z M1247,456.2h-32.4v0.2h32.4V456.2z"/>
				</g>
				<g class="st6">
					<rect x="1200.9" y="455.9" class="st25" width="17.9" height="0.7"/>
					<path class="st24" d="M1200.7,455.7h18.3v1.1h-18.3V455.7z M1218.5,456.2h-17.4v0.2h17.4V456.2z"/>
				</g>
			</g>
			<g>
				<g>
					<rect x="1198.1" y="460.2" class="st21" width="51.7" height="3.7"/>
					<path class="st6" d="M1197.8,460h52.2v4.1h-52.2V460z M1249.6,460.5h-51.2v3.2h51.2V460.5z"/>
				</g>
				<g>
					<rect x="1198" y="460.2" class="st22" width="16.5" height="3.7"/>
					<path d="M1197.8,460h16.9v4.1h-16.9V460z M1214.3,460.5h-16v3.2h16V460.5z"/>
				</g>
				<g class="st6">
					<rect x="1212.7" y="459.5" class="st23" width="37.1" height="0.7"/>
					<path class="st24" d="M1212.5,459.3h37.6v1.1h-37.6V459.3z M1249.6,459.8H1213v0.2h36.6V459.8z"/>
				</g>
				<g class="st6">
					<rect x="1197.5" y="459.5" class="st25" width="17.9" height="0.7"/>
					<path class="st24" d="M1197.2,459.3h18.3v1.1h-18.3V459.3z M1215.1,459.8h-17.4v0.2h17.4V459.8z"/>
				</g>
			</g>
			<g>
				<g>
					<rect x="1194.7" y="463.8" class="st21" width="51.7" height="3.7"/>
					<path d="M1194.4,463.6h52.2v4.1h-52.2V463.6z M1246.1,464.1h-51.2v3.2h51.2V464.1z"/>
				</g>
				<g>
					<rect x="1194.6" y="463.8" class="st22" width="16.5" height="3.7"/>
					<path d="M1194.4,463.6h16.9v4.1h-16.9V463.6z M1210.9,464.1h-16v3.2h16V464.1z"/>
				</g>
				<g class="st6">
					<rect x="1209.3" y="463.1" class="st23" width="37.1" height="0.7"/>
					<path class="st24" d="M1209,462.9h37.6v1.1H1209V462.9z M1246.1,463.4h-36.6v0.2h36.6V463.4z"/>
				</g>
				<g class="st6">
					<rect x="1194" y="463.1" class="st25" width="17.9" height="0.7"/>
					<path class="st24" d="M1193.8,462.9h18.3v1.1h-18.3V462.9z M1211.6,463.4h-17.4v0.2h17.4V463.4z"/>
				</g>
			</g>
			<g>
				<g>
					<polygon class="st19" points="1190,433.5 1204.4,413 1222.4,433.5 					"/>
					<path d="M1204.2,412.9l0.2-0.2l18.5,21.1h-33.4L1204.2,412.9z M1204.4,413.4l-14,19.8h31.4L1204.4,413.4z"/>
				</g>
				<g>
					<rect x="1220.1" y="433.4" class="st19" width="4.1" height="25.3"/>
					<path d="M1219.8,433.2h4.6V459h-4.6V433.2z M1223.9,433.7h-3.6v24.8h3.6V433.7z"/>
				</g>
				<g>
					<rect x="1218.9" y="457.9" class="st20" width="6.3" height="9.6"/>
					<path d="M1218.7,457.7h6.7v10.1h-6.7V457.7z M1225,458.1h-5.8v9.2h5.8V458.1z"/>
				</g>
				<g>
					<rect x="1245.3" y="433.4" class="st19" width="4.1" height="25.3"/>
					<path d="M1245,433.2h4.6V459h-4.6V433.2z M1249.1,433.7h-3.6v24.8h3.6V433.7z"/>
				</g>
				<g>
					<rect x="1244.2" y="457.9" class="st20" width="6.3" height="9.6"/>
					<path d="M1243.9,457.7h6.7v10.1h-6.7V457.7z M1250.2,458.1h-5.8v9.2h5.8V458.1z"/>
				</g>
				<g>
					<rect x="1191" y="433.4" class="st19" width="4.1" height="25.3"/>
					<path d="M1190.8,433.2h4.6V459h-4.6V433.2z M1194.9,433.7h-3.6v24.8h3.6V433.7z"/>
				</g>
				<g>
					<rect x="1189.9" y="457.9" class="st20" width="6.3" height="9.6"/>
					<path d="M1189.8,457.7h6.7v10.1h-6.7V457.7z M1196,458.1h-5.8v9.2h5.8V458.1z"/>
				</g>
				<g>
					<polygon class="st17" points="1204,412.4 1205.2,410.4 1255.5,434.3 1254.3,436.3 1220.5,436.3 					"/>
					<path d="M1203.8,412.5l-0.1-0.1l1.4-2.3l50.5,24l0.2,0.1l-1.4,2.3h-34L1203.8,412.5z M1255.1,434.4l-49.8-23.7l-1,1.7
						l16.4,23.7h33.5L1255.1,434.4z"/>
				</g>
				<g>
					<polygon class="st18" points="1206,410.7 1205.2,410.4 1188.2,434.7 1189.5,434.7 					"/>
					<path d="M1205.1,410.1l1.2,0.6l-16.7,24.2l-0.1,0.1h-1.8L1205.1,410.1z M1205.6,410.8l-0.4-0.2l-16.6,23.8h0.7L1205.6,410.8z"
						/>
				</g>
				<g>
					<polygon class="st18" points="1205.2,410.4 1235.5,410.4 1255.5,434.3 1221.7,434.3 					"/>
					<path d="M1204.8,410.1h30.9l20.4,24.4h-34.4L1204.8,410.1z M1235.4,410.6h-29.7l16.2,23.5h33.1L1235.4,410.6z"/>
				</g>
			</g>
		</g>
	</g>
</g>
<g id="Layer_1_1_" class="st6">
	
		<linearGradient id="SVGID_7_" gradientUnits="userSpaceOnUse" x1="2310.5269" y1="168.6521" x2="2364.353" y2="468.5531" gradientTransform="matrix(1 0 0 -1 0 980)">
		<stop  offset="0" style="stop-color:#192A06"/>
		<stop  offset="0.5002" style="stop-color:#677018"/>
		<stop  offset="0.7421" style="stop-color:#969B23"/>
		<stop  offset="0.9708" style="stop-color:#CBCB2F"/>
	</linearGradient>
	<path class="st26" d="M3179.3,754c-209.9-116.7-555.7-303.5-974.7-292.3c-313.4-9.5-572,130.2-728.8,217.3l714.2,85.1v107.7
		L3179.3,754z"/>
	
		<linearGradient id="SVGID_8_" gradientUnits="userSpaceOnUse" x1="2368.0256" y1="439.2491" x2="2425.3374" y2="792.6725" gradientTransform="matrix(-1 0 0 1 4458.5557 188)">
		<stop  offset="0" style="stop-color:#E0DE34"/>
		<stop  offset="0.1062" style="stop-color:#CBCB2F"/>
		<stop  offset="0.3238" style="stop-color:#969B23"/>
		<stop  offset="0.4998" style="stop-color:#677018"/>
		<stop  offset="0.6652" style="stop-color:#495511"/>
		<stop  offset="0.8825" style="stop-color:#263609"/>
		<stop  offset="1" style="stop-color:#192A06"/>
	</linearGradient>
	<path class="st27" d="M1368.2,980h1400v-83.8c-479.3-194.6-1024.3-330.5-1400-346.3V980z"/>
	
		<linearGradient id="SVGID_9_" gradientUnits="userSpaceOnUse" x1="1368.2987" y1="85.2541" x2="2768.301" y2="85.2541" gradientTransform="matrix(1 -2.194502e-05 2.194502e-05 -1.507 -1.665757e-03 1018.5234)">
		<stop  offset="9.688947e-02" style="stop-color:#AFA782"/>
		<stop  offset="0.5322" style="stop-color:#A6A093"/>
		<stop  offset="0.9804" style="stop-color:#A29E99"/>
	</linearGradient>
	<rect x="1368.3" y="810.2" class="st28" width="1400" height="159.6"/>
	<polyline class="st29" points="2768.1,790.2 2768.1,810.1 1368.2,810.1 1368.2,790.2 	"/>
	<polyline class="st24" points="2769.1,789.2 2769.1,811.1 1367.2,811.1 1367.2,789.2 	"/>
	
		<linearGradient id="SVGID_10_" gradientUnits="userSpaceOnUse" x1="1369.2" y1="179.85" x2="2767.1001" y2="179.85" gradientTransform="matrix(1 0 0 -1 0 980)">
		<stop  offset="9.688947e-02" style="stop-color:#AFA782"/>
		<stop  offset="0.5322" style="stop-color:#A6A093"/>
		<stop  offset="0.6468" style="stop-color:#908A7F"/>
		<stop  offset="0.7442" style="stop-color:#827C72"/>
	</linearGradient>
	<polyline class="st30" points="1369.2,791.2 1369.2,809.1 2767.1,809.1 2767.1,791.2 	"/>
	<g class="st24">
		<rect x="1397.1" y="889.4" class="st31" width="73.4" height="7.9"/>
		<rect x="1515.1" y="889.4" class="st31" width="73.4" height="7.9"/>
		<rect x="1633" y="889.4" class="st31" width="73.4" height="7.9"/>
		<rect x="1751" y="889.4" class="st31" width="73.4" height="7.9"/>
		<rect x="1869" y="889.4" class="st31" width="73.4" height="7.9"/>
		<rect x="1987" y="889.4" class="st31" width="73.4" height="7.9"/>
		<rect x="2105" y="889.4" class="st31" width="73.4" height="7.9"/>
		<rect x="2222.9" y="889.4" class="st31" width="73.4" height="7.9"/>
		<rect x="2340.9" y="889.4" class="st31" width="73.4" height="7.9"/>
		<rect x="2458.9" y="889.4" class="st31" width="73.4" height="7.9"/>
		<rect x="2576.9" y="889.4" class="st31" width="73.4" height="7.9"/>
		<rect x="2694.9" y="889.4" class="st31" width="73.4" height="7.9"/>
	</g>
	<g class="st24">
		<g>
			<g>
				<rect x="1804.7" y="465.2" class="st32" width="274" height="18.7"/>
				<path d="M2079.7,484.8h-276v-20.7h276V484.8z M1805.7,482.8h272v-16.7h-272V482.8z"/>
			</g>
			<g>
				<rect x="1820.8" y="483.8" class="st33" width="241.1" height="305"/>
				<path d="M2063,789.9h-243.1v-307H2063V789.9z M1821.8,787.9H2061v-303h-239.1L1821.8,787.9L1821.8,787.9z"/>
			</g>
			<g>
				<rect x="1820.8" y="740.4" class="st34" width="241.1" height="48.5"/>
				<path d="M2063,789.9h-243.1v-50.5H2063V789.9z M1821.8,787.9H2061v-46.5h-239.1L1821.8,787.9L1821.8,787.9z"/>
			</g>
			<g>
				<rect x="1811.9" y="779.2" class="st32" width="259" height="9.7"/>
				<path d="M2071.9,789.9h-261v-11.7h261V789.9z M1812.9,787.9h257v-7.7h-257L1812.9,787.9L1812.9,787.9z"/>
			</g>
			<g>
				<g>
					<g>
						<rect x="1842.8" y="498.5" class="st34" width="52.1" height="62.7"/>
						<path d="M1895.9,562.2h-54.1v-64.7h54.1V562.2z M1843.8,560.2h50.1v-60.7h-50.1V560.2z"/>
					</g>
					<polygon class="st35" points="1846.1,501.9 1846.1,557.1 1846.1,557.8 1890.9,557.8 1890.9,502 1890.9,501.9 					"/>
				</g>
				<g>
					<rect x="1838.6" y="559.6" class="st34" width="60.5" height="6"/>
					<path d="M1900.1,566.6h-62.5v-8h62.5V566.6z M1839.6,564.6h58.5v-4h-58.5V564.6z"/>
				</g>
			</g>
			<g>
				<g>
					<g>
						<rect x="1915.6" y="498.5" class="st34" width="52.1" height="62.7"/>
						<path d="M1968.7,562.2h-54.1v-64.7h54.1V562.2z M1916.6,560.2h50.1v-60.7h-50.1V560.2z"/>
					</g>
					<polygon class="st35" points="1919,501.9 1919,557.1 1919,557.8 1963.7,557.8 1963.7,502 1963.7,501.9 					"/>
				</g>
				<g>
					<rect x="1911.4" y="559.6" class="st34" width="60.5" height="6"/>
					<path d="M1972.9,566.6h-62.5v-8h62.5V566.6z M1912.4,564.6h58.5v-4h-58.5V564.6z"/>
				</g>
			</g>
			<g>
				<g>
					<g>
						<rect x="1988.5" y="498.5" class="st34" width="52.1" height="62.7"/>
						<path d="M2041.5,562.2h-54.1v-64.7h54.1V562.2z M1989.5,560.2h50.1v-60.7h-50.1V560.2z"/>
					</g>
					<polygon class="st35" points="1991.8,501.9 1991.8,557.1 1991.8,557.8 2036.5,557.8 2036.5,502 2036.5,501.9 					"/>
				</g>
				<g>
					<rect x="1984.3" y="559.6" class="st34" width="60.5" height="6"/>
					<path d="M2045.8,566.6h-62.5v-8h62.5V566.6z M1985.3,564.6h58.5v-4h-58.5V564.6z"/>
				</g>
			</g>
			<g>
				<g>
					<g>
						<rect x="1842.8" y="582.7" class="st34" width="52.1" height="62.7"/>
						<path d="M1895.9,646.4h-54.1v-64.7h54.1V646.4z M1843.8,644.4h50.1v-60.7h-50.1V644.4z"/>
					</g>
					<polygon class="st35" points="1846.1,586.1 1846.1,641.3 1846.1,642 1890.9,642 1890.9,586.2 1890.9,586.1 					"/>
				</g>
				<g>
					<rect x="1838.6" y="643.7" class="st34" width="60.5" height="6"/>
					<path d="M1900.1,650.7h-62.5v-8h62.5V650.7z M1839.6,648.7h58.5v-4h-58.5V648.7z"/>
				</g>
			</g>
			<g>
				<g>
					<g>
						<rect x="1915.6" y="582.7" class="st34" width="52.1" height="62.7"/>
						<path d="M1968.7,646.4h-54.1v-64.7h54.1V646.4z M1916.6,644.4h50.1v-60.7h-50.1V644.4z"/>
					</g>
					<polygon class="st35" points="1919,586.1 1919,641.3 1919,642 1963.7,642 1963.7,586.2 1963.7,586.1 					"/>
				</g>
				<g>
					<rect x="1911.4" y="643.7" class="st34" width="60.5" height="6"/>
					<path d="M1972.9,650.7h-62.5v-8h62.5V650.7z M1912.4,648.7h58.5v-4h-58.5V648.7z"/>
				</g>
			</g>
			<g>
				<g>
					<g>
						<rect x="1988.5" y="582.7" class="st34" width="52.1" height="62.7"/>
						<path d="M2041.5,646.4h-54.1v-64.7h54.1V646.4z M1989.5,644.4h50.1v-60.7h-50.1V644.4z"/>
					</g>
					<polygon class="st35" points="1991.8,586.1 1991.8,641.3 1991.8,642 2036.5,642 2036.5,586.2 2036.5,586.1 					"/>
				</g>
				<g>
					<rect x="1984.3" y="643.7" class="st34" width="60.5" height="6"/>
					<path d="M2045.8,650.7h-62.5v-8h62.5V650.7z M1985.3,648.7h58.5v-4h-58.5V648.7z"/>
				</g>
			</g>
			<g>
				<g>
					<g>
						<rect x="1842.8" y="666.8" class="st34" width="52.1" height="62.7"/>
						<path d="M1895.9,730.5h-54.1v-64.7h54.1V730.5z M1843.8,728.5h50.1v-60.7h-50.1V728.5z"/>
					</g>
					<polygon class="st35" points="1846.1,670.2 1846.1,725.4 1846.1,726.1 1890.9,726.1 1890.9,670.3 1890.9,670.2 					"/>
				</g>
				<g>
					<rect x="1838.6" y="727.9" class="st34" width="60.5" height="6"/>
					<path d="M1900.1,734.9h-62.5v-8h62.5V734.9z M1839.6,732.9h58.5v-4h-58.5V732.9z"/>
				</g>
			</g>
			<g>
				<g>
					<g>
						<rect x="1915.6" y="666.8" class="st34" width="52.1" height="62.7"/>
						<path d="M1968.7,730.5h-54.1v-64.7h54.1V730.5z M1916.6,728.5h50.1v-60.7h-50.1V728.5z"/>
					</g>
					<polygon class="st35" points="1919,670.2 1919,725.4 1919,726.1 1963.7,726.1 1963.7,670.3 1963.7,670.2 					"/>
				</g>
				<g>
					<rect x="1911.4" y="727.9" class="st34" width="60.5" height="6"/>
					<path d="M1972.9,734.9h-62.5v-8h62.5V734.9z M1912.4,732.9h58.5v-4h-58.5V732.9z"/>
				</g>
			</g>
			<g>
				<g>
					<g>
						<rect x="1988.5" y="666.8" class="st34" width="52.1" height="62.7"/>
						<path d="M2041.5,730.5h-54.1v-64.7h54.1V730.5z M1989.5,728.5h50.1v-60.7h-50.1V728.5z"/>
					</g>
					<polygon class="st35" points="1991.8,670.2 1991.8,725.4 1991.8,726.1 2036.5,726.1 2036.5,670.3 2036.5,670.2 					"/>
				</g>
				<g>
					<rect x="1984.3" y="727.9" class="st34" width="60.5" height="6"/>
					<path d="M2045.8,734.9h-62.5v-8h62.5V734.9z M1985.3,732.9h58.5v-4h-58.5V732.9z"/>
				</g>
			</g>
			<g>
				<rect x="1609.6" y="326.4" class="st36" width="211.2" height="462.4"/>
				<path d="M1821.8,789.9h-213.2V325.4h213.2V789.9z M1610.6,787.9h209.2V327.4h-209.2V787.9z"/>
			</g>
			<g>
				<rect x="1609.8" y="724.3" class="st34" width="211.1" height="65.7"/>
				<path d="M1821.9,791h-213.1v-67.7h213.1V791z M1610.8,789h209.1v-63.7h-209.1V789z"/>
			</g>
			<polygon class="st37" points="1820.9,465.2 2028.5,788.9 1820.8,788.9 			"/>
			<g>
				<g>
					<g>
						<rect x="1628.3" y="336.8" class="st34" width="81.4" height="41.1"/>
						<path d="M1710.7,379h-83.4v-43.1h83.4V379z M1629.3,377h79.4v-39.1h-79.4V377z"/>
					</g>
					<polygon class="st35" points="1632.5,340.3 1632.5,374.3 1632.5,374.5 1705.5,374.5 1705.5,340.3 1705.5,340.3 					"/>
				</g>
				<g>
					<g>
						<rect x="1720.7" y="336.9" class="st34" width="81.4" height="41.1"/>
						<path d="M1803.1,379h-83.4v-43.1h83.4V379z M1721.7,377h79.4v-39.1h-79.4V377z"/>
					</g>
					<polygon class="st35" points="1725,340.3 1725,374.3 1725,374.5 1797.9,374.5 1797.9,340.3 1797.9,340.3 					"/>
				</g>
				<g>
					<g>
						<rect x="1628.3" y="392.5" class="st34" width="81.4" height="41.1"/>
						<path d="M1710.7,434.7h-83.4v-43.1h83.4V434.7z M1629.3,432.7h79.4v-39.1h-79.4V432.7z"/>
					</g>
					<polygon class="st35" points="1632.5,396 1632.5,430 1632.5,430.2 1705.5,430.2 1705.5,396 1705.5,396 					"/>
				</g>
				<g>
					<g>
						<rect x="1720.7" y="392.6" class="st34" width="81.4" height="41.1"/>
						<path d="M1803.1,434.7h-83.4v-43.1h83.4V434.7z M1721.7,432.7h79.4v-39.1h-79.4V432.7z"/>
					</g>
					<polygon class="st35" points="1725,396 1725,430 1725,430.2 1797.9,430.2 1797.9,396 1797.9,396 					"/>
				</g>
				<g>
					<g>
						<rect x="1628.3" y="448.2" class="st34" width="81.4" height="41.1"/>
						<path d="M1710.7,490.4h-83.4v-43.1h83.4V490.4z M1629.3,488.4h79.4v-39.1h-79.4V488.4z"/>
					</g>
					<polygon class="st35" points="1632.5,451.7 1632.5,485.7 1632.5,485.9 1705.5,485.9 1705.5,451.8 1705.5,451.7 					"/>
				</g>
				<g>
					<g>
						<rect x="1720.7" y="448.3" class="st34" width="81.4" height="41.1"/>
						<path d="M1803.1,490.4h-83.4v-43.1h83.4V490.4z M1721.7,488.4h79.4v-39.1h-79.4V488.4z"/>
					</g>
					<polygon class="st35" points="1725,451.7 1725,485.7 1725,485.9 1797.9,485.9 1797.9,451.8 1797.9,451.7 					"/>
				</g>
			</g>
			<g>
				<g>
					<g>
						<rect x="1628.3" y="507.6" class="st34" width="81.4" height="41.1"/>
						<path d="M1710.7,549.8h-83.4v-43.1h83.4V549.8z M1629.3,547.8h79.4v-39.1h-79.4V547.8z"/>
					</g>
					<polygon class="st35" points="1632.5,511.1 1632.5,545 1632.5,545.3 1705.5,545.3 1705.5,511.1 1705.5,511.1 					"/>
				</g>
				<g>
					<g>
						<rect x="1720.7" y="507.7" class="st34" width="81.4" height="41.1"/>
						<path d="M1803.1,549.8h-83.4v-43.1h83.4V549.8z M1721.7,547.8h79.4v-39.1h-79.4V547.8z"/>
					</g>
					<polygon class="st35" points="1725,511.1 1725,545 1725,545.3 1797.9,545.3 1797.9,511.1 1797.9,511.1 					"/>
				</g>
				<g>
					<g>
						<rect x="1628.3" y="563.3" class="st34" width="81.4" height="41.1"/>
						<path d="M1710.7,605.5h-83.4v-43.1h83.4V605.5z M1629.3,603.5h79.4v-39.1h-79.4V603.5z"/>
					</g>
					<polygon class="st35" points="1632.5,566.8 1632.5,600.8 1632.5,601 1705.5,601 1705.5,566.8 1705.5,566.8 					"/>
				</g>
				<g>
					<g>
						<rect x="1720.7" y="563.4" class="st34" width="81.4" height="41.1"/>
						<path d="M1803.1,605.5h-83.4v-43.1h83.4V605.5z M1721.7,603.5h79.4v-39.1h-79.4V603.5z"/>
					</g>
					<polygon class="st35" points="1725,566.8 1725,600.8 1725,601 1797.9,601 1797.9,566.8 1797.9,566.8 					"/>
				</g>
				<g>
					<g>
						<rect x="1628.3" y="619" class="st34" width="81.4" height="41.1"/>
						<path d="M1710.7,661.2h-83.4V618h83.4V661.2z M1629.3,659.2h79.4V620h-79.4V659.2z"/>
					</g>
					<polygon class="st35" points="1632.5,622.5 1632.5,656.5 1632.5,656.7 1705.5,656.7 1705.5,622.5 1705.5,622.5 					"/>
				</g>
				<g>
					<g>
						<rect x="1720.7" y="619.1" class="st34" width="81.4" height="41.1"/>
						<path d="M1803.1,661.2h-83.4V618h83.4V661.2z M1721.7,659.2h79.4V620h-79.4V659.2z"/>
					</g>
					<polygon class="st35" points="1725,622.5 1725,656.5 1725,656.7 1797.9,656.7 1797.9,622.5 1797.9,622.5 					"/>
				</g>
			</g>
			<polygon class="st34" points="1715.2,679.5 1669,679.5 1669,788.9 1715.2,788.9 1761.4,788.9 1761.4,679.5 			"/>
			<g>
				<rect x="1671.5" y="682.9" class="st38" width="42.6" height="102.5"/>
				<path d="M1715.2,786.4h-44.6V681.9h44.6V786.4z M1672.5,784.4h40.6V683.9h-40.6V784.4z"/>
			</g>
			<g>
				<rect x="1716.4" y="682.9" class="st38" width="42.5" height="102.5"/>
				<path d="M1759.9,786.4h-44.5V681.9h44.5V786.4z M1717.4,784.4h40.5V683.9h-40.5V784.4z"/>
			</g>
			<g>
				<rect x="1598.2" y="301.6" class="st32" width="234.1" height="24.8"/>
				<path d="M1833.2,327.4h-236.1v-26.8h236.1V327.4z M1599.2,325.4h232.1v-22.8h-232.1V325.4z"/>
			</g>
			<g>
				<path class="st31" d="M1710.4,743.5h-4.9c-0.7,0-1.2-0.5-1.2-1.2v-0.4c0-0.7,0.5-1.2,1.2-1.2h4.9c0.7,0,1.2,0.5,1.2,1.2v0.4
					C1711.6,742.9,1711.1,743.5,1710.4,743.5z"/>
				<path d="M1710.4,744.5h-4.9c-1.2,0-2.2-1-2.2-2.2v-0.4c0-1.2,1-2.2,2.2-2.2h4.9c1.2,0,2.2,1,2.2,2.2v0.4
					C1712.6,743.5,1711.6,744.5,1710.4,744.5z M1705.5,741.7c-0.1,0-0.2,0.1-0.2,0.2v0.4c0,0.1,0.1,0.2,0.2,0.2h4.9
					c0.1,0,0.2-0.1,0.2-0.2v-0.4c0-0.1-0.1-0.2-0.2-0.2H1705.5z"/>
			</g>
			<g>
				<path class="st31" d="M1724.8,743.5h-4.9c-0.7,0-1.2-0.5-1.2-1.2v-0.4c0-0.7,0.5-1.2,1.2-1.2h4.9c0.7,0,1.2,0.5,1.2,1.2v0.4
					C1726,742.9,1725.5,743.5,1724.8,743.5z"/>
				<path d="M1724.8,744.5h-4.9c-1.2,0-2.2-1-2.2-2.2v-0.4c0-1.2,1-2.2,2.2-2.2h4.9c1.2,0,2.2,1,2.2,2.2v0.4
					C1727,743.5,1726,744.5,1724.8,744.5z M1719.9,741.7c-0.1,0-0.2,0.1-0.2,0.2v0.4c0,0.1,0.1,0.2,0.2,0.2h4.9
					c0.1,0,0.2-0.1,0.2-0.2v-0.4c0-0.1-0.1-0.2-0.2-0.2H1719.9z"/>
			</g>
			<g>
				<rect x="1604.7" y="785.9" class="st32" width="222.7" height="8.3"/>
				<path d="M1828.4,795.2h-224.7v-10.3h224.7V795.2z M1605.7,793.2h220.7v-6.3h-220.7V793.2z"/>
			</g>
		</g>
	</g>
	<g class="st24">
		<g>
			<g>
				<rect x="1382.2" y="434.3" class="st39" width="140.4" height="353.5"/>
				<path d="M1523.7,788.8h-142.4V433.3h142.4V788.8z M1383.2,786.8h138.4V435.3h-138.4V786.8z"/>
			</g>
			<g>
				<rect x="1377.7" y="776.4" class="st40" width="149.3" height="11.4"/>
				<path d="M1528,788.8h-151.3v-13.4H1528V788.8z M1378.7,786.8H1526v-9.4h-147.3V786.8z"/>
			</g>
			<g>
				<rect x="1370.8" y="424.8" class="st40" width="163.3" height="6.3"/>
				<path d="M1535.1,432.1h-165.3v-8.3h165.3V432.1z M1371.8,430.1h161.3v-4.3h-161.3V430.1z"/>
			</g>
			<g>
				<rect x="1373.9" y="431.1" class="st41" width="156.5" height="2.9"/>
				<path d="M1531.4,435.1h-158.5v-4.9h158.5V435.1z M1374.9,433.1h154.5v-0.9h-154.5V433.1z"/>
			</g>
			<g>
				<rect x="1399.6" y="452.6" class="st40" width="37.2" height="1.7"/>
				<rect x="1399.6" y="484.2" class="st40" width="37.2" height="1.7"/>
			</g>
			<g>
				<rect x="1467.8" y="452.6" class="st40" width="37.2" height="1.7"/>
				<rect x="1467.8" y="484.2" class="st40" width="37.2" height="1.7"/>
			</g>
			<g>
				<rect x="1399.6" y="507.1" class="st40" width="37.2" height="1.7"/>
				<rect x="1399.6" y="538.7" class="st40" width="37.2" height="1.7"/>
			</g>
			<g>
				<rect x="1467.8" y="507.1" class="st40" width="37.2" height="1.7"/>
				<rect x="1467.8" y="538.7" class="st40" width="37.2" height="1.7"/>
			</g>
			<g>
				<rect x="1399.6" y="561.7" class="st40" width="37.2" height="1.7"/>
				<rect x="1399.6" y="593.3" class="st40" width="37.2" height="1.7"/>
			</g>
			<g>
				<rect x="1467.8" y="561.7" class="st40" width="37.2" height="1.7"/>
				<rect x="1467.8" y="593.3" class="st40" width="37.2" height="1.7"/>
			</g>
			<g>
				<rect x="1399.6" y="617" class="st40" width="37.2" height="1.7"/>
				<rect x="1399.6" y="648.6" class="st40" width="37.2" height="1.7"/>
			</g>
			<g>
				<rect x="1467.8" y="617" class="st40" width="37.2" height="1.7"/>
				<rect x="1467.8" y="648.6" class="st40" width="37.2" height="1.7"/>
			</g>
			<g>
				<rect x="1399.6" y="672.4" class="st40" width="37.2" height="1.7"/>
				<rect x="1399.6" y="704" class="st40" width="37.2" height="1.7"/>
			</g>
			<g>
				<g>
					<g>
						<polygon class="st42" points="1400.7,454.3 1400.7,484.2 1400.7,484.2 1435.8,484.2 1435.8,454.3 1435.3,454.3 						"/>
						<path d="M1436.3,484.7h-36.1l-0.1-0.5v-30.4h36.1L1436.3,484.7L1436.3,484.7z M1401.2,483.7h34.1v-28.9h-34.1V483.7z"/>
					</g>
					<g>
						<polygon class="st42" points="1503.5,454.3 1468.9,454.3 1468.9,484.2 1468.9,484.2 1504,484.2 1504,454.3 						"/>
						<path d="M1504.5,484.7h-36.1l-0.1-0.5v-30.4h36.1L1504.5,484.7L1504.5,484.7z M1469.4,483.7h34.1v-28.9h-34.1V483.7z"/>
					</g>
					<g>
						<polygon class="st42" points="1400.7,508.8 1400.7,538.7 1400.7,538.7 1435.8,538.7 1435.8,508.8 1435.3,508.8 						"/>
						<path d="M1436.3,539.2h-36.1l-0.1-0.5v-30.4h36.1L1436.3,539.2L1436.3,539.2z M1401.2,538.2h34.1v-28.9h-34.1V538.2z"/>
					</g>
					<g>
						<polygon class="st42" points="1468.9,508.8 1468.9,538.7 1468.9,538.7 1504,538.7 1504,508.8 1503.5,508.8 						"/>
						<path d="M1504.5,539.2h-36.1l-0.1-0.5v-30.4h36.1L1504.5,539.2L1504.5,539.2z M1469.4,538.2h34.1v-28.9h-34.1V538.2z"/>
					</g>
					<g>
						<polygon class="st42" points="1400.7,563.4 1400.7,593.3 1400.7,593.3 1435.8,593.3 1435.8,563.4 1435.3,563.4 						"/>
						<path d="M1436.3,593.8h-36.1l-0.1-0.5v-30.4h36.1L1436.3,593.8L1436.3,593.8z M1401.2,592.8h34.1v-28.9h-34.1V592.8z"/>
					</g>
					<g>
						<polygon class="st42" points="1468.9,563.4 1468.9,593.3 1468.9,593.3 1504,593.3 1504,563.4 1503.5,563.4 						"/>
						<path d="M1504.5,593.8h-36.1l-0.1-0.5v-30.4h36.1L1504.5,593.8L1504.5,593.8z M1469.4,592.8h34.1v-28.9h-34.1V592.8z"/>
					</g>
					<g>
						<polygon class="st42" points="1400.7,618.8 1400.7,648.6 1400.7,648.6 1435.8,648.6 1435.8,618.8 1435.3,618.8 						"/>
						<path d="M1436.3,649.1h-36.1l-0.1-0.5v-30.4h36.1L1436.3,649.1L1436.3,649.1z M1401.2,648.1h34.1v-28.9h-34.1V648.1z"/>
					</g>
					<g>
						<polygon class="st42" points="1468.9,618.8 1468.9,648.6 1468.9,648.6 1504,648.6 1504,618.8 1503.5,618.8 						"/>
						<path d="M1504.5,649.1h-36.1l-0.1-0.5v-30.4h36.1L1504.5,649.1L1504.5,649.1z M1469.4,648.1h34.1v-28.9h-34.1V648.1z"/>
					</g>
					<g>
						<polygon class="st42" points="1400.7,674.1 1400.7,704 1400.7,704 1435.8,704 1435.8,674.1 1435.3,674.1 						"/>
						<path d="M1436.3,704.5h-36.1l-0.1-0.5v-30.4h36.1L1436.3,704.5L1436.3,704.5z M1401.2,703.5h34.1v-28.9h-34.1V703.5z"/>
					</g>
					<g>
						<polygon class="st42" points="1468.9,674.1 1468.9,704 1468.9,704 1504,704 1504,674.1 1503.5,674.1 						"/>
						<path d="M1504.5,704.5h-36.1l-0.1-0.5v-30.4h36.1L1504.5,704.5L1504.5,704.5z M1469.4,703.5h34.1v-28.9h-34.1V703.5z"/>
					</g>
				</g>
				<rect x="1467.8" y="672.4" class="st40" width="37.2" height="1.7"/>
				<rect x="1467.8" y="704" class="st40" width="37.2" height="1.7"/>
			</g>
			<g>
				<rect x="1433.2" y="716" class="st43" width="37.9" height="55.2"/>
				<path d="M1472.1,772.3h-39.9V715h39.9V772.3z M1434.2,770.3h35.9V717h-35.9V770.3z"/>
			</g>
			<g>
				<rect x="1428.6" y="771.3" class="st44" width="47.1" height="6.3"/>
				<path d="M1476.7,778.5h-49.1v-8.3h49.1V778.5z M1429.6,776.5h45.1v-4.3h-45.1V776.5z"/>
			</g>
			<g>
				<rect x="1424.9" y="777.5" class="st44" width="54.5" height="6.3"/>
				<path d="M1480.4,784.8h-56.5v-8.3h56.5V784.8z M1425.9,782.8h52.5v-4.3h-52.5V782.8z"/>
			</g>
			<g>
				<rect x="1420.6" y="783.8" class="st44" width="63.2" height="6.3"/>
				<path d="M1484.7,791h-65.2v-8.3h65.2V791z M1421.6,789h61.2v-4.3h-61.2V789z"/>
			</g>
			<g>
				<rect x="1427.6" y="770.1" class="st45" width="49.2" height="1.1"/>
				<rect x="1426.6" y="769.1" width="51.2" height="3.1"/>
			</g>
			<g>
				<rect x="1423.9" y="776.4" class="st45" width="56.4" height="1.1"/>
				<rect x="1422.9" y="775.4" width="58.4" height="3.1"/>
			</g>
			<g>
				<rect x="1419.6" y="782.6" class="st45" width="65.1" height="1.1"/>
				<rect x="1418.6" y="781.6" width="67.1" height="3.1"/>
			</g>
		</g>
	</g>
	<g class="st24">
		<g>
			<rect x="2484" y="297.6" class="st46" width="281.6" height="11.5"/>
			<path d="M2766.6,310.1H2483v-13.5h283.6V310.1z M2485,308.1h279.6v-9.5H2485V308.1z"/>
		</g>
		<g>
			<rect x="2526.6" y="280.6" class="st47" width="196.4" height="17"/>
			<path d="M2724,298.6h-198.4v-19H2724V298.6z M2527.6,296.6H2722v-15h-194.4V296.6z"/>
		</g>
		<g>
			<rect x="2491.3" y="309.1" class="st48" width="266.9" height="473.8"/>
			<path d="M2759.2,783.8h-268.9V308.1h268.9V783.8z M2492.3,781.8h264.9V310.1h-264.9V781.8z"/>
		</g>
		<g>
			<rect x="2491.3" y="699.8" class="st46" width="266.9" height="83"/>
			<path d="M2759.2,783.8h-268.9v-85h268.9V783.8z M2492.3,781.8h264.9v-81h-264.9V781.8z"/>
		</g>
		<g>
			<rect x="2485.3" y="782.8" class="st47" width="278.8" height="6.5"/>
			<path d="M2765.2,790.4h-280.8v-8.5h280.8V790.4z M2486.3,788.4h276.8v-4.5h-276.8V788.4z"/>
		</g>
		<g>
			<rect x="2580.6" y="701.2" class="st49" width="43.1" height="80.4"/>
			<path d="M2624.7,782.5h-45.1v-82.4h45.1V782.5z M2581.6,780.5h41.1v-78.4h-41.1V780.5z"/>
		</g>
		<g>
			<rect x="2508.4" y="710.5" class="st49" width="38" height="70.9"/>
			<path d="M2547.3,782.5h-40v-72.9h40V782.5z M2509.3,780.5h36v-68.9h-36V780.5z"/>
		</g>
		<g>
			<rect x="2702.9" y="710.6" class="st49" width="38" height="70.9"/>
			<path d="M2741.9,782.5h-40v-72.9h40V782.5z M2703.9,780.5h36v-68.9h-36V780.5z"/>
		</g>
		<g>
			<rect x="2626" y="701.2" class="st49" width="42.9" height="80.4"/>
			<path d="M2669.9,782.5H2625v-82.4h44.9V782.5z M2627,780.5h40.9v-78.4H2627V780.5z"/>
		</g>
		<g>
			<path class="st31" d="M2620.1,748.6h-5.3c-0.6,0-1.1-0.5-1.1-1.1l0,0c0-0.6,0.5-1.1,1.1-1.1h5.3c0.6,0,1.1,0.5,1.1,1.1l0,0
				C2621.1,748.1,2620.6,748.6,2620.1,748.6z"/>
			<path d="M2620.1,749.6h-5.3c-1.1,0-2.1-0.9-2.1-2.1c0-1.2,0.9-2.1,2.1-2.1h5.3c1.1,0,2.1,0.9,2.1,2.1
				C2622.1,748.7,2621.2,749.6,2620.1,749.6z M2614.8,747.4l-0.1,0.1l5.3,0.1c0,0,0.1,0,0.1-0.1l-0.1-0.1H2614.8z"/>
		</g>
		<g>
			<path class="st31" d="M2634.6,748.6h-5.3c-0.6,0-1.1-0.5-1.1-1.1l0,0c0-0.6,0.5-1.1,1.1-1.1h5.3c0.6,0,1.1,0.5,1.1,1.1l0,0
				C2635.7,748.1,2635.2,748.6,2634.6,748.6z"/>
			<path d="M2634.6,749.6h-5.3c-1.1,0-2.1-0.9-2.1-2.1c0-1.2,0.9-2.1,2.1-2.1h5.3c1.1,0,2.1,0.9,2.1,2.1
				C2636.7,748.7,2635.8,749.6,2634.6,749.6z M2629.4,747.4l-0.1,0.1l5.3,0.1c0,0,0.1,0,0.1-0.1l-0.1-0.1H2629.4z"/>
		</g>
		<g>
			<path class="st31" d="M2540.7,750.2c0,1.3-1,2.3-2.2,2.3s-2.2-1-2.2-2.3s1-2.3,2.2-2.3S2540.7,748.9,2540.7,750.2z"/>
			<path d="M2538.5,753.5c-1.8,0-3.2-1.5-3.2-3.3s1.5-3.3,3.2-3.3s3.2,1.5,3.2,3.3S2540.2,753.5,2538.5,753.5z M2538.5,748.8
				c-0.7,0-1.2,0.6-1.2,1.3s0.6,1.3,1.2,1.3s1.2-0.6,1.2-1.3C2539.7,749.4,2539.1,748.8,2538.5,748.8z"/>
		</g>
		<g>
			<rect x="2573" y="699.8" class="st47" width="103.5" height="6.4"/>
			<path d="M2677.5,707.2H2572v-8.4h105.5V707.2z M2574,705.2h101.5v-4.4H2574V705.2z"/>
		</g>
		<g>
			<g>
				<path class="st46" d="M2549.5,415H2509v-68.7c3.4-13,37.1-12.3,40.5,0.7V415z"/>
				<path d="M2550.5,416H2508v-69.9c2-7.5,12.3-10.2,20.5-10.2c9.5,0,20,3.4,21.9,10.8v0.3v69H2550.5z M2510,414h38.5v-66.9
					c-1.8-6.3-11.6-9.2-20-9.2c-8,0-16.9,2.6-18.5,8.5V414z"/>
			</g>
			<path class="st35" d="M2512.6,411.5v-64.7c1.3-3.8,7.8-6.4,15.9-6.4c8.6,0,15.9,3,17.4,7.1v64H2512.6z"/>
			<rect x="2528.1" y="340.4" class="st46" width="2.2" height="73.5"/>
			<rect x="2512.6" y="377.1" class="st46" width="34.9" height="2.1"/>
		</g>
		<g>
			<g>
				<path class="st46" d="M2615.5,415H2575v-68.7c3.4-13,37.1-12.3,40.5,0.7V415z"/>
				<path d="M2616.5,416H2574v-69.9c2-7.5,12.3-10.2,20.5-10.2c9.5,0,20,3.4,21.9,10.8v0.3v69H2616.5z M2576,414h38.5v-66.9
					c-1.8-6.3-11.6-9.2-20-9.2c-8,0-16.9,2.6-18.5,8.5V414z"/>
			</g>
			<path class="st35" d="M2578.6,411.5v-64.7c1.3-3.8,7.8-6.4,15.9-6.4c8.6,0,15.9,3,17.4,7.1v64H2578.6z"/>
			<rect x="2594.2" y="340.4" class="st46" width="2.2" height="73.5"/>
			<rect x="2578.6" y="377.1" class="st46" width="34.9" height="2.1"/>
		</g>
		<g>
			<g>
				<path class="st46" d="M2681.6,415h-40.5v-68.7c3.4-13,37.1-12.3,40.5,0.7V415z"/>
				<path d="M2682.6,416h-42.5v-69.9c2-7.5,12.3-10.2,20.5-10.2c9.5,0,20,3.4,21.9,10.8v0.3v69H2682.6z M2642.1,414h38.5v-66.9
					c-1.8-6.3-11.6-9.2-20-9.2c-8,0-16.9,2.6-18.5,8.5V414z"/>
			</g>
			<path class="st35" d="M2644.7,411.5v-64.7c1.3-3.8,7.8-6.4,15.9-6.4c8.6,0,15.9,3,17.4,7.1v64H2644.7z"/>
			<rect x="2660.2" y="340.4" class="st46" width="2.2" height="73.5"/>
			<rect x="2644.7" y="377.1" class="st46" width="34.9" height="2.1"/>
		</g>
		<g>
			<g>
				<path class="st46" d="M2747.7,415h-40.5v-68.7c3.4-13,37.1-12.3,40.5,0.7V415z"/>
				<path d="M2748.7,416h-42.5v-69.9c2-7.5,12.3-10.2,20.5-10.2c9.5,0,20,3.4,21.9,10.8v0.3v69H2748.7z M2708.2,414h38.5v-66.9
					c-1.8-6.3-11.6-9.2-20-9.2c-8,0-16.9,2.6-18.5,8.5V414z"/>
			</g>
			<path class="st35" d="M2710.8,411.5v-64.7c1.3-3.8,7.8-6.4,15.9-6.4c8.6,0,15.9,3,17.4,7.1v64H2710.8z"/>
			<rect x="2726.3" y="340.4" class="st46" width="2.2" height="73.5"/>
			<rect x="2710.8" y="377.1" class="st46" width="34.9" height="2.1"/>
		</g>
		<g>
			<g>
				<path class="st46" d="M2549.5,504.2H2509v-68.7c3.4-13,37.1-12.3,40.5,0.7V504.2z"/>
				<path d="M2550.5,505.2H2508v-69.9c2-7.5,12.3-10.2,20.5-10.2c9.5,0,20,3.4,21.9,10.8v0.3v69H2550.5z M2510,503.2h38.5v-66.9
					c-1.8-6.3-11.6-9.2-20-9.2c-8,0-16.9,2.6-18.5,8.5V503.2z"/>
			</g>
			<path class="st35" d="M2512.6,500.7V436c1.3-3.8,7.8-6.4,15.9-6.4c8.6,0,15.9,3,17.4,7.1v64H2512.6z"/>
			<rect x="2528.1" y="429.6" class="st46" width="2.2" height="73.5"/>
			<rect x="2512.6" y="466.4" class="st46" width="34.9" height="2.1"/>
		</g>
		<g>
			<g>
				<path class="st46" d="M2615.5,504.2H2575v-68.7c3.4-13,37.1-12.3,40.5,0.7V504.2z"/>
				<path d="M2616.5,505.2H2574v-69.9c2-7.5,12.3-10.2,20.5-10.2c9.5,0,20,3.4,21.9,10.8v0.3v69H2616.5z M2576,503.2h38.5v-66.9
					c-1.8-6.3-11.6-9.2-20-9.2c-8,0-16.9,2.6-18.5,8.5V503.2z"/>
			</g>
			<path class="st35" d="M2578.6,500.7V436c1.3-3.8,7.8-6.4,15.9-6.4c8.6,0,15.9,3,17.4,7.1v64H2578.6z"/>
			<rect x="2594.2" y="429.6" class="st46" width="2.2" height="73.5"/>
			<rect x="2578.6" y="466.4" class="st46" width="34.9" height="2.1"/>
		</g>
		<g>
			<g>
				<path class="st46" d="M2681.6,504.2h-40.5v-68.7c3.4-13,37.1-12.3,40.5,0.7V504.2z"/>
				<path d="M2682.6,505.2h-42.5v-69.9c2-7.5,12.3-10.2,20.5-10.2c9.5,0,20,3.4,21.9,10.8v0.3v69H2682.6z M2642.1,503.2h38.5v-66.9
					c-1.8-6.3-11.6-9.2-20-9.2c-8,0-16.9,2.6-18.5,8.5V503.2z"/>
			</g>
			<path class="st35" d="M2644.7,500.7V436c1.3-3.8,7.8-6.4,15.9-6.4c8.6,0,15.9,3,17.4,7.1v64H2644.7z"/>
			<rect x="2660.2" y="429.6" class="st46" width="2.2" height="73.5"/>
			<rect x="2644.7" y="466.4" class="st46" width="34.9" height="2.1"/>
		</g>
		<g>
			<g>
				<path class="st46" d="M2747.7,504.2h-40.5v-68.7c3.4-13,37.1-12.3,40.5,0.7V504.2z"/>
				<path d="M2748.7,505.2h-42.5v-69.9c2-7.5,12.3-10.2,20.5-10.2c9.5,0,20,3.4,21.9,10.8v0.3v69H2748.7z M2708.2,503.2h38.5v-66.9
					c-1.8-6.3-11.6-9.2-20-9.2c-8,0-16.9,2.6-18.5,8.5V503.2z"/>
			</g>
			<path class="st35" d="M2710.8,500.7V436c1.3-3.8,7.8-6.4,15.9-6.4c8.6,0,15.9,3,17.4,7.1v64H2710.8z"/>
			<rect x="2726.3" y="429.6" class="st46" width="2.2" height="73.5"/>
			<rect x="2710.8" y="466.4" class="st46" width="34.9" height="2.1"/>
		</g>
		<g>
			<g>
				<path class="st46" d="M2549.5,592.2H2509v-68.7c3.4-13,37.1-12.3,40.5,0.7V592.2z"/>
				<path d="M2550.5,593.2H2508v-70c2-7.5,12.3-10.2,20.5-10.2c9.5,0,20,3.4,21.9,10.8v0.3v69.1H2550.5z M2510,591.2h38.5v-66.9
					c-1.8-6.3-11.6-9.2-20-9.2c-8,0-16.9,2.6-18.5,8.5V591.2z"/>
			</g>
			<path class="st35" d="M2512.6,588.7V524c1.3-3.8,7.8-6.4,15.9-6.4c8.6,0,15.9,3,17.4,7.1v64L2512.6,588.7L2512.6,588.7z"/>
			<rect x="2528.1" y="517.6" class="st46" width="2.2" height="73.5"/>
			<rect x="2512.6" y="554.3" class="st46" width="34.9" height="2.1"/>
		</g>
		<g>
			<g>
				<path class="st46" d="M2615.5,592.2H2575v-68.7c3.4-13,37.1-12.3,40.5,0.7V592.2z"/>
				<path d="M2616.5,593.2H2574v-70c2-7.5,12.3-10.2,20.5-10.2c9.5,0,20,3.4,21.9,10.8v0.3v69.1H2616.5z M2576,591.2h38.5v-66.9
					c-1.8-6.3-11.6-9.2-20-9.2c-8,0-16.9,2.6-18.5,8.5V591.2z"/>
			</g>
			<path class="st35" d="M2578.6,588.7V524c1.3-3.8,7.8-6.4,15.9-6.4c8.6,0,15.9,3,17.4,7.1v64L2578.6,588.7L2578.6,588.7z"/>
			<rect x="2594.2" y="517.6" class="st46" width="2.2" height="73.5"/>
			<rect x="2578.6" y="554.3" class="st46" width="34.9" height="2.1"/>
		</g>
		<g>
			<g>
				<path class="st46" d="M2681.6,592.2h-40.5v-68.7c3.4-13,37.1-12.3,40.5,0.7V592.2z"/>
				<path d="M2682.6,593.2h-42.5v-70c2-7.5,12.3-10.2,20.5-10.2c9.5,0,20,3.3,21.9,10.8v0.3v69.1H2682.6z M2642.1,591.2h38.5v-66.9
					c-1.8-6.3-11.6-9.2-20-9.2c-8,0-16.9,2.6-18.5,8.5V591.2z"/>
			</g>
			<path class="st35" d="M2644.7,588.7V524c1.3-3.8,7.8-6.4,15.9-6.4c8.6,0,15.9,3,17.4,7.1v64L2644.7,588.7L2644.7,588.7z"/>
			<rect x="2660.2" y="517.6" class="st46" width="2.2" height="73.5"/>
			<rect x="2644.7" y="554.3" class="st46" width="34.9" height="2.1"/>
		</g>
		<g>
			<g>
				<path class="st46" d="M2747.7,592.2h-40.5v-68.7c3.4-13,37.1-12.3,40.5,0.7V592.2z"/>
				<path d="M2748.7,593.2h-42.5v-70c2-7.5,12.3-10.2,20.5-10.2c9.5,0,20,3.4,21.9,10.8v0.3v69.1H2748.7z M2708.2,591.2h38.5v-66.9
					c-1.8-6.3-11.6-9.2-20-9.2c-8,0-16.9,2.6-18.5,8.5V591.2z"/>
			</g>
			<path class="st35" d="M2710.8,588.7V524c1.3-3.8,7.8-6.4,15.9-6.4c8.6,0,15.9,3,17.4,7.1v64L2710.8,588.7L2710.8,588.7z"/>
			<rect x="2726.3" y="517.6" class="st46" width="2.2" height="73.5"/>
			<rect x="2710.8" y="554.3" class="st46" width="34.9" height="2.1"/>
		</g>
		<g>
			<g>
				<path class="st46" d="M2548.4,684H2510c-0.6,0-1.1-0.5-1.1-1.1v-67.5c0-0.1,0-0.2,0-0.3c3.6-12.8,36.8-12.1,40.4,0.7
					c0,0.1,0,0.2,0,0.3V683C2549.5,683.5,2549,684,2548.4,684z"/>
				<path d="M2548.4,685H2510c-1.1,0-2.1-0.9-2.1-2.1v-67.5c0-0.2,0-0.4,0.1-0.6c2.1-7.4,12.3-10,20.4-10l0,0
					c9.4,0,19.8,3.3,21.9,10.7c0.1,0.2,0.1,0.4,0.1,0.6V683C2550.5,684.1,2549.5,685,2548.4,685z M2528.5,606.9
					c-8,0-16.8,2.6-18.5,8.5v67.5l38.4,0.1c0,0,0.1,0,0.1-0.1v-66.8C2546.7,609.8,2536.8,606.9,2528.5,606.9L2528.5,606.9z"/>
			</g>
			<path class="st35" d="M2512.6,679.5V616c0-0.1,0-0.3,0.1-0.4c1.5-3.7,7.9-6.2,15.8-6.2c8.5,0,15.7,2.9,17.3,6.9
				c0.1,0.1,0.1,0.3,0.1,0.4v62.7c0,0.6-0.5,1.1-1.1,1.1h-31.1C2513.1,680.5,2512.6,680,2512.6,679.5z"/>
			<path class="st46" d="M2529.3,682.9L2529.3,682.9c-0.7,0-1.2-0.5-1.2-1.1v-71.4c0-0.6,0.5-1.1,1.1-1.1h0.1c0.6,0,1.1,0.5,1.1,1.1
				v71.4C2530.3,682.4,2529.9,682.9,2529.3,682.9z"/>
			<path class="st46" d="M2546.4,648.3h-32.7c-0.6,0-1.1-0.5-1.1-1.1l0,0c0-0.6,0.5-1.1,1.1-1.1h32.7c0.6,0,1.1,0.5,1.1,1.1l0,0
				C2547.5,647.8,2547,648.3,2546.4,648.3z"/>
		</g>
		<g>
			<g>
				<path class="st46" d="M2614.5,684h-38.4c-0.6,0-1.1-0.5-1.1-1.1v-67.5c0-0.1,0-0.2,0-0.3c3.6-12.8,36.8-12.1,40.4,0.7
					c0,0.1,0,0.2,0,0.3V683C2615.5,683.5,2615.1,684,2614.5,684z"/>
				<path d="M2614.5,685h-38.4c-1.1,0-2.1-0.9-2.1-2.1v-67.5c0-0.2,0-0.4,0.1-0.6c2.1-7.4,12.3-10,20.4-10l0,0
					c9.4,0,19.8,3.3,21.9,10.7c0.1,0.2,0.1,0.4,0.1,0.6V683C2616.5,684.1,2615.6,685,2614.5,685z M2594.5,606.9
					c-8,0-16.8,2.6-18.5,8.5v67.5l38.4,0.1c0,0,0.1,0,0.1-0.1v-66.8C2612.7,609.8,2602.9,606.9,2594.5,606.9
					C2594.6,606.9,2594.6,606.9,2594.5,606.9z"/>
			</g>
			<path class="st35" d="M2578.6,679.5V616c0-0.1,0-0.3,0.1-0.4c1.5-3.7,7.9-6.2,15.8-6.2c8.5,0,15.7,2.9,17.3,6.9
				c0.1,0.1,0.1,0.3,0.1,0.4v62.7c0,0.6-0.5,1.1-1.1,1.1h-31.1C2579.1,680.5,2578.6,680,2578.6,679.5z"/>
			<path class="st46" d="M2595.3,682.9L2595.3,682.9c-0.7,0-1.2-0.5-1.2-1.1v-71.4c0-0.6,0.5-1.1,1.1-1.1h0.1c0.6,0,1.1,0.5,1.1,1.1
				v71.4C2596.4,682.4,2595.9,682.9,2595.3,682.9z"/>
			<path class="st46" d="M2612.5,648.3h-32.7c-0.6,0-1.1-0.5-1.1-1.1l0,0c0-0.6,0.5-1.1,1.1-1.1h32.7c0.6,0,1.1,0.5,1.1,1.1l0,0
				C2613.5,647.8,2613,648.3,2612.5,648.3z"/>
		</g>
		<g>
			<g>
				<path class="st46" d="M2680.5,684h-38.4c-0.6,0-1.1-0.5-1.1-1.1v-67.5c0-0.1,0-0.2,0-0.3c3.6-12.8,36.8-12.1,40.4,0.7
					c0,0.1,0,0.2,0,0.3V683C2681.6,683.5,2681.1,684,2680.5,684z"/>
				<path d="M2680.5,685h-38.4c-1.1,0-2.1-0.9-2.1-2.1v-67.5c0-0.2,0-0.4,0.1-0.6c2.1-7.4,12.3-10,20.4-10l0,0
					c9.4,0,19.8,3.3,21.9,10.7c0.1,0.2,0.1,0.4,0.1,0.6V683C2682.6,684.1,2681.7,685,2680.5,685z M2660.6,606.9
					c-8,0-16.8,2.6-18.5,8.5v67.5l38.4,0.1c0,0,0.1,0,0.1-0.1v-66.8C2678.8,609.8,2669,606.9,2660.6,606.9L2660.6,606.9z"/>
			</g>
			<path class="st35" d="M2644.7,679.5V616c0-0.1,0-0.3,0.1-0.4c1.5-3.7,7.9-6.2,15.8-6.2c8.5,0,15.7,2.9,17.3,6.9
				c0.1,0.1,0.1,0.3,0.1,0.4v62.7c0,0.6-0.5,1.1-1.1,1.1h-31.1C2645.2,680.5,2644.7,680,2644.7,679.5z"/>
			<path class="st46" d="M2661.4,682.9L2661.4,682.9c-0.7,0-1.2-0.5-1.2-1.1v-71.4c0-0.6,0.5-1.1,1.1-1.1h0.1c0.6,0,1.1,0.5,1.1,1.1
				v71.4C2662.5,682.4,2662,682.9,2661.4,682.9z"/>
			<path class="st46" d="M2678.5,648.3h-32.7c-0.6,0-1.1-0.5-1.1-1.1l0,0c0-0.6,0.5-1.1,1.1-1.1h32.7c0.6,0,1.1,0.5,1.1,1.1l0,0
				C2679.6,647.8,2679.1,648.3,2678.5,648.3z"/>
		</g>
		<g>
			<g>
				<path class="st46" d="M2746.6,684h-38.4c-0.6,0-1.1-0.5-1.1-1.1v-67.5c0-0.1,0-0.2,0-0.3c3.6-12.8,36.8-12.1,40.4,0.7
					c0,0.1,0,0.2,0,0.3V683C2747.7,683.5,2747.2,684,2746.6,684z"/>
				<path d="M2746.6,685h-38.4c-1.1,0-2.1-0.9-2.1-2.1v-67.5c0-0.2,0-0.4,0.1-0.6c2.1-7.4,12.3-10,20.4-10l0,0
					c9.4,0,19.8,3.3,21.9,10.7c0.1,0.2,0.1,0.4,0.1,0.6V683C2748.7,684.1,2747.7,685,2746.6,685z M2726.7,606.9
					c-8,0-16.8,2.6-18.5,8.5v67.5l38.4,0.1c0,0,0.1,0,0.1-0.1v-66.8C2744.9,609.8,2735,606.9,2726.7,606.9L2726.7,606.9z"/>
			</g>
			<path class="st35" d="M2710.8,679.5V616c0-0.1,0-0.3,0.1-0.4c1.5-3.7,7.9-6.2,15.8-6.2c8.5,0,15.7,2.9,17.3,6.9
				c0.1,0.1,0.1,0.3,0.1,0.4v62.7c0,0.6-0.5,1.1-1.1,1.1h-31.1C2711.3,680.5,2710.8,680,2710.8,679.5z"/>
			<path class="st46" d="M2727.5,682.9L2727.5,682.9c-0.7,0-1.2-0.5-1.2-1.1v-71.4c0-0.6,0.5-1.1,1.1-1.1h0.1c0.6,0,1.1,0.5,1.1,1.1
				v71.4C2728.5,682.4,2728.1,682.9,2727.5,682.9z"/>
			<path class="st46" d="M2744.6,648.3h-32.7c-0.6,0-1.1-0.5-1.1-1.1l0,0c0-0.6,0.5-1.1,1.1-1.1h32.7c0.6,0,1.1,0.5,1.1,1.1l0,0
				C2745.7,647.8,2745.2,648.3,2744.6,648.3z"/>
		</g>
	</g>
	<g class="st24">
		<g>
			<g>
				<rect x="2094.7" y="574.6" class="st50" width="326" height="214.5"/>
				<path d="M2421.8,790.1h-328V573.6h328V790.1z M2095.7,788.1h324V575.6h-324V788.1z"/>
			</g>
			<g>
				<g>
					<rect x="2260.5" y="649.6" class="st32" width="147.5" height="99.3"/>
					<path d="M2409.1,750h-149.5V648.6h149.5V750z M2261.5,748H2407v-97.3h-145.5V748z"/>
				</g>
				<rect x="2265" y="654" class="st35" width="138.7" height="90.5"/>
				<g>
					<rect x="2254.9" y="749" class="st32" width="158.8" height="6.4"/>
					<path d="M2414.7,756.3h-160.8V748h160.8V756.3z M2255.9,754.3h156.8V750h-156.8V754.3z"/>
				</g>
			</g>
			<g>
				<rect x="2125.4" y="643.4" class="st32" width="82" height="136"/>
				<path d="M2208.4,780.4h-84v-138h84V780.4z M2126.4,778.4h80v-134h-80V778.4z"/>
			</g>
			<g>
				<path class="st31" d="M2201.7,724.3h-10.1c-0.7,0-1.3-0.6-1.3-1.3v-1.4c0-0.7,0.6-1.3,1.3-1.3h10.1c0.7,0,1.3,0.6,1.3,1.3v1.4
					C2203,723.7,2202.4,724.3,2201.7,724.3z"/>
				<path d="M2201.7,725.3h-10.1c-1.3,0-2.3-1-2.3-2.3v-1.4c0-1.3,1-2.3,2.3-2.3h10.1c1.3,0,2.3,1,2.3,2.3v1.4
					C2204,724.3,2203,725.3,2201.7,725.3z M2191.6,721.2c-0.2,0-0.3,0.1-0.3,0.3v1.4c0,0.2,0.1,0.3,0.3,0.3h10.1
					c0.2,0,0.3-0.1,0.3-0.3v-1.4c0-0.2-0.1-0.3-0.3-0.3H2191.6z"/>
			</g>
			<g>
				<g>
					<polygon class="st31" points="2446.3,646.3 2065.1,646.3 2114.1,574.6 2400,574.6 					"/>
					<path d="M2448.2,647.3h-384.9l50.3-73.7h287l0.3,0.5L2448.2,647.3z M2067,645.3h377.5l-45-69.7h-284.8L2067,645.3z"/>
				</g>
				<g>
					<g>
						<path class="st51" d="M2425.2,646.3v10.8c0,3.2,2.3,6.3,6.3,7.5c7.6,2.3,14.9-1.9,14.9-7.3v-11H2425.2z"/>
						<path d="M2435.7,666.2c-1.5,0-3.1-0.2-4.6-0.7c-4.2-1.3-7-4.7-7-8.5v-11.8h23.2v12c0,2.5-1.3,4.8-3.6,6.5
							C2441.6,665.4,2438.7,666.2,2435.7,666.2z M2426.2,647.3v9.8c0,2.9,2.2,5.5,5.6,6.6c3.8,1.2,8,0.6,10.8-1.5
							c1.8-1.3,2.8-3,2.8-4.9v-10L2426.2,647.3L2426.2,647.3z"/>
					</g>
					<g>
						<path class="st31" d="M2404,646.3v10.8c0,3.2,2.3,6.3,6.3,7.5c7.6,2.3,14.9-1.9,14.9-7.3v-11H2404z"/>
						<path d="M2414.6,666.2c-1.5,0-3.1-0.2-4.6-0.7c-4.2-1.3-7-4.7-7-8.5v-11.8h23.2v12c0,2.5-1.3,4.8-3.6,6.5
							C2420.4,665.4,2417.5,666.2,2414.6,666.2z M2405,647.3v9.8c0,2.9,2.2,5.5,5.6,6.6c3.8,1.2,8,0.6,10.8-1.5
							c1.8-1.3,2.8-3,2.8-4.9v-10L2405,647.3L2405,647.3z"/>
					</g>
					<g>
						<path class="st51" d="M2382.8,646.3v10.8c0,3.2,2.3,6.3,6.3,7.5c7.6,2.3,14.9-1.9,14.9-7.3v-11H2382.8z"/>
						<path d="M2393.4,666.2c-1.5,0-3.1-0.2-4.6-0.7c-4.2-1.3-7-4.7-7-8.5v-11.8h23.2v12c0,2.5-1.3,4.8-3.6,6.5
							C2399.2,665.4,2396.3,666.2,2393.4,666.2z M2383.8,647.3v9.8c0,2.9,2.2,5.5,5.6,6.6c3.8,1.2,8,0.6,10.8-1.5
							c1.8-1.3,2.8-3,2.8-4.9v-10L2383.8,647.3L2383.8,647.3z"/>
					</g>
					<g>
						<path class="st31" d="M2361.6,646.3v10.8c0,3.2,2.3,6.3,6.3,7.5c7.6,2.3,14.9-1.9,14.9-7.3v-11H2361.6z"/>
						<path d="M2372.2,666.2c-1.5,0-3.1-0.2-4.6-0.7c-4.2-1.3-7-4.7-7-8.5v-11.8h23.2v12c0,2.5-1.3,4.8-3.6,6.5
							C2378,665.4,2375.2,666.2,2372.2,666.2z M2362.6,647.3v9.8c0,2.9,2.2,5.5,5.6,6.6c3.8,1.2,8,0.6,10.8-1.5
							c1.8-1.3,2.8-3,2.8-4.9v-10L2362.6,647.3L2362.6,647.3z"/>
					</g>
					<g>
						<path class="st51" d="M2340.4,646.3v10.8c0,3.2,2.3,6.3,6.3,7.5c7.6,2.3,14.9-1.9,14.9-7.3v-11H2340.4z"/>
						<path d="M2351,666.2c-1.5,0-3.1-0.2-4.6-0.7c-4.2-1.3-7-4.7-7-8.5v-11.8h23.2v12c0,2.5-1.3,4.8-3.6,6.5
							C2356.8,665.4,2354,666.2,2351,666.2z M2341.4,647.3v9.8c0,2.9,2.2,5.5,5.6,6.6c3.8,1.2,8,0.6,10.8-1.5c1.8-1.3,2.8-3,2.8-4.9
							v-10L2341.4,647.3L2341.4,647.3z"/>
					</g>
					<g>
						<path class="st31" d="M2319.3,646.3v10.8c0,3.2,2.3,6.3,6.3,7.5c7.6,2.3,14.9-1.9,14.9-7.3v-11H2319.3z"/>
						<path d="M2329.8,666.2c-1.5,0-3.1-0.2-4.6-0.7c-4.2-1.3-7-4.7-7-8.5v-11.8h23.2v12c0,2.5-1.3,4.8-3.6,6.5
							C2335.7,665.4,2332.8,666.2,2329.8,666.2z M2320.3,647.3v9.8c0,2.9,2.2,5.5,5.6,6.6c3.8,1.2,8,0.6,10.8-1.5
							c1.8-1.3,2.8-3,2.8-4.9v-10L2320.3,647.3L2320.3,647.3z"/>
					</g>
					<g>
						<path class="st52" d="M2403.4,646.3v10.8c0,3.2,2.3,6.3,6.3,7.5c7.6,2.3,14.9-1.9,14.9-7.3v-11H2403.4z"/>
						<path d="M2414,666.2c-1.5,0-3.1-0.2-4.6-0.7c-4.2-1.3-7-4.7-7-8.5v-11.8h23.2v12c0,2.5-1.3,4.8-3.6,6.5
							C2419.8,665.4,2417,666.2,2414,666.2z M2404.4,647.3v9.8c0,2.9,2.2,5.5,5.6,6.6c3.8,1.2,8,0.6,10.8-1.5c1.8-1.3,2.8-3,2.8-4.9
							v-10L2404.4,647.3L2404.4,647.3z"/>
					</g>
					<g>
						<path class="st52" d="M2361.1,646.3v10.8c0,3.2,2.3,6.3,6.3,7.5c7.6,2.3,14.9-1.9,14.9-7.3v-11H2361.1z"/>
						<path d="M2371.6,666.2c-1.5,0-3.1-0.2-4.6-0.7c-4.2-1.3-7-4.7-7-8.5v-11.8h23.2v12c0,2.5-1.3,4.8-3.6,6.5
							C2377.5,665.4,2374.6,666.2,2371.6,666.2z M2362.1,647.3v9.8c0,2.9,2.2,5.5,5.6,6.6c3.8,1.2,8,0.6,10.8-1.5
							c1.8-1.3,2.8-3,2.8-4.9v-10L2362.1,647.3L2362.1,647.3z"/>
					</g>
					<g>
						<path class="st52" d="M2318.7,646.3v10.8c0,3.2,2.3,6.3,6.3,7.5c7.6,2.3,14.9-1.9,14.9-7.3v-11H2318.7z"/>
						<path d="M2329.3,666.2c-1.5,0-3.1-0.2-4.6-0.7c-4.2-1.3-7-4.7-7-8.5v-11.8h23.2v12c0,2.5-1.3,4.8-3.6,6.5
							C2335.1,665.4,2332.3,666.2,2329.3,666.2z M2319.7,647.3v9.8c0,2.9,2.2,5.5,5.6,6.6c3.8,1.2,8,0.6,10.8-1.5
							c1.8-1.3,2.8-3,2.8-4.9v-10L2319.7,647.3L2319.7,647.3z"/>
					</g>
					<g>
						<path class="st51" d="M2298.1,646.3v10.8c0,3.2,2.3,6.3,6.3,7.5c7.6,2.3,14.9-1.9,14.9-7.3v-11H2298.1z"/>
						<path d="M2308.7,666.2c-1.5,0-3.1-0.2-4.6-0.7c-4.2-1.3-7-4.7-7-8.5v-11.8h23.2v12c0,2.5-1.3,4.8-3.6,6.5
							C2314.5,665.4,2311.6,666.2,2308.7,666.2z M2299.1,647.3v9.8c0,2.9,2.2,5.5,5.6,6.6c3.8,1.2,8,0.6,10.8-1.5
							c1.8-1.3,2.8-3,2.8-4.9v-10L2299.1,647.3L2299.1,647.3z"/>
					</g>
					<g>
						<path class="st52" d="M2276.9,646.3v10.8c0,3.2,2.3,6.3,6.3,7.5c7.6,2.3,14.9-1.9,14.9-7.3v-11H2276.9z"/>
						<path d="M2287.5,666.2c-1.5,0-3.1-0.2-4.6-0.7c-4.2-1.3-7-4.7-7-8.5v-11.8h23.2v12c0,2.5-1.3,4.8-3.6,6.5
							C2293.3,665.4,2290.5,666.2,2287.5,666.2z M2277.9,647.3v9.8c0,2.9,2.2,5.5,5.6,6.6c3.8,1.2,8,0.6,10.8-1.5
							c1.8-1.3,2.8-3,2.8-4.9v-10L2277.9,647.3L2277.9,647.3z"/>
					</g>
					<g>
						<path class="st51" d="M2255.7,646.3v10.8c0,3.2,2.3,6.3,6.3,7.5c7.6,2.3,14.9-1.9,14.9-7.3v-11H2255.7z"/>
						<path d="M2266.3,666.2c-1.5,0-3.1-0.2-4.6-0.7c-4.2-1.3-7-4.7-7-8.5v-11.8h23.2v12c0,2.5-1.3,4.8-3.6,6.5
							C2272.1,665.4,2269.3,666.2,2266.3,666.2z M2256.7,647.3v9.8c0,2.9,2.2,5.5,5.6,6.6c3.8,1.2,8,0.6,10.8-1.5
							c1.8-1.3,2.8-3,2.8-4.9v-10L2256.7,647.3L2256.7,647.3z"/>
					</g>
					<g>
						<path class="st52" d="M2234.6,646.3v10.8c0,3.2,2.3,6.3,6.3,7.5c7.6,2.3,14.9-1.9,14.9-7.3v-11H2234.6z"/>
						<path d="M2245.1,666.2c-1.5,0-3.1-0.2-4.6-0.7c-4.2-1.3-7-4.7-7-8.5v-11.8h23.2v12c0,2.5-1.3,4.8-3.6,6.5
							C2251,665.4,2248.1,666.2,2245.1,666.2z M2235.6,647.3v9.8c0,2.9,2.2,5.5,5.6,6.6c3.8,1.2,8,0.6,10.8-1.5
							c1.8-1.3,2.8-3,2.8-4.9v-10L2235.6,647.3L2235.6,647.3z"/>
					</g>
					<g>
						<path class="st51" d="M2213.4,646.3v10.8c0,3.2,2.3,6.3,6.3,7.5c7.6,2.3,14.9-1.9,14.9-7.3v-11H2213.4z"/>
						<path d="M2224,666.2c-1.5,0-3.1-0.2-4.6-0.7c-4.2-1.3-7-4.7-7-8.5v-11.8h23.2v12c0,2.5-1.3,4.8-3.6,6.5
							C2229.8,665.4,2226.9,666.2,2224,666.2z M2214.4,647.3v9.8c0,2.9,2.2,5.5,5.6,6.6c3.9,1.2,8,0.6,10.8-1.5
							c1.8-1.3,2.8-3,2.8-4.9v-10L2214.4,647.3L2214.4,647.3z"/>
					</g>
					<g>
						<path class="st52" d="M2192.2,646.3v10.8c0,3.2,2.3,6.3,6.3,7.5c7.6,2.3,14.9-1.9,14.9-7.3v-11H2192.2z"/>
						<path d="M2202.8,666.2c-1.5,0-3.1-0.2-4.6-0.7c-4.2-1.3-7-4.7-7-8.5v-11.8h23.2v12c0,2.5-1.3,4.8-3.6,6.5
							C2208.6,665.4,2205.7,666.2,2202.8,666.2z M2193.2,647.3v9.8c0,2.9,2.2,5.5,5.6,6.6c3.8,1.2,8,0.6,10.8-1.5
							c1.8-1.3,2.8-3,2.8-4.9v-10L2193.2,647.3L2193.2,647.3z"/>
					</g>
					<g>
						<path class="st51" d="M2171,646.3v10.8c0,3.2,2.3,6.3,6.3,7.5c7.6,2.3,14.9-1.9,14.9-7.3v-11H2171z"/>
						<path d="M2181.6,666.2c-1.5,0-3.1-0.2-4.6-0.7c-4.2-1.3-7-4.7-7-8.5v-11.8h23.2v12c0,2.5-1.3,4.8-3.6,6.5
							C2187.4,665.4,2184.6,666.2,2181.6,666.2z M2172,647.3v9.8c0,2.9,2.2,5.5,5.6,6.6c3.8,1.2,8,0.6,10.8-1.5
							c1.8-1.3,2.8-3,2.8-4.9v-10L2172,647.3L2172,647.3z"/>
					</g>
					<g>
						<path class="st52" d="M2149.8,646.3v10.8c0,3.2,2.3,6.3,6.3,7.5c7.6,2.3,14.9-1.9,14.9-7.3v-11H2149.8z"/>
						<path d="M2160.4,666.2c-1.5,0-3.1-0.2-4.6-0.7c-4.2-1.3-7-4.7-7-8.5v-11.8h23.2v12c0,2.5-1.3,4.8-3.6,6.5
							C2166.2,665.4,2163.4,666.2,2160.4,666.2z M2150.8,647.3v9.8c0,2.9,2.2,5.5,5.6,6.6c3.8,1.2,8,0.6,10.8-1.5
							c1.8-1.3,2.8-3,2.8-4.9v-10L2150.8,647.3L2150.8,647.3z"/>
					</g>
					<g>
						<path class="st51" d="M2128.7,646.3v10.8c0,3.2,2.3,6.3,6.3,7.5c7.6,2.3,14.9-1.9,14.9-7.3v-11H2128.7z"/>
						<path d="M2139.2,666.2c-1.5,0-3.1-0.2-4.6-0.7c-4.2-1.3-7-4.7-7-8.5v-11.8h23.2v12c0,2.5-1.3,4.8-3.6,6.5
							C2145.1,665.4,2142.2,666.2,2139.2,666.2z M2129.7,647.3v9.8c0,2.9,2.2,5.5,5.6,6.6c3.8,1.2,8,0.6,10.8-1.5
							c1.8-1.3,2.8-3,2.8-4.9v-10L2129.7,647.3L2129.7,647.3z"/>
					</g>
					<g>
						<path class="st52" d="M2107.5,646.3v10.8c0,3.2,2.3,6.3,6.3,7.5c7.6,2.3,14.9-1.9,14.9-7.3v-11H2107.5z"/>
						<path d="M2118.1,666.2c-1.5,0-3.1-0.2-4.6-0.7c-4.2-1.3-7-4.7-7-8.5v-11.8h23.2v12c0,2.5-1.3,4.8-3.6,6.5
							C2123.9,665.4,2121,666.2,2118.1,666.2z M2108.5,647.3v9.8c0,2.9,2.2,5.5,5.6,6.6c3.9,1.2,8,0.6,10.8-1.5
							c1.8-1.3,2.8-3,2.8-4.9v-10L2108.5,647.3L2108.5,647.3z"/>
					</g>
					<g>
						<path class="st51" d="M2086.3,646.3v10.8c0,3.2,2.3,6.3,6.3,7.5c7.6,2.3,14.9-1.9,14.9-7.3v-11H2086.3z"/>
						<path d="M2096.9,666.2c-1.5,0-3.1-0.2-4.6-0.7c-4.2-1.3-7-4.7-7-8.5v-11.8h23.2v12c0,2.5-1.3,4.8-3.6,6.5
							C2102.7,665.4,2099.9,666.2,2096.9,666.2z M2087.3,647.3v9.8c0,2.9,2.2,5.5,5.6,6.6c3.8,1.2,8,0.6,10.8-1.5
							c1.8-1.3,2.8-3,2.8-4.9v-10L2087.3,647.3L2087.3,647.3z"/>
					</g>
					<g>
						<path class="st52" d="M2065.1,646.3v10.8c0,3.2,2.3,6.3,6.3,7.5c7.6,2.3,14.9-1.9,14.9-7.3v-11H2065.1z"/>
						<path d="M2075.7,666.2c-1.5,0-3.1-0.2-4.6-0.7c-4.2-1.3-7-4.7-7-8.5v-11.8h23.2v12c0,2.5-1.3,4.8-3.6,6.5
							C2081.5,665.4,2078.7,666.2,2075.7,666.2z M2066.1,647.3v9.8c0,2.9,2.2,5.5,5.6,6.6c3.8,1.2,8,0.6,10.8-1.5
							c1.8-1.3,2.8-3,2.8-4.9v-10L2066.1,647.3L2066.1,647.3z"/>
					</g>
				</g>
				<g>
					<polygon class="st53" points="2145.1,574.6 2128.7,574.6 2086.3,646.3 2107.5,646.3 					"/>
					<path d="M2108.1,647.3h-23.5l43.5-73.7h18.7L2108.1,647.3z M2088.1,645.3h18.8l36.6-69.7h-14.2L2088.1,645.3z"/>
				</g>
				<g>
					<polygon class="st53" points="2382.8,574.6 2400,574.6 2446.3,646.3 2425.2,646.3 					"/>
					<path d="M2448.2,647.3h-23.6l-0.3-0.5l-43.2-73.2h19.5l0.3,0.5L2448.2,647.3z M2425.7,645.3h18.8l-45-69.7h-14.9L2425.7,645.3z
						"/>
				</g>
				<g>
					<polygon class="st53" points="2177.9,574.6 2159.1,574.6 2128.7,646.3 2149.8,646.3 					"/>
					<path d="M2150.5,647.3h-23.4l31.3-73.7h20.9L2150.5,647.3z M2130.2,645.3h19l27.2-69.7h-16.6L2130.2,645.3z"/>
				</g>
				<g>
					<polygon class="st53" points="2210.4,574.6 2195.1,574.6 2171,646.3 2192.2,646.3 					"/>
					<path d="M2193,647.3h-23.3l24.8-73.7h17.3L2193,647.3z M2172.4,645.3h19l17.7-69.7h-13.3L2172.4,645.3z"/>
				</g>
				<g>
					<polygon class="st53" points="2243.4,574.6 2227,574.6 2213.4,646.3 2234.6,646.3 					"/>
					<path d="M2235.4,647.3h-23.3l14-73.7h18.4L2235.4,647.3z M2214.6,645.3h19.1l8.6-69.7h-14.4L2214.6,645.3z"/>
				</g>
				<g>
					<polygon class="st53" points="2354.8,574.6 2370,574.6 2404,646.3 2382.8,646.3 					"/>
					<path d="M2405.6,647.3h-23.4l-0.2-0.6l-28.5-73h17.3L2405.6,647.3z M2383.5,645.3h18.9l-33.1-69.7h-13.1L2383.5,645.3z"/>
				</g>
				<g>
					<polygon class="st53" points="2321.9,574.6 2337.3,574.6 2361.6,646.3 2340.4,646.3 					"/>
					<path d="M2363,647.3h-23.3l-19-73.7h17.3L2363,647.3z M2341.2,645.3h19l-23.7-69.7h-13.3L2341.2,645.3z"/>
				</g>
				<g>
					<polygon class="st53" points="2289,574.6 2305.4,574.6 2319.3,646.3 2298.1,646.3 					"/>
					<path d="M2320.5,647.3h-23.3l-9.4-73.7h18.4L2320.5,647.3z M2299,645.3h19.1l-13.5-69.7h-14.4L2299,645.3z"/>
				</g>
				<g>
					<polygon class="st53" points="2257.3,574.6 2275.3,574.6 2276.9,646.3 2255.7,646.3 					"/>
					<path d="M2277.9,647.3h-23.2l1.6-73.7h19.9L2277.9,647.3z M2256.8,645.3h19.1l-1.6-69.7h-16L2256.8,645.3z"/>
				</g>
			</g>
			<g>
				<rect x="2081.3" y="779.4" class="st53" width="349.4" height="12.8"/>
				<path d="M2431.7,793.2h-351.4v-14.8h351.4V793.2z M2082.3,791.2h347.4v-10.8h-347.4V791.2z"/>
			</g>
			<g>
				<rect x="2081.3" y="559.5" class="st53" width="349.4" height="15"/>
				<path d="M2431.7,575.5h-351.4v-17h351.4V575.5z M2082.3,573.5h347.4v-13h-347.4V573.5z"/>
			</g>
		</g>
	</g>
	<g class="st24">
		<g>
			<path class="st54" d="M2055.5,786.6c-0.1-0.8-1.3-1.5-3.4-2.1v-6.9l-1.4-0.7l0,0c0-0.1-0.1-0.2-0.3-0.2c-1.9-0.9-3.7-3.5-3.7-3.5
				h-0.3v-27.5c1.3-0.4,3.3-1.3,3.3-2.9c0-0.8-0.9-0.8-1.4-0.6l0,0c0,0-3,0.5-4.9-13.2c0.4,0,0.6-0.3,0.6-0.6s-0.3-0.6-0.8-0.6l0,0
				c-0.1-1.1-0.3-2.4-0.4-3.7c1.8-0.6,2.8-1.5,2.8-3c0.1-2.5-2.7-6.4-2.7-8.4c0-0.7,0-1.4,0-2.1c0.3-0.1,0.6-0.3,0.6-0.5
				c0-0.3-0.2-0.5-0.6-0.5c0-0.4,0-0.7,0-0.7l0,0l0.6-0.5l-1.4-1.2h-0.2V576l0,0c1.1-0.4,0.8-1.2,0.7-1.4l0,0c0,0-0.3-2.5,0.4-5.2
				c0.6-2.7,2.6-4.5,2.6-4.5l0,0c0,0,1-0.2,0.4-1c-0.3-0.4-0.4-0.6-0.4-0.6s0.8-0.3,0.4-0.9c-0.3-0.5-0.4-0.6-0.4-0.6
				c-0.2,0-0.2,0,0,0c0,0,1-0.2,0.5-0.9c-0.4-0.6-0.4-0.6-0.4-0.6l0.2-0.2c0.1-1.2-2.6-2.5-3.8-3.3c-1-0.7-1-2.1-1.1-2.8
				c0.3-0.1,0.5-0.3,0.5-0.5c0-0.3-0.3-0.5-0.7-0.5h-0.7v-0.5c1.4-1.4,1.8-3.6,1.8-3.6v-0.1l1.5,0.7h1v-3.2h0.8l3.8-18.2h3.1l1-6.8
				v-1.6h-4.4l-2.7-5.4h0.3V512h-0.6c-1.7-0.7-2.8-1.9-2.7-2.4c0.1-0.5-0.3-0.9-1-0.9c-0.3,0-1.1,0-2,0v-3.1h-0.5v-1.9
				c0.3-0.4,0.5-1,0.5-1.6c0-1.5-1.3-2.7-2.9-2.7s-2.9,1.2-2.9,2.7c0,0.6,0.2,1.1,0.5,1.6v1.9h-0.5v3.1c-0.9,0-1.7,0-2,0
				c-0.7,0-1.1,0.4-1,0.9s-0.9,1.7-2.7,2.4h-0.6v2.1h0.2l-2.5,5.4h-4.4v1.6l1.3,6.8h2.9l4.4,18.2h0.7v3.2h1.2l1.2-0.6
				c0.1,0.4,0.6,2.3,1.8,3.5v0.5h-0.7c-0.4,0-0.7,0.2-0.7,0.5s0.2,0.5,0.5,0.5c-0.1,0.7-0.1,2.1-1.1,2.8c-1.2,0.8-3.9,2.2-3.8,3.3
				l0.3,0.2c0,0,0,0.1-0.4,0.6c-0.5,0.7,0.5,0.9,0.5,0.9s-0.1,0.1-0.4,0.6c-0.4,0.7,0.4,0.9,0.4,0.9s-0.1,0.2-0.4,0.6
				c-0.5,0.8,0.5,1,0.5,1c0.2,0.2,2,2.1,2.6,4.5c0.6,2.5,0.4,4.9,0.4,5.2l0,0c0,0-0.5,0.9,0.7,1.4l0,0v131.1h-0.3l-1.3,1.2l0.5,0.5
				l0,0c0,0,0,0.3,0,0.7c-0.3,0.1-0.5,0.3-0.5,0.5c0,0.3,0.2,0.5,0.5,0.5c0,0.6,0,1.4,0,2.1c0,2-2.8,5.9-2.7,8.4c0,1.5,1,2.4,2.8,3
				c0,0.5-0.1,1.9-0.3,3.7h-0.2c-0.4,0-0.8,0.3-0.8,0.6s0.3,0.6,0.8,0.6h0.1c-0.6,5-2,12.1-5,13.3c-0.6-0.1-1.5-0.2-1.5,0.6
				c0,1.5,2,2.5,3.3,2.9v27.5h-0.2c0,0-1.8,2.7-3.7,3.5c-0.2,0.1-0.2,0.1-0.3,0.2l0,0l-1.6,0.3v7.3c-2.1,0.6-3.3,1.3-3.3,2.1
				c0,0.2,0,0.9,0,1.1c0,2,8,3.7,17.9,3.7s18-1.7,18-3.7C2055.5,787.6,2055.5,786.9,2055.5,786.6L2055.5,786.6L2055.5,786.6
				C2055.5,786.7,2055.5,786.6,2055.5,786.6L2055.5,786.6z M2037.2,551.8c0,0-2.3-1.1-2.1-3.1h2.1V551.8z M2037.9,551.8v-3.1h2.1
				C2040.2,550.6,2037.9,551.8,2037.9,551.8z"/>
			<path d="M2037.5,792.5c-0.8,0-18.9-0.1-18.9-4.7v-1.1c0-1.5,1.7-2.3,3.3-2.9v-6.6c0-0.5,0.3-0.9,0.8-1l1.3-0.2
				c0.1-0.1,0.2-0.2,0.4-0.2c1.4-0.6,2.8-2.5,3.3-3.2c0,0,0-0.1,0.1-0.1v-26.2c-2.1-0.8-3.3-2.1-3.3-3.6c0-0.5,0.2-1,0.6-1.3
				s1-0.5,1.7-0.4c1.7-1,3.2-5.2,4-11.6c-0.4-0.3-0.7-0.8-0.7-1.3c0-0.6,0.4-1.2,1-1.4c0.1-0.9,0.1-1.6,0.2-2.2
				c-2.2-0.9-2.7-2.5-2.8-3.6c0-1.6,0.8-3.4,1.6-5.1c0.6-1.3,1.2-2.6,1.2-3.3V711c-0.3-0.3-0.5-0.7-0.5-1.1c0-0.3,0.1-0.7,0.3-0.9
				c-0.2-0.2-0.3-0.5-0.3-0.7c0-0.3,0.1-0.6,0.3-0.7l1.3-1.2V576.6c-0.4-0.3-0.6-0.6-0.7-0.9c-0.2-0.5-0.1-1,0-1.3
				c0-0.6,0.1-2.6-0.4-4.7c-0.5-1.9-1.7-3.4-2.1-3.9c-0.3-0.1-0.7-0.4-0.9-0.9c-0.1-0.3-0.2-0.8,0.1-1.4c0-0.1-0.1-0.1-0.1-0.2
				c-0.2-0.4-0.1-0.8,0-1.2c-0.1-0.1-0.1-0.2-0.2-0.3c-0.1-0.3-0.2-0.8,0.2-1.4l0,0c0-0.1,0-0.1,0-0.2c-0.2-1.6,1.8-2.7,3.4-3.8
				c0.3-0.2,0.6-0.3,0.8-0.5c0.4-0.3,0.6-0.9,0.6-1.4c-0.3-0.3-0.5-0.7-0.5-1.1c0-0.6,0.4-1.1,0.9-1.3c-0.4-0.6-0.7-1.3-0.9-1.9
				l-0.2,0.1c-0.1,0.1-0.3,0.1-0.4,0.1h-1.2c-0.6,0-1-0.4-1-1v-2.3c-0.3-0.1-0.6-0.4-0.7-0.7l-4.2-17.4h-2.1c-0.5,0-0.9-0.3-1-0.8
				l-1.3-6.8c0-0.1,0-0.1,0-0.2v-1.6c0-0.6,0.4-1,1-1h3.8l2-4.3v-0.1V512c0-0.6,0.4-1,1-1h0.4c1.1-0.5,1.7-1.1,1.9-1.4
				c0-0.5,0.1-0.9,0.4-1.3c0.3-0.3,0.7-0.7,1.6-0.7h1v-2.1c0-0.4,0.2-0.7,0.5-0.9v-0.7c-0.3-0.6-0.5-1.2-0.5-1.9
				c0-2,1.8-3.7,3.9-3.7c2.2,0,3.9,1.7,3.9,3.7c0,0.7-0.2,1.3-0.5,1.9v0.7c0.3,0.2,0.5,0.5,0.5,0.9v2.1h1c0.9,0,1.4,0.4,1.6,0.7
				c0.3,0.3,0.4,0.8,0.4,1.3c0.1,0.3,0.7,0.9,1.9,1.4h0.4c0.6,0,1,0.4,1,1v2.1c0,0.1,0,0.2-0.1,0.3l2,4.1h3.8c0.6,0,1,0.4,1,1v1.6
				v0.1l-1,6.8c-0.1,0.5-0.5,0.9-1,0.9h-2.3l-3.7,17.4c-0.1,0.4-0.4,0.7-0.8,0.8v2.3c0,0.6-0.4,1-1,1h-1c-0.2,0-0.3,0-0.4-0.1
				l-0.3-0.2c-0.2,0.6-0.5,1.3-1,2c0.5,0.3,0.9,0.8,0.9,1.4c0,0.4-0.2,0.8-0.5,1.1c0.1,0.5,0.2,1.2,0.6,1.4c0.2,0.1,0.5,0.3,0.8,0.5
				c1.7,1,3.6,2.2,3.5,3.8c0,0.1,0,0.1,0,0.2l0,0c0.4,0.6,0.3,1.2,0.2,1.4c0,0.1-0.1,0.2-0.2,0.3c0.2,0.4,0.2,0.8,0,1.2
				c0,0.1-0.1,0.2-0.1,0.2c0.4,0.6,0.2,1.1,0.1,1.4c-0.2,0.5-0.6,0.7-0.9,0.9c-0.3,0.3-1.7,1.9-2.2,3.9c-0.5,2.1-0.4,4.1-0.4,4.7
				c0.1,0.3,0.2,0.8,0,1.4c-0.1,0.3-0.3,0.6-0.7,0.9v129.8l1.3,1.1c0.2,0.2,0.3,0.5,0.3,0.8s-0.1,0.5-0.3,0.7
				c0.2,0.3,0.3,0.6,0.3,0.9c0,0.5-0.2,0.9-0.6,1.1v1.5c0,0.7,0.6,2.1,1.2,3.3c0.8,1.8,1.6,3.6,1.6,5.1c0,1.2-0.6,2.7-2.7,3.6
				c0.1,0.8,0.2,1.5,0.3,2.3c0.5,0.3,0.9,0.8,0.9,1.4c0,0.5-0.2,0.9-0.5,1.2c1.5,10.3,3.6,11.6,3.8,11.7h0.1c0.7-0.1,1.3,0,1.7,0.4
				c0.4,0.3,0.6,0.8,0.6,1.3c0,1.5-1.2,2.8-3.3,3.6v26.1c0,0,0.1,0.1,0.1,0.2c0.5,0.7,2,2.6,3.3,3.2c0.2,0.1,0.4,0.2,0.5,0.3
				l1.2,0.6c0.3,0.2,0.6,0.5,0.6,0.9v6.2c2.1,0.7,3.1,1.5,3.3,2.5c0,0.1,0,0.2,0,0.3v1.2C2056.5,792.4,2038.3,792.5,2037.5,792.5z
				 M2023.9,778.1v6.5c0,0.4-0.3,0.8-0.7,1c-2.3,0.7-2.6,1.2-2.6,1.2v1c0.4,0.9,6.5,2.7,16.9,2.7c10.5,0,16.5-1.8,17-2.8v-0.9l0,0
				c-0.1-0.1-0.5-0.6-2.6-1.2c-0.4-0.1-0.7-0.5-0.7-1v-6.3l-0.8-0.4c-0.2-0.1-0.3-0.2-0.4-0.3c-1.6-0.8-3.1-2.6-3.8-3.4
				c-0.5-0.1-0.8-0.5-0.8-1v-27.5c0-0.4,0.3-0.8,0.7-1c1.1-0.4,2.2-1,2.5-1.6c0,0-0.1,0-0.2,0c-0.2,0-0.5,0-0.7-0.1
				s-0.5-0.2-0.8-0.4c-2-1.5-3.5-6.1-4.6-13.6c0-0.2,0-0.4,0.1-0.6c-0.1-0.1-0.2-0.3-0.3-0.5c-0.1-1.2-0.3-2.4-0.4-3.7
				c0-0.5,0.2-0.9,0.7-1.1c1.8-0.6,2.1-1.4,2.1-2.1c0-1.1-0.7-2.8-1.4-4.2c-0.7-1.5-1.4-3-1.4-4.2v-2.1c0-0.2,0.1-0.4,0.2-0.5
				c-0.1-0.2-0.2-0.3-0.2-0.5V709c0-0.2,0-0.4,0.1-0.6l-0.3-0.3c-0.5-0.1-0.8-0.5-0.8-1V576c0-0.5,0.3-0.9,0.8-1l0,0
				c0-0.1-0.1-0.2-0.1-0.3s-0.3-2.7,0.4-5.5c0.6-2.5,2.2-4.4,2.7-4.8c0.1-0.1,0.1-0.1,0.2-0.2c-0.1-0.2-0.2-0.2-0.2-0.2
				c-0.2-0.3-0.2-0.6-0.1-0.9c0.1-0.2,0.2-0.3,0.3-0.4c-0.2-0.1-0.3-0.2-0.4-0.5s-0.1-0.7,0.2-1c0.1-0.1,0.2-0.2,0.3-0.2
				c-0.1-0.2-0.1-0.3-0.2-0.4c-0.1-0.3,0-0.6,0.1-0.8c-0.4-0.5-1.8-1.3-2.4-1.7c-0.3-0.2-0.6-0.4-0.8-0.5c-1.4-0.9-1.5-2.5-1.5-3.4
				V554c0-0.1,0-0.1,0-0.2c-0.5-0.1-0.8-0.5-0.8-1v-0.5c0-0.1,0-0.2,0-0.2c-0.5,0.4-0.9,0.6-0.9,0.6c-0.2,0.1-0.5,0.1-0.8,0
				c-0.2,0.1-0.5,0.1-0.8,0c0,0-0.4-0.2-0.9-0.6c0,0.1,0,0.2,0,0.2v0.5c0,0.5-0.4,0.9-0.8,1c0,0.1,0,0.1,0,0.2v0.2
				c-0.1,0.9-0.2,2.5-1.5,3.4c-0.2,0.2-0.5,0.3-0.8,0.5c-0.6,0.4-1.9,1.2-2.4,1.7c0.1,0.3,0.2,0.6,0.1,0.9c0,0.1-0.1,0.1-0.2,0.4
				c0.2,0.1,0.3,0.3,0.3,0.5c0.1,0.3,0,0.7-0.2,0.9c0,0,0,0-0.1,0.1c0.1,0.1,0.3,0.3,0.3,0.5c0.1,0.3,0.1,0.6-0.1,0.9
				c0,0,0,0.1-0.2,0.2c0,0,0,0,0.1,0.1c0.2,0.2,2.1,2.2,2.8,5c0.6,2.7,0.4,5.2,0.4,5.5c0,0.1,0,0.2-0.1,0.3h0.1
				c0.4,0.1,0.7,0.5,0.7,1v131.1c0,0.5-0.4,0.9-0.9,1l-0.3,0.3c0.1,0.1,0.1,0.3,0.1,0.4v0.7c0,0.2-0.1,0.4-0.2,0.5
				c0.1,0.2,0.2,0.3,0.2,0.5v2.1c0,1.2-0.7,2.6-1.4,4.2c-0.7,1.5-1.4,3.1-1.4,4.2c0,0.7,0.3,1.5,2.1,2.1c0.4,0.1,0.7,0.5,0.7,1
				s-0.1,1.9-0.3,3.8c0,0.2-0.1,0.4-0.3,0.6c0.1,0.2,0.2,0.4,0.1,0.6c-1,8.2-2.9,13-5.6,14.1c-0.2,0.1-0.4,0.1-0.6,0
				c-0.1,0-0.1,0-0.2,0c0.3,0.7,1.4,1.3,2.5,1.6c0.4,0.1,0.7,0.5,0.7,1v27.5c0,0.4-0.3,0.8-0.7,0.9c-0.6,0.8-2.1,2.6-3.7,3.4
				c-0.2,0.2-0.4,0.3-0.7,0.4L2023.9,778.1z M2025.5,777.2L2025.5,777.2L2025.5,777.2z M2049.8,777.2L2049.8,777.2L2049.8,777.2z
				 M2048.1,741.1L2048.1,741.1L2048.1,741.1z M2048.2,741.1L2048.2,741.1L2048.2,741.1z M2048.2,741.1L2048.2,741.1L2048.2,741.1z
				 M2045.7,560.3L2045.7,560.3L2045.7,560.3z M2040.2,552.3L2040.2,552.3L2040.2,552.3z M2037.9,547.7h2.1c0.5,0,0.9,0.4,1,0.9v0.1
				c0-0.1,0-0.1,0-0.1c0-0.3,0.1-0.5,0.3-0.7c0.3-0.2,0.7-0.3,1.1-0.2l1,0.5v-2.1c0-0.5,0.4-1,1-1l3.7-17.4c0.1-0.5,0.5-0.8,1-0.8
				h2.3l0.9-5.9v-0.6h-3.4c-0.4,0-0.7-0.2-0.9-0.6l-2.7-5.4c-0.2-0.3-0.1-0.7,0-1c0-0.1,0.1-0.2,0.2-0.2v-0.5
				c-1.6-0.7-3.2-2-3.2-3.2h-2c-0.6,0-1-0.4-1-1v-2.3c-0.3-0.2-0.5-0.5-0.5-0.9v-1.9c0-0.2,0.1-0.4,0.2-0.6c0.2-0.3,0.3-0.6,0.3-1
				c0-0.9-0.9-1.7-1.9-1.7c-1.1,0-1.9,0.8-1.9,1.7c0,0.3,0.1,0.7,0.3,1c0.1,0.2,0.2,0.4,0.2,0.6v1.9c0,0.4-0.2,0.7-0.5,0.9v2.3
				c0,0.6-0.4,1-1,1h-2c0,1.2-1.6,2.5-3.2,3.2v0.6l0,0c0.2,0.3,0.2,0.7,0.1,1l-2.5,5.4c-0.2,0.4-0.5,0.6-0.9,0.6h-3.4v0.5l1.1,5.9
				h2.1c0.5,0,0.9,0.3,1,0.8l4.3,17.4c0.5,0,0.9,0.5,0.9,1v2.2l1-0.4c0.3-0.1,0.6-0.1,0.9,0s0.5,0.4,0.5,0.7c0,0,0,0.1,0,0.2v-0.1
				c0.1-0.5,0.5-0.9,1-0.9h2.1C2037.6,547.6,2037.7,547.6,2037.9,547.7C2037.7,547.7,2037.8,547.7,2037.9,547.7z M2044.1,509.7
				L2044.1,509.7L2044.1,509.7z"/>
		</g>
		<g>
			<polygon class="st55" points="2027.1,523.4 2047.4,523.4 2043,544.1 2032.1,544.1 			"/>
			<path d="M2043.8,545.1h-12.5l-5.5-22.7h22.8L2043.8,545.1z M2032.9,543.1h9.3l3.9-18.7h-17.8L2032.9,543.1z"/>
		</g>
	</g>
	<g class="st24">
		<g>
			<path class="st54" d="M2526.6,786.6c-0.1-0.8-1.3-1.5-3.4-2.1v-6.9l-1.4-0.7l0,0c0-0.1-0.1-0.2-0.3-0.2c-1.9-0.9-3.7-3.5-3.7-3.5
				h-0.3v-27.5c1.3-0.4,3.3-1.3,3.3-2.9c0-0.8-0.9-0.8-1.4-0.6l0,0c0,0-3,0.5-4.9-13.2c0.4,0,0.6-0.3,0.6-0.6s-0.3-0.6-0.8-0.6l0,0
				c-0.1-1.1-0.3-2.4-0.4-3.7c1.8-0.6,2.8-1.5,2.8-3c0.1-2.5-2.7-6.4-2.7-8.4c0-0.7,0-1.4,0-2.1c0.3-0.1,0.6-0.3,0.6-0.5
				c0-0.3-0.2-0.5-0.6-0.5c0-0.4,0-0.7,0-0.7l0,0l0.6-0.5l-1.4-1.2h-0.2V576l0,0c1.1-0.4,0.8-1.2,0.7-1.4l0,0c0,0-0.3-2.5,0.4-5.2
				s2.6-4.5,2.6-4.5l0,0c0,0,1-0.2,0.4-1c-0.3-0.4-0.4-0.6-0.4-0.6s0.8-0.3,0.4-0.9c-0.3-0.5-0.4-0.6-0.4-0.6c-0.2,0-0.2,0,0,0
				c0,0,1-0.2,0.5-0.9c-0.4-0.6-0.4-0.6-0.4-0.6l0.2-0.2c0.1-1.2-2.6-2.5-3.8-3.3c-1-0.7-1-2.1-1.1-2.8c0.3-0.1,0.5-0.3,0.5-0.5
				c0-0.3-0.3-0.5-0.7-0.5h-0.7v-0.5c1.4-1.4,1.8-3.6,1.8-3.6v-0.1l1.5,0.7h1v-3.2h0.8l3.8-18.2h3.1l1-6.8v-1.6h-4.4l-2.7-5.4h0.3
				V512h-0.6c-1.7-0.7-2.8-1.9-2.7-2.4s-0.3-0.9-1-0.9c-0.3,0-1.1,0-2,0v-3.1h-0.5v-1.9c0.3-0.4,0.5-1,0.5-1.6
				c0-1.5-1.3-2.7-2.9-2.7s-2.9,1.2-2.9,2.7c0,0.6,0.2,1.1,0.5,1.6v1.9h-0.5v3.1c-0.9,0-1.7,0-2,0c-0.7,0-1.1,0.4-1,0.9
				s-0.9,1.7-2.7,2.4h-0.6v2.1h0.2l-2.5,5.4h-4.4v1.6l1.3,6.8h2.9l4.4,18.2h0.7v3.2h1.2l1.2-0.6c0.1,0.4,0.6,2.3,1.8,3.5v0.5h-0.7
				c-0.4,0-0.7,0.2-0.7,0.5s0.2,0.5,0.5,0.5c-0.1,0.7-0.1,2.1-1.1,2.8c-1.2,0.8-3.9,2.2-3.8,3.3l0.3,0.2c0,0,0,0.1-0.4,0.6
				c-0.5,0.7,0.5,0.9,0.5,0.9s-0.1,0.1-0.4,0.6c-0.4,0.7,0.4,0.9,0.4,0.9s-0.1,0.2-0.4,0.6c-0.5,0.8,0.5,1,0.5,1
				c0.2,0.2,2,2.1,2.6,4.5c0.6,2.5,0.4,4.9,0.4,5.2l0,0c0,0-0.5,0.9,0.7,1.4l0,0v131.1h-0.3l-1.3,1.2l0.5,0.5l0,0c0,0,0,0.3,0,0.7
				c-0.3,0.1-0.5,0.3-0.5,0.5c0,0.3,0.2,0.5,0.5,0.5c0,0.6,0,1.4,0,2.1c0,2-2.8,5.9-2.7,8.4c0,1.5,1,2.4,2.8,3
				c0,0.5-0.1,1.9-0.3,3.7h-0.2c-0.4,0-0.8,0.3-0.8,0.6s0.3,0.6,0.8,0.6h0.1c-0.6,5-2,12.1-5,13.3c-0.6-0.1-1.5-0.2-1.5,0.6
				c0,1.5,2,2.5,3.3,2.9v27.5h-0.2c0,0-1.8,2.7-3.7,3.5c-0.2,0.1-0.2,0.1-0.3,0.2l0,0l-1.6,0.3v7.3c-2.1,0.6-3.3,1.3-3.3,2.1
				c0,0.2,0,0.9,0,1.1c0,2,8,3.7,17.9,3.7s18-1.7,18-3.7C2526.6,787.6,2526.6,786.9,2526.6,786.6L2526.6,786.6L2526.6,786.6
				C2526.6,786.7,2526.6,786.6,2526.6,786.6L2526.6,786.6z M2508.3,551.8c0,0-2.3-1.1-2.1-3.1h2.1V551.8z M2509,551.8v-3.1h2.1
				C2511.3,550.6,2509,551.8,2509,551.8z"/>
			<path d="M2508.6,792.5c-0.8,0-18.9-0.1-18.9-4.7v-1.1c0-1.5,1.7-2.3,3.3-2.9v-6.6c0-0.5,0.3-0.9,0.8-1l1.3-0.2
				c0.1-0.1,0.2-0.2,0.4-0.2c1.4-0.6,2.8-2.5,3.3-3.2c0,0,0-0.1,0.1-0.1v-26.1c-2.1-0.8-3.3-2.1-3.3-3.6c0-0.5,0.2-1,0.6-1.3
				c0.4-0.3,1-0.5,1.7-0.4c1.7-1,3.2-5.2,4-11.6c-0.4-0.3-0.7-0.8-0.7-1.3c0-0.6,0.4-1.2,1-1.4c0.1-0.9,0.1-1.6,0.2-2.2
				c-2.2-0.9-2.7-2.5-2.8-3.6c0-1.6,0.8-3.4,1.6-5.1c0.6-1.3,1.2-2.6,1.2-3.3v-1.5c-0.3-0.3-0.5-0.7-0.5-1.1c0-0.3,0.1-0.7,0.3-0.9
				c-0.2-0.2-0.3-0.5-0.3-0.7c0-0.3,0.1-0.6,0.3-0.7l1.3-1.2V576.6c-0.4-0.3-0.6-0.6-0.7-0.9c-0.2-0.5-0.1-1,0-1.3
				c0-0.6,0.1-2.6-0.4-4.7c-0.5-1.9-1.7-3.4-2.1-3.9c-0.3-0.1-0.7-0.4-0.9-0.9c-0.1-0.3-0.2-0.8,0.1-1.4c0-0.1-0.1-0.1-0.1-0.2
				c-0.2-0.4-0.1-0.8,0-1.2c-0.1-0.1-0.1-0.2-0.2-0.3c-0.1-0.3-0.2-0.8,0.2-1.4l0,0c0-0.1,0-0.1,0-0.2c-0.2-1.6,1.8-2.7,3.4-3.8
				c0.3-0.2,0.6-0.3,0.8-0.5c0.4-0.3,0.6-0.9,0.6-1.4c-0.3-0.3-0.5-0.7-0.5-1.1c0-0.6,0.3-1.1,0.9-1.3c-0.4-0.6-0.7-1.3-0.9-1.9
				l-0.2,0.1c-0.1,0.1-0.3,0.1-0.4,0.1h-1.2c-0.6,0-1-0.4-1-1v-2.3c-0.3-0.1-0.6-0.4-0.7-0.7L2496,529h-2.1c-0.5,0-0.9-0.3-1-0.8
				l-1.3-6.8c0-0.1,0-0.1,0-0.2v-1.6c0-0.6,0.4-1,1-1h3.8l2-4.3v-0.1V512c0-0.6,0.4-1,1-1h0.4c1.1-0.5,1.7-1.1,1.9-1.4
				c0-0.5,0.1-0.9,0.4-1.3c0.3-0.3,0.7-0.7,1.6-0.7h1v-2.1c0-0.4,0.2-0.7,0.5-0.9v-0.7c-0.3-0.6-0.5-1.2-0.5-1.9
				c0-2,1.8-3.7,3.9-3.7c2.2,0,3.9,1.7,3.9,3.7c0,0.7-0.2,1.3-0.5,1.9v0.7c0.3,0.2,0.5,0.5,0.5,0.9v2.1h1c0.9,0,1.4,0.4,1.6,0.7
				c0.3,0.3,0.4,0.8,0.4,1.3c0.1,0.3,0.7,0.9,1.9,1.4h0.4c0.6,0,1,0.4,1,1v2.1c0,0.1,0,0.2-0.1,0.3l2,4.1h3.8c0.6,0,1,0.4,1,1v1.6
				v0.1l-1,6.8c-0.1,0.5-0.5,0.9-1,0.9h-2.3l-3.7,17.4c-0.1,0.4-0.4,0.7-0.8,0.8v2.3c0,0.6-0.4,1-1,1h-1c-0.2,0-0.3,0-0.4-0.1
				l-0.3-0.2c-0.2,0.6-0.5,1.3-1,2c0.5,0.3,0.9,0.8,0.9,1.4c0,0.4-0.2,0.8-0.5,1.1c0.1,0.5,0.2,1.2,0.6,1.4c0.2,0.1,0.5,0.3,0.8,0.5
				c1.7,1,3.6,2.2,3.5,3.8c0,0.1,0,0.1,0,0.2l0,0c0.4,0.6,0.3,1.2,0.2,1.4c0,0.1-0.1,0.2-0.2,0.3c0.2,0.4,0.2,0.8,0,1.2
				c0,0.1-0.1,0.2-0.1,0.2c0.4,0.6,0.2,1.1,0.1,1.4c-0.2,0.5-0.6,0.7-0.9,0.9c-0.3,0.3-1.7,1.9-2.2,3.9c-0.5,2.1-0.4,4.1-0.4,4.7
				c0.1,0.3,0.2,0.8,0,1.4c-0.1,0.3-0.3,0.6-0.7,0.9v129.8l1.3,1.1c0.2,0.2,0.3,0.5,0.3,0.8s-0.1,0.5-0.3,0.7
				c0.2,0.3,0.3,0.6,0.3,0.9c0,0.5-0.2,0.9-0.5,1.1v1.5c0,0.7,0.6,2.1,1.2,3.3c0.8,1.8,1.6,3.6,1.6,5.1c0,1.2-0.6,2.7-2.7,3.6
				c0.1,0.8,0.2,1.5,0.3,2.3c0.5,0.3,0.9,0.8,0.9,1.4c0,0.5-0.2,0.9-0.5,1.2c1.5,10.3,3.6,11.6,3.8,11.7h0.1c0.7-0.1,1.3,0,1.7,0.4
				c0.4,0.3,0.6,0.8,0.6,1.3c0,1.5-1.2,2.8-3.3,3.6v26.1c0,0,0.1,0.1,0.1,0.2c0.5,0.7,2,2.6,3.3,3.2c0.2,0.1,0.4,0.2,0.5,0.3
				l1.2,0.6c0.3,0.2,0.6,0.5,0.6,0.9v6.2c2.1,0.7,3.1,1.5,3.3,2.5c0,0.1,0,0.2,0,0.3v1.2C2527.6,792.4,2509.4,792.5,2508.6,792.5z
				 M2495,778.1v6.5c0,0.4-0.3,0.8-0.7,1c-2.3,0.7-2.6,1.2-2.6,1.2v1c0.4,0.9,6.5,2.7,16.9,2.7c10.5,0,16.5-1.8,17-2.8v-0.9l0,0
				c-0.1-0.1-0.5-0.6-2.6-1.2c-0.4-0.1-0.7-0.5-0.7-1v-6.3l-0.8-0.4c-0.2-0.1-0.3-0.2-0.4-0.3c-1.6-0.8-3.1-2.6-3.8-3.4
				c-0.5-0.1-0.8-0.5-0.8-1v-27.5c0-0.4,0.3-0.8,0.7-1c1.1-0.4,2.2-1,2.5-1.6c0,0-0.1,0-0.2,0c-0.2,0.1-0.5,0-0.7-0.1
				s-0.5-0.2-0.8-0.4c-2-1.5-3.5-6.1-4.6-13.6c0-0.2,0-0.4,0.1-0.6c-0.1-0.1-0.2-0.3-0.3-0.5c-0.1-1.2-0.3-2.4-0.4-3.7
				c0-0.5,0.2-0.9,0.7-1.1c1.8-0.6,2.1-1.4,2.1-2.1c0-1.1-0.7-2.8-1.4-4.2c-0.7-1.5-1.4-3-1.4-4.2v-2.1c0-0.2,0.1-0.4,0.2-0.5
				c-0.1-0.2-0.2-0.3-0.2-0.5V709c0-0.2,0-0.4,0.1-0.6l-0.3-0.3c-0.5-0.1-0.8-0.5-0.8-1V576c0-0.5,0.3-0.9,0.8-1l0,0
				c0-0.1-0.1-0.2-0.1-0.3s-0.3-2.7,0.4-5.5c0.6-2.5,2.2-4.4,2.7-4.8c0.1-0.1,0.1-0.1,0.2-0.2c-0.1-0.2-0.2-0.2-0.2-0.2
				c-0.2-0.3-0.2-0.6-0.1-0.9c0.1-0.2,0.2-0.3,0.3-0.4c-0.2-0.1-0.3-0.2-0.4-0.5c-0.1-0.3-0.1-0.7,0.2-1c0.1-0.1,0.2-0.2,0.3-0.2
				c-0.1-0.2-0.1-0.3-0.2-0.4c-0.1-0.3,0-0.6,0.1-0.8c-0.4-0.5-1.8-1.3-2.4-1.7c-0.3-0.2-0.6-0.4-0.8-0.5c-1.4-0.9-1.5-2.5-1.5-3.4
				V554c0-0.1,0-0.1,0-0.2c-0.5-0.1-0.8-0.5-0.8-1v-0.5c0-0.1,0-0.2,0-0.2c-0.5,0.4-0.9,0.6-0.9,0.6c-0.2,0.1-0.5,0.1-0.8,0
				c-0.2,0.1-0.5,0.1-0.8,0c0,0-0.4-0.2-0.9-0.6c0,0.1,0,0.2,0,0.2v0.5c0,0.5-0.4,0.9-0.8,1c0,0.1,0,0.1,0,0.2v0.2
				c-0.1,0.9-0.2,2.5-1.5,3.4c-0.2,0.2-0.5,0.3-0.8,0.5c-0.6,0.4-1.9,1.2-2.4,1.7c0.1,0.3,0.2,0.6,0.1,0.9c0,0.1-0.1,0.1-0.2,0.4
				c0.2,0.1,0.3,0.3,0.3,0.5c0.1,0.3,0,0.7-0.2,0.9c0,0,0,0-0.1,0.1c0.1,0.1,0.3,0.3,0.3,0.5c0.1,0.3,0.1,0.6-0.1,0.9
				c0,0,0,0.1-0.2,0.2c0,0,0,0,0.1,0.1c0.2,0.2,2.1,2.2,2.8,5c0.6,2.6,0.5,5,0.4,5.5c0,0.1,0,0.2-0.1,0.3h0.1c0.4,0.1,0.7,0.5,0.7,1
				v131.1c0,0.5-0.4,0.9-0.9,1l-0.3,0.3c0.1,0.1,0.1,0.3,0.1,0.4v0.7c0,0.2-0.1,0.4-0.2,0.5c0.1,0.2,0.2,0.3,0.2,0.5v2.1
				c0,1.2-0.7,2.6-1.4,4.2c-0.7,1.5-1.4,3.1-1.4,4.2c0,0.7,0.3,1.5,2.1,2.1c0.4,0.1,0.7,0.5,0.7,1s-0.1,1.9-0.3,3.8
				c0,0.2-0.1,0.4-0.3,0.6c0.1,0.2,0.2,0.4,0.1,0.6c-1,8.2-2.9,13-5.6,14.1c-0.2,0.1-0.4,0.1-0.6,0c-0.1,0-0.1,0-0.2,0
				c0.3,0.7,1.4,1.3,2.5,1.6c0.4,0.1,0.7,0.5,0.7,1v27.5c0,0.4-0.3,0.8-0.7,0.9c-0.6,0.8-2.1,2.6-3.7,3.4c-0.2,0.2-0.4,0.3-0.7,0.4
				L2495,778.1z M2520.8,777.2L2520.8,777.2L2520.8,777.2z M2496.6,777.2L2496.6,777.2L2496.6,777.2z M2519.2,741.1L2519.2,741.1
				L2519.2,741.1z M2519.2,741.1L2519.2,741.1L2519.2,741.1z M2519.2,741.1L2519.2,741.1L2519.2,741.1z M2516.8,560.3L2516.8,560.3
				L2516.8,560.3z M2511.3,552.3L2511.3,552.3L2511.3,552.3z M2509,547.7h2.1c0.5,0,0.9,0.4,1,0.9v0.1c0-0.1,0-0.1,0-0.1
				c0-0.3,0.1-0.5,0.3-0.7c0.3-0.3,0.7-0.3,1.1-0.2l1,0.5v-2.1c0-0.5,0.4-1,1-1l3.7-17.4c0.1-0.5,0.5-0.8,1-0.8h2.3l0.9-5.9v-0.6
				h-3.4c-0.4,0-0.7-0.2-0.9-0.6l-2.7-5.4c-0.2-0.3-0.1-0.7,0-1c0-0.1,0.1-0.2,0.2-0.2v-0.5c-1.6-0.7-3.2-2-3.2-3.2h-2
				c-0.6,0-1-0.4-1-1v-2.3c-0.3-0.2-0.5-0.5-0.5-0.9v-1.9c0-0.2,0.1-0.4,0.2-0.6c0.2-0.3,0.3-0.6,0.3-1c0-0.9-0.9-1.7-1.9-1.7
				c-1.1,0-1.9,0.8-1.9,1.7c0,0.3,0.1,0.7,0.3,1c0.1,0.2,0.2,0.4,0.2,0.6v1.9c0,0.4-0.2,0.7-0.5,0.9v2.3c0,0.6-0.4,1-1,1h-2
				c0,1.2-1.6,2.5-3.2,3.2v0.6l0,0c0.2,0.3,0.2,0.7,0.1,1l-2.5,5.4c-0.2,0.4-0.5,0.6-0.9,0.6h-3.4v0.5l1.1,5.9h2.1
				c0.5,0,0.9,0.3,1,0.8l4.2,17.4c0.5,0,0.9,0.5,0.9,1v2.2l1-0.4c0.3-0.1,0.6-0.1,0.9,0c0.3,0.1,0.5,0.4,0.5,0.7c0,0,0,0.1,0,0.2
				v-0.1c0.1-0.5,0.5-0.9,1-0.9h2.1c0.1,0,0.2,0,0.3,0.1C2508.7,547.7,2508.9,547.7,2509,547.7z M2513.4,509.7L2513.4,509.7
				L2513.4,509.7z M2503.3,509.7L2503.3,509.7L2503.3,509.7z"/>
		</g>
		<g>
			<polygon class="st55" points="2498.2,523.4 2518.5,523.4 2514.1,544.1 2503.2,544.1 			"/>
			<path d="M2514.9,545.1h-12.5l-5.5-22.7h22.8L2514.9,545.1z M2503.9,543.1h9.3l3.9-18.7h-17.8L2503.9,543.1z"/>
		</g>
	</g>
	<g class="st24">
		<g>
			<path class="st54" d="M1580.4,786.6c-0.1-0.8-1.3-1.5-3.4-2.1v-6.9l-1.4-0.7l0,0c0-0.1-0.1-0.2-0.3-0.2c-1.9-0.9-3.7-3.5-3.7-3.5
				h-0.3v-27.5c1.3-0.4,3.3-1.3,3.3-2.9c0-0.8-0.9-0.8-1.4-0.6l0,0c0,0-3,0.5-4.9-13.2c0.4,0,0.6-0.3,0.6-0.6s-0.3-0.6-0.8-0.6l0,0
				c-0.1-1.1-0.3-2.4-0.4-3.7c1.8-0.6,2.8-1.5,2.8-3c0.1-2.5-2.7-6.4-2.7-8.4c0-0.7,0-1.4,0-2.1c0.3-0.1,0.6-0.3,0.6-0.5
				c0-0.3-0.2-0.5-0.6-0.5c0-0.4,0-0.7,0-0.7l0,0l0.6-0.5l-1.4-1.2h-0.2V576l0,0c1.1-0.4,0.8-1.2,0.7-1.4l0,0c0,0-0.3-2.5,0.4-5.2
				c0.6-2.7,2.6-4.5,2.6-4.5l0,0c0,0,1-0.2,0.4-1c-0.3-0.4-0.4-0.6-0.4-0.6s0.8-0.3,0.4-0.9c-0.3-0.5-0.4-0.6-0.4-0.6
				c-0.2,0-0.2,0,0,0c0,0,1-0.2,0.5-0.9c-0.4-0.6-0.4-0.6-0.4-0.6l0.2-0.2c0.1-1.2-2.6-2.5-3.8-3.3c-1-0.7-1-2.1-1.1-2.8
				c0.3-0.1,0.5-0.3,0.5-0.5c0-0.3-0.3-0.5-0.7-0.5h-0.7v-0.5c1.4-1.4,1.8-3.6,1.8-3.6v-0.1l1.5,0.7h1v-3.2h0.8l3.8-18.2h3.1l1-6.8
				v-1.6h-4.4l-2.7-5.4h0.3V512h-0.6c-1.7-0.7-2.8-1.9-2.7-2.4c0.1-0.5-0.3-0.9-1-0.9c-0.3,0-1.1,0-2,0v-3.1h-0.5v-1.9
				c0.3-0.4,0.5-1,0.5-1.6c0-1.5-1.3-2.7-2.9-2.7s-2.9,1.2-2.9,2.7c0,0.6,0.2,1.1,0.5,1.6v1.9h-0.5v3.1c-0.9,0-1.7,0-2,0
				c-0.7,0-1.1,0.4-1,0.9s-0.9,1.7-2.7,2.4h-0.6v2.1h0.2l-2.5,5.4h-4.4v1.6l1.3,6.8h2.9l4.4,18.2h0.7v3.2h1.2l1.2-0.6
				c0.1,0.4,0.6,2.3,1.8,3.5v0.5h-0.7c-0.4,0-0.7,0.2-0.7,0.5s0.2,0.5,0.5,0.5c-0.1,0.7-0.1,2.1-1.1,2.8c-1.2,0.8-3.9,2.2-3.8,3.3
				l0.3,0.2c0,0,0,0.1-0.4,0.6c-0.5,0.7,0.5,0.9,0.5,0.9s-0.1,0.1-0.4,0.6c-0.4,0.7,0.4,0.9,0.4,0.9s-0.1,0.2-0.4,0.6
				c-0.5,0.8,0.4,1,0.4,1c0.2,0.2,2,2.1,2.6,4.5c0.6,2.5,0.4,4.9,0.4,5.2l0,0c0,0-0.5,0.9,0.7,1.4l0,0v131.1h-0.3l-1.3,1.2l0.5,0.5
				l0,0c0,0,0,0.3,0,0.7c-0.3,0.1-0.5,0.3-0.5,0.5c0,0.3,0.2,0.5,0.5,0.5c0,0.6,0,1.4,0,2.1c0,2-2.8,5.9-2.7,8.4c0,1.5,1,2.4,2.8,3
				c0,0.5-0.1,1.9-0.3,3.7h-0.2c-0.4,0-0.8,0.3-0.8,0.6s0.3,0.6,0.8,0.6h0.1c-0.6,5-2,12.1-5,13.3c-0.6-0.1-1.5-0.2-1.5,0.6
				c0,1.5,2,2.5,3.3,2.9v27.5h-0.2c0,0-1.8,2.7-3.7,3.5c-0.2,0.1-0.2,0.1-0.3,0.2l0,0l-1.6,0.3v7.3c-2.1,0.6-3.3,1.3-3.3,2.1
				c0,0.2,0,0.9,0,1.1c0,2,8,3.7,17.9,3.7s18-1.7,18-3.7C1580.4,787.6,1580.4,786.9,1580.4,786.6L1580.4,786.6L1580.4,786.6
				C1580.4,786.7,1580.4,786.6,1580.4,786.6L1580.4,786.6z M1562.1,551.8c0,0-2.3-1.1-2.1-3.1h2.1V551.8z M1562.8,551.8v-3.1h2.1
				C1565.1,550.6,1562.8,551.8,1562.8,551.8z"/>
			<path d="M1562.4,792.5c-0.8,0-18.9-0.1-18.9-4.7v-1.1c0-1.5,1.7-2.3,3.3-2.9v-6.6c0-0.5,0.3-0.9,0.8-1l1.3-0.2
				c0.1-0.1,0.2-0.2,0.4-0.2c1.4-0.6,2.8-2.5,3.3-3.2c0,0,0-0.1,0.1-0.1v-26.2c-2.1-0.8-3.3-2.1-3.3-3.6c0-0.5,0.2-1,0.6-1.3
				s1-0.5,1.7-0.4c1.7-1,3.2-5.2,4-11.6c-0.4-0.3-0.7-0.8-0.7-1.3c0-0.6,0.4-1.2,1-1.4c0.1-0.9,0.1-1.6,0.2-2.2
				c-2.2-0.9-2.7-2.5-2.8-3.6c0-1.6,0.8-3.4,1.6-5.1c0.6-1.3,1.2-2.6,1.2-3.3V711c-0.3-0.3-0.5-0.7-0.5-1.1c0-0.3,0.1-0.7,0.3-0.9
				c-0.2-0.2-0.3-0.5-0.3-0.7c0-0.3,0.1-0.6,0.3-0.7l1.3-1.2V576.6c-0.4-0.3-0.6-0.6-0.7-0.9c-0.2-0.5-0.1-1,0-1.3
				c0-0.6,0.1-2.6-0.4-4.7c-0.5-1.9-1.7-3.4-2.1-3.9c-0.3-0.1-0.7-0.4-0.9-0.9c-0.1-0.3-0.2-0.8,0.1-1.4c0-0.1-0.1-0.1-0.1-0.2
				c-0.2-0.4-0.1-0.8,0-1.2c-0.1-0.1-0.1-0.2-0.2-0.3c-0.1-0.3-0.2-0.8,0.2-1.4l0,0c0-0.1,0-0.1,0-0.2c-0.2-1.6,1.8-2.7,3.4-3.8
				c0.3-0.2,0.6-0.3,0.8-0.5c0.4-0.3,0.6-0.9,0.6-1.4c-0.3-0.3-0.5-0.7-0.5-1.1c0-0.6,0.4-1.1,0.9-1.3c-0.4-0.6-0.7-1.3-0.9-1.9
				l-0.2,0.1c-0.1,0.1-0.3,0.1-0.4,0.1h-1.2c-0.6,0-1-0.4-1-1v-2.3c-0.3-0.1-0.6-0.4-0.7-0.7l-4.2-17.4h-2.1c-0.5,0-0.9-0.3-1-0.8
				l-1.3-6.8c0-0.1,0-0.1,0-0.2v-1.6c0-0.6,0.4-1,1-1h3.8l2-4.3v-0.1V512c0-0.6,0.4-1,1-1h0.4c1.1-0.5,1.7-1.1,1.9-1.4
				c0-0.5,0.1-0.9,0.4-1.3c0.3-0.3,0.7-0.7,1.6-0.7h1v-2.1c0-0.4,0.2-0.7,0.5-0.9v-0.7c-0.3-0.6-0.5-1.2-0.5-1.9
				c0-2,1.8-3.7,3.9-3.7c2.2,0,3.9,1.7,3.9,3.7c0,0.7-0.2,1.3-0.5,1.9v0.7c0.3,0.2,0.5,0.5,0.5,0.9v2.1h1c0.9,0,1.4,0.4,1.6,0.7
				c0.3,0.3,0.4,0.8,0.4,1.3c0.1,0.3,0.7,0.9,1.9,1.4h0.4c0.6,0,1,0.4,1,1v2.1c0,0.1,0,0.2-0.1,0.3l2,4.1h3.8c0.6,0,1,0.4,1,1v1.6
				v0.1l-1,6.8c-0.1,0.5-0.5,0.9-1,0.9h-2.3l-3.7,17.4c-0.1,0.4-0.4,0.7-0.8,0.8v2.3c0,0.6-0.4,1-1,1h-1c-0.2,0-0.3,0-0.4-0.1
				l-0.3-0.2c-0.2,0.6-0.5,1.3-1,2c0.5,0.3,0.9,0.8,0.9,1.4c0,0.4-0.2,0.8-0.5,1.1c0.1,0.5,0.2,1.2,0.6,1.4c0.2,0.1,0.5,0.3,0.8,0.5
				c1.7,1,3.6,2.2,3.5,3.8c0,0.1,0,0.1,0,0.2l0,0c0.4,0.6,0.3,1.2,0.2,1.4c0,0.1-0.1,0.2-0.2,0.3c0.2,0.4,0.2,0.8,0,1.2
				c0,0.1-0.1,0.2-0.1,0.2c0.4,0.6,0.2,1.1,0.1,1.4c-0.2,0.5-0.6,0.7-0.9,0.9c-0.3,0.3-1.7,1.9-2.2,3.9c-0.5,2.1-0.4,4.1-0.4,4.7
				c0.1,0.3,0.2,0.8,0,1.4c-0.1,0.3-0.3,0.6-0.7,0.9v129.8l1.3,1.1c0.2,0.2,0.3,0.5,0.3,0.8s-0.1,0.5-0.3,0.7
				c0.2,0.3,0.3,0.6,0.3,0.9c0,0.5-0.2,0.9-0.6,1.1v1.5c0,0.7,0.6,2.1,1.2,3.3c0.8,1.8,1.6,3.6,1.6,5.1c0,1.2-0.6,2.7-2.7,3.6
				c0.1,0.8,0.2,1.5,0.3,2.3c0.5,0.3,0.9,0.8,0.9,1.4c0,0.5-0.2,0.9-0.5,1.2c1.5,10.3,3.6,11.6,3.8,11.7h0.1c0.7-0.1,1.3,0,1.7,0.4
				c0.4,0.3,0.6,0.8,0.6,1.3c0,1.5-1.2,2.8-3.3,3.6v26.1c0,0,0.1,0.1,0.1,0.2c0.5,0.7,2,2.6,3.3,3.2c0.2,0.1,0.4,0.2,0.5,0.3
				l1.2,0.6c0.3,0.2,0.6,0.5,0.6,0.9v6.2c2.1,0.7,3.1,1.5,3.3,2.5c0,0.1,0,0.2,0,0.3v1.2C1581.4,792.4,1563.2,792.5,1562.4,792.5z
				 M1548.8,778.1v6.5c0,0.4-0.3,0.8-0.7,1c-2.3,0.7-2.6,1.2-2.6,1.2v1c0.4,0.9,6.5,2.7,16.9,2.7c10.5,0,16.5-1.8,17-2.8v-0.9l0,0
				c-0.1-0.1-0.5-0.6-2.6-1.2c-0.4-0.1-0.7-0.5-0.7-1v-6.3l-0.8-0.4c-0.2-0.1-0.3-0.2-0.4-0.3c-1.6-0.8-3.1-2.6-3.8-3.4
				c-0.5-0.1-0.8-0.5-0.8-1v-27.5c0-0.4,0.3-0.8,0.7-1c1.1-0.4,2.2-1,2.5-1.6c0,0-0.1,0-0.2,0c-0.2,0-0.5,0-0.7-0.1
				s-0.5-0.2-0.8-0.4c-2-1.5-3.5-6.1-4.6-13.6c0-0.2,0-0.4,0.1-0.6c-0.1-0.1-0.2-0.3-0.3-0.5c-0.1-1.2-0.3-2.4-0.4-3.7
				c0-0.5,0.2-0.9,0.7-1.1c1.8-0.6,2.1-1.4,2.1-2.1c0-1.1-0.7-2.8-1.4-4.2c-0.7-1.5-1.4-3-1.4-4.2v-2.1c0-0.2,0.1-0.4,0.2-0.5
				c-0.1-0.2-0.2-0.3-0.2-0.5V709c0-0.2,0-0.4,0.1-0.6l-0.3-0.3c-0.5-0.1-0.8-0.5-0.8-1V576c0-0.5,0.3-0.9,0.8-1l0,0
				c0-0.1-0.1-0.2-0.1-0.3s-0.3-2.7,0.4-5.5c0.6-2.5,2.2-4.4,2.7-4.8c0.1-0.1,0.1-0.1,0.2-0.2c-0.1-0.2-0.2-0.2-0.2-0.2
				c-0.2-0.3-0.2-0.6-0.1-0.9c0.1-0.2,0.2-0.3,0.3-0.4c-0.2-0.1-0.3-0.2-0.4-0.5s-0.1-0.7,0.2-1c0.1-0.1,0.2-0.2,0.3-0.2
				c-0.1-0.2-0.1-0.3-0.2-0.4c-0.1-0.3,0-0.6,0.1-0.8c-0.4-0.5-1.8-1.3-2.4-1.7c-0.3-0.2-0.6-0.4-0.8-0.5c-1.4-0.9-1.5-2.5-1.5-3.4
				V554c0-0.1,0-0.1,0-0.2c-0.5-0.1-0.8-0.5-0.8-1v-0.5c0-0.1,0-0.2,0-0.2c-0.5,0.4-0.9,0.6-0.9,0.6c-0.2,0.1-0.5,0.1-0.8,0
				c-0.2,0.1-0.5,0.1-0.8,0c0,0-0.4-0.2-0.9-0.6c0,0.1,0,0.2,0,0.2v0.5c0,0.5-0.4,0.9-0.8,1c0,0.1,0,0.1,0,0.2v0.2
				c-0.1,0.9-0.2,2.5-1.5,3.4c-0.2,0.2-0.5,0.3-0.8,0.5c-0.6,0.4-1.9,1.2-2.4,1.7c0.1,0.2,0.2,0.5,0.1,0.7c0,0.1-0.1,0.2-0.3,0.5
				c0.2,0.1,0.3,0.3,0.3,0.5c0.1,0.3,0,0.7-0.2,0.9c0,0,0,0-0.1,0.1c0.1,0.1,0.3,0.3,0.3,0.5c0.1,0.3,0.1,0.6-0.1,0.9
				c0,0,0,0.1-0.2,0.2c0,0,0,0,0.1,0.1c0.2,0.2,2.1,2.2,2.8,5c0.6,2.7,0.4,5.2,0.4,5.5c0,0.1,0,0.2-0.1,0.3h0.1
				c0.4,0.1,0.7,0.5,0.7,1v131.1c0,0.5-0.4,0.9-0.9,1l-0.3,0.3c0.1,0.1,0.1,0.3,0.1,0.4v0.7c0,0.2-0.1,0.4-0.2,0.5
				c0.1,0.2,0.2,0.3,0.2,0.5v2.1c0,1.2-0.7,2.6-1.4,4.2c-0.7,1.5-1.4,3.1-1.4,4.2c0,0.7,0.3,1.5,2.1,2.1c0.4,0.1,0.7,0.5,0.7,1
				s-0.1,1.9-0.3,3.8c0,0.2-0.1,0.4-0.3,0.6c0.1,0.2,0.2,0.4,0.1,0.6c-1,8.2-2.9,13-5.6,14.1c-0.2,0.1-0.4,0.1-0.6,0
				c-0.1,0-0.1,0-0.2,0c0.3,0.7,1.4,1.3,2.5,1.6c0.4,0.1,0.7,0.5,0.7,1v27.5c0,0.4-0.3,0.8-0.7,0.9c-0.6,0.8-2.1,2.6-3.7,3.4
				c-0.2,0.2-0.4,0.3-0.7,0.4L1548.8,778.1z M1574.7,777.2L1574.7,777.2L1574.7,777.2z M1550.4,777.2L1550.4,777.2L1550.4,777.2z
				 M1573.1,741.1L1573.1,741.1L1573.1,741.1z M1573.1,741.1L1573.1,741.1L1573.1,741.1z M1573.1,741.1L1573.1,741.1L1573.1,741.1z
				 M1570.6,560.3L1570.6,560.3L1570.6,560.3z M1565.1,552.3L1565.1,552.3L1565.1,552.3z M1562.8,547.7h2.1c0.5,0,0.9,0.4,1,0.9v0.1
				c0-0.1,0-0.1,0-0.1c0-0.3,0.1-0.5,0.3-0.7c0.3-0.2,0.7-0.3,1.1-0.2l1,0.5v-2.1c0-0.5,0.4-1,1-1l3.7-17.4c0.1-0.5,0.5-0.8,1-0.8
				h2.3l0.9-5.9v-0.6h-3.4c-0.4,0-0.7-0.2-0.9-0.6l-2.7-5.4c-0.2-0.3-0.1-0.7,0-1c0-0.1,0.1-0.2,0.2-0.2v-0.5
				c-1.6-0.7-3.2-2-3.2-3.2h-2c-0.6,0-1-0.4-1-1v-2.3c-0.3-0.2-0.5-0.5-0.5-0.9v-1.9c0-0.2,0.1-0.4,0.2-0.6c0.2-0.3,0.3-0.6,0.3-1
				c0-0.9-0.9-1.7-1.9-1.7c-1.1,0-1.9,0.8-1.9,1.7c0,0.3,0.1,0.7,0.3,1c0.1,0.2,0.2,0.4,0.2,0.6v1.9c0,0.4-0.2,0.7-0.5,0.9v2.3
				c0,0.6-0.4,1-1,1h-2c0,1.2-1.6,2.5-3.2,3.2v0.6l0,0c0.2,0.3,0.2,0.7,0.1,1l-2.5,5.4c-0.2,0.4-0.5,0.6-0.9,0.6h-3.4v0.5l1.1,5.9
				h2.1c0.5,0,0.9,0.3,1,0.8l4.3,17.4c0.5,0,0.9,0.5,0.9,1v2.2l1-0.4c0.3-0.1,0.6-0.1,0.9,0s0.5,0.4,0.5,0.7c0,0,0,0.1,0,0.2v-0.1
				c0.1-0.5,0.5-0.9,1-0.9h2.1C1562.5,547.6,1562.6,547.6,1562.8,547.7C1562.6,547.7,1562.7,547.7,1562.8,547.7z M1569,509.7
				L1569,509.7L1569,509.7z"/>
		</g>
		<g>
			<polygon class="st55" points="1552,523.4 1572.3,523.4 1567.9,544.1 1557,544.1 			"/>
			<path d="M1568.8,545.1h-12.5l-5.5-22.7h22.8L1568.8,545.1z M1557.8,543.1h9.3l3.9-18.7h-17.8L1557.8,543.1z"/>
		</g>
	</g>
</g>
<g id="Layer_3" class="st6">
	<polygon class="st56" points="3015.3,-272.4 3002.8,-272.4 3002.8,-261.7 2970.6,-261.7 2970.6,-248.4 2958.1,-248.4 
		2958.1,-229.8 2950.8,-229.8 2950.8,-216.5 2941,-216.5 2941,-187.2 2936.4,-187.2 2936.4,-121.6 2919.3,-121.6 2919.3,-112.7 
		2911.4,-112.7 2911.4,-102.1 2906.7,-102.1 2906.7,-189 2901.5,-189 2901.5,-220.9 2895.6,-220.9 2895.6,-233.3 2854.1,-233.3 
		2854.1,-413.8 2783,-413.8 2783,-296.3 2773.8,-296.3 2773.8,-284.8 2714.6,-284.8 2714.6,-194.3 2700.1,-194.3 2700.1,-181.9 
		2687.6,-181.9 2687.6,-167.7 2677.7,-167.7 2677.7,-85.2 2665.9,-85.2 2665.9,-107.4 2654,-107.4 2654,-125.1 2644.2,-125.1 
		2644.2,-259.9 2601.4,-259.9 2601.4,-297.2 2583,-297.2 2583,-413.4 2569.2,-413.4 2569.2,-395.6 2556.7,-395.6 2556.7,-375.3 
		2548.8,-375.3 2548.8,-402.7 2538.2,-402.7 2538.2,-418.7 2515.2,-418.7 2515.2,-126.9 2509.9,-126.9 2509.9,-174.8 2482.3,-174.8 
		2482.3,-231.6 2462.5,-231.6 2462.5,-311.4 2419.1,-311.4 2419.1,-320.3 2396.1,-320.3 2396.1,-310.5 2375.7,-310.5 2375.7,-199.6 
		2370.4,-199.6 2370.4,-184.6 2353.3,-184.6 2353.3,-165.9 2346.1,-165.9 2346.1,-133.1 2340.8,-133.1 2340.8,-151.7 2334.2,-151.7 
		2334.2,-209.4 2323,-209.4 2323,-289.2 2234.9,-289.2 2234.9,-244.9 2211.2,-244.9 2211.2,-222.7 2182.9,-222.7 2182.9,-354 
		2078.9,-354 2078.9,-213.8 2046.6,-213.8 2046.6,-227.1 2036.8,-227.1 2030.2,-218.3 2013.7,-218.3 2013.7,-190.8 2005.2,-190.8 
		2005.2,-321.1 1999.9,-332.7 1994.7,-332.7 1994.7,-354 1980.2,-354 1980.2,-330.9 1974.9,-330.9 1968,-321.6 1939.4,-321.6 
		1939.4,-303.4 1926.9,-303.4 1926.9,-326.5 1878.8,-326.5 1878.8,-310.5 1844.6,-310.5 1844.6,-195.2 1833.4,-195.2 1833.4,-209.4 
		1827.5,-209.4 1827.5,-225.4 1818.3,-225.4 1818.3,-322 1749.9,-322 1749.9,-339.8 1711.7,-339.8 1711.7,-322.9 1687.3,-322.9 
		1687.3,-254.6 1620.9,-254.6 1620.9,-236 1615.3,-236 1615.3,66.4 3015.3,66.4 	"/>
	<polygon class="st57" points="3015.3,-234.2 3010.2,-234.2 3010.2,-305.4 2997.4,-305.4 2997.4,-320.7 2989,-320.7 2989,-330.1 
		2982.3,-330.1 2982.3,-320.7 2969.5,-320.7 2969.5,-336.7 2956.7,-336.7 2956.7,-357.4 2949.5,-357.4 2949.5,-371.1 2946.7,-371.1 
		2946.7,-374.9 2937.8,-374.9 2937.8,-371.1 2928,-371.1 2928,-384.9 2914.4,-384.9 2914.4,-371.1 2906.6,-371.1 2906.6,-357.4 
		2886,-357.4 2886,-350.2 2874.9,-350.2 2874.9,-336.7 2868.7,-336.7 2868.7,-330.1 2865.4,-330.1 2865.4,-147.6 2863.2,-147.6 
		2863.2,-110.9 2860.9,-110.9 2860.9,-118 2858.1,-118 2858.1,-134.8 2849.8,-134.8 2837.5,-195.2 2828.6,-195.2 2828.6,-178.9 
		2828.1,-178.9 2819.7,-218.3 2815.8,-218.3 2808.4,-227.4 2805.2,-227.4 2796.9,-241.4 2788.7,-241.4 2788.7,-229.2 2785.7,-229.2 
		2785.7,-274 2758.4,-274 2758.4,-254.9 2744.5,-254.9 2744.5,-241.4 2738.4,-241.4 2738.4,-248 2716.7,-248 2716.7,-229.2 
		2711.1,-229.2 2711.1,-248 2690.5,-248 2690.5,-232.7 2671.2,-232.7 2671.2,-304.3 2666,-304.3 2666,-361.2 2663.2,-361.2 
		2663.2,-331.6 2660.4,-331.6 2660.4,-312.8 2650.6,-312.8 2650.6,-352.5 2645.3,-352.5 2645.3,-379 2642.2,-379 2642.2,-352.5 
		2640,-352.5 2640,-304.3 2630,-304.3 2630,-238.8 2616.2,-238.8 2616.2,-182.8 2612.1,-182.8 2612.1,-191.7 2594.7,-191.7 
		2594.7,-195.9 2568.3,-195.9 2568.3,-182.8 2553.8,-182.8 2553.8,-218.7 2543.4,-218.7 2543.4,-227.4 2534.2,-227.4 2534.2,-241.4 
		2524.1,-241.4 2524.1,-248 2507.1,-248 2507.1,-229.2 2502.6,-229.2 2502.6,-236.3 2485.2,-236.3 2485.2,-227.4 2478.8,-227.4 
		2478.8,-201.1 2465.8,-201.1 2465.8,-210.3 2457.7,-210.3 2457.7,-218.2 2455.4,-218.2 2455.4,-223.5 2434.6,-223.5 2434.6,-218.2 
		2426.1,-218.2 2426.1,-210.3 2418.7,-210.3 2418.7,-203.2 2415,-203.2 2415,-371.9 2413.9,-371.9 2413.9,-399.9 2406.1,-399.9 
		2406.1,-458 2398.6,-458 2398.6,-464.6 2344.2,-464.6 2344.2,-458 2336.2,-458 2336.2,-396.3 2334.4,-396.3 2334.4,-377.5 
		2318.2,-377.5 2318.2,-367.3 2311,-367.3 2311,-346.9 2304.7,-346.9 2304.7,-232.7 2300.2,-232.7 2300.2,-213.9 2294.7,-213.9 
		2294.7,-229.2 2289.8,-229.2 2289.8,-236.3 2269,-236.3 2269,-227.4 2263.8,-227.4 2263.8,-150.8 2257.9,-150.8 2257.9,-159.7 
		2243.8,-159.7 2243.8,-227.4 2230.4,-227.4 2230.4,-241.4 2223.7,-241.4 2223.7,-248 2215.6,-248 2215.6,-265.9 2207,-265.9 
		2207,-291.6 2203.7,-291.6 2203.7,-248 2190.3,-248 2190.3,-241.4 2182.2,-241.4 2182.2,-443 2173.2,-443 2173.2,-584 2090.1,-584 
		2090.1,-458.3 2076.7,-458.3 2076.7,-428.5 2071.1,-428.5 2071.1,-446.8 2060.5,-446.8 2060.5,-458.3 2056.1,-458.3 2056.1,-489.6 
		2042.2,-489.6 2042.2,-458.3 2037.2,-458.3 2037.2,-446.8 2021.6,-446.8 2021.6,-433.1 2013.8,-433.1 2013.8,-456.4 2006.5,-456.4 
		2006.5,-433.1 1997.6,-433.1 1997.6,-428.5 1993.1,-428.5 1993.1,-433.1 1987.6,-433.1 1987.6,-428.5 1980.9,-428.5 1980.9,-248 
		1976.4,-248 1976.4,-279.4 1968.1,-279.4 1968.1,-248 1965.3,-248 1965.3,-227.4 1959.7,-227.4 1959.7,-192.6 1954.2,-192.6 
		1954.2,-176.1 1938,-176.1 1938,-150.9 1925.2,-150.9 1925.2,-159.3 1915.7,-159.3 1915.7,-319.9 1910.7,-319.9 1910.7,-327.5 
		1905.7,-327.5 1905.7,-336.7 1885.1,-336.7 1885.1,-327.5 1875.1,-327.5 1875.1,-319.9 1866.7,-319.9 1866.7,-150.9 1859.5,-150.9 
		1859.5,-163.9 1857.2,-163.9 1857.2,-159.3 1851.1,-159.3 1851.1,-150.9 1847.8,-150.9 1847.8,-141.7 1836.1,-141.7 1836.1,-98.1 
		1829.4,-98.1 1829.4,-113.1 1823.8,-113.1 1823.8,-127.2 1816,-127.2 1816,-113.1 1812.1,-113.1 1812.1,-98.1 1807.7,-98.1 
		1807.7,-110.8 1798.8,-110.8 1798.8,-98.1 1789,-98.1 1789,-89.4 1780.4,-89.4 1780.4,-110.8 1772.6,-110.8 1772.6,-127.2 
		1769.1,-127.2 1769.1,-110.8 1763.7,-110.8 1763.7,-159.3 1760.9,-159.3 1760.9,-176.1 1754.8,-176.1 1754.8,-167 1746.4,-167 
		1746.4,-173.1 1738.1,-173.1 1738.1,-192.6 1729.7,-192.6 1729.7,-218.2 1723,-218.2 1723,-192.6 1718,-192.6 1718,-201.8 
		1708.4,-201.8 1708.4,-206.7 1697.4,-206.7 1697.4,-201.8 1688.5,-201.8 1688.5,-192.6 1678.7,-192.6 1678.7,-176.1 1669,-176.1 
		1669,-167 1657.3,-167 1657.3,-159.3 1652.3,-159.3 1652.3,-138.7 1645,-138.7 1645,-206.7 1637.8,-206.7 1637.8,-218.2 
		1628.3,-218.2 1628.3,-227.4 1618.9,-227.4 1618.9,-218.2 1615.3,-218.2 1615.3,66.4 3015.3,66.4 	"/>
</g>
</svg>
