<?xml version="1.0" encoding="utf-8"?>
<!-- Generator: Adobe Illustrator 22.0.1, SVG Export Plug-In . SVG Version: 6.00 Build 0)  -->
<svg version="1.1" id="Layer_1" xmlns="http://www.w3.org/2000/svg" xmlns:xlink="http://www.w3.org/1999/xlink" x="0px" y="0px"
	 viewBox="0 0 203.1 159.8" style="enable-background:new 0 0 203.1 159.8;" xml:space="preserve">
<style type="text/css">
	.st0{fill:#A59D9A;}
	.st1{fill:#4C2C1F;}
	.st2{fill:#6D4537;}
	.st3{fill:#7A7A7A;}
	.st4{fill:#F49F7D;}
	.st5{fill:#565656;}
	.st6{fill:#353535;}
	.st7{fill:#1E1F1D;}
	.st8{fill:#7F7F7F;}
	.st9{fill:#323433;}
	.st10{fill:#E9A88E;}
	.st11{fill:#1C1C1A;}
</style>
<g>
	<rect x="40.7" y="91.7" width="0.9" height="59.9"/>
	<polygon points="41.6,151.6 41.6,151.5 40.9,151.5 40.9,91.9 41.4,91.9 41.4,151.6 41.6,151.6 41.6,151.5 41.6,151.6 41.8,151.6 
		41.8,91.5 40.6,91.5 40.6,151.8 41.8,151.8 41.8,151.6 	"/>
	<rect x="11.2" y="121.2" width="59.9" height="0.9"/>
	<polygon points="71.1,122.1 71.1,121.9 11.4,121.9 11.4,121.4 71,121.4 71,122.1 71.1,122.1 71.1,121.9 71.1,122.1 71.3,122.1 
		71.3,121.1 11,121.1 11,122.3 71.3,122.3 71.3,122.1 	"/>
	<rect x="11.2" y="121.2" width="59.9" height="0.9"/>
	<polygon points="71.1,122.1 71.1,121.9 11.4,121.9 11.4,121.4 71,121.4 71,122.1 71.1,122.1 71.1,121.9 71.1,122.1 71.3,122.1 
		71.3,121.1 11,121.1 11,122.3 71.3,122.3 71.3,122.1 	"/>
	<rect x="40.7" y="91.7" transform="matrix(0.7071 -0.7071 0.7071 0.7071 -73.9717 64.7403)" width="0.9" height="59.9"/>
	<polygon points="62,143.1 62.2,143 19.9,100.8 20.3,100.4 62.4,142.5 61.9,143 62,143.1 62.2,143 62,143.1 62.2,143.3 62.9,142.5 
		20.3,99.9 19.4,100.8 62,143.4 62.2,143.3 	"/>
	<rect x="11.2" y="121.2" transform="matrix(0.7059 -0.7083 0.7083 0.7059 -74.0643 64.9282)" width="59.9" height="0.9"/>
	<polygon points="20.3,143.1 20.4,143 19.9,142.5 62,100.4 62.4,100.8 20.2,143 20.3,143.1 20.4,143 20.3,143.1 20.4,143.3 
		62.9,100.8 62,99.9 19.4,142.5 20.3,143.4 20.4,143.3 	"/>
	<rect x="11.2" y="121.2" transform="matrix(0.7059 -0.7083 0.7083 0.7059 -74.0643 64.9282)" width="59.9" height="0.9"/>
	<polygon points="20.3,143.1 20.4,143 19.9,142.5 62,100.4 62.4,100.8 20.2,143 20.3,143.1 20.4,143 20.3,143.1 20.4,143.3 
		62.9,100.8 62,99.9 19.4,142.5 20.3,143.4 20.4,143.3 	"/>
	<rect x="40.7" y="91.7" transform="matrix(0.3908 -0.9205 0.9205 0.3908 -86.9102 112.0103)" width="0.9" height="59.9"/>
	<polygon points="68.6,133.8 68.6,133.6 13.6,110.3 13.8,109.8 68.7,133.1 68.4,133.7 68.6,133.8 68.6,133.6 68.6,133.8 68.7,133.8 
		69.1,132.9 13.7,109.3 13.2,110.4 68.7,134 68.7,133.8 	"/>
	<rect x="11.2" y="121.2" transform="matrix(0.3895 -0.921 0.921 0.3895 -86.9229 112.1901)" width="59.9" height="0.9"/>
	<polygon points="29.8,149.4 29.9,149.3 29.3,149 52.6,94.1 53,94.3 29.7,149.3 29.8,149.4 29.9,149.3 29.8,149.4 30,149.5 
		53.5,94.2 52.4,93.7 28.8,149.2 29.9,149.6 30,149.5 	"/>
	<rect x="11.2" y="121.2" transform="matrix(0.3895 -0.921 0.921 0.3895 -86.9229 112.1901)" width="59.9" height="0.9"/>
	<polygon points="29.8,149.4 29.9,149.3 29.3,149 52.6,94.1 53,94.3 29.7,149.3 29.8,149.4 29.9,149.3 29.8,149.4 30,149.5 
		53.5,94.2 52.4,93.7 28.8,149.2 29.9,149.6 30,149.5 	"/>
	<rect x="11.2" y="121.2" transform="matrix(0.9273 -0.3743 0.3743 0.9273 -42.5415 24.2474)" width="59.9" height="0.9"/>
	<polygon points="13.5,133.3 13.7,133.2 13.4,132.6 68.7,110.3 68.9,110.7 13.5,133.1 13.5,133.3 13.7,133.2 13.5,133.3 13.6,133.4 
		69.3,110.9 68.9,109.8 13,132.4 13.4,133.5 13.6,133.4 	"/>
	<rect x="40.7" y="91.7" transform="matrix(0.9272 -0.3746 0.3746 0.9272 -42.576 24.2769)" width="0.9" height="59.9"/>
	<polygon points="52,149.6 52.1,149.5 29.8,94.1 30.2,93.9 52.6,149.2 51.9,149.4 52,149.6 52.1,149.5 52,149.6 52.1,149.8 
		53,149.4 30.4,93.5 29.3,93.9 51.9,149.8 52.1,149.8 	"/>
	<rect x="40.7" y="91.7" transform="matrix(0.9272 -0.3746 0.3746 0.9272 -42.576 24.2769)" width="0.9" height="59.9"/>
	<polygon points="52,149.6 52.1,149.5 29.8,94.1 30.2,93.9 52.6,149.2 51.9,149.4 52,149.6 52.1,149.5 52,149.6 52.1,149.8 
		53,149.4 30.4,93.5 29.3,93.9 51.9,149.8 52.1,149.8 	"/>
	<rect x="40.7" y="91.7" width="0.9" height="59.9"/>
	<polygon points="41.6,151.6 41.6,151.5 40.9,151.5 40.9,91.9 41.4,91.9 41.4,151.6 41.6,151.6 41.6,151.5 41.6,151.6 41.8,151.6 
		41.8,91.5 40.6,91.5 40.6,151.8 41.8,151.8 41.8,151.6 	"/>
	<rect x="11.2" y="121.2" width="59.9" height="0.9"/>
	<polygon points="71.1,122.1 71.1,121.9 11.4,121.9 11.4,121.4 71,121.4 71,122.1 71.1,122.1 71.1,121.9 71.1,122.1 71.3,122.1 
		71.3,121.1 11,121.1 11,122.3 71.3,122.3 71.3,122.1 	"/>
	<rect x="11.2" y="121.2" width="59.9" height="0.9"/>
	<polygon points="71.1,122.1 71.1,121.9 11.4,121.9 11.4,121.4 71,121.4 71,122.1 71.1,122.1 71.1,121.9 71.1,122.1 71.3,122.1 
		71.3,121.1 11,121.1 11,122.3 71.3,122.3 71.3,122.1 	"/>
	<rect x="40.7" y="91.7" transform="matrix(0.7071 -0.7071 0.7071 0.7071 -73.9717 64.7403)" width="0.9" height="59.9"/>
	<polygon points="62,143.1 62.2,143 19.9,100.8 20.3,100.4 62.4,142.5 61.9,143 62,143.1 62.2,143 62,143.1 62.2,143.3 62.9,142.5 
		20.3,99.9 19.4,100.8 62,143.4 62.2,143.3 	"/>
	<rect x="11.2" y="121.2" transform="matrix(0.7059 -0.7083 0.7083 0.7059 -74.0643 64.9282)" width="59.9" height="0.9"/>
	<polygon points="20.3,143.1 20.4,143 19.9,142.5 62,100.4 62.4,100.8 20.2,143 20.3,143.1 20.4,143 20.3,143.1 20.4,143.3 
		62.9,100.8 62,99.9 19.4,142.5 20.3,143.4 20.4,143.3 	"/>
	<rect x="11.2" y="121.2" transform="matrix(0.7059 -0.7083 0.7083 0.7059 -74.0643 64.9282)" width="59.9" height="0.9"/>
	<polygon points="20.3,143.1 20.4,143 19.9,142.5 62,100.4 62.4,100.8 20.2,143 20.3,143.1 20.4,143 20.3,143.1 20.4,143.3 
		62.9,100.8 62,99.9 19.4,142.5 20.3,143.4 20.4,143.3 	"/>
	<rect x="40.7" y="91.7" transform="matrix(0.3908 -0.9205 0.9205 0.3908 -86.9102 112.0103)" width="0.9" height="59.9"/>
	<polygon points="68.6,133.8 68.6,133.6 13.6,110.3 13.8,109.8 68.7,133.1 68.4,133.7 68.6,133.8 68.6,133.6 68.6,133.8 68.7,133.8 
		69.1,132.9 13.7,109.3 13.2,110.4 68.7,134 68.7,133.8 	"/>
	<rect x="11.2" y="121.2" transform="matrix(0.3895 -0.921 0.921 0.3895 -86.9229 112.1901)" width="59.9" height="0.9"/>
	<polygon points="29.8,149.4 29.9,149.3 29.3,149 52.6,94.1 53,94.3 29.7,149.3 29.8,149.4 29.9,149.3 29.8,149.4 30,149.5 
		53.5,94.2 52.4,93.7 28.8,149.2 29.9,149.6 30,149.5 	"/>
	<rect x="11.2" y="121.2" transform="matrix(0.3895 -0.921 0.921 0.3895 -86.9229 112.1901)" width="59.9" height="0.9"/>
	<polygon points="29.8,149.4 29.9,149.3 29.3,149 52.6,94.1 53,94.3 29.7,149.3 29.8,149.4 29.9,149.3 29.8,149.4 30,149.5 
		53.5,94.2 52.4,93.7 28.8,149.2 29.9,149.6 30,149.5 	"/>
	<rect x="11.2" y="121.2" transform="matrix(0.9273 -0.3743 0.3743 0.9273 -42.5415 24.2474)" width="59.9" height="0.9"/>
	<polygon points="13.5,133.3 13.7,133.2 13.4,132.6 68.7,110.3 68.9,110.7 13.5,133.1 13.5,133.3 13.7,133.2 13.5,133.3 13.6,133.4 
		69.3,110.9 68.9,109.8 13,132.4 13.4,133.5 13.6,133.4 	"/>
	<rect x="40.7" y="91.7" transform="matrix(0.9272 -0.3746 0.3746 0.9272 -42.576 24.2769)" width="0.9" height="59.9"/>
	<polygon points="52,149.6 52.1,149.5 29.8,94.1 30.2,93.9 52.6,149.2 51.9,149.4 52,149.6 52.1,149.5 52,149.6 52.1,149.8 
		53,149.4 30.4,93.5 29.3,93.9 51.9,149.8 52.1,149.8 	"/>
	<rect x="40.7" y="91.7" transform="matrix(0.9272 -0.3746 0.3746 0.9272 -42.576 24.2769)" width="0.9" height="59.9"/>
	<polygon points="52,149.6 52.1,149.5 29.8,94.1 30.2,93.9 52.6,149.2 51.9,149.4 52,149.6 52.1,149.5 52,149.6 52.1,149.8 
		53,149.4 30.4,93.5 29.3,93.9 51.9,149.8 52.1,149.8 	"/>
	<rect x="162.5" y="86.2" width="0.9" height="59.9"/>
	<polygon points="163.3,146.1 163.3,146 162.7,146 162.7,86.4 163.2,86.4 163.2,146.1 163.3,146.1 163.3,146 163.3,146.1 
		163.5,146.1 163.5,86.1 162.3,86.1 162.3,146.3 163.5,146.3 163.5,146.1 	"/>
	<rect x="133" y="115.8" width="59.9" height="0.9"/>
	<polygon points="192.9,116.6 192.9,116.4 133.1,116.4 133.1,115.9 192.7,115.9 192.7,116.6 192.9,116.6 192.9,116.4 192.9,116.6 
		193.1,116.6 193.1,115.6 132.8,115.6 132.8,116.8 193.1,116.8 193.1,116.6 	"/>
	<rect x="133" y="115.8" width="59.9" height="0.9"/>
	<polygon points="192.9,116.6 192.9,116.4 133.1,116.4 133.1,115.9 192.7,115.9 192.7,116.6 192.9,116.6 192.9,116.4 192.9,116.6 
		193.1,116.6 193.1,115.6 132.8,115.6 132.8,116.8 193.1,116.8 193.1,116.6 	"/>
	<rect x="162.5" y="86.2" transform="matrix(0.7071 -0.7071 0.7071 0.7071 -34.4379 149.2276)" width="0.9" height="59.9"/>
	<polygon points="183.8,137.7 183.9,137.6 141.7,95.3 142,94.9 184.2,137.1 183.7,137.6 183.8,137.7 183.9,137.6 183.8,137.7 
		183.9,137.8 184.6,137.1 142,94.5 141.2,95.3 183.8,137.9 183.9,137.8 	"/>
	<rect x="133" y="115.8" transform="matrix(0.7079 -0.7063 0.7063 0.7079 -34.473 149.0155)" width="59.9" height="0.9"/>
	<polygon points="142,137.7 142.2,137.6 141.7,137.1 183.8,94.9 184.2,95.3 141.9,137.6 142,137.7 142.2,137.6 142,137.7 
		142.2,137.8 184.6,95.3 183.8,94.5 141.2,137.1 142,137.9 142.2,137.8 	"/>
	<rect x="133" y="115.8" transform="matrix(0.7079 -0.7063 0.7063 0.7079 -34.473 149.0155)" width="59.9" height="0.9"/>
	<polygon points="142,137.7 142.2,137.6 141.7,137.1 183.8,94.9 184.2,95.3 141.9,137.6 142,137.7 142.2,137.6 142,137.7 
		142.2,137.8 184.6,95.3 183.8,94.5 141.2,137.1 142,137.9 142.2,137.8 	"/>
	<rect x="162.5" y="86.2" transform="matrix(0.3907 -0.9205 0.9205 0.3907 -7.6864 220.7569)" width="0.9" height="59.9"/>
	<polygon points="190.3,128.3 190.4,128.1 135.4,104.8 135.6,104.3 190.4,127.6 190.2,128.2 190.3,128.3 190.4,128.1 190.3,128.3 
		190.5,128.4 190.9,127.4 135.4,103.9 135,105 190.4,128.5 190.5,128.4 	"/>
	<rect x="133" y="115.8" transform="matrix(0.392 -0.92 0.92 0.392 -7.8301 220.5221)" width="59.9" height="0.9"/>
	<polygon points="151.6,143.9 151.7,143.8 151,143.5 174.3,88.7 174.8,88.9 151.4,143.9 151.6,143.9 151.7,143.8 151.6,143.9 
		151.8,144 175.2,88.7 174.1,88.2 150.6,143.7 151.7,144.2 151.8,144 	"/>
	<rect x="133" y="115.8" transform="matrix(0.392 -0.92 0.92 0.392 -7.8301 220.5221)" width="59.9" height="0.9"/>
	<polygon points="151.6,143.9 151.7,143.8 151,143.5 174.3,88.7 174.8,88.9 151.4,143.9 151.6,143.9 151.7,143.8 151.6,143.9 
		151.8,144 175.2,88.7 174.1,88.2 150.6,143.7 151.7,144.2 151.8,144 	"/>
	<rect x="133" y="115.8" transform="matrix(0.9272 -0.3746 0.3746 0.9272 -31.66 69.4895)" width="59.9" height="0.9"/>
	<polygon points="135.3,127.8 135.5,127.7 135.2,127.1 190.4,104.8 190.6,105.3 135.2,127.6 135.3,127.8 135.5,127.7 135.3,127.8 
		135.4,128 191.1,105.5 190.6,104.3 134.8,126.9 135.2,128 135.4,128 	"/>
	<rect x="162.5" y="86.2" transform="matrix(0.9272 -0.3746 0.3746 0.9272 -31.6597 69.4886)" width="0.9" height="59.9"/>
	<polygon points="173.7,144.1 173.9,144.1 151.5,88.7 152,88.5 174.3,143.7 173.7,144 173.7,144.1 173.9,144.1 173.7,144.1 
		173.8,144.3 174.8,143.9 152.2,88 151.1,88.5 173.7,144.3 173.8,144.3 	"/>
	<rect x="162.5" y="86.2" transform="matrix(0.9272 -0.3746 0.3746 0.9272 -31.6597 69.4886)" width="0.9" height="59.9"/>
	<polygon points="173.7,144.1 173.9,144.1 151.5,88.7 152,88.5 174.3,143.7 173.7,144 173.7,144.1 173.9,144.1 173.7,144.1 
		173.8,144.3 174.8,143.9 152.2,88 151.1,88.5 173.7,144.3 173.8,144.3 	"/>
	<rect x="162.5" y="86.2" width="0.9" height="59.9"/>
	<polygon points="163.3,146.1 163.3,146 162.7,146 162.7,86.4 163.2,86.4 163.2,146.1 163.3,146.1 163.3,146 163.3,146.1 
		163.5,146.1 163.5,86.1 162.3,86.1 162.3,146.3 163.5,146.3 163.5,146.1 	"/>
	<rect x="133" y="115.8" width="59.9" height="0.9"/>
	<polygon points="192.9,116.6 192.9,116.4 133.1,116.4 133.1,115.9 192.7,115.9 192.7,116.6 192.9,116.6 192.9,116.4 192.9,116.6 
		193.1,116.6 193.1,115.6 132.8,115.6 132.8,116.8 193.1,116.8 193.1,116.6 	"/>
	<rect x="133" y="115.8" width="59.9" height="0.9"/>
	<polygon points="192.9,116.6 192.9,116.4 133.1,116.4 133.1,115.9 192.7,115.9 192.7,116.6 192.9,116.6 192.9,116.4 192.9,116.6 
		193.1,116.6 193.1,115.6 132.8,115.6 132.8,116.8 193.1,116.8 193.1,116.6 	"/>
	<rect x="162.5" y="86.2" transform="matrix(0.7071 -0.7071 0.7071 0.7071 -34.4379 149.2276)" width="0.9" height="59.9"/>
	<polygon points="183.8,137.7 183.9,137.6 141.7,95.3 142,94.9 184.2,137.1 183.7,137.6 183.8,137.7 183.9,137.6 183.8,137.7 
		183.9,137.8 184.6,137.1 142,94.5 141.2,95.3 183.8,137.9 183.9,137.8 	"/>
	<rect x="133" y="115.8" transform="matrix(0.7079 -0.7063 0.7063 0.7079 -34.473 149.0155)" width="59.9" height="0.9"/>
	<polygon points="142,137.7 142.2,137.6 141.7,137.1 183.8,94.9 184.2,95.3 141.9,137.6 142,137.7 142.2,137.6 142,137.7 
		142.2,137.8 184.6,95.3 183.8,94.5 141.2,137.1 142,137.9 142.2,137.8 	"/>
	<rect x="133" y="115.8" transform="matrix(0.7079 -0.7063 0.7063 0.7079 -34.473 149.0155)" width="59.9" height="0.9"/>
	<polygon points="142,137.7 142.2,137.6 141.7,137.1 183.8,94.9 184.2,95.3 141.9,137.6 142,137.7 142.2,137.6 142,137.7 
		142.2,137.8 184.6,95.3 183.8,94.5 141.2,137.1 142,137.9 142.2,137.8 	"/>
	<rect x="162.5" y="86.2" transform="matrix(0.3907 -0.9205 0.9205 0.3907 -7.6864 220.7569)" width="0.9" height="59.9"/>
	<polygon points="190.3,128.3 190.4,128.1 135.4,104.8 135.6,104.3 190.4,127.6 190.2,128.2 190.3,128.3 190.4,128.1 190.3,128.3 
		190.5,128.4 190.9,127.4 135.4,103.9 135,105 190.4,128.5 190.5,128.4 	"/>
	<rect x="133" y="115.8" transform="matrix(0.392 -0.92 0.92 0.392 -7.8301 220.5221)" width="59.9" height="0.9"/>
	<polygon points="151.6,143.9 151.7,143.8 151,143.5 174.3,88.7 174.8,88.9 151.4,143.9 151.6,143.9 151.7,143.8 151.6,143.9 
		151.8,144 175.2,88.7 174.1,88.2 150.6,143.7 151.7,144.2 151.8,144 	"/>
	<rect x="133" y="115.8" transform="matrix(0.392 -0.92 0.92 0.392 -7.8301 220.5221)" width="59.9" height="0.9"/>
	<polygon points="151.6,143.9 151.7,143.8 151,143.5 174.3,88.7 174.8,88.9 151.4,143.9 151.6,143.9 151.7,143.8 151.6,143.9 
		151.8,144 175.2,88.7 174.1,88.2 150.6,143.7 151.7,144.2 151.8,144 	"/>
	<rect x="133" y="115.8" transform="matrix(0.9272 -0.3746 0.3746 0.9272 -31.66 69.4895)" width="59.9" height="0.9"/>
	<polygon points="135.3,127.8 135.5,127.7 135.2,127.1 190.4,104.8 190.6,105.3 135.2,127.6 135.3,127.8 135.5,127.7 135.3,127.8 
		135.4,128 191.1,105.5 190.6,104.3 134.8,126.9 135.2,128 135.4,128 	"/>
	<rect x="162.5" y="86.2" transform="matrix(0.9272 -0.3746 0.3746 0.9272 -31.6597 69.4886)" width="0.9" height="59.9"/>
	<polygon points="173.7,144.1 173.9,144.1 151.5,88.7 152,88.5 174.3,143.7 173.7,144 173.7,144.1 173.9,144.1 173.7,144.1 
		173.8,144.3 174.8,143.9 152.2,88 151.1,88.5 173.7,144.3 173.8,144.3 	"/>
	<rect x="162.5" y="86.2" transform="matrix(0.9272 -0.3746 0.3746 0.9272 -31.6597 69.4886)" width="0.9" height="59.9"/>
	<polygon points="173.7,144.1 173.9,144.1 151.5,88.7 152,88.5 174.3,143.7 173.7,144 173.7,144.1 173.9,144.1 173.7,144.1 
		173.8,144.3 174.8,143.9 152.2,88 151.1,88.5 173.7,144.3 173.8,144.3 	"/>
	
		<rect x="65.4" y="58.2" transform="matrix(0.9054 -0.4246 0.4246 0.9054 -20.6437 34.5182)" class="st0" width="3.4" height="10.7"/>
	<polygon points="67.9,69.2 68,69.1 63.5,59.5 66.3,58.2 70.7,67.6 67.8,69 67.9,69.2 68,69.1 67.9,69.2 67.9,69.3 71.2,67.8 
		66.5,57.8 63.1,59.4 67.8,69.4 67.9,69.3 	"/>
	<path class="st0" d="M128.4,56.1c-0.7-0.8-4.4-4.7-5.1-6.7c-0.4-1-0.6-3.2-0.2-4.5c0.3-0.8,1.2-1.9,2.6-3.1c0.6-0.5,1.5-1,2.4-1.5
		c0.7-0.4,1.4-0.8,1.8-1c1.8-1.4,2.2-1.9,2.3-2.1c0.2-0.4,0.2-1.6,0.1-2c-0.1-0.3-1-1.1-1.4-1.4c-0.5-0.3-2.1-0.6-3.6-0.7
		c-1.2-0.1-4.7,0.2-6,0.3l-0.3-3.1c0.5,0,4.9-0.4,6.6-0.3c0.6,0,3.5,0.3,4.9,1.1c0.9,0.5,2.4,1.8,2.8,3c0.5,1.2,0.3,3.3-0.2,4.3
		c-0.5,1.1-1.8,2.2-3.2,3.3c-0.6,0.4-1.4,0.9-2.2,1.3c-0.7,0.4-1.5,0.8-1.9,1.1c-1,0.8-1.6,1.5-1.7,1.7c-0.1,0.4-0.1,1.7,0.2,2.3
		c0.4,1.1,2.9,4,4.5,5.7L128.4,56.1z"/>
	<path d="M128.4,56.1l0.1-0.1c-0.4-0.4-1.5-1.6-2.6-2.9c-1.1-1.3-2.2-2.8-2.6-3.8c-0.2-0.6-0.4-1.7-0.4-2.7c0-0.6,0.1-1.2,0.2-1.7
		c0.3-0.8,1.1-1.8,2.6-3c0.6-0.5,1.5-0.9,2.4-1.4l0,0l0,0c0.7-0.4,1.4-0.8,1.8-1.1l0,0c0.9-0.7,1.5-1.2,1.8-1.5
		c0.3-0.3,0.5-0.5,0.5-0.6l0,0l0,0c0.1-0.2,0.1-0.4,0.1-0.6c0-0.2,0-0.5,0-0.8c0-0.3,0-0.5-0.1-0.7l0,0l0,0c0-0.1-0.1-0.2-0.2-0.4
		c-0.2-0.2-0.4-0.4-0.6-0.6c-0.2-0.2-0.4-0.4-0.6-0.5c-0.1-0.1-0.4-0.2-0.6-0.2c-0.8-0.2-2-0.4-3.1-0.5c-0.2,0-0.4,0-0.7,0
		c-1.5,0-4.3,0.2-5.4,0.3l0,0.2l0.2,0l-0.3-3.1l-0.2,0l0,0.2c0.4,0,3.7-0.3,5.6-0.3c0.4,0,0.7,0,0.9,0c0.3,0,1.1,0.1,2.1,0.3
		c1,0.2,2,0.4,2.7,0.8c0.4,0.2,1,0.7,1.5,1.2c0.5,0.5,1,1.1,1.2,1.7l0,0c0.2,0.5,0.3,1.1,0.3,1.7c0,0.9-0.2,1.9-0.4,2.5l0,0
		c-0.2,0.5-0.7,1.1-1.2,1.6c-0.6,0.5-1.2,1.1-1.9,1.6c-0.5,0.4-1.3,0.8-2.2,1.3l0,0l0,0c-0.4,0.2-0.7,0.4-1.1,0.6
		c-0.3,0.2-0.6,0.4-0.8,0.5c-0.5,0.4-0.9,0.8-1.2,1.1c-0.1,0.2-0.3,0.3-0.3,0.4c-0.1,0.1-0.1,0.2-0.2,0.3l0,0l0,0
		c0,0.1,0,0.2-0.1,0.3c0,0.1,0,0.2,0,0.4c0,0.3,0,0.6,0.1,0.9c0,0.3,0.1,0.6,0.2,0.8l0,0c0.1,0.3,0.3,0.7,0.7,1.1
		c0.9,1.4,2.6,3.3,3.9,4.6l0.1-0.1l-0.1-0.1l-2.3,2.2L128.4,56.1l0.1-0.1L128.4,56.1l0.1,0.1l2.4-2.3l-0.1-0.1
		c-0.8-0.9-1.8-2-2.7-3.1c-0.4-0.5-0.8-1-1.1-1.5c-0.3-0.4-0.5-0.8-0.6-1.1l0,0c-0.1-0.2-0.1-0.4-0.2-0.7c0-0.3-0.1-0.6-0.1-0.9
		c0-0.1,0-0.3,0-0.4c0-0.1,0-0.2,0-0.2L126,46l0.2,0.1c0,0,0.1-0.1,0.1-0.2c0.2-0.3,0.8-0.8,1.5-1.4c0.2-0.1,0.5-0.3,0.8-0.5
		c0.3-0.2,0.7-0.4,1.1-0.6l0,0c0.8-0.5,1.6-0.9,2.2-1.3c0.7-0.5,1.4-1.1,1.9-1.6c0.6-0.6,1-1.1,1.3-1.7l0,0c0.3-0.6,0.5-1.6,0.5-2.6
		c0-0.7-0.1-1.3-0.3-1.8l0,0c-0.2-0.6-0.7-1.3-1.3-1.8c-0.5-0.6-1.1-1-1.6-1.3c-0.8-0.4-1.8-0.7-2.8-0.9c-1-0.2-1.9-0.3-2.1-0.3
		c-0.3,0-0.6,0-0.9,0c-2,0-5.2,0.3-5.7,0.3l-0.2,0l0.3,3.5l0.2,0c1.1-0.1,3.8-0.3,5.3-0.3c0.3,0,0.5,0,0.6,0
		c0.7,0.1,1.5,0.2,2.2,0.3c0.3,0.1,0.6,0.1,0.9,0.2c0.2,0.1,0.4,0.1,0.5,0.2c0.2,0.1,0.5,0.4,0.8,0.6c0.1,0.1,0.3,0.3,0.4,0.4
		c0.1,0.1,0.2,0.2,0.2,0.3l0.2-0.1l-0.2,0.1c0,0.1,0.1,0.3,0.1,0.6c0,0.2,0,0.5,0,0.7c0,0.2-0.1,0.4-0.1,0.5l0.2,0.1l-0.2-0.1
		c0,0.1-0.1,0.2-0.4,0.5c-0.3,0.3-0.9,0.8-1.8,1.5l0,0c-0.3,0.3-1.1,0.7-1.7,1l0,0c-0.9,0.5-1.8,1-2.4,1.5c-1.5,1.2-2.4,2.2-2.7,3.1
		c-0.2,0.5-0.3,1.2-0.3,1.8c0,1,0.2,2.1,0.4,2.8c0.4,1.1,1.5,2.6,2.6,3.9c1.1,1.3,2.2,2.5,2.6,2.9l0.1,0.1l0.1-0.1L128.4,56.1z"/>
	<path class="st1" d="M121.6,32.7c0,1-0.9,1.7-1.8,1.7L107,33.9c-1,0-1.8-0.9-1.7-1.8l0-1.1c0-1,0.9-1.7,1.8-1.7l12.7,0.4
		c1,0,1.8,0.9,1.7,1.8L121.6,32.7z"/>
	<path d="M121.6,32.7l-0.2,0c0,0.9-0.7,1.6-1.6,1.6l-0.1,0l0,0l-12.7-0.4l0,0c-0.9,0-1.6-0.7-1.6-1.6l0-0.1l0-1.1
		c0-0.9,0.7-1.6,1.6-1.6l0.1,0l12.7,0.4c0.9,0,1.6,0.7,1.6,1.6l0,0.1l0,1.1L121.6,32.7l0.2,0l0-1.1l0-0.1c0-1-0.8-1.9-1.9-1.9
		l-12.7-0.4l-0.1,0c-1,0-1.9,0.8-2,1.9l0,1.1l0,0.1c0,1,0.8,1.9,1.9,1.9l12.7,0.4l0,0l0.1,0c1,0,1.9-0.8,2-1.9L121.6,32.7z"/>
	<path class="st1" d="M66.9,59.1c1.6-0.3,4.7-1,6.3-1.4c1.5-0.4,4.9-0.7,5.9-1.9c0.4-0.5,0.3-2.1-0.1-2.6c-0.5-0.6-2.3-0.8-3.1-0.9
		c-2-0.2-5.7,0.3-7.7,0.4c-1.2,0.1-4,0.1-5.2,0c-1.4-0.1-4-0.8-5.4-0.9c-0.9-0.1-2.8-0.1-3.7,0.2c-0.7,0.2-2.1,1-2.5,1.5
		c-0.4,0.6-0.9,2.1-0.7,2.8c0.3,1.1,2,3,3,3.5c1.4,0.7,4.7,0.6,6.3,0.6C61.8,60.2,65.2,59.5,66.9,59.1z"/>
	<path d="M66.9,59.1l0,0.2c1.6-0.3,4.7-1,6.3-1.4l0,0c0.7-0.2,2-0.4,3.1-0.6c0.6-0.1,1.2-0.3,1.7-0.5c0.5-0.2,0.9-0.5,1.2-0.8l0,0
		c0.1-0.1,0.2-0.3,0.2-0.5c0-0.2,0.1-0.4,0.1-0.7c0-0.3,0-0.6-0.1-0.9c-0.1-0.3-0.2-0.6-0.3-0.7l0,0c-0.2-0.2-0.4-0.3-0.6-0.4
		c-0.8-0.3-1.9-0.5-2.5-0.5l0,0c-0.4,0-0.8-0.1-1.3-0.1c-2,0-4.8,0.3-6.4,0.4l0,0c-0.5,0-1.4,0-2.3,0c-1.1,0-2.3,0-2.9-0.1l0,0
		c-0.7-0.1-1.7-0.2-2.7-0.4c-1-0.2-2-0.4-2.7-0.4c-0.4,0-0.9-0.1-1.4-0.1c-0.9,0-1.8,0.1-2.4,0.2l0,0c-0.4,0.1-0.9,0.4-1.4,0.6
		c-0.5,0.3-0.9,0.6-1.2,1l0,0c-0.2,0.3-0.4,0.7-0.5,1.2c-0.1,0.5-0.2,1-0.2,1.4c0,0.1,0,0.3,0,0.4l0,0c0.1,0.6,0.7,1.4,1.3,2
		c0.6,0.7,1.3,1.3,1.8,1.6c0.5,0.3,1.2,0.4,2,0.5c0.8,0.1,1.7,0.1,2.4,0.1c0.7,0,1.4,0,1.9,0l0,0l0,0c0.9,0,2.2-0.2,3.5-0.5
		c1.3-0.2,2.6-0.5,3.4-0.7l0,0L66.9,59.1l0-0.2c-0.9,0.2-2.1,0.4-3.4,0.7c-1.3,0.2-2.6,0.4-3.4,0.5l0,0c-0.5,0-1.2,0-1.9,0
		c-0.8,0-1.6,0-2.4-0.1c-0.8-0.1-1.5-0.2-1.9-0.5c-0.5-0.2-1.2-0.8-1.7-1.5c-0.6-0.7-1.1-1.4-1.2-1.9l0,0c0-0.1,0-0.2,0-0.3
		c0-0.4,0.1-0.8,0.2-1.3c0.1-0.4,0.3-0.9,0.5-1.1l0,0c0.2-0.3,0.6-0.6,1.1-0.9c0.5-0.3,1-0.5,1.3-0.6l0,0c0.5-0.2,1.4-0.2,2.3-0.2
		c0.5,0,1,0,1.4,0.1c0.7,0.1,1.7,0.2,2.7,0.4c1,0.2,2,0.4,2.7,0.4l0,0c0.7,0.1,1.9,0.1,3,0.1c0.9,0,1.7,0,2.3,0l0,0
		c1.6-0.1,4.4-0.4,6.4-0.4c0.5,0,0.9,0,1.3,0.1l0,0c0.4,0,1,0.1,1.6,0.3c0.3,0.1,0.6,0.2,0.8,0.3c0.2,0.1,0.4,0.2,0.5,0.3l0,0
		c0.1,0.1,0.2,0.3,0.2,0.6c0.1,0.3,0.1,0.6,0.1,0.9c0,0.2,0,0.4-0.1,0.6c0,0.2-0.1,0.3-0.2,0.4l0,0c-0.2,0.3-0.6,0.5-1.1,0.7
		c-0.7,0.3-1.6,0.5-2.5,0.7c-0.9,0.2-1.7,0.3-2.3,0.5l0,0c-1.5,0.4-4.7,1.1-6.2,1.4l0,0L66.9,59.1z"/>
	<path class="st1" d="M42,152.5c-16.9,0.8-31.3-12.3-32.1-29.2C9.1,106.4,22.3,92,39.2,91.2c16.9-0.8,31.3,12.3,32.1,29.2
		C72.1,137.3,58.9,151.7,42,152.5z M39.4,95.9C25.1,96.5,14,108.7,14.6,123c0.7,14.3,12.9,25.4,27.2,24.7
		c14.3-0.7,25.4-12.9,24.7-27.2C65.9,106.3,53.7,95.2,39.4,95.9z"/>
	<path d="M42,152.5l0-0.2c-0.5,0-1,0-1.4,0c-16.2,0-29.7-12.8-30.5-29.1c0-0.5,0-1,0-1.4c0-16.2,12.8-29.7,29.1-30.5
		c0.5,0,1,0,1.4,0c16.2,0,29.7,12.8,30.5,29.1c0,0.5,0,1,0,1.4c0,16.2-12.8,29.7-29.1,30.5L42,152.5l0,0.2
		c16.5-0.8,29.4-14.5,29.4-30.8h0c0-0.5,0-1,0-1.5C70.7,103.9,57,91,40.6,91c-0.5,0-1,0-1.5,0c-16.5,0.8-29.4,14.5-29.4,30.8
		c0,0.5,0,1,0,1.5c0.8,16.5,14.5,29.4,30.8,29.4c0.5,0,1,0,1.5,0L42,152.5z M39.4,95.9l0-0.2c-14,0.7-24.9,12.2-24.9,26.1
		c0,0.4,0,0.8,0,1.2c0.7,14,12.2,24.9,26.1,24.9c0.4,0,0.8,0,1.2,0c14-0.7,24.9-12.2,24.9-26.1c0-0.4,0-0.8,0-1.2
		c-0.7-14-12.2-24.9-26.1-24.9c-0.4,0-0.8,0-1.2,0L39.4,95.9l0,0.2c0.4,0,0.8,0,1.2,0c13.7,0,25.1,10.8,25.8,24.6c0,0.4,0,0.8,0,1.2
		c0,13.7-10.8,25.1-24.6,25.8c-0.4,0-0.8,0-1.2,0c-13.7,0-25.1-10.8-25.8-24.6c0-0.4,0-0.8,0-1.2c0-13.7,10.8-25.1,24.6-25.8
		L39.4,95.9z"/>
	<path class="st1" d="M164.7,151c-19.4,0.9-35.9-14.1-36.8-33.5C127,98.2,142,81.7,161.4,80.8c19.4-0.9,35.9,14.1,36.8,33.5
		C199.1,133.6,184.1,150.1,164.7,151z M161.7,86.2c-16.4,0.8-29.1,14.7-28.3,31.1c0.8,16.4,14.7,29.1,31.1,28.4
		c16.4-0.8,29.1-14.7,28.3-31.1C192,98.1,178.1,85.4,161.7,86.2z"/>
	<path d="M164.7,151l0-0.2c-0.6,0-1.1,0-1.7,0c-18.6,0-34.1-14.6-34.9-33.4c0-0.6,0-1.1,0-1.7c0-18.6,14.6-34.1,33.4-34.9
		c0.6,0,1.1,0,1.7,0c18.6,0,34.1,14.6,34.9,33.4c0,0.6,0,1.1,0,1.7c0,18.6-14.6,34.1-33.4,34.9L164.7,151l0,0.2
		c18.9-0.9,33.7-16.5,33.7-35.3c0-0.6,0-1.1,0-1.7c-0.9-18.9-16.5-33.7-35.3-33.7c-0.6,0-1.1,0-1.7,0c-18.9,0.9-33.7,16.5-33.7,35.3
		c0,0.6,0,1.1,0,1.7c0.9,18.9,16.5,33.7,35.3,33.7c0.6,0,1.1,0,1.7,0L164.7,151z M161.7,86.2l0-0.2c-16,0.7-28.5,14-28.5,29.9
		c0,0.5,0,0.9,0,1.4c0.7,16,14,28.5,29.9,28.5c0.5,0,0.9,0,1.4,0c16-0.7,28.5-14,28.5-29.9c0-0.5,0-0.9,0-1.4
		c-0.7-16-14-28.5-29.9-28.5c-0.5,0-0.9,0-1.4,0L161.7,86.2l0,0.2c0.5,0,0.9,0,1.4,0c15.7,0,28.8,12.4,29.6,28.2c0,0.5,0,0.9,0,1.4
		c0,15.7-12.4,28.8-28.2,29.6c-0.5,0-0.9,0-1.4,0c-15.7,0-28.8-12.4-29.6-28.2c0-0.5,0-0.9,0-1.4c0-15.7,12.4-28.8,28.2-29.6
		L161.7,86.2z"/>
	<path class="st2" d="M41.9,149.6c-15.3,0.7-28.4-11.2-29.1-26.5C12.1,107.8,24,94.8,39.3,94.1c15.3-0.7,28.4,11.2,29.1,26.5
		C69.1,135.8,57.2,148.9,41.9,149.6z M39.4,95.5c-14.5,0.7-25.7,13-25.1,27.5c0.7,14.5,13,25.7,27.5,25.1
		c14.5-0.7,25.7-13,25.1-27.5C66.2,106.1,53.9,94.9,39.4,95.5z"/>
	<path d="M41.9,149.6l0-0.2c-0.4,0-0.9,0-1.3,0c-14.6,0-26.9-11.6-27.6-26.3c0-0.4,0-0.9,0-1.3c0-14.6,11.6-26.9,26.3-27.6
		c0.4,0,0.9,0,1.3,0c14.7,0,26.9,11.6,27.6,26.3c0,0.4,0,0.9,0,1.3c0,14.6-11.6,26.9-26.3,27.6L41.9,149.6l0,0.2
		c15-0.7,26.7-13.1,26.7-27.9c0-0.4,0-0.9,0-1.3c-0.7-15-13.1-26.7-27.9-26.7c-0.4,0-0.9,0-1.3,0c-15,0.7-26.7,13.1-26.7,27.9
		c0,0.4,0,0.9,0,1.3c0.7,15,13.1,26.7,27.9,26.7c0.4,0,0.9,0,1.3,0L41.9,149.6z M39.4,95.5l0-0.2c-14.2,0.7-25.2,12.4-25.2,26.4
		c0,0.4,0,0.8,0,1.3c0.7,14.2,12.4,25.2,26.4,25.2c0.4,0,0.8,0,1.3,0c14.2-0.7,25.2-12.4,25.2-26.4c0-0.4,0-0.8,0-1.2
		c-0.7-14.2-12.4-25.2-26.4-25.2c-0.4,0-0.8,0-1.2,0L39.4,95.5l0,0.2c0.4,0,0.8,0,1.2,0c13.9,0,25.4,10.9,26.1,24.9
		c0,0.4,0,0.8,0,1.2c0,13.9-10.9,25.4-24.9,26.1c-0.4,0-0.8,0-1.2,0C26.7,148,15.1,137,14.5,123c0-0.4,0-0.8,0-1.2
		c0-13.9,10.9-25.4,24.9-26.1L39.4,95.5z"/>
	<path class="st2" d="M164.6,147.7c-17.5,0.8-32.5-12.8-33.3-30.3c-0.8-17.5,12.8-32.5,30.3-33.3c17.5-0.8,32.5,12.8,33.3,30.3
		C195.8,132,182.2,146.9,164.6,147.7z M161.8,85.8c-16.6,0.8-29.5,14.9-28.7,31.5c0.8,16.6,14.9,29.5,31.5,28.7
		c16.6-0.8,29.5-14.9,28.7-31.5C192.5,97.9,178.4,85,161.8,85.8z"/>
	<path d="M164.6,147.7l0-0.2c-0.5,0-1,0-1.5,0c-16.8,0-30.8-13.3-31.6-30.2c0-0.5,0-1,0-1.5c0-16.8,13.3-30.8,30.2-31.6
		c0.5,0,1,0,1.5,0c16.8,0,30.8,13.3,31.6,30.2c0,0.5,0,1,0,1.5c0,16.8-13.3,30.8-30.2,31.6L164.6,147.7l0,0.2
		c17.1-0.8,30.5-15,30.5-32c0-0.5,0-1,0-1.5c-0.8-17.1-15-30.5-32-30.5c-0.5,0-1,0-1.5,0c-17.1,0.8-30.5,15-30.5,32c0,0.5,0,1,0,1.5
		c0.8,17.1,15,30.5,32,30.5c0.5,0,1,0,1.5,0L164.6,147.7z M161.8,85.8l0-0.2c-16.2,0.8-28.9,14.2-28.9,30.3c0,0.5,0,1,0,1.4
		c0.8,16.2,14.2,28.9,30.3,28.9c0.5,0,1,0,1.4,0c16.2-0.8,28.9-14.2,28.9-30.3c0-0.5,0-1,0-1.4c-0.8-16.2-14.2-28.9-30.3-28.9
		c-0.5,0-1,0-1.4,0L161.8,85.8l0,0.2c0.5,0,0.9,0,1.4,0c15.9,0,29.2,12.5,29.9,28.6c0,0.5,0,0.9,0,1.4c0,15.9-12.5,29.2-28.6,29.9
		c-0.5,0-0.9,0-1.4,0c-15.9,0-29.2-12.5-29.9-28.6c0-0.5,0-0.9,0-1.4c0-15.9,12.5-29.2,28.6-29.9L161.8,85.8z"/>
	<path class="st3" d="M47.7,121.3c0.2,3.8-2.7,6.9-6.5,7.1c-3.8,0.2-6.9-2.7-7.1-6.5c-0.2-3.8,2.7-6.9,6.5-7.1
		C44.4,114.6,47.6,117.5,47.7,121.3z"/>
	<path d="M47.7,121.3l-0.2,0c0,0.1,0,0.2,0,0.3c0,3.5-2.8,6.5-6.3,6.6c-0.1,0-0.2,0-0.3,0c-3.5,0-6.5-2.8-6.6-6.3c0-0.1,0-0.2,0-0.3
		c0-3.5,2.8-6.5,6.3-6.6c0.1,0,0.2,0,0.3,0c3.5,0,6.5,2.8,6.6,6.3L47.7,121.3l0.2,0c-0.2-3.7-3.3-6.7-7-6.7c-0.1,0-0.2,0-0.3,0
		c-3.7,0.2-6.7,3.3-6.7,7c0,0.1,0,0.2,0,0.3c0.2,3.7,3.3,6.7,7,6.7c0.1,0,0.2,0,0.3,0c3.7-0.2,6.7-3.3,6.7-7c0-0.1,0-0.2,0-0.3
		L47.7,121.3z"/>
	<path class="st3" d="M169.6,115.6c0.2,3.8-2.7,6.9-6.5,7.1c-3.8,0.2-6.9-2.7-7.1-6.5c-0.2-3.8,2.7-6.9,6.5-7.1
		C166.2,108.9,169.4,111.8,169.6,115.6z"/>
	<path d="M169.6,115.6l-0.2,0c0,0.1,0,0.2,0,0.3c0,3.5-2.8,6.5-6.3,6.6c-0.1,0-0.2,0-0.3,0c-3.5,0-6.5-2.8-6.6-6.3
		c0-0.1,0-0.2,0-0.3c0-3.5,2.8-6.5,6.3-6.6c0.1,0,0.2,0,0.3,0c3.5,0,6.5,2.8,6.6,6.3L169.6,115.6l0.2,0c-0.2-3.7-3.3-6.7-7-6.7
		c-0.1,0-0.2,0-0.3,0c-3.7,0.2-6.7,3.3-6.7,7c0,0.1,0,0.2,0,0.3c0.2,3.7,3.3,6.7,7,6.7c0.1,0,0.2,0,0.3,0c3.7-0.2,6.7-3.3,6.7-7
		c0-0.1,0-0.2,0-0.3L169.6,115.6z"/>
	<path class="st4" d="M160.8,114.8l3-1.7l-31.5-56.2c0.8-0.9,1-2,0.6-2.9l-0.3-0.6c-0.7-1.4-2.7-1.9-4.5-1c-1.8,0.9-2.8,2.7-2.1,4.1
		l0.3,0.6c0.5,1,1.7,1.6,3,1.4l4.1,7.3L74.9,76.6l-1.8-3.9c1-0.9,1.4-2.2,0.9-3.3l-0.3-0.6c-0.7-1.4-2.7-1.9-4.5-1
		c-1.8,0.9-2.8,2.7-2.1,4.1l0.3,0.6c0.4,0.9,1.4,1.4,2.6,1.4l2.2,4.8l-31.7,40l-0.1,0l0,0.1l-1.3,1.6l1.2,0.9l0,0.7l1,0l0.5,0.4
		l0.3-0.4l50.7,1.5l0.4,0.9l3.1-1.4l-0.3-0.7l42.4-47.7L160.8,114.8z M44.7,118.8l29-36.6l17.4,38L44.7,118.8z M94.3,119l-18-39.3
		l58.7-10.9l1.5,2.6L94.3,119z"/>
	<path d="M160.8,114.8l0.1,0.1l3.1-1.8l-31.6-56.3l-0.1,0.1l0.1,0.1c0.5-0.6,0.8-1.4,0.8-2.1c0-0.4-0.1-0.7-0.2-1l0,0l-0.3-0.6l0,0
		c-0.2-0.5-0.6-0.9-1.1-1.2c-0.5-0.3-1.1-0.4-1.7-0.4c-0.6,0-1.3,0.1-2,0.4l0,0c-1.5,0.7-2.4,2-2.4,3.3c0,0.4,0.1,0.7,0.2,1l0.3,0.6
		l0,0c0.2,0.5,0.6,0.9,1.1,1.2c0.5,0.3,1.1,0.4,1.7,0.4c0.1,0,0.3,0,0.4,0l0-0.2l-0.1,0.1l4,7.1L75,76.4l-1.7-3.8l-0.2,0.1l0.1,0.1
		c0.7-0.7,1.1-1.6,1.1-2.4c0-0.4-0.1-0.7-0.2-1l0,0l-0.3-0.6l0,0c-0.2-0.5-0.6-0.9-1.1-1.2c-0.5-0.3-1.1-0.4-1.7-0.4
		c-0.6,0-1.3,0.1-2,0.4l0,0c-1.5,0.7-2.4,2-2.4,3.3c0,0.4,0.1,0.7,0.2,1l0.3,0.6l0,0c0.2,0.5,0.6,0.9,1.1,1.1c0.5,0.3,1,0.4,1.7,0.4
		l0-0.2L69.8,74l2.1,4.7l-31.6,39.9l0,0l-0.2,0l0,0.2l-1.3,1.7l1.3,1l0,0.8l1.1,0l0.6,0.5l0.4-0.5l50.5,1.5l0.5,1l3.4-1.6l-0.4-0.8
		L138.3,75l22.4,40l0.1-0.1L160.8,114.8l0.1-0.1l-22.6-40.3l-42.6,48l0.3,0.7l-2.8,1.3l-0.4-0.9L41.9,122l-0.3,0.3l-0.4-0.4l-0.8,0
		l0-0.6l-1.1-0.9l1.2-1.5l0-0.2l-0.2,0l0,0.2l0.1,0l0.1,0l31.8-40.1l-2.3-5l-0.1,0c-0.6,0-1.1-0.1-1.5-0.4c-0.4-0.2-0.8-0.6-1-1l0,0
		l-0.3-0.6l0,0c-0.1-0.3-0.2-0.6-0.2-0.9c0-1.1,0.8-2.4,2.2-3l0,0l0,0c0.6-0.3,1.2-0.4,1.8-0.4c0.6,0,1.1,0.1,1.5,0.4
		c0.4,0.2,0.8,0.6,1,1l0,0l0.3,0.6l0,0c0.1,0.3,0.2,0.6,0.2,0.9c0,0.7-0.4,1.5-1,2.2l-0.1,0.1l1.9,4.1l58.8-10.9l-4.2-7.6l-0.1,0
		c-0.1,0-0.2,0-0.4,0c-0.6,0-1.1-0.1-1.5-0.4c-0.4-0.2-0.8-0.6-1-1l0,0l-0.3-0.6l0,0c-0.1-0.3-0.2-0.6-0.2-0.9c0-1.1,0.8-2.3,2.2-3
		l0,0c0.6-0.3,1.2-0.4,1.8-0.4c0.6,0,1.1,0.1,1.5,0.4c0.4,0.2,0.8,0.6,1,1l0.3,0.6l0,0c0.1,0.3,0.2,0.6,0.2,0.9
		c0,0.6-0.3,1.3-0.8,1.9l-0.1,0.1l31.5,56.1l-2.8,1.6L160.8,114.8l0.1-0.1L160.8,114.8z M44.7,118.8l0.1,0.1l28.9-36.4L90.9,120
		l-46.2-1.3L44.7,118.8l0.1,0.1L44.7,118.8l0,0.2l46.7,1.3L73.8,81.9L44.3,119l0.3,0L44.7,118.8z M94.3,119l0.2-0.1L76.6,79.9
		L135,69.1l1.3,2.4l-42.1,47.4L94.3,119l0.2-0.1L94.3,119l0.1,0.1l42.3-47.6l-1.6-2.8L76.1,79.7l18.2,39.7l0.2-0.2L94.3,119z"/>
	<path class="st0" d="M45.1,121.4c0.1,2.3-1.6,4.2-3.9,4.3c-2.3,0.1-4.2-1.6-4.3-3.9c-0.1-2.3,1.6-4.2,3.9-4.3
		C43,117.4,44.9,119.1,45.1,121.4z"/>
	<path d="M45.1,121.4l-0.2,0c0,0.1,0,0.1,0,0.2c0,2.1-1.6,3.8-3.8,3.9c-0.1,0-0.1,0-0.2,0c-2.1,0-3.8-1.6-3.9-3.8c0-0.1,0-0.1,0-0.2
		c0-2.1,1.6-3.8,3.8-3.9c0.1,0,0.1,0,0.2,0c2.1,0,3.8,1.6,3.9,3.8L45.1,121.4l0.2,0c-0.1-2.3-2-4.1-4.3-4.1c-0.1,0-0.1,0-0.2,0
		c-2.3,0.1-4.1,2-4.1,4.3c0,0.1,0,0.1,0,0.2c0.1,2.3,2,4.1,4.3,4.1c0.1,0,0.1,0,0.2,0c2.3-0.1,4.1-2,4.1-4.3c0-0.1,0-0.1,0-0.2
		L45.1,121.4z"/>
	<path class="st0" d="M166.9,115.7c0.1,2.3-1.6,4.2-3.9,4.3c-2.3,0.1-4.2-1.6-4.3-3.9c-0.1-2.3,1.6-4.2,3.9-4.3
		C164.8,111.7,166.8,113.5,166.9,115.7z"/>
	<path d="M166.9,115.7l-0.2,0c0,0.1,0,0.1,0,0.2c0,2.1-1.6,3.8-3.8,3.9c-0.1,0-0.1,0-0.2,0c-2.1,0-3.8-1.6-3.9-3.8
		c0-0.1,0-0.1,0-0.2c0-2.1,1.6-3.8,3.8-3.9c0.1,0,0.1,0,0.2,0c2.1,0,3.8,1.6,3.9,3.8L166.9,115.7l0.2,0c-0.1-2.3-2-4.1-4.3-4.1
		c-0.1,0-0.1,0-0.2,0c-2.3,0.1-4.1,2-4.1,4.3c0,0.1,0,0.1,0,0.2c0.1,2.3,2,4.1,4.3,4.1c0.1,0,0.1,0,0.2,0c2.3-0.1,4.1-2,4.1-4.3
		c0-0.1,0-0.1,0-0.2L166.9,115.7z"/>
	
		<rect x="96.3" y="123.9" transform="matrix(0.9053 -0.4247 0.4247 0.9053 -46.2489 53.8947)" class="st0" width="2.9" height="13.6"/>
	<polygon points="99.3,137.5 99.5,137.4 93.8,125.2 96.1,124.1 101.8,136.2 99.3,137.3 99.3,137.5 99.5,137.4 99.3,137.5 
		99.4,137.6 102.2,136.3 96.3,123.7 93.3,125.1 99.3,137.7 99.4,137.6 	"/>
	<rect x="98.1" y="120.7" transform="matrix(0.5717 -0.8204 0.8204 0.5717 -60.371 134.9495)" class="st0" width="2" height="9.2"/>
	<polygon points="102.3,128.8 102.4,128.6 95,123.4 95.9,122.1 103.2,127.2 102.2,128.7 102.3,128.8 102.4,128.6 102.3,128.8 
		102.4,128.9 103.7,127.1 95.8,121.6 94.5,123.5 102.3,129 102.4,128.9 	"/>
	
		<rect x="88.1" y="126.1" transform="matrix(0.2013 -0.9795 0.9795 0.2013 -50.3865 192.3396)" class="st0" width="9.2" height="2"/>
	<polygon points="92.8,131.8 93,131.8 94.9,122.6 92.6,122.1 90.6,131.5 92.9,132 93,131.8 92.8,131.8 92.8,131.6 91,131.3 
		92.8,122.5 94.5,122.9 92.6,131.8 92.8,131.8 92.8,131.6 	"/>
	<path class="st5" d="M107.3,139c0,0.9-0.5,1.7-1.3,1.8l-9.8,0.5c-0.8,0-1.4-0.7-1.5-1.7l-0.1-1.4c0-0.9,0.5-1.7,1.3-1.8l9.8-0.5
		c0.8,0,1.4,0.7,1.5,1.7L107.3,139z"/>
	<path d="M107.3,139l-0.2,0c0,0,0,0.1,0,0.1c0,0.4-0.1,0.8-0.3,1.1c-0.2,0.3-0.5,0.4-0.8,0.4l-9.8,0.5l0,0l0,0
		c-0.3,0-0.6-0.2-0.8-0.4c-0.2-0.3-0.4-0.6-0.4-1.1l-0.1-1.4c0,0,0-0.1,0-0.1c0-0.4,0.1-0.8,0.3-1.1c0.2-0.3,0.5-0.4,0.8-0.4
		l9.8-0.5h0l0,0c0.3,0,0.6,0.2,0.8,0.4c0.2,0.3,0.4,0.6,0.4,1.1l0.1,1.4L107.3,139l0.2,0l-0.1-1.4c0-0.5-0.2-0.9-0.5-1.3
		c-0.3-0.3-0.7-0.5-1.1-0.5l-0.1,0l0,0l-9.7,0.5c-0.4,0-0.8,0.2-1,0.6c-0.3,0.3-0.4,0.8-0.4,1.3c0,0,0,0.1,0,0.1l0.1,1.4
		c0,0.5,0.2,0.9,0.5,1.3c0.3,0.3,0.7,0.5,1.1,0.5l0.1,0l9.8-0.5c0.4,0,0.8-0.2,1-0.6c0.3-0.3,0.4-0.8,0.4-1.3c0,0,0-0.1,0-0.1
		L107.3,139z"/>
	<path class="st2" d="M94.1,131.5c-5.4,0.3-10-3.9-10.3-9.4c-0.3-5.4,3.9-10,9.4-10.3c5.4-0.3,10,3.9,10.3,9.4
		C103.7,126.6,99.5,131.2,94.1,131.5z M93.3,113.5c-4.5,0.2-7.9,4-7.7,8.5c0.2,4.5,4,7.9,8.5,7.7c4.5-0.2,7.9-4,7.7-8.5
		C101.6,116.8,97.8,113.3,93.3,113.5z"/>
	<path d="M94.1,131.5l0-0.2c-0.2,0-0.3,0-0.5,0c-5.1,0-9.4-4-9.6-9.2c0-0.2,0-0.3,0-0.5c0-5.1,4-9.4,9.2-9.6c0.2,0,0.3,0,0.5,0
		c5.1,0,9.4,4,9.6,9.2c0,0.2,0,0.3,0,0.5c0,5.1-4,9.4-9.2,9.6L94.1,131.5l0,0.2c5.3-0.3,9.5-4.7,9.5-10c0-0.2,0-0.3,0-0.5
		c-0.3-5.3-4.7-9.5-10-9.5c-0.2,0-0.3,0-0.5,0c-5.3,0.2-9.5,4.7-9.5,10c0,0.2,0,0.3,0,0.5c0.3,5.3,4.7,9.5,10,9.5c0.2,0,0.3,0,0.5,0
		L94.1,131.5z M93.3,113.5l0-0.2c-4.4,0.2-7.9,3.9-7.9,8.3c0,0.1,0,0.3,0,0.4c0.2,4.4,3.9,7.9,8.3,7.9c0.1,0,0.3,0,0.4,0
		c4.4-0.2,7.9-3.9,7.9-8.3c0-0.1,0-0.3,0-0.4c-0.2-4.4-3.9-7.9-8.3-7.9c-0.1,0-0.3,0-0.4,0L93.3,113.5l0,0.2c0.1,0,0.2,0,0.4,0
		c4.2,0,7.7,3.3,7.9,7.6c0,0.1,0,0.3,0,0.4c0,4.2-3.3,7.7-7.6,7.9c-0.1,0-0.3,0-0.4,0c-4.2,0-7.7-3.3-7.9-7.6c0-0.1,0-0.3,0-0.4
		c0-4.2,3.3-7.7,7.6-7.9L93.3,113.5z"/>
	<path class="st1" d="M94.2,133.2c-6.3,0.3-11.8-4.6-12.1-11c-0.3-6.3,4.6-11.8,11-12.1c6.3-0.3,11.8,4.6,12.1,11
		C105.5,127.5,100.6,132.9,94.2,133.2z M93.2,111.8c-5.4,0.3-9.6,4.9-9.4,10.3c0.3,5.4,4.9,9.6,10.3,9.4c5.4-0.3,9.6-4.9,9.4-10.3
		C103.2,115.8,98.6,111.6,93.2,111.8z"/>
	<path d="M94.2,133.2l0-0.2c-0.2,0-0.4,0-0.5,0c-6,0-11.1-4.8-11.3-10.8c0-0.2,0-0.4,0-0.5c0-6,4.8-11.1,10.8-11.3
		c0.2,0,0.4,0,0.5,0c6,0,11.1,4.8,11.3,10.8c0,0.2,0,0.4,0,0.5c0,6-4.8,11.1-10.8,11.3L94.2,133.2l0,0.2c6.3-0.3,11.2-5.5,11.2-11.7
		c0-0.2,0-0.4,0-0.6c-0.3-6.3-5.5-11.2-11.7-11.2c-0.2,0-0.4,0-0.6,0c-6.3,0.3-11.2,5.5-11.2,11.7c0,0.2,0,0.4,0,0.6
		c0.3,6.3,5.5,11.2,11.7,11.2c0.2,0,0.4,0,0.6,0L94.2,133.2z M93.2,111.8l0-0.2c-5.3,0.2-9.5,4.7-9.5,10c0,0.2,0,0.3,0,0.5
		c0.3,5.3,4.7,9.5,10,9.5c0.2,0,0.3,0,0.5,0c5.3-0.3,9.5-4.7,9.5-10c0-0.2,0-0.3,0-0.5c-0.3-5.3-4.7-9.5-10-9.5c-0.2,0-0.3,0-0.5,0
		h0L93.2,111.8l0,0.2c0.2,0,0.3,0,0.5,0c5.1,0,9.4,4,9.6,9.2c0,0.2,0,0.3,0,0.5c0,5.1-4,9.4-9.2,9.6c-0.2,0-0.3,0-0.5,0
		c-5.1,0-9.4-4-9.6-9.2c0-0.2,0-0.3,0-0.5c0-5.1,4-9.4,9.2-9.6l0,0L93.2,111.8z"/>
	<path class="st6" d="M98,121.5c0.1,2.4-1.7,4.4-4.1,4.5c-2.4,0.1-4.4-1.7-4.5-4.1c-0.1-2.4,1.7-4.4,4.1-4.5
		C95.8,117.3,97.9,119.2,98,121.5z"/>
	<path d="M98,121.5l-0.2,0c0,0.1,0,0.1,0,0.2c0,2.2-1.7,4-3.9,4.1c-0.1,0-0.1,0-0.2,0c-2.2,0-4-1.7-4.1-3.9c0-0.1,0-0.1,0-0.2
		c0-2.2,1.7-4,3.9-4.1l0,0c0.1,0,0.1,0,0.2,0c2.2,0,4,1.7,4.1,3.9L98,121.5l0.2,0c-0.1-2.4-2.1-4.3-4.5-4.3c-0.1,0-0.1,0-0.2,0l0,0
		c-2.4,0.1-4.3,2.1-4.3,4.5c0,0.1,0,0.1,0,0.2c0.1,2.4,2.1,4.3,4.5,4.3c0.1,0,0.1,0,0.2,0c2.4-0.1,4.3-2.1,4.3-4.5
		c0-0.1,0-0.1,0-0.2L98,121.5z"/>
	<path class="st1" d="M97.4,121.6c0.1,2.1-1.5,3.8-3.6,3.9c-2.1,0.1-3.8-1.5-3.9-3.6c-0.1-2.1,1.5-3.8,3.6-3.9
		C95.6,117.9,97.3,119.5,97.4,121.6z"/>
	<path d="M97.4,121.6l-0.2,0c0,0.1,0,0.1,0,0.2c0,1.9-1.5,3.5-3.4,3.6l0,0c-0.1,0-0.1,0-0.2,0c-1.9,0-3.5-1.5-3.6-3.4
		c0-0.1,0-0.1,0-0.2c0-1.9,1.5-3.5,3.4-3.6c0.1,0,0.1,0,0.2,0c1.9,0,3.5,1.5,3.6,3.4L97.4,121.6l0.2,0c-0.1-2.1-1.8-3.7-3.9-3.7
		c-0.1,0-0.1,0-0.2,0c-2.1,0.1-3.7,1.8-3.7,3.9c0,0.1,0,0.1,0,0.2c0.1,2.1,1.8,3.7,3.9,3.7c0.1,0,0.1,0,0.2,0h0
		c2.1-0.1,3.7-1.8,3.7-3.9c0-0.1,0-0.1,0-0.2L97.4,121.6z"/>
</g>
<g>
	<g>
		<path class="st7" d="M87.7,23.6c-0.3,0.2-0.6,0.2-1,0.1c-0.3,0-0.5-0.1-0.8,0.1c-1.9,1.4-3.7,2.8-5.6,4c-1.5,1-3,1.9-4.7,2.6
			c-0.2,0.1-0.3,0.2-0.2,0.4c0.1,2.1,0.2,4.2,0.4,6.2c0.1,1,0.5,2,0.7,3c0.6,2.3,0.7,4.7,0.4,7.1c-0.1,1.4-0.3,2.8-0.4,4.2
			c0,0.3,0.1,0.4,0.4,0.3c1-0.1,1.9-0.3,2.9-0.3c0.5,0,1.1,0.1,1.5,0.3c0.4,0.2,0.8,0.5,0.8,1.1c0,0.5-0.4,1-0.8,1.2
			c-0.6,0.2-1.2,0.3-1.8,0.3c-1.1,0.1-2.2,0.1-3.3,0.1c-1.5,0-2.9,0.2-4.4,0.3c-0.5,0-1,0-1.5,0c-0.2,0-0.3,0-0.2,0.2v0
			c0.2,0.9-0.1,1.3-1.1,1.3c-1.1,0-2.1-0.1-3.2-0.3c-1.7-0.3-3.3-0.4-5-0.6c-1.8-0.2-3.5-0.4-5.3-0.5c-1.5-0.1-2.9-0.3-4.4-0.5
			c-0.8-0.1-1.5-0.4-2-1c-0.2-0.3-0.2-0.7-0.6-0.7c-0.1,0-0.2-0.3,0-0.4c0.2-0.1,0.1-0.3,0.1-0.4c-0.3-1-0.5-2-0.6-3
			c-0.3,0.1-0.5,0.3-0.8,0.4c-2.8,1.3-5.6,1-8.3-0.4c-3.4-1.8-5.4-4.5-5.9-8.3c0-0.1,0-0.2-0.1-0.3c0-1.1,0-2.1,0-3.1
			c0.2-0.5,0.1-1.1,0.2-1.6c0.3-2.1,0.7-4.1,1.2-6.1c0.3-1.5,0.6-3.1,1-4.6c0.1-0.4,0.1-0.9-0.1-1.3c-0.1-0.4,0-0.5,0.4-0.5
			c1.5-0.2,2.9,0.1,4.2,0.7c2.5,1.3,4.3,3.3,5.4,5.9c1,2.4,1.6,4.8,1.9,7.4c0.1,0.8,0.3,1.6,0.6,2.4c0.2,0.4,0.4,1,0.8,1.4
			c0.1-0.8,0.2-1.5,0.3-2.3c0.5-3.4,1.6-6.6,3.2-9.6c0.5-0.9,1.2-1.7,1.8-2.6c0.2-0.3,0.1-0.5-0.1-0.7c-0.1-0.1-0.2-0.1-0.4,0
			c-0.4,0.1-0.8,0.3-1.2,0.4c-0.4,0.2-0.7,0-0.6-0.4c0-0.4,0.1-0.8,0.1-1.2c0-0.3,0-0.4-0.3-0.3c-0.4,0.1-0.8,0.1-1.2,0.2
			c-0.4,0-0.5-0.1-0.4-0.5c0.1-0.4,0.3-0.9,0.5-1.4c0.1-0.2,0-0.3-0.2-0.3c-0.4,0-0.7-0.1-1-0.3c-0.4-0.2-0.5-0.3-0.2-0.7
			c0.7-1.2,1.7-2.3,2.7-3.4c1.2-1.4,2.6-2.7,3.6-4.3c0.2-0.3,0.4-0.6,0.6-0.9c0.2-0.5,0-1-0.2-1.4c-0.4-0.8-0.7-1.6-0.9-2.6
			c-0.4-2.2-0.3-4.4,0.2-6.6c0-0.1,0.1-0.2,0.1-0.4C55.2,1,55.3,0.9,56,1.1c2.2,0.6,3.9,1.8,5.5,3.3c0.9,0.9,1.8,1.8,2.5,3
			c0.1,0.2,0.2,0,0.2,0C65.6,7,67,6.7,68.5,6.5c1.8-0.2,3.6-0.2,5.4,0.6c0.2,0.1,0.3,0,0.4-0.1c0.7-0.7,1.4-1.3,2-1.9
			c1.4-1.3,3-2.1,4.8-2.5c0.1,0,0.2,0,0.2-0.1c0.3-0.2,0.5-0.1,0.6,0.2c0.5,1.2,0.7,2.5,0.6,3.8c-0.1,1.8-0.7,3.4-1.6,4.9
			c-0.2,0.2,0,0.4,0.1,0.5c1.6,1.8,3.3,3.7,4.7,5.7c0.5,0.7,1,1.5,1.4,2.3c0.4,0.7,0.3,0.9-0.6,1.1c0.3,0.4,0.6,0.7,0.8,1.1
			c0.1,0.3,0.3,0.5,0.3,0.7c0,0.1,0.1,0.1,0.2,0.1C87.7,23.2,87.7,23.4,87.7,23.6z M37.1,46.9C37.1,46.9,37.1,46.9,37.1,46.9
			C37.1,46.9,37.1,46.9,37.1,46.9c-0.1-0.9-0.3-1.7-0.2-2.6c0.2-1.8,0.9-3.4,2.2-4.8c0.8-0.9,1.8-1.5,2.9-2c1.2-0.5,2.5-1.1,3.9-1.1
			c0.3,0,0.4-0.1,0.3-0.4c-0.4-1.7-0.7-3.3-1.3-5c0-0.2-0.1-0.3-0.3-0.3c-1.5,0-2.9,0-4.4,0.6c-1.3,0.5-2.5,1.2-3.5,2.2
			c-0.9,0.9-1.8,1.9-2.4,3c-0.3,0.6-0.7,1.1-0.8,1.6c-0.1,1.1-0.1,2.1,0.1,3.2c0.3,1.5,1,2.9,2,4.1C36.1,46,36.5,46.6,37.1,46.9z
			 M84.6,17.6c-0.5-0.8-1.2-1.6-1.8-2.3c-0.4-0.5-0.8-1-1.2-1.5c-0.8-1-1.6-1.9-2.7-2.6c-1-0.6-1.9-1.2-2.8-1.8
			c-1.1-0.7-2.2-1.5-3.5-1.8c-0.4-0.1-0.9-0.3-1.4-0.2c0.4,0.7,0.5,1.3,0.6,2.1c0,0.2,0.1,0.4-0.2,0.5c-0.3,0-0.4-0.2-0.4-0.4
			c-0.1-0.7-0.3-1.4-0.7-1.9c-0.1-0.1-0.1-0.3-0.4-0.3c-0.7,0-1.5,0-2.2,0.1c0,0,0,0.1,0,0.1c0.9,1.3,1.4,2.8,1.8,4.3
			c0.1,0.2,0.1,0.4-0.2,0.5c-0.3,0.1-0.4-0.1-0.4-0.3c0-0.1-0.1-0.3-0.1-0.4c-0.4-1.3-0.9-2.6-1.7-3.8c-0.1-0.2-0.3-0.3-0.5-0.2
			c-0.4,0.1-0.8,0.2-1.2,0.3c-0.3,0-0.4,0.1-0.2,0.4C65.7,8.5,65.9,8.7,66,9c0.1,0.2,0.1,0.4,0,0.5c-0.2,0.1-0.4,0-0.5-0.1
			c-0.2-0.3-0.4-0.6-0.6-0.9c-0.2-0.3-0.4-0.3-0.6-0.2c-1.2,0.4-2.4,1-3.6,1.5c-1.8,0.9-3.5,2.1-4.7,3.7c-1.3,1.6-2.6,3.1-3.9,4.6
			c-0.9,1-1.8,2-2.6,3.2c-0.1,0.1-0.1,0.3,0.2,0.3c0.4,0.1,0.7,0,1.1,0c0.3,0,0.4,0.2,0.3,0.4c-0.4,0.5-0.3,1.1-0.6,1.5
			c0.2,0.1,0.4,0,0.6,0c0.4,0,0.7-0.1,1.1,0c0.3,0.1,0.4,0.3,0.2,0.4c-0.3,0.3-0.2,0.7-0.3,1c-0.1,0.2,0,0.3,0.3,0.2
			c0.4-0.2,0.9-0.3,1.4-0.3c0.2,0,0.3,0,0.4,0.2c0.3,0.3,0.6,0.7,1,1c1.7,1.2,3.6,2,5.5,2.6c2.3,0.7,4.7,1.1,7.1,1.6
			c1.6,0.4,3.2,0.4,4.8,0.2c2.3-0.4,4.3-1.3,6.3-2.5c2.3-1.4,4.4-3.1,6.6-4.7c0.1,0,0.1-0.1,0.2-0.2c0-0.2,0.2-0.3,0.4-0.3
			c0.3,0,0.6,0,0.9,0.1c0-0.3-0.1-0.4-0.2-0.6c-0.4-0.6-0.8-1-1.3-1.4c-0.1-0.1-0.2-0.2-0.2-0.4s0.2-0.2,0.4-0.3c0.2,0,0.4,0,0.6,0
			s0.3-0.1,0.1-0.3c-0.2-0.4-0.4-0.7-0.6-1.1C85.4,18.6,85.2,18,84.6,17.6z M75.9,51.2c0.3-1.9,0.5-3.9,0.5-5.9
			c0-1.8-0.2-3.5-0.6-5.2c-0.1,0.1-0.1,0.2-0.1,0.4c0,0.9-0.1,1.8-0.3,2.7c-0.1,0.8-0.3,1.6-0.5,2.3c-0.1,0.4-0.3,0.8-0.8,1
			c-0.7,0.3-1.3,0-1.7-0.8C72.1,44.9,72,44,72,43.2c0-1.6-0.2-3.1-0.4-4.7c-0.2-1.5-0.4-2.9-0.5-4.4c0-0.2,0-0.4,0.3-0.5
			c0.3,0,0.4,0.2,0.4,0.4c0.1,0.9,0.2,1.7,0.3,2.6c0,0.5,0.1,1,0.2,1.5c0.4,1.9,0.4,3.9,0.5,5.8c0,0.6,0.1,1.1,0.5,1.6
			c0.3,0.3,0.7,0.2,1-0.1c0.2-0.2,0.3-0.5,0.3-0.8c0.3-1.1,0.4-2.2,0.5-3.4c0.1-1.5,0.1-3,0.1-4.5c0-0.2,0-0.4,0-0.7
			c-0.1-1.6-0.1-3.3-0.2-4.8c0-0.5,0-0.5-0.4-0.4c-1.1,0.3-2.2,0.5-3.4,0.5c-1.4,0-2.8-0.3-4.2-0.5c-4.3-0.9-8.5-1.7-12.2-4.4
			c-0.1-0.1-0.2-0.1-0.3,0c-0.5,0.7-1.1,1.4-1.5,2.2c-1.7,2.9-2.6,5.9-3.3,9.1c-0.4,2.2-0.7,4.5-0.9,6.8c-0.2,2.4-0.1,4.8,0.6,7.2
			c0.1,0.2,0.1,0.5,0.3,0.7c0.1,0.7,0.6,1,1.2,1.2c0.7,0.3,1.4,0.4,2.1,0.3c1.9,0,3.7,0.4,5.5,0.5c1.5,0.2,3.1,0.3,4.7,0.4
			c0.9,0.1,1.7,0.2,2.6,0.3c1.2,0.1,2.4,0.5,3.6,0.2c0.3,0,0.3-0.2,0.3-0.4c-0.1-0.4-0.4-0.6-0.7-0.7c-1.1-0.5-2.3-0.4-3.5-0.6
			c-1.1-0.2-1.1,0.1-1.1-1.1c0-0.1,0.1-0.1,0.1-0.2c0.3-1.4,0.4-2.8,0.2-4.3c-0.1-1.6-0.6-3.1-1.4-4.5c-0.4-0.7-1-1.4-1.6-1.9
			c-0.1-0.1-0.2-0.3-0.1-0.4s0.3-0.2,0.5,0c0.1,0.1,0.2,0.1,0.3,0.2c1.5,1.5,2.4,3.2,2.8,5.2c0.4,2,0.3,4-0.1,6c0,0.3,0,0.4,0.3,0.4
			c1.1,0.1,2.2,0.1,3.3,0.4c0.1,0,0.2,0,0.3,0c0.9-0.2,1.6-0.6,2.4-1.1c0.6-0.4,1.2-0.7,1.4-1.5c0-0.2,0.2-0.3,0.4-0.2
			c0.2,0,0.2,0.2,0.2,0.4c0,0.2-0.1,0.4-0.2,0.6c-0.8,1.2-2.1,1.7-3.3,2.3c0,0.1,0.1,0.1,0.1,0.1c1,0,2.1,0,3.1-0.1
			c1.5-0.2,2.9-0.3,4.4-0.3c0.9,0,1.8,0,2.6,0c0.4,0,0.7-0.1,1.1-0.2c0.3-0.1,0.5-0.3,0.5-0.7c0-0.3-0.2-0.4-0.4-0.5
			c-0.3-0.1-0.6-0.2-0.9-0.2c-1.1,0-2.3,0.1-3.4,0.3c-0.3,0-0.5,0-0.7-0.3C75.7,51.8,76,51.5,75.9,51.2z M43.4,49.5
			c-0.5-0.8-0.7-1.6-0.7-2.5c0.2-2.9,1.4-5.4,4.1-6.9c0.2-0.1,0.2-0.2,0.1-0.4c-0.3-0.6-0.4-1.3-0.5-1.9c-0.1-0.7-0.2-0.7-0.9-0.7
			c-0.1,0-0.2,0-0.4,0c-1.3,0.2-2.5,0.7-3.6,1.4c-2.7,1.5-4.4,4.6-3.9,7.6c0.2,1.2,0.6,2.2,1.9,2.6c0,0,0,0,0.1,0
			C40.8,49.1,42,49.5,43.4,49.5z M33.6,36.4c0,0,0.1-0.1,0.1-0.2c1-1.8,2.3-3.3,4.2-4.4c1.2-0.7,2.4-1.4,3.7-1.5
			c0.8-0.1,1.7-0.1,2.5-0.1c0.3,0,0.3-0.1,0.2-0.3c-0.6-1.4-1.4-2.7-2.5-3.9c-0.4-0.4-0.7-0.5-1.3-0.4c-0.3,0-0.6,0-0.8,0.1
			c-2.7,0.7-4.3,2.8-5.2,5.3C33.8,32.7,33.7,34.5,33.6,36.4z M43.3,47.1c0,0.6,0.1,1.2,0.4,1.8c0.3,0.4,0.5,0.6,1.1,0.5
			c1-0.2,1.9-0.5,2.8-1.1c0.2-0.1,0.3-0.2,0.3-0.4c0-1.1,0-2.2,0.1-3.3c0.1-0.7,0.2-1.5,0.2-2.3c0-0.3,0.2-0.6-0.1-0.8
			c-0.2-0.2-0.4-0.4-0.6-0.7c-0.1-0.2-0.2-0.2-0.4-0.1c-0.5,0.3-1,0.7-1.5,1.1C44,43.2,43.5,45.1,43.3,47.1z M54.7,6.2
			c0,0.9,0.1,1.8,0.4,2.7c0.3,1,0.7,2,1.1,3c0.1,0.3,0.2,0.1,0.3,0c0.3-0.2,0.6-0.4,0.7-0.7c0.1-0.2-0.1-0.5-0.2-0.7
			c0-0.2-0.1-0.4-0.2-0.7c-0.4-1.8-0.8-3.5-0.3-5.3c0.1-0.4,0.3-0.5,0.7-0.3c0.3,0.2,0.5,0.3,0.8,0.4c1.5,0.7,2.5,1.8,3.4,3.1
			c0.5,0.7,0.5,0.7,1.2,0.4c0.5-0.2,0.6-0.3,0.2-0.8c-0.9-1.1-1.8-2.2-2.9-3.1c-1.2-1-2.4-1.8-3.9-2.2c-0.7-0.2-0.8-0.1-0.9,0.5
			C54.9,3.7,54.8,5,54.7,6.2z M81.9,6.3c0-0.9-0.1-1.7-0.4-2.6c-0.1-0.4-0.4-0.4-0.7-0.4c-0.8,0.2-1.7,0.5-2.4,1
			c-1.2,0.8-2.2,1.8-3.3,2.8c-0.6,0.5-0.5,0.5,0.1,0.9c0.3,0.2,0.4,0.1,0.5-0.1c0.6-1,1.5-1.6,2.5-2.2c0.5-0.3,1.1-0.3,1.5-0.7
			C80,5,80.5,5.2,80.5,5.4c0,0.4,0.1,0.7,0.1,1.1c0,1.4-0.3,2.6-1.1,3.8c0,0.1-0.2,0.2,0,0.3c0.3,0.1,0.4,0.4,0.5,0.6
			c0.2,0.2,0.3,0.2,0.4,0C81.4,9.7,81.9,8.1,81.9,6.3z M40.3,25c-0.8-0.7-3.3-1.5-4.3-1.4c-0.2,0-0.3,0.1-0.2,0.3
			c0.1,1-0.2,1.9-0.5,2.9c-0.2,0.6-0.3,1.2-0.3,1.8C36.4,26.8,38,25.3,40.3,25z M57.8,10.8c0.7-0.4,0.7-0.4,0.4-1
			c-0.3-0.8-0.3-1.7-0.3-2.6c0-0.2,0-0.3,0.2-0.4c0.2-0.1,0.3,0,0.4,0.1c0.7,0.5,1.3,1.1,1.9,1.8c0.3,0.4,0.6,0.1,0.8,0
			c0.3-0.2-0.1-0.3-0.1-0.4c-0.1-0.2-0.2-0.3-0.3-0.4c-0.8-1.2-1.8-2.2-3.1-2.7C57.1,4.9,57.1,5,57,5.4c-0.1,0.6,0,1.1,0,1.7
			C57,8.4,57.4,9.6,57.8,10.8z M79.9,6.8c0-0.2,0-0.4,0-0.7c0-0.2-0.1-0.3-0.3-0.2c-1.3,0.5-2.5,1.2-3.3,2.5c-0.1,0.1-0.2,0.2,0,0.4
			c0.2,0.1,0.3,0.1,0.4,0c0.4-0.4,0.9-0.7,1.2-1.2c0.1-0.2,0.3-0.1,0.5-0.1c0.2,0,0.2,0.2,0.2,0.4c0.1,0.7,0,1.4-0.3,2
			c-0.1,0.2-0.1,0.3,0.1,0.4c0.3,0.1,0.3,0,0.4-0.2C79.6,9.1,79.9,8,79.9,6.8z M58.5,7.9c0,0.6,0,1,0.2,1.5c0.2,0.7,0.2,0.7,0.7,0.3
			c0.2-0.1,0.4-0.2,0.5-0.4C59.6,8.9,59.1,8.4,58.5,7.9z M78.1,8.3c-0.3,0.3-0.5,0.5-0.8,0.7s-0.3,0.4,0,0.5c0,0,0.1,0.1,0.2,0.1
			c0.2,0.1,0.3,0.1,0.4-0.1C78,9.1,78.1,8.8,78.1,8.3z"/>
		<path class="st8" d="M72,36.7c-0.1-0.9-0.2-1.7-0.3-2.6c0-0.2-0.1-0.4-0.4-0.4c-0.3,0-0.3,0.2-0.3,0.5c0.2,1.5,0.3,2.9,0.5,4.4
			c0.2,1.5,0.4,3.1,0.4,4.7c0,0.9,0.1,1.7,0.5,2.5c0.4,0.8,1,1.1,1.7,0.8c0.5-0.2,0.7-0.6,0.8-1c0.2-0.7,0.4-1.5,0.5-2.3
			c0.1-0.9,0.3-1.8,0.3-2.7c0-0.1,0-0.2,0.1-0.4c0.4,1.8,0.6,3.5,0.6,5.2c0,2-0.3,3.9-0.5,5.9c-1.1,0.1-2.1,0.3-3.1,0.4
			c0-0.2,0.1-0.4,0.2-0.6c0-0.2,0-0.3-0.2-0.4c-0.2,0-0.4,0-0.4,0.2c-0.2,0.7-0.7,1.1-1.4,1.5c-0.7,0.5-1.5,0.9-2.4,1.1
			c-0.1,0-0.2,0-0.3,0c-1.1-0.3-2.2-0.3-3.3-0.4c-0.3,0-0.4-0.1-0.3-0.4c0.4-2,0.5-4,0.1-6c-0.4-2-1.3-3.8-2.8-5.2
			c-0.1-0.1-0.2-0.2-0.3-0.2c-0.2-0.1-0.4-0.1-0.5,0c-0.1,0.2,0,0.3,0.1,0.4c0.6,0.6,1.2,1.2,1.6,1.9c0.8,1.4,1.3,2.9,1.4,4.5
			c0.1,1.4,0,2.9-0.2,4.3c0,0.1,0,0.1-0.1,0.2c-0.1,0-0.2,0-0.3,0c-1.7,0.2-3.3,0.3-5,0c-3.1-0.5-6.2-0.3-9.4-0.2
			c-0.2-0.2-0.2-0.4-0.3-0.7c-0.7-2.3-0.7-4.7-0.6-7.2c0.2-2.3,0.4-4.6,0.9-6.8c0.6-3.2,1.6-6.3,3.3-9.1c0.4-0.7,1.1-1.4,1.5-2.2
			c0.1-0.1,0.2-0.1,0.3,0c3.6,2.6,7.9,3.5,12.2,4.4c1.4,0.3,2.8,0.5,4.2,0.5c1.2,0,2.3-0.2,3.4-0.5c0.5-0.1,0.5-0.1,0.5,0.4
			c0.1,1.6,0.1,3.3,0.2,4.8c0,0.2,0,0.4,0,0.7c-0.2,0-0.4,0-0.5,0C73.8,36.7,72.9,36.7,72,36.7z M68.5,36.9
			c-1.4-0.3-2.7-0.4-4.1-0.2c-0.3-0.8-0.5-1.7-0.6-2.6c0-0.2-0.1-0.4-0.4-0.4c-0.2,0-0.3,0.2-0.3,0.5c0.1,0.3,0.1,0.7,0.2,1
			c0.8,3.2,1.8,6.4,2.4,9.7c0.1,0.6,0.3,1.1,0.8,1.5c1,0.8,2.2,0.5,2.5-0.7c0.1-0.5,0.1-1,0.2-1.5c0.3-2.6,0.3-5.3,0-7.9
			c-0.1-0.7-0.2-1.4-0.5-2c-0.1-0.2-0.3-0.3-0.5-0.2c-0.3,0.1-0.2,0.3-0.1,0.4C68.4,35.3,68.6,36.1,68.5,36.9z"/>
		<path class="st8" d="M84.6,17.6c0.5,0.4,0.8,1,1.1,1.5c0.2,0.4,0.4,0.7,0.6,1.1c0.1,0.2,0,0.3-0.1,0.3c-0.2,0-0.4,0-0.6,0
			s-0.3,0.1-0.4,0.3c0,0.2,0,0.3,0.2,0.4c0.5,0.4,1,0.9,1.3,1.4c0.1,0.2,0.2,0.3,0.2,0.6c-0.3,0-0.6,0-0.9-0.1c-0.2,0-0.4,0-0.4,0.3
			c0,0.1-0.1,0.2-0.2,0.2c-2.2,1.5-4.3,3.3-6.6,4.7c-1.9,1.2-4,2.2-6.3,2.5c-1.6,0.3-3.2,0.1-4.8-0.2c-2.4-0.5-4.8-0.9-7.1-1.6
			c-2-0.6-3.9-1.4-5.5-2.6c-0.4-0.3-0.6-0.7-1-1C54.1,25,53.9,25,53.8,25c-0.5,0-0.9,0.1-1.4,0.3c-0.2,0.1-0.3,0-0.3-0.2
			c0.1-0.4,0-0.7,0.3-1c0.1-0.1,0-0.4-0.2-0.4c-0.4-0.1-0.7-0.1-1.1,0c-0.2,0-0.4,0.1-0.6,0c0.3-0.5,0.3-1.1,0.6-1.5
			c0.2-0.2,0-0.4-0.3-0.4c-0.4,0-0.7,0-1.1,0c-0.3,0-0.3-0.1-0.1-0.4c0.7-1.1,1.6-2.2,2.6-3.2c1.4-1.5,2.6-3,3.9-4.6
			s2.9-2.8,4.7-3.7c1.2-0.6,2.4-1.1,3.6-1.5c0.3-0.1,0.5-0.1,0.6,0.2c0.2,0.3,0.4,0.6,0.6,0.9c0.1,0.2,0.3,0.3,0.5,0.1
			c0.2-0.1,0.1-0.3,0-0.5c-0.2-0.3-0.3-0.5-0.5-0.7c-0.2-0.3-0.1-0.4,0.2-0.4c0.4-0.1,0.8-0.2,1.2-0.3c0.2,0,0.4,0,0.5,0.2
			c0.8,1.1,1.3,2.5,1.7,3.8c0,0.1,0.1,0.3,0.1,0.4c0.1,0.2,0.2,0.4,0.4,0.3c0.3-0.1,0.2-0.3,0.2-0.5c-0.5-1.5-1-2.9-1.8-4.3
			c0,0,0-0.1,0-0.1c0.7-0.1,1.5-0.1,2.2-0.1c0.2,0,0.3,0.1,0.4,0.3c0.4,0.6,0.6,1.2,0.7,1.9c0,0.3,0.1,0.4,0.4,0.4
			c0.3,0,0.3-0.3,0.2-0.5c-0.1-0.7-0.3-1.4-0.6-2.1c0.5,0,1,0.1,1.4,0.2c1.3,0.3,2.4,1,3.5,1.8c0.9,0.6,1.8,1.3,2.8,1.8
			c1.1,0.7,1.9,1.6,2.7,2.6c0.4,0.5,0.8,1,1.2,1.5c-0.5-0.1-1.1-0.2-1.7-0.3c-1.8-0.3-3.3,0-4.8,1.1c-0.9,0.6-1.6,1.5-2.4,2.2
			c-0.6,0.6-1.3,1-2.2,1.1c-1,0.1-1.9,0.1-2.9,0c-0.7,0-1.4-0.3-2-0.8c-0.4-0.3-0.7-0.6-1-1c-0.7-0.6-1.3-1.2-2.2-1.5
			c-1.9-0.6-3.7-0.3-5.5,0.5c-1.6,0.7-2.9,1.8-4.1,3.2c-0.4,0.5-0.5,0.5-0.2,1.1c1,2.1,2.6,3.4,4.7,4.2c1.2,0.4,2.5,0.5,3.7-0.1
			c0.7-0.4,1.5-0.9,2.1-1.5c0.4-0.4,0.9-0.9,1.4-1.3c1.1-0.8,2.4-0.7,3.3,0.3c-0.2,0.1-0.4,0.1-0.5,0.2c-0.5,0.2-1,0.6-1,1.2
			c0,0.6,0.4,0.9,0.9,1.2c0.5,0.3,1.1,0.4,1.6,0.5c0.2,0,0.3,0,0.3,0.3c0,0.7,0.1,1.5,0.1,2.2c0,0.2-0.1,0.3-0.3,0.3
			c-0.4,0-0.7-0.1-1-0.3c-0.3-0.2-0.5-0.4-0.8-0.5c-0.2-0.1-0.3-0.1-0.4,0c-0.1,0.1-0.1,0.3,0,0.4c1,0.8,2,1.3,3.3,0.8
			c0.7-0.3,1.4-0.5,1.8-1.1c0.2-0.2,0.3-0.4,0-0.6c-0.2-0.2-0.4,0-0.5,0.1c-0.4,0.4-0.8,0.7-1.3,0.8c-0.2,0.1-0.3,0-0.3-0.2
			c0-0.4,0-0.9-0.1-1.3c0-0.3-0.1-0.6,0-0.9c0.1-0.2,0.5-0.2,0.7-0.3c0,0,0.1,0,0.2-0.1c0.8-0.4,1.2-1.4,0.8-2.2
			c-0.3-0.5-0.7-0.8-1.2-0.7c0.3-0.7,0.8-1,1.5-1.1c1-0.1,1.8,0.4,2.6,0.8c0.6,0.3,1.2,0.7,1.9,0.8c0.9,0.2,1.8,0,2.6-0.1
			C82.9,22.3,84.7,20.2,84.6,17.6z"/>
		<path class="st9" d="M69.1,22.4c-0.8-1-2.1-1.1-3.3-0.3c-0.5,0.4-0.9,0.9-1.4,1.3c-0.6,0.6-1.3,1.1-2.1,1.5
			c-1.2,0.6-2.5,0.5-3.7,0.1c-2.1-0.7-3.7-2.2-4.7-4.2c-0.3-0.6-0.3-0.7,0.2-1.1c1.2-1.3,2.5-2.5,4.1-3.2c1.8-0.7,3.6-1.1,5.5-0.5
			c0.9,0.3,1.5,0.9,2.2,1.5c0.4,0.3,0.7,0.7,1,1c0.6,0.4,1.3,0.7,2,0.8c1,0,1.9,0.1,2.9,0c0.9-0.1,1.5-0.5,2.2-1.1
			c0.8-0.7,1.5-1.5,2.4-2.2c1.5-1,3.1-1.3,4.8-1.1c0.6,0.1,1.1,0.2,1.7,0.3c0.7,0.7,1.3,1.5,1.8,2.3c0.1,2.7-1.7,4.7-4.4,5.1
			c-0.9,0.1-1.8,0.3-2.6,0.1c-0.7-0.1-1.3-0.4-1.9-0.8c-0.8-0.4-1.6-0.9-2.6-0.8c-0.7,0-1.2,0.4-1.5,1.1
			C70.7,22.3,69.8,22.1,69.1,22.4z M60.2,22.5c1.1,0.1,1.9-1,1.8-1.8c0-0.9-0.7-1.8-1.9-1.8c-1.1,0-1.8,0.8-1.8,1.8
			C58.3,21.7,59.2,22.5,60.2,22.5z M77.7,19.7c-0.1,1.2,0.9,1.8,1.8,1.8c1.1,0,1.8-0.7,1.8-1.8c0-1.1-0.7-1.8-1.8-1.8
			C78.4,17.9,77.7,18.6,77.7,19.7z"/>
		<path class="st9" d="M37.1,46.9c-0.6-0.4-1-0.9-1.5-1.4c-1-1.2-1.7-2.6-2-4.1c-0.2-1.1-0.2-2.1-0.1-3.2c0-0.6,0.4-1.1,0.7-1.6
			c0.7-1.1,1.5-2.2,2.4-3c1-1,2.2-1.7,3.5-2.2c1.4-0.6,2.9-0.5,4.4-0.6c0.2,0,0.3,0,0.3,0.3c0.5,1.6,0.9,3.3,1.3,5
			c0,0.3,0,0.4-0.3,0.4c-1.4,0-2.6,0.5-3.9,1.1c-1.1,0.5-2.1,1.1-2.9,2c-1.2,1.3-2,2.9-2.2,4.8C36.8,45.2,37,46,37.1,46.9L37.1,46.9
			z"/>
		<path class="st8" d="M43.4,49.5c-1.4,0-2.6-0.4-3.8-0.9c0,0,0,0-0.1,0c-1.3-0.4-1.7-1.4-1.9-2.6c-0.4-2.9,1.2-6.1,3.9-7.6
			c1.1-0.6,2.4-1.1,3.6-1.4c0.1,0,0.2,0,0.4,0c0.7,0,0.8,0.1,0.9,0.7c0.1,0.7,0.3,1.3,0.5,1.9c0.1,0.2,0,0.3-0.1,0.4
			c-2.7,1.5-3.9,3.9-4.1,6.9C42.7,47.8,42.8,48.7,43.4,49.5z"/>
		<path class="st8" d="M33.6,36.4c0.1-1.8,0.2-3.7,0.9-5.4c1-2.5,2.5-4.5,5.2-5.3c0.3-0.1,0.5-0.1,0.8-0.1c0.5-0.1,0.9,0.1,1.3,0.4
			c1.1,1.1,1.9,2.4,2.5,3.9c0.1,0.3,0,0.3-0.2,0.3c-0.8,0-1.7,0-2.5,0.1c-1.4,0.1-2.6,0.8-3.7,1.5c-1.8,1.1-3.2,2.5-4.2,4.4
			C33.7,36.3,33.7,36.3,33.6,36.4z"/>
		<path class="st9" d="M49.4,52.5c3.1-0.1,6.2-0.3,9.4,0.2c1.6,0.3,3.3,0.1,5,0c0.1,0,0.2,0,0.3,0c0,1.3,0,1,1.1,1.1
			c1.1,0.2,2.4,0.1,3.5,0.6c0.4,0.1,0.6,0.4,0.7,0.7c0.1,0.2,0,0.4-0.3,0.4c-1.2,0.3-2.4-0.1-3.6-0.2c-0.9-0.1-1.7-0.2-2.6-0.3
			c-1.5-0.1-3.1-0.2-4.7-0.4c-1.8-0.2-3.7-0.6-5.5-0.5c-0.7,0-1.4,0-2.1-0.3C50.1,53.5,49.5,53.2,49.4,52.5z"/>
		<path class="st9" d="M43.3,47.1c0.2-2,0.7-4,2.3-5.4c0.4-0.4,0.9-0.7,1.5-1.1c0.2-0.1,0.3-0.1,0.4,0.1c0.2,0.2,0.4,0.4,0.6,0.7
			c0.3,0.3,0.1,0.6,0.1,0.8c0,0.7-0.1,1.5-0.2,2.3c-0.1,1.1-0.1,2.2-0.1,3.3c0,0.2-0.1,0.4-0.3,0.4c-0.8,0.6-1.8,0.9-2.8,1.1
			c-0.5,0.1-0.8-0.1-1.1-0.5C43.5,48.3,43.3,47.7,43.3,47.1z"/>
		<path class="st9" d="M54.7,6.2c0.1-1.2,0.2-2.5,0.4-3.6C55.2,1.9,55.4,1.8,56,2c1.5,0.5,2.7,1.3,3.9,2.2c1.1,0.9,2,2,2.9,3.1
			c0.4,0.5,0.4,0.6-0.2,0.8c-0.7,0.3-0.7,0.3-1.2-0.4c-0.9-1.3-1.9-2.4-3.4-3.1c-0.3-0.1-0.5-0.2-0.8-0.4c-0.4-0.2-0.5-0.1-0.7,0.3
			c-0.5,1.8-0.1,3.6,0.3,5.3c0,0.2,0.1,0.4,0.2,0.7c0.1,0.3,0.3,0.6,0.2,0.7c-0.1,0.3-0.4,0.5-0.7,0.7c-0.1,0.1-0.2,0.2-0.3,0
			c-0.4-1-0.7-2-1.1-3C54.8,8,54.6,7.1,54.7,6.2z"/>
		<path class="st9" d="M72,36.7c0.9,0,1.8,0,2.6,0.2c0.2,0,0.3,0,0.5,0c0,1.5,0,3-0.1,4.5c-0.1,1.1-0.3,2.3-0.5,3.4
			c0,0.3-0.1,0.5-0.3,0.8c-0.3,0.3-0.7,0.4-1,0.1c-0.5-0.4-0.5-1-0.5-1.6c-0.1-1.9-0.2-3.9-0.5-5.8C72.1,37.7,72.1,37.2,72,36.7z"/>
		<path class="st9" d="M72.8,51.7c1.1-0.1,2.1-0.3,3.1-0.4c0.1,0.3-0.2,0.6,0,0.9c0.2,0.3,0.4,0.4,0.7,0.3c1.1-0.1,2.2-0.3,3.4-0.3
			c0.3,0,0.7,0,0.9,0.2c0.2,0.1,0.5,0.2,0.4,0.5s-0.2,0.6-0.5,0.7c-0.4,0.1-0.7,0.2-1.1,0.2c-0.9,0-1.8,0-2.6,0
			c-1.5,0-2.9,0.2-4.4,0.3c-1,0.1-2.1,0.1-3.1,0.1c0,0-0.1,0-0.1-0.1C70.7,53.4,72,52.8,72.8,51.7z"/>
		<path class="st9" d="M81.9,6.3c0,1.8-0.5,3.4-1.5,4.8c-0.1,0.2-0.3,0.3-0.4,0c-0.2-0.2-0.3-0.4-0.5-0.6c-0.1-0.1,0-0.2,0-0.3
			c0.7-1.1,1.1-2.4,1.1-3.8c0-0.4-0.2-0.7-0.1-1.1c0-0.2-0.4-0.5-0.6-0.4c-0.4,0.4-1,0.4-1.5,0.7c-1,0.5-1.8,1.2-2.5,2.2
			c-0.1,0.3-0.3,0.3-0.5,0.1c-0.7-0.4-0.7-0.4-0.1-0.9c1.1-1,2.1-2,3.3-2.8c0.7-0.5,1.6-0.8,2.4-1c0.3-0.1,0.5,0,0.7,0.4
			C81.8,4.6,81.9,5.4,81.9,6.3z"/>
		<path class="st9" d="M40.3,25c-2.4,0.3-4,1.8-5.3,3.6c0-0.6,0.1-1.2,0.3-1.8c0.3-0.9,0.6-1.8,0.5-2.9c0-0.2,0-0.3,0.2-0.3
			C37.1,23.5,39.5,24.3,40.3,25z"/>
		<path class="st8" d="M57.8,10.8C57.4,9.6,57,8.4,57,7.1c0-0.6-0.1-1.1,0-1.7C57,5,57.1,4.9,57.5,5.1c1.3,0.6,2.3,1.6,3.1,2.7
			C60.7,8,60.9,8.2,61,8.3c0.1,0.1,0.4,0.3,0.1,0.4c-0.2,0.2-0.5,0.4-0.8,0c-0.6-0.6-1.2-1.2-1.9-1.8c-0.1-0.1-0.2-0.2-0.4-0.1
			c-0.1,0.1-0.2,0.2-0.2,0.4c0,0.9,0.1,1.7,0.3,2.6C58.4,10.4,58.4,10.4,57.8,10.8z"/>
		<path class="st8" d="M79.9,6.8c0,1.2-0.3,2.3-1,3.2c-0.1,0.1-0.1,0.3-0.4,0.2c-0.3-0.1-0.2-0.3-0.1-0.4c0.3-0.6,0.3-1.3,0.3-2
			c0-0.2,0-0.3-0.2-0.4c-0.2,0-0.4,0-0.5,0.1c-0.4,0.4-0.9,0.7-1.2,1.2c-0.1,0.1-0.2,0.2-0.4,0c-0.2-0.1-0.1-0.3,0-0.4
			c0.8-1.2,1.9-2,3.3-2.5c0.2-0.1,0.3,0,0.3,0.2C79.9,6.4,79.9,6.6,79.9,6.8z"/>
		<path class="st10" d="M58.5,7.9c0.5,0.5,1,1,1.5,1.5c-0.2,0.1-0.4,0.2-0.5,0.4c-0.6,0.4-0.6,0.4-0.7-0.3
			C58.6,8.9,58.5,8.4,58.5,7.9z"/>
		<path class="st10" d="M78.1,8.3c0,0.5-0.1,0.8-0.2,1.2c-0.1,0.2-0.2,0.3-0.4,0.1c0,0-0.1-0.1-0.2-0.1c-0.3-0.1-0.3-0.3,0-0.5
			C77.6,8.8,77.8,8.6,78.1,8.3z"/>
		<path class="st9" d="M37.1,46.9C37.1,46.9,37.1,46.9,37.1,46.9C37.1,46.9,37.1,46.9,37.1,46.9L37.1,46.9z"/>
		<path class="st9" d="M64.4,36.7c1.4-0.2,2.8,0,4.1,0.2c0,0.1,0.1,0.2,0.1,0.3c0,1.4,0.3,2.7,0.2,4.1c-0.1,1.2-0.2,2.5-0.3,3.7
			c0,0.8-0.4,1-0.9,1.1c-0.6,0.1-0.9-0.5-1.2-1.1c-0.2-0.4-0.3-1-0.4-1.5C65.6,41.3,65.1,38.9,64.4,36.7z"/>
		<path class="st11" d="M64.4,36.7c0.7,2.3,1.2,4.6,1.6,6.9c0.1,0.5,0.2,1,0.4,1.5c0.3,0.6,0.6,1.2,1.2,1.1c0.6,0,0.9-0.3,0.9-1.1
			c0.1-1.2,0.2-2.5,0.3-3.7c0.1-1.4-0.2-2.8-0.2-4.1c0-0.1,0-0.2-0.1-0.3c0-0.8-0.1-1.7-0.4-2.5C68,34.2,68,34.1,68.2,34
			s0.4,0,0.5,0.2c0.3,0.7,0.4,1.3,0.5,2c0.3,2.6,0.3,5.3,0,7.9c0,0.5,0,1.1-0.2,1.5c-0.4,1.3-1.5,1.5-2.5,0.7
			c-0.5-0.4-0.7-0.9-0.8-1.5c-0.6-3.3-1.6-6.5-2.4-9.7c-0.1-0.3-0.1-0.7-0.2-1c0-0.3,0-0.4,0.3-0.5c0.3,0,0.3,0.2,0.4,0.4
			C64,35,64.1,35.9,64.4,36.7z"/>
		<path class="st11" d="M69.1,22.4c0.8-0.3,1.7-0.1,2.5-0.2c0.5-0.1,1,0.2,1.2,0.7c0.4,0.8,0,1.7-0.8,2.2c0,0-0.1,0-0.2,0.1
			c-0.2,0.1-0.6,0-0.7,0.3c-0.1,0.3,0,0.6,0,0.9c0,0.4,0,0.9,0.1,1.3c0,0.3,0.1,0.3,0.3,0.2c0.5-0.2,0.9-0.4,1.3-0.8
			c0.1-0.1,0.3-0.4,0.5-0.1s0.1,0.4,0,0.6c-0.5,0.5-1.2,0.8-1.8,1.1c-1.3,0.5-2.3,0-3.3-0.8c-0.1-0.1-0.2-0.3,0-0.4s0.3-0.2,0.4,0
			c0.3,0.2,0.5,0.4,0.8,0.5c0.3,0.2,0.7,0.3,1,0.3c0.2,0,0.3,0,0.3-0.3c0-0.7-0.1-1.5-0.1-2.2c0-0.2-0.1-0.3-0.3-0.3
			c-0.6,0-1.1-0.2-1.6-0.5c-0.4-0.3-0.9-0.6-0.9-1.2c0-0.6,0.5-0.9,1-1.2C68.7,22.5,68.9,22.5,69.1,22.4z"/>
		<path class="st11" d="M60.2,22.5c-1.1,0-1.9-0.7-1.8-1.8c0-1.1,0.7-1.8,1.8-1.8c1.2,0,1.8,0.9,1.9,1.8
			C62.1,21.5,61.2,22.6,60.2,22.5z"/>
		<path class="st11" d="M77.7,19.7c0-1.1,0.7-1.8,1.8-1.8c1.1,0,1.8,0.7,1.8,1.8c0,1.1-0.7,1.8-1.8,1.8
			C78.6,21.5,77.6,20.9,77.7,19.7z"/>
	</g>
</g>
</svg>
